<svg width="1226" height="293" viewBox="0 0 1226 293" fill="none" xmlns="http://www.w3.org/2000/svg">
<path d="M0 2.35814L1226 1V293H0V2.35814Z" fill="url(#paint0_radial)"/>
<g clip-path="url(#clip0)">
<g opacity="0.5">
<path opacity="0.5" d="M964.409 292L1163 191.203V186.655L955.493 292H964.409Z" fill="white" fill-opacity="0.5"/>
<path opacity="0.5" d="M1025.37 292L1163 222.134V217.622L1016.45 292H1025.37Z" fill="white" fill-opacity="0.5"/>
<path opacity="0.5" d="M1005.06 292L1163 211.836V207.287L996.142 292H1005.06Z" fill="white" fill-opacity="0.5"/>
<path opacity="0.5" d="M883.146 292L1163 149.938V145.426L874.193 292H883.146Z" fill="white" fill-opacity="0.5"/>
<path opacity="0.5" d="M944.102 292L1163 180.869V176.356L935.186 292H944.102Z" fill="white" fill-opacity="0.5"/>
<path opacity="0.5" d="M903.452 292L1163 160.273V155.725L894.536 292H903.452Z" fill="white" fill-opacity="0.5"/>
<path opacity="0.5" d="M923.795 292L1163 170.571V166.022L914.843 292H923.795Z" fill="white" fill-opacity="0.5"/>
<path opacity="0.5" d="M984.752 292L1163 201.501V196.989L975.8 292H984.752Z" fill="white" fill-opacity="0.5"/>
<path opacity="0.5" d="M1126.97 292L1163 273.733V269.184L1118.06 292H1126.97Z" fill="white" fill-opacity="0.5"/>
<path opacity="0.5" d="M1147.32 292L1163 284.031V279.482L1138.36 292H1147.32Z" fill="white" fill-opacity="0.5"/>
<path opacity="0.5" d="M1163 292V289.816L1158.71 292H1163Z" fill="white" fill-opacity="0.5"/>
<path opacity="0.5" d="M1106.66 292L1163 263.398V258.886L1097.75 292H1106.66Z" fill="white" fill-opacity="0.5"/>
<path opacity="0.5" d="M1066.02 292L1163 242.766V238.254L1057.1 292H1066.02Z" fill="white" fill-opacity="0.5"/>
<path opacity="0.5" d="M1086.36 292L1163 253.1V248.552L1077.41 292H1086.36Z" fill="white" fill-opacity="0.5"/>
<path opacity="0.5" d="M1045.71 292L1163 232.468V227.919L1036.79 292H1045.71Z" fill="white" fill-opacity="0.5"/>
<path opacity="0.5" d="M837 212.272L1163 46.7768V42.2646L837 207.76V212.272Z" fill="white" fill-opacity="0.5"/>
<path opacity="0.5" d="M862.802 292L1163 139.641V135.092L853.886 292H862.802Z" fill="white" fill-opacity="0.5"/>
<path opacity="0.5" d="M837 222.607L1163 57.1116V52.563L837 218.059V222.607Z" fill="white" fill-opacity="0.5"/>
<path opacity="0.5" d="M837 201.974L1163 36.4788V31.9302L837 197.426V201.974Z" fill="white" fill-opacity="0.5"/>
<path opacity="0.5" d="M837 171.008L1163 5.54858V1L837 166.496V171.008Z" fill="white" fill-opacity="0.5"/>
<path opacity="0.5" d="M837 191.64L1163 26.1809V21.6323L837 187.128V191.64Z" fill="white" fill-opacity="0.5"/>
<path opacity="0.5" d="M837 181.342L1163 15.8464V11.2979L837 176.793V181.342Z" fill="white" fill-opacity="0.5"/>
<path opacity="0.5" d="M837 232.905L1163 67.4092V62.897L837 228.356V232.905Z" fill="white" fill-opacity="0.5"/>
<path opacity="0.5" d="M837 284.468L1163 119.009V114.46L837 279.956V284.468Z" fill="white" fill-opacity="0.5"/>
<path opacity="0.5" d="M837 243.203L1163 77.7434V73.1948L837 238.69V243.203Z" fill="white" fill-opacity="0.5"/>
<path opacity="0.5" d="M837 292H842.495L1163 129.307V124.794L837 290.254V292Z" fill="white" fill-opacity="0.5"/>
<path opacity="0.5" d="M837 274.169L1163 108.674V104.162L837 269.621V274.169Z" fill="white" fill-opacity="0.5"/>
<path opacity="0.5" d="M837 263.835L1163 98.3762V93.8276L837 259.323V263.835Z" fill="white" fill-opacity="0.5"/>
<path opacity="0.5" d="M837 253.538L1163 88.042V83.5298L837 248.989V253.538Z" fill="white" fill-opacity="0.5"/>
</g>
</g>
<g clip-path="url(#clip1)">
<path d="M943 163.174L617 0" stroke="white" stroke-opacity="0.69" stroke-width="2" stroke-dasharray="1 40"/>
<path d="M943 178.823L617 15.6494" stroke="white" stroke-opacity="0.69" stroke-width="2" stroke-dasharray="1 40"/>
<path d="M943 194.473L617 31.2993" stroke="white" stroke-opacity="0.69" stroke-width="2" stroke-dasharray="1 40"/>
<path d="M943 210.123L617 46.9487" stroke="white" stroke-opacity="0.69" stroke-width="2" stroke-dasharray="1 40"/>
<path d="M943 225.773L617 62.5986" stroke="white" stroke-opacity="0.69" stroke-width="2" stroke-dasharray="1 40"/>
<path d="M943 241.422L617 78.248" stroke="white" stroke-opacity="0.69" stroke-width="2" stroke-dasharray="1 40"/>
<path d="M943 257.072L617 93.8975" stroke="white" stroke-opacity="0.69" stroke-width="2" stroke-dasharray="1 40"/>
<path d="M943 272.721L617 109.547" stroke="white" stroke-opacity="0.69" stroke-width="2" stroke-dasharray="1 40"/>
<path d="M943 288.371L617 125.197" stroke="white" stroke-opacity="0.69" stroke-width="2" stroke-dasharray="1 40"/>
<path d="M943 304.021L617 140.847" stroke="white" stroke-opacity="0.69" stroke-width="2" stroke-dasharray="1 40"/>
<path d="M943 319.67L617 156.496" stroke="white" stroke-opacity="0.69" stroke-width="2" stroke-dasharray="1 40"/>
<path d="M943 335.32L617 172.146" stroke="white" stroke-opacity="0.69" stroke-width="2" stroke-dasharray="1 40"/>
<path d="M943 350.97L617 187.795" stroke="white" stroke-opacity="0.69" stroke-width="2" stroke-dasharray="1 40"/>
<path d="M943 366.619L617 203.445" stroke="white" stroke-opacity="0.69" stroke-width="2" stroke-dasharray="1 40"/>
<path d="M943 382.269L617 219.095" stroke="white" stroke-opacity="0.69" stroke-width="2" stroke-dasharray="1 40"/>
<path d="M943 397.918L617 234.744" stroke="white" stroke-opacity="0.69" stroke-width="2" stroke-dasharray="1 40"/>
<path d="M943 413.568L617 250.394" stroke="white" stroke-opacity="0.69" stroke-width="2" stroke-dasharray="1 40"/>
<path d="M943 429.217L617 266.043" stroke="white" stroke-opacity="0.69" stroke-width="2" stroke-dasharray="1 40"/>
<path d="M943 444.867L617 281.693" stroke="white" stroke-opacity="0.69" stroke-width="2" stroke-dasharray="1 40"/>
</g>
<defs>
<radialGradient id="paint0_radial" cx="0" cy="0" r="1" gradientUnits="userSpaceOnUse" gradientTransform="translate(15.7319 163.983) scale(2999.36 6219.96)">
<stop stop-color="#13BF49"/>
<stop offset="1" stop-color="#02428D"/>
</radialGradient>
<clipPath id="clip0">
<rect width="326" height="291" fill="white" transform="translate(837 1)"/>
</clipPath>
<clipPath id="clip1">
<rect width="326" height="293" fill="white" transform="matrix(-1 0 0 1 943 0)"/>
</clipPath>
</defs>
</svg>
