<svg width="100" height="33" viewBox="0 0 100 33" fill="none" xmlns="http://www.w3.org/2000/svg">
<g clip-path="url(#clip0)">
<path d="M92.0366 0.00010725H7.96787C7.66143 0.00010725 7.35867 0.00010725 7.05304 0.00175725C6.79719 0.00340725 6.54339 0.0082005 6.28509 0.0122347C5.72395 0.0187537 5.16413 0.0674902 4.61049 0.15802C4.05763 0.250522 3.52209 0.424913 3.02198 0.675295C2.52248 0.927796 2.06607 1.2559 1.66931 1.64769C1.27048 2.03838 0.938012 2.48997 0.684708 2.98509C0.430706 3.47922 0.25458 4.00873 0.162413 4.55533C0.06937 5.10123 0.0193027 5.65344 0.0126604 6.20698C0.0049054 6.45992 0.00408644 6.71371 0 6.96669V26.036C0.00408644 26.2921 0.0049054 26.5403 0.0126604 26.7965C0.0193047 27.35 0.069372 27.9022 0.162413 28.4481C0.254325 28.995 0.430462 29.5248 0.684708 30.0191C0.937897 30.5127 1.27041 30.9624 1.66931 31.3509C2.06457 31.7445 2.52127 32.0728 3.02198 32.3234C3.52208 32.5744 4.05757 32.7498 4.61049 32.8438C5.16422 32.9336 5.72399 32.9823 6.28509 32.9896C6.54339 32.9952 6.79719 32.9985 7.05304 32.9985C7.35866 33.0001 7.66145 33.0001 7.96787 33.0001H92.0366C92.337 33.0001 92.6422 33.0001 92.9425 32.9985C93.1971 32.9985 93.4583 32.9952 93.7129 32.9896C94.2729 32.9827 94.8317 32.934 95.3842 32.8438C95.9389 32.7492 96.4764 32.5738 96.9789 32.3234C97.4791 32.0726 97.9354 31.7443 98.3303 31.3509C98.7282 30.9609 99.0614 30.5115 99.3178 30.0191C99.5701 29.5245 99.7446 28.9947 99.8351 28.4481C99.9283 27.9021 99.9802 27.3501 99.9902 26.7965C99.9935 26.5403 99.9935 26.2921 99.9935 26.036C100 25.7362 100 25.4382 100 25.1336V7.86741C100 7.56529 100 7.26558 99.9935 6.96669C99.9935 6.71371 99.9935 6.45992 99.9902 6.20695C99.9802 5.65336 99.9283 5.10128 99.8351 4.5553C99.7443 4.00901 99.5699 3.47955 99.3178 2.98506C98.8019 1.99264 97.9839 1.18483 96.9789 0.675221C96.4763 0.42545 95.9389 0.251106 95.3842 0.157946C94.8318 0.067017 94.273 0.0182637 93.7129 0.0121192C93.4583 0.00809325 93.1971 0.00325875 92.9425 0.00165C92.6422 0 92.337 0 92.0366 0V0.00010725Z" fill="#C4C4C4"/>
<path d="M7.05712 32.2784C6.8025 32.2784 6.55404 32.2752 6.30143 32.2696C5.77811 32.2629 5.25602 32.2179 4.73944 32.135C4.25775 32.0531 3.79112 31.9008 3.35494 31.683C2.92277 31.4671 2.52859 31.1839 2.18751 30.8443C1.84149 30.5088 1.55342 30.1196 1.3347 29.6922C1.11357 29.262 0.960536 28.801 0.880927 28.325C0.794957 27.8136 0.748443 27.2965 0.741787 26.7781C0.736489 26.6042 0.729553 26.0248 0.729553 26.0248V6.96687C0.729553 6.96687 0.736941 6.39646 0.741829 6.22888C0.748202 5.71134 0.794445 5.19503 0.880158 4.68442C0.959914 4.20717 1.11307 3.74476 1.33431 3.31319C1.55223 2.8861 1.8387 2.49663 2.18264 2.15988C2.52619 1.81993 2.92162 1.53529 3.35454 1.31634C3.78971 1.09927 4.25545 0.947997 4.73617 0.867591C5.25445 0.783908 5.77835 0.738665 6.30348 0.732241L7.05753 0.722168H92.9384L93.7015 0.732645C94.2218 0.73875 94.7409 0.783589 95.2545 0.866782C95.7401 0.948197 96.2107 1.10053 96.6508 1.31876C97.5181 1.76001 98.2238 2.4581 98.6689 3.3152C98.8867 3.7438 99.0374 4.20244 99.1162 4.67556C99.2029 5.19036 99.2515 5.71073 99.2614 6.23251C99.2639 6.46615 99.2639 6.71711 99.2639 6.96687C99.2705 7.27625 99.2705 7.57072 99.2705 7.8676V25.1338C99.2705 25.4335 99.2705 25.7259 99.2639 26.0208C99.2639 26.2891 99.2639 26.5349 99.2606 26.7878C99.2508 27.3003 99.2031 27.8113 99.1178 28.3169C99.0398 28.7963 98.8876 29.261 98.6665 29.6947C98.4463 30.1174 98.1598 30.5032 97.8178 30.8379C97.4764 31.1793 97.0816 31.4641 96.6484 31.6815C96.2094 31.9009 95.7395 32.0538 95.2545 32.135C94.7379 32.2183 94.2158 32.2633 93.6924 32.2696C93.4477 32.2752 93.1914 32.2784 92.9425 32.2784L92.0366 32.2801L7.05712 32.2784Z" fill="white"/>
<path d="M20.8891 16.4086C20.8984 15.6925 21.0911 14.9904 21.4491 14.3676C21.8072 13.7448 22.319 13.2215 22.937 12.8465C22.5444 12.293 22.0265 11.8375 21.4244 11.5161C20.8224 11.1948 20.1527 11.0165 19.4686 10.9954C18.0093 10.8441 16.5946 11.8574 15.851 11.8574C15.0929 11.8574 13.948 11.0104 12.7151 11.0354C11.9177 11.0609 11.1405 11.2898 10.4593 11.6999C9.77806 12.1101 9.21609 12.6874 8.8281 13.3757C7.14747 16.2483 8.40107 20.4702 10.011 22.7922C10.8165 23.9293 11.7579 25.1994 12.9897 25.1543C14.195 25.105 14.6452 24.3955 16.1002 24.3955C17.5417 24.3955 17.964 25.1543 19.2208 25.1257C20.5143 25.105 21.3292 23.9836 22.1064 22.8358C22.6852 22.0256 23.1305 21.1302 23.4259 20.1827C22.6745 19.8689 22.0332 19.3437 21.5821 18.6726C21.131 18.0015 20.89 17.2141 20.8891 16.4086Z" fill="black"/>
<path d="M18.5153 9.46829C19.2205 8.63251 19.5679 7.55824 19.4838 6.47363C18.4064 6.58535 17.4111 7.09371 16.6964 7.89743C16.3469 8.29007 16.0793 8.74686 15.9087 9.24168C15.7382 9.7365 15.6681 10.2596 15.7025 10.7812C16.2414 10.7867 16.7745 10.6714 17.2617 10.444C17.749 10.2165 18.1776 9.88294 18.5153 9.46829Z" fill="black"/>
<path d="M35.3505 22.3903H31.3949L30.445 25.1594H28.7695L32.5162 14.9146H34.2569L38.0036 25.1594H36.2996L35.3505 22.3903ZM31.8046 21.1125H34.94L33.3943 16.6185H33.351L31.8046 21.1125Z" fill="black"/>
<path d="M46.095 21.4249C46.095 23.7461 44.8366 25.2373 42.9376 25.2373C42.4565 25.2622 41.9781 25.1528 41.5571 24.9217C41.1361 24.6906 40.7895 24.3471 40.5571 23.9305H40.5212V27.6302H38.9681V17.6899H40.4714V18.9322H40.4999C40.7431 18.5177 41.0955 18.176 41.5197 17.9435C41.9439 17.7109 42.4241 17.5963 42.909 17.6117C44.8293 17.6117 46.095 19.1103 46.095 21.4249ZM44.4988 21.4249C44.4988 19.9127 43.7072 18.9185 42.4994 18.9185C41.3128 18.9185 40.5146 19.9337 40.5146 21.4249C40.5146 22.9299 41.3128 23.9378 42.4994 23.9378C43.7072 23.9378 44.4987 22.9509 44.4987 21.4249H44.4988Z" fill="black"/>
<path d="M54.4228 21.4249C54.4228 23.7461 53.164 25.2373 51.2649 25.2373C50.7839 25.2622 50.3055 25.1528 49.8844 24.9217C49.4634 24.6906 49.1169 24.3471 48.8844 23.9305H48.8485V27.6302H47.2955V17.6899H48.7987V18.9322H48.8273C49.0704 18.5177 49.4228 18.176 49.847 17.9435C50.2713 17.7109 50.7514 17.5963 51.2363 17.6117C53.1566 17.6117 54.4228 19.1103 54.4228 21.4249ZM52.8261 21.4249C52.8261 19.9127 52.0345 18.9185 50.8267 18.9185C49.6401 18.9185 48.842 19.9337 48.842 21.4249C48.842 22.9299 49.6401 23.9378 50.8267 23.9378C52.0345 23.9378 52.8261 22.9509 52.8261 21.4249Z" fill="black"/>
<path d="M59.9257 22.3049C60.0407 23.3208 61.0404 23.9879 62.4066 23.9879C63.7156 23.9879 64.6573 23.3208 64.6573 22.4047C64.6573 21.6095 64.0893 21.1334 62.7444 20.8071L61.3995 20.4872C59.494 20.0328 58.6093 19.1531 58.6093 17.7254C58.6093 15.9578 60.1697 14.7437 62.3845 14.7437C64.5782 14.7437 66.0814 15.9578 66.132 17.7254H64.5643C64.4704 16.703 63.6144 16.0859 62.3633 16.0859C61.1122 16.0859 60.2562 16.7103 60.2562 17.6191C60.2562 18.3434 60.8029 18.7696 62.1405 19.0958L63.2838 19.373C65.413 19.8701 66.2968 20.7144 66.2968 22.2129C66.2968 24.1296 64.7512 25.3301 62.2915 25.3301C59.9901 25.3301 58.4363 24.1578 58.3359 22.3048L59.9257 22.3049Z" fill="black"/>
<path d="M69.6502 15.9224V17.69H71.089V18.9041H69.6502V23.0219C69.6502 23.6616 69.9383 23.9597 70.5707 23.9597C70.7415 23.9567 70.9121 23.9449 71.0816 23.9242V25.1311C70.7973 25.1835 70.5082 25.2073 70.219 25.202C68.6872 25.202 68.0898 24.634 68.0898 23.1854V18.9041H66.9897V17.69H68.0898V15.9224H69.6502Z" fill="black"/>
<path d="M71.9214 21.425C71.9214 19.0749 73.3234 17.5981 75.5097 17.5981C77.7033 17.5981 79.0989 19.0749 79.0989 21.425C79.0989 23.7816 77.7107 25.2519 75.5097 25.2519C73.3095 25.2519 71.9214 23.7816 71.9214 21.425ZM77.5165 21.425C77.5165 19.8129 76.7681 18.8614 75.5097 18.8614C74.2513 18.8614 73.503 19.8202 73.503 21.425C73.503 23.0436 74.2513 23.9879 75.5097 23.9879C76.7681 23.9879 77.5165 23.0436 77.5165 21.425H77.5165Z" fill="black"/>
<path d="M80.3793 17.6898H81.8605V18.9611H81.8964C81.9966 18.5641 82.2322 18.2132 82.5637 17.9674C82.8951 17.7217 83.3021 17.596 83.7163 17.6116C83.8953 17.611 84.0737 17.6302 84.2484 17.6689V19.1029C84.0224 19.0348 83.7867 19.0035 83.5506 19.0103C83.325 19.0013 83.1001 19.0405 82.8913 19.1254C82.6825 19.2103 82.4948 19.3388 82.341 19.502C82.1873 19.6653 82.0712 19.8595 82.0006 20.0712C81.93 20.283 81.9067 20.5073 81.9323 20.7288V25.1591H80.3793L80.3793 17.6898Z" fill="black"/>
<path d="M91.4087 22.9655C91.1997 24.3214 89.8622 25.2519 88.1508 25.2519C85.9499 25.2519 84.5837 23.7961 84.5837 21.4605C84.5837 19.1176 85.9572 17.5981 88.0856 17.5981C90.1788 17.5981 91.4952 19.0177 91.4952 21.2824V21.8077H86.1514V21.9004C86.1268 22.1753 86.1616 22.4522 86.2537 22.7128C86.3458 22.9733 86.493 23.2116 86.6855 23.4117C86.878 23.6118 87.1114 23.7692 87.3702 23.8734C87.6291 23.9776 87.9074 24.0262 88.1868 24.0161C88.5538 24.05 88.922 23.9661 89.2368 23.7768C89.5517 23.5875 89.7962 23.303 89.934 22.9655L91.4087 22.9655ZM86.1588 20.7362H89.9413C89.9553 20.489 89.9173 20.2417 89.8298 20.0097C89.7424 19.7777 89.6073 19.5661 89.433 19.388C89.2588 19.21 89.0491 19.0695 88.8172 18.9753C88.5854 18.8811 88.3363 18.8352 88.0856 18.8405C87.8327 18.839 87.582 18.887 87.3479 18.9816C87.1139 19.0763 86.9012 19.2158 86.7221 19.392C86.5429 19.5683 86.4009 19.7778 86.3043 20.0085C86.2076 20.2392 86.1581 20.4865 86.1588 20.7362V20.7362Z" fill="black"/>
<path d="M30.7012 9.28434H31.3679C31.4827 9.29845 31.5992 9.28894 31.7101 9.25639C31.8209 9.22385 31.9238 9.16899 32.0121 9.09527C32.1004 9.02154 32.1723 8.93056 32.2233 8.82804C32.2742 8.72553 32.3031 8.6137 32.3081 8.49962C32.3081 8.04564 31.9621 7.75237 31.3753 7.75237C31.2577 7.73615 31.138 7.74335 31.0233 7.77356C30.9086 7.80376 30.8011 7.85635 30.7073 7.92822C30.6135 8.00009 30.5353 8.08978 30.4772 8.19201C30.4191 8.29423 30.3823 8.40691 30.3691 8.52339H29.637C29.6496 8.31195 29.7062 8.10532 29.8032 7.91639C29.9001 7.72745 30.0355 7.56025 30.2008 7.4252C30.3661 7.29014 30.5577 7.19012 30.7639 7.13137C30.97 7.07261 31.1862 7.05637 31.3989 7.08367C32.3807 7.08367 33.072 7.62628 33.072 8.40737C33.0743 8.66904 32.9856 8.92358 32.8207 9.12849C32.6559 9.3334 32.4248 9.47628 32.1661 9.53329V9.5913C32.4728 9.60473 32.7616 9.73748 32.9694 9.96055C33.1773 10.1836 33.2872 10.4788 33.2751 10.7817C33.2524 10.9994 33.186 11.2104 33.0796 11.4024C32.9732 11.5945 32.829 11.7636 32.6556 11.8999C32.4821 12.0362 32.2829 12.1369 32.0695 12.1962C31.8561 12.2555 31.6328 12.2721 31.4128 12.2452C31.1924 12.2748 30.9681 12.2604 30.7534 12.2027C30.5388 12.1449 30.338 12.0451 30.1633 11.9092C29.9885 11.7733 29.8432 11.604 29.7361 11.4115C29.629 11.2189 29.5623 11.0071 29.5399 10.7885H30.2834C30.3283 11.2594 30.7665 11.5632 31.4128 11.5632C32.0592 11.5632 32.4811 11.222 32.4811 10.741C32.4811 10.2532 32.0837 9.95267 31.3892 9.95267H30.7012V9.28434Z" fill="black"/>
<path d="M34.1198 11.0754C34.1198 10.4067 34.625 10.0212 35.5194 9.96639L36.5387 9.90838V9.58773C36.5387 9.19537 36.2767 8.97381 35.7683 8.97381C35.3537 8.97381 35.0673 9.12407 34.984 9.38672H34.2651C34.341 8.74863 34.9498 8.33936 35.8034 8.33936C36.7468 8.33936 37.2789 8.80301 37.2789 9.58773V12.126H36.5632V11.6039H36.5044C36.3852 11.7912 36.2177 11.9438 36.0191 12.0463C35.8205 12.1488 35.598 12.1974 35.3741 12.1872C35.2162 12.2034 35.0565 12.1868 34.9055 12.1383C34.7544 12.0899 34.6153 12.0108 34.4971 11.906C34.3789 11.8013 34.2843 11.6732 34.2193 11.5302C34.1543 11.3871 34.1204 11.2322 34.1198 11.0754ZM36.5387 10.7579V10.4474L35.6197 10.5054C35.1015 10.5396 34.8665 10.7136 34.8665 11.0411C34.8665 11.3755 35.1603 11.5701 35.5643 11.5701C35.6827 11.5819 35.8022 11.5701 35.9159 11.5354C36.0295 11.5006 36.135 11.4437 36.2259 11.3679C36.3168 11.2922 36.3913 11.1991 36.4451 11.0943C36.4988 10.9895 36.5307 10.8751 36.5387 10.7579Z" fill="black"/>
<path d="M39.2497 9.02827V12.1261H38.5071V8.41113H40.9847V9.02823L39.2497 9.02827Z" fill="black"/>
<path d="M45.4855 10.267C45.4855 11.4473 44.8807 12.1873 43.9308 12.1873C43.6976 12.203 43.4647 12.1526 43.2596 12.0421C43.0544 11.9315 42.8855 11.7654 42.7728 11.5633H42.714V13.3611H41.9714V8.41112H42.6863V9.02506H42.7418C42.8565 8.81588 43.0276 8.64208 43.2362 8.52287C43.4447 8.40365 43.6826 8.34366 43.9235 8.34951C44.8807 8.34949 45.4855 9.08626 45.4855 10.267ZM44.7216 10.267C44.7216 9.48225 44.3454 9.00812 43.7162 9.00812C43.0911 9.00812 42.7002 9.49232 42.7002 10.2702C42.7002 11.0444 43.0911 11.529 43.7129 11.529C44.3454 11.529 44.7216 11.0549 44.7216 10.267Z" fill="black"/>
<path d="M46.4745 13.4566V12.8254C46.5549 12.8355 46.6359 12.84 46.7169 12.8391C46.8751 12.8506 47.0321 12.8041 47.1577 12.7084C47.2833 12.6128 47.3687 12.4746 47.3975 12.3206L47.453 12.1397L46.0909 8.41113H46.8997L47.8431 11.3619H47.9019L48.842 8.41113H49.6295L48.2267 12.2795C47.9051 13.1835 47.5493 13.4735 46.7822 13.4735C46.7202 13.4735 46.5439 13.4667 46.4745 13.4566Z" fill="black"/>
<path d="M50.2081 11.0717H50.9475C51.0201 11.3993 51.3311 11.57 51.766 11.57C52.2606 11.57 52.5642 11.3549 52.5642 11.0206C52.5642 10.6625 52.2916 10.4917 51.766 10.4917H51.2029V9.92206H51.7562C52.2051 9.92206 52.4336 9.75166 52.4336 9.44108C52.4336 9.16836 52.2124 8.96011 51.7562 8.96011C51.3409 8.96011 51.0373 9.13413 50.9891 9.4274H50.2734C50.3269 9.09042 50.5123 8.78763 50.7896 8.58415C51.0669 8.38068 51.414 8.29277 51.7562 8.33934C52.6507 8.33934 53.1624 8.73855 53.1624 9.36616C53.1665 9.54093 53.1098 9.71182 53.0017 9.85026C52.8935 9.9887 52.7405 10.0863 52.5683 10.1267V10.1847C52.7734 10.2108 52.9616 10.3104 53.0973 10.4645C53.233 10.6185 53.3067 10.8164 53.3044 11.0206C53.3044 11.7268 52.6956 12.194 51.766 12.194C50.9442 12.194 50.2767 11.8222 50.2081 11.0717Z" fill="black"/>
<path d="M54.3738 12.1261V8.41113H55.11V10.9663H55.1687L56.9029 8.41114H57.639V12.1261H56.9029V9.55721H56.8474L55.11 12.1261L54.3738 12.1261Z" fill="black"/>
<path d="M61.6941 9.02823H60.5091V12.126H59.7657V9.02823H58.5807V8.41113H61.6941V9.02823Z" fill="black"/>
<path d="M65.6946 11.123C65.5934 11.4625 65.3746 11.7561 65.0765 11.9526C64.7783 12.149 64.4197 12.2358 64.0633 12.1977C63.8154 12.2042 63.569 12.1573 63.3413 12.0604C63.1135 11.9634 62.9099 11.8187 62.7445 11.6362C62.5791 11.4538 62.456 11.238 62.3835 11.0039C62.3111 10.7697 62.2911 10.5228 62.325 10.2803C62.292 10.037 62.3123 9.78954 62.3846 9.55468C62.4569 9.31983 62.5794 9.10305 62.7439 8.91901C62.9084 8.73498 63.1111 8.58798 63.3381 8.48799C63.5652 8.38799 63.8114 8.33732 64.06 8.33942C65.107 8.33942 65.7395 9.04562 65.7395 10.2122V10.468H63.0823V10.5091C63.0706 10.6454 63.0878 10.7827 63.133 10.9121C63.1782 11.0415 63.2503 11.1601 63.3447 11.2603C63.4391 11.3606 63.5536 11.4402 63.681 11.4941C63.8085 11.548 63.9459 11.575 64.0845 11.5733C64.262 11.5943 64.4418 11.5627 64.6011 11.4825C64.7604 11.4023 64.8919 11.2771 64.9789 11.123L65.6946 11.123ZM63.0823 9.92578H64.9822C64.9915 9.80116 64.9744 9.67598 64.9319 9.55828C64.8894 9.44059 64.8224 9.33297 64.7352 9.24234C64.6481 9.15172 64.5427 9.08009 64.4259 9.03205C64.309 8.98401 64.1833 8.96064 64.0567 8.96341C63.9283 8.96169 63.8007 8.98541 63.6817 9.03316C63.5627 9.08092 63.4545 9.15175 63.3637 9.24146C63.2729 9.33118 63.2012 9.43796 63.1528 9.5555C63.1045 9.67303 63.0805 9.79894 63.0823 9.92578H63.0823Z" fill="black"/>
<path d="M68.8431 8.41113H70.5397C71.2758 8.41113 71.7075 8.77932 71.7075 9.35576C71.7087 9.53867 71.6462 9.71641 71.5304 9.85926C71.4147 10.0021 71.2528 10.1014 71.0718 10.1405V10.1985C71.2916 10.2122 71.4976 10.3087 71.6474 10.4681C71.7971 10.6275 71.8791 10.8375 71.8765 11.0549C71.8765 11.7031 71.3827 12.126 70.5569 12.126H68.8431V8.41113ZM69.5792 8.97389V9.93584H70.3153C70.7642 9.93584 70.9788 9.76544 70.9788 9.45124C70.9788 9.1616 70.7919 8.97388 70.3977 8.97388L69.5792 8.97389ZM69.5792 10.4748V11.5633H70.4598C70.8988 11.5633 71.1339 11.372 71.1339 11.0207C71.1339 10.6489 70.8678 10.4749 70.3667 10.4749L69.5792 10.4748Z" fill="black"/>
</g>
<defs>
<clipPath id="clip0">
<rect width="100" height="33" fill="white"/>
</clipPath>
</defs>
</svg>
