<?xml version="1.0" encoding="UTF-8"?>
<!DOCTYPE svg PUBLIC "-//W3C//DTD SVG 1.1//EN" "http://www.w3.org/Graphics/SVG/1.1/DTD/svg11.dtd">
<!-- Creator: CorelDRAW 2017 -->
<svg xmlns="http://www.w3.org/2000/svg" xml:space="preserve" width="55mm" height="15mm" version="1.1" style="shape-rendering:geometricPrecision; text-rendering:geometricPrecision; image-rendering:optimizeQuality; fill-rule:evenodd; clip-rule:evenodd"
viewBox="0 0 5500 1500"
 xmlns:xlink="http://www.w3.org/1999/xlink">
 <defs>
  <style type="text/css">
   <![CDATA[
    .fil3 {fill:#9D9E9E}
    .fil2 {fill:#9D9E9E;fill-rule:nonzero}
    .fil0 {fill:#2B2A29;fill-rule:nonzero}
    .fil1 {fill:url(#id0);fill-rule:nonzero}
   ]]>
  </style>
  <linearGradient id="id0" gradientUnits="userSpaceOnUse" x1="3952" y1="1033" x2="4279" y2="63">
   <stop offset="0" style="stop-opacity:1; stop-color:#F7A707"/>
   <stop offset="1" style="stop-opacity:1; stop-color:#FBBA00"/>
  </linearGradient>
 </defs>
 <g id="Слой_x0020_1">
  <metadata id="CorelCorpID_0Corel-Layer"/>
  <g id="_1681596015824">
   <path class="fil0" d="M460 919l-210 0 285 -753 215 0 285 753 -210 0 -48 -134 -269 0 -48 134zm97 -274l172 0 -86 -253 -86 253zm694 -242c0,43 22,65 65,65l194 0c70,0 122,16 155,49 33,32 49,83 49,152l0 53c0,69 -16,120 -49,152 -33,32 -85,49 -155,49 -22,0 -44,0 -68,0 -24,0 -48,0 -73,0 -25,0 -49,0 -74,0 -25,0 -48,0 -70,0 -52,0 -104,-5 -156,-14l0 -138c52,0 103,0 153,0 42,0 86,0 131,0 45,0 84,0 115,0 16,0 30,-4 39,-14 10,-9 15,-22 15,-37l0 -91 -247 0c-75,0 -130,-17 -164,-51 -34,-34 -51,-89 -51,-164l0 -32c0,-75 17,-130 51,-164 34,-34 89,-51 164,-51l377 0 0 151 -334 0c-43,0 -65,22 -65,65l0 22zm914 516l-387 0 0 -151 97 0 0 -452 -97 0 0 -151 387 0 0 151 -97 0 0 452 97 0 0 151zm258 -516c0,43 22,65 65,65l194 0c70,0 122,16 155,49 33,32 49,83 49,152l0 53c0,69 -16,120 -49,152 -33,32 -85,49 -155,49 -22,0 -44,0 -68,0 -24,0 -48,0 -73,0 -25,0 -49,0 -74,0 -25,0 -48,0 -70,0 -52,0 -104,-5 -156,-14l0 -138c52,0 103,0 153,0 42,0 86,0 131,0 45,0 84,0 115,0 16,0 30,-4 39,-14 10,-9 15,-22 15,-37l0 -91 -247 0c-75,0 -130,-17 -164,-51 -34,-34 -51,-89 -51,-164l0 -32c0,-75 17,-130 51,-164 34,-34 89,-51 164,-51l377 0 0 151 -334 0c-43,0 -65,22 -65,65l0 22z"/>
   <path class="fil1" d="M3637 919l-204 0 -258 -452 0 452 -194 0 0 -753 204 0 258 452 0 -452 194 0 0 753zm613 -753l194 0 0 548c0,75 -17,130 -51,164 -34,34 -89,51 -164,51l-247 0c-75,0 -130,-17 -164,-51 -34,-34 -51,-89 -51,-164l0 -548 194 0 0 548c0,43 22,65 65,65l161 0c43,0 65,-22 65,-65l0 -548zm323 0l452 0c75,0 130,17 164,51 34,34 51,89 51,164l0 97c0,60 -10,106 -30,139 -20,33 -51,55 -94,66l134 237 -210 0 -124 -226 -151 0 0 226 -194 0 0 -753zm473 215c0,-43 -22,-65 -65,-65l-215 0 0 226 215 0c43,0 65,-22 65,-65l0 -97z"/>
   <g>
    <path class="fil2" d="M427 1219l-44 0 0 112 -31 0 0 -112 -44 0 0 -24 119 0 0 24zm6 43c0,-10 1,-19 4,-27 3,-8 7,-16 12,-22 5,-6 12,-11 20,-15 8,-4 17,-5 27,-5 10,0 19,2 27,5 8,4 15,8 20,15 5,6 10,14 12,22 3,8 4,18 4,27l0 3c0,10 -1,19 -4,28 -3,8 -7,16 -12,22 -5,6 -12,11 -20,14 -8,3 -17,5 -27,5 -10,0 -19,-2 -27,-5 -8,-3 -14,-8 -20,-14 -5,-6 -10,-13 -12,-22 -3,-8 -4,-18 -4,-28l0 -3zm63 47c5,0 9,-1 13,-3 4,-2 7,-4 10,-7 3,-3 5,-7 6,-11 2,-4 3,-9 3,-14l-65 0c1,5 2,10 3,14 2,4 4,8 6,11 3,3 6,6 10,7 4,2 8,3 13,3zm0 -92c-5,0 -9,1 -13,3 -4,2 -7,4 -10,7 -3,3 -5,7 -6,11 -2,4 -3,9 -3,14l65 0c-1,-5 -2,-9 -3,-14 -2,-4 -4,-8 -6,-11 -3,-3 -6,-6 -10,-7 -4,-2 -8,-3 -13,-3zm205 -22l0 136 -31 0 0 -112 -38 0 -1 33c-1,13 -2,24 -4,34 -2,10 -5,18 -8,24 -4,7 -9,11 -15,15 -6,3 -14,5 -24,5l-7 0 0 -26 5 0c4,0 8,-1 11,-3 3,-2 5,-5 6,-9 2,-4 3,-10 3,-16 1,-7 1,-15 2,-24l3 -58 98 0zm27 67c0,-10 1,-19 4,-27 3,-8 7,-16 12,-22 5,-6 12,-11 20,-15 8,-4 17,-5 27,-5 10,0 19,2 27,5 8,4 15,8 20,15 5,6 10,14 12,22 3,8 4,18 4,27l0 3c0,10 -1,19 -4,28 -3,8 -7,16 -12,22 -5,6 -12,11 -20,14 -8,3 -17,5 -27,5 -10,0 -19,-2 -27,-5 -8,-3 -15,-8 -20,-14 -5,-6 -10,-13 -12,-22 -3,-8 -4,-18 -4,-28l0 -3zm63 47c5,0 9,-1 13,-3 4,-2 7,-4 10,-7 3,-3 5,-7 6,-11 2,-4 3,-9 3,-14l-65 0c1,5 2,10 3,14 2,4 4,8 6,11 3,3 6,6 10,7 4,2 8,3 13,3zm0 -92c-5,0 -9,1 -13,3 -4,2 -7,4 -10,7 -3,3 -5,7 -6,11 -2,4 -3,9 -3,14l65 0c-1,-5 -2,-9 -3,-14 -2,-4 -4,-8 -6,-11 -3,-3 -6,-6 -10,-7 -4,-2 -8,-3 -13,-3zm170 76l40 -99 38 0 0 136 -31 0 0 -90 -38 90 -21 0 -38 -91 0 91 -31 0 0 -136 39 0 40 99zm233 16c4,0 7,-1 10,-2 3,-1 6,-3 8,-5 2,-2 4,-5 6,-7 1,-3 2,-6 2,-9l29 0c0,7 -2,13 -5,19 -3,6 -7,11 -12,15 -5,4 -11,8 -17,10 -7,3 -14,4 -21,4 -10,0 -20,-2 -27,-5 -8,-4 -14,-9 -19,-15 -5,-6 -9,-13 -12,-22 -2,-8 -4,-17 -4,-26l0 -4c0,-9 1,-18 4,-26 3,-8 6,-16 12,-22 5,-6 12,-11 19,-15 8,-4 17,-5 27,-5 8,0 16,1 22,4 7,3 13,6 17,11 5,5 9,10 11,16 3,6 4,13 4,21l-29 0c0,-4 -1,-7 -2,-10 -1,-3 -3,-6 -5,-9 -2,-2 -5,-4 -8,-6 -3,-1 -7,-2 -11,-2 -6,0 -11,1 -15,4 -4,3 -7,6 -10,10 -2,4 -4,9 -5,14 -1,5 -1,11 -1,16l0 4c0,6 0,11 1,16 1,5 2,10 5,14 2,4 6,7 10,10 4,3 9,4 15,4zm164 -114l30 0 0 136 -30 0 0 -91 -53 91 -30 0 0 -136 30 0 0 91 53 -91zm119 114c4,0 7,-1 10,-2 3,-1 6,-3 8,-5 2,-2 4,-5 6,-7 1,-3 2,-6 2,-9l29 0c0,7 -2,13 -5,19 -3,6 -7,11 -12,15 -5,4 -11,8 -17,10 -7,3 -14,4 -21,4 -10,0 -20,-2 -27,-5 -8,-4 -14,-9 -19,-15 -5,-6 -9,-13 -12,-22 -2,-8 -4,-17 -4,-26l0 -4c0,-9 1,-18 4,-26 3,-8 6,-16 12,-22 5,-6 12,-11 19,-15 8,-4 17,-5 27,-5 8,0 16,1 22,4 7,3 13,6 17,11 5,5 9,10 11,16 3,6 4,13 4,21l-29 0c0,-4 -1,-7 -2,-10 -1,-3 -3,-6 -5,-9 -2,-2 -5,-4 -8,-6 -3,-1 -7,-2 -11,-2 -6,0 -11,1 -15,4 -4,3 -7,6 -10,10 -2,4 -4,9 -5,14 -1,5 -1,11 -1,16l0 4c0,6 0,11 1,16 1,5 3,10 5,14 2,4 6,7 10,10 4,3 9,4 15,4zm186 -90l-44 0 0 112 -31 0 0 -112 -44 0 0 -24 119 0 0 24zm72 114c-10,0 -19,-2 -27,-5 -8,-3 -15,-8 -21,-14 -6,-6 -10,-13 -13,-21 -3,-8 -5,-17 -5,-26l0 -5c0,-11 2,-20 5,-29 3,-9 8,-16 13,-22 6,-6 12,-11 20,-14 8,-3 16,-5 24,-5 10,0 18,2 26,5 7,3 13,8 18,14 5,6 8,13 11,21 2,8 4,17 4,27l0 13 -89 0c0,5 2,10 3,15 2,4 4,8 7,12 3,3 7,6 11,8 4,2 9,3 14,3 8,0 14,-2 20,-5 6,-3 10,-7 15,-12l16 16c-2,3 -5,6 -8,10 -3,3 -7,6 -11,8 -4,2 -9,4 -15,6 -5,1 -12,2 -18,2zm-4 -117c-8,0 -15,3 -20,9 -5,6 -8,14 -10,25l58 0 0 -2c0,-4 -1,-8 -2,-12 -1,-4 -3,-7 -5,-10 -2,-3 -5,-5 -9,-7 -3,-2 -8,-3 -13,-3zm163 76l40 -99 38 0 0 136 -31 0 0 -90 -38 90 -21 0 -38 -91 0 91 -31 0 0 -136 39 0 40 99zm194 38c-1,-2 -2,-3 -2,-6 -1,-2 -1,-5 -1,-7 -2,2 -4,4 -7,6 -2,2 -5,3 -8,5 -3,1 -6,2 -10,3 -3,1 -7,1 -11,1 -7,0 -13,-1 -19,-3 -6,-2 -11,-5 -15,-9 -4,-4 -7,-8 -10,-13 -2,-5 -3,-10 -3,-16 0,-7 1,-14 4,-19 3,-6 7,-10 12,-14 5,-4 12,-7 19,-9 8,-2 16,-3 26,-3l19 0 0 -9c0,-7 -2,-13 -6,-17 -4,-4 -10,-6 -18,-6 -4,0 -7,1 -10,1 -3,1 -5,2 -7,4 -2,2 -4,4 -5,6 -1,2 -2,5 -2,7l-31 0c0,-5 1,-11 4,-16 3,-5 6,-9 11,-13 5,-4 11,-7 18,-9 7,-2 15,-4 23,-4 8,0 15,1 21,3 6,2 12,5 17,9 5,4 8,9 11,15 3,6 4,13 4,20l0 60c0,12 2,22 5,29l0 2 -31 0zm-34 -22c4,0 7,0 10,-1 3,-1 6,-2 8,-4 3,-2 5,-3 7,-5 2,-2 3,-4 4,-6l0 -26 -16 0c-11,0 -20,2 -26,6 -6,4 -9,10 -9,17 0,3 0,5 1,8 1,2 2,4 4,6 2,2 4,3 7,4 3,1 6,1 9,1zm148 0c4,0 7,-1 10,-2 3,-1 6,-3 8,-5 2,-2 4,-5 6,-7 1,-3 2,-6 2,-9l29 0c0,7 -2,13 -5,19 -3,6 -7,11 -12,15 -5,4 -11,8 -17,10 -7,3 -14,4 -21,4 -10,0 -20,-2 -27,-5 -8,-4 -14,-9 -19,-15 -5,-6 -9,-13 -12,-22 -2,-8 -4,-17 -4,-26l0 -4c0,-9 1,-18 4,-26 3,-8 6,-16 12,-22 5,-6 12,-11 19,-15 8,-4 17,-5 27,-5 8,0 16,1 23,4 7,3 13,6 17,11 5,5 9,10 11,16 3,6 4,13 4,21l-29 0c0,-4 -1,-7 -2,-10 -1,-3 -3,-6 -5,-9 -2,-2 -5,-4 -8,-6 -3,-1 -7,-2 -11,-2 -6,0 -11,1 -15,4 -4,3 -7,6 -10,10 -2,4 -4,9 -5,14 -1,5 -1,11 -1,16l0 4c0,6 0,11 1,16 1,5 2,10 5,14 2,4 6,7 10,10 4,3 9,4 15,4zm112 -71l30 0c9,0 17,1 23,3 7,2 13,5 17,10 5,4 8,9 11,15 2,6 4,12 4,19 0,7 -1,13 -4,18 -2,6 -6,11 -11,15 -5,4 -10,7 -17,10 -7,2 -15,4 -23,4l-60 0 0 -136 31 0 0 43zm138 93l-31 0 0 -136 31 0 0 136zm-138 -68l0 44 30 0c4,0 8,-1 11,-2 3,-1 6,-3 8,-5 2,-2 3,-4 4,-7 1,-3 1,-5 1,-8 0,-3 0,-5 -1,-8 -1,-3 -2,-5 -4,-7 -2,-2 -4,-4 -8,-5 -3,-1 -7,-2 -11,-2l-30 0zm611 68l-31 0 0 -112 -53 0 0 112 -31 0 0 -136 114 0 0 136zm148 -136l0 136 -31 0 0 -112 -38 0 -1 33c-1,13 -2,24 -4,34 -2,10 -5,18 -8,24 -4,7 -9,11 -15,15 -6,3 -14,5 -24,5l-7 0 0 -26 5 0c4,0 8,-1 11,-3 3,-2 5,-5 6,-9 2,-4 3,-10 3,-16 1,-7 1,-15 2,-24l3 -58 98 0zm114 136c-1,-2 -2,-3 -2,-6 -1,-2 -1,-5 -1,-7 -2,2 -4,4 -7,6 -2,2 -5,3 -8,5 -3,1 -6,2 -10,3 -3,1 -7,1 -11,1 -7,0 -13,-1 -19,-3 -6,-2 -11,-5 -15,-9 -4,-4 -7,-8 -10,-13 -2,-5 -3,-10 -3,-16 0,-7 1,-14 4,-19 3,-6 7,-10 12,-14 5,-4 12,-7 19,-9 8,-2 16,-3 26,-3l19 0 0 -9c0,-7 -2,-13 -6,-17 -4,-4 -10,-6 -18,-6 -4,0 -7,1 -10,1 -3,1 -5,2 -7,4 -2,2 -4,4 -5,6 -1,2 -2,5 -2,7l-31 0c0,-5 1,-11 4,-16 3,-5 6,-9 11,-13 5,-4 11,-7 18,-9 7,-2 15,-4 23,-4 8,0 15,1 21,3 6,2 12,5 17,9 5,4 8,9 11,15 3,6 4,13 4,20l0 60c0,12 2,22 5,29l0 2 -31 0zm-34 -22c4,0 7,0 10,-1 3,-1 6,-2 8,-4 3,-2 5,-3 7,-5 2,-2 3,-4 4,-6l0 -26 -16 0c-11,0 -20,2 -26,6 -6,4 -9,10 -9,17 0,3 0,5 1,8 1,2 2,4 4,6 2,2 4,3 7,4 3,1 6,1 9,1zm197 -90l-44 0 0 112 -31 0 0 -112 -44 0 0 -24 119 0 0 24zm72 114c-10,0 -19,-2 -27,-5 -8,-3 -15,-8 -21,-14 -6,-6 -10,-13 -13,-21 -3,-8 -5,-17 -5,-26l0 -5c0,-11 2,-20 5,-29 3,-9 8,-16 13,-22 6,-6 12,-11 20,-14 8,-3 16,-5 24,-5 10,0 18,2 26,5 7,3 13,8 18,14 5,6 8,13 11,21 2,8 4,17 4,27l0 13 -89 0c0,5 2,10 3,15 2,4 4,8 7,12 3,3 7,6 11,8 4,2 9,3 14,3 8,0 14,-2 20,-5 6,-3 10,-7 15,-12l16 16c-2,3 -5,6 -8,10 -3,3 -7,6 -11,8 -4,2 -9,4 -15,6 -5,1 -12,2 -18,2zm-4 -117c-8,0 -15,3 -20,9 -5,6 -8,14 -10,25l58 0 0 -2c0,-4 -1,-8 -2,-12 -1,-4 -3,-7 -5,-10 -2,-3 -5,-5 -9,-7 -3,-2 -8,-3 -13,-3zm202 59l-16 0 0 55 -31 0 0 -55 -16 0 -31 55 -38 0 45 -71 -43 -65 37 0 31 53 14 0 0 -53 31 0 0 53 14 0 31 -53 37 0 -43 65 45 71 -38 0 -31 -55zm204 55l-31 0 0 -55 -53 0 0 55 -31 0 0 -136 31 0 0 57 53 0 0 -57 31 0 0 136zm114 0c-1,-2 -2,-3 -2,-6 -1,-2 -1,-5 -1,-7 -2,2 -4,4 -7,6 -2,2 -5,3 -8,5 -3,1 -6,2 -10,3 -3,1 -7,1 -11,1 -7,0 -13,-1 -19,-3 -6,-2 -11,-5 -15,-9 -4,-4 -7,-8 -10,-13 -2,-5 -3,-10 -3,-16 0,-7 1,-14 4,-19 3,-6 7,-10 12,-14 5,-4 12,-7 19,-9 8,-2 16,-3 26,-3l19 0 0 -9c0,-7 -2,-13 -6,-17 -4,-4 -10,-6 -18,-6 -4,0 -7,1 -10,1 -3,1 -5,2 -7,4 -2,2 -4,4 -5,6 -1,2 -2,5 -2,7l-31 0c0,-5 1,-11 4,-16 3,-5 6,-9 11,-13 5,-4 11,-7 18,-9 7,-2 15,-4 23,-4 8,0 15,1 21,3 6,2 12,5 17,9 5,4 8,9 11,15 3,6 4,13 4,20l0 60c0,12 2,22 5,29l0 2 -31 0zm-34 -22c4,0 7,0 10,-1 3,-1 6,-2 8,-4 3,-2 5,-3 7,-5 2,-2 3,-4 4,-6l0 -26 -16 0c-11,0 -20,2 -26,6 -6,4 -9,10 -9,17 0,3 0,5 1,8 1,2 2,4 4,6 2,2 4,3 7,4 3,1 6,1 9,1zm201 -114l0 136 -30 0 0 -50 -29 0 -29 50 -32 0 32 -55c-8,-4 -15,-9 -19,-15 -5,-7 -7,-14 -7,-23 0,-6 1,-12 4,-17 3,-5 6,-10 11,-14 5,-4 10,-7 17,-9 7,-2 15,-3 23,-3l59 0zm-83 44c0,2 0,5 1,7 1,2 2,4 4,6 2,2 4,3 7,4 3,1 6,2 10,2l30 0 0 -39 -28 0c-4,0 -8,1 -11,2 -3,1 -6,3 -8,5 -2,2 -3,4 -4,6 -1,2 -1,5 -1,7zm237 70c4,0 7,-1 10,-2 3,-1 6,-3 8,-5 2,-2 4,-5 6,-7 1,-3 2,-6 2,-9l29 0c0,7 -2,13 -5,19 -3,6 -7,11 -12,15 -5,4 -11,8 -17,10 -7,3 -14,4 -21,4 -10,0 -20,-2 -27,-5 -8,-4 -14,-9 -19,-15 -5,-6 -9,-13 -12,-22 -2,-8 -4,-17 -4,-26l0 -4c0,-9 1,-18 4,-26 3,-8 6,-16 12,-22 5,-6 12,-11 19,-15 8,-4 17,-5 27,-5 8,0 16,1 22,4 7,3 13,6 17,11 5,5 9,10 11,16 3,6 4,13 4,21l-29 0c0,-4 -1,-7 -2,-10 -1,-3 -3,-6 -5,-9 -2,-2 -5,-4 -8,-6 -3,-1 -7,-2 -11,-2 -6,0 -11,1 -15,4 -4,3 -7,6 -10,10 -2,4 -4,9 -5,14 -1,5 -1,11 -1,16l0 4c0,6 0,11 1,16 1,5 3,10 5,14 2,4 6,7 10,10 4,3 9,4 15,4zm164 -114l30 0 0 136 -30 0 0 -91 -53 91 -30 0 0 -136 30 0 0 91 53 -91zm119 114c4,0 7,-1 10,-2 3,-1 6,-3 8,-5 2,-2 4,-5 6,-7 1,-3 2,-6 2,-9l29 0c0,7 -2,13 -5,19 -3,6 -7,11 -12,15 -5,4 -11,8 -17,10 -7,3 -14,4 -21,4 -10,0 -20,-2 -27,-5 -8,-4 -14,-9 -19,-15 -5,-6 -9,-13 -12,-22 -2,-8 -4,-17 -4,-26l0 -4c0,-9 1,-18 4,-26 3,-8 6,-16 12,-22 5,-6 12,-11 19,-15 8,-4 17,-5 27,-5 8,0 16,1 22,4 7,3 13,6 17,11 5,5 9,10 11,16 3,6 4,13 4,21l-29 0c0,-4 -1,-7 -2,-10 -1,-3 -3,-6 -5,-9 -2,-2 -5,-4 -8,-6 -3,-1 -7,-2 -11,-2 -6,0 -11,1 -15,4 -4,3 -7,6 -10,10 -2,4 -4,9 -5,14 -1,5 -1,11 -1,16l0 4c0,6 0,11 1,16 1,5 3,10 5,14 2,4 6,7 10,10 4,3 9,4 15,4zm186 -90l-44 0 0 112 -31 0 0 -112 -44 0 0 -24 119 0 0 24zm72 114c-10,0 -19,-2 -27,-5 -8,-3 -15,-8 -21,-14 -6,-6 -10,-13 -13,-21 -3,-8 -5,-17 -5,-26l0 -5c0,-11 2,-20 5,-29 3,-9 8,-16 13,-22 6,-6 12,-11 20,-14 8,-3 16,-5 24,-5 10,0 18,2 26,5 7,3 13,8 18,14 5,6 8,13 11,21 2,8 4,17 4,27l0 13 -89 0c0,5 2,10 3,15 2,4 4,8 7,12 3,3 7,6 11,8 4,2 9,3 14,3 8,0 14,-2 20,-5 6,-3 10,-7 15,-12l16 16c-2,3 -5,6 -8,10 -3,3 -7,6 -11,8 -4,2 -9,4 -15,6 -5,1 -12,2 -18,2zm-4 -117c-8,0 -15,3 -20,9 -5,6 -8,14 -10,25l58 0 0 -2c0,-4 -1,-8 -2,-12 -1,-4 -3,-7 -5,-10 -2,-3 -5,-5 -9,-7 -3,-2 -8,-3 -13,-3zm163 76l40 -99 38 0 0 136 -31 0 0 -90 -38 90 -21 0 -38 -91 0 91 -31 0 0 -136 39 0 40 99z"/>
    <path class="fil2" d="M5159 1331c-1,-2 -2,-3 -2,-6 -1,-2 -1,-5 -1,-7 -2,2 -4,4 -7,6 -2,2 -5,3 -8,5 -3,1 -6,2 -10,3 -3,1 -7,1 -11,1 -7,0 -13,-1 -19,-3 -6,-2 -11,-5 -15,-9 -4,-4 -7,-8 -10,-13 -2,-5 -3,-10 -3,-16 0,-7 1,-14 4,-19 3,-6 7,-10 12,-14 5,-4 12,-7 19,-9 8,-2 16,-3 26,-3l19 0 0 -9c0,-7 -2,-13 -6,-17 -4,-4 -10,-6 -18,-6 -4,0 -7,1 -10,1 -3,1 -5,2 -7,4 -2,2 -4,4 -5,6 -1,2 -2,5 -2,7l-31 0c0,-5 1,-11 4,-16 3,-5 6,-9 11,-13 5,-4 11,-7 18,-9 7,-2 15,-4 23,-4 8,0 15,1 21,3 6,2 12,5 17,9 5,4 8,9 11,15 3,6 4,13 4,20l0 60c0,12 2,22 5,29l0 2 -31 0zm-34 -22c4,0 7,0 10,-1 3,-1 6,-2 8,-4 2,-2 5,-3 6,-5 2,-2 3,-4 4,-6l0 -26 -16 0c-11,0 -20,2 -26,6 -6,4 -9,10 -9,17 0,3 0,5 1,8 1,2 2,4 4,6 2,2 4,3 7,4 3,1 6,1 9,1z"/>
   </g>
   <path class="fil3" d="M2648 1242l0 0c16,0 29,13 29,29l0 0c0,16 -13,29 -29,29l0 0c-16,0 -29,-13 -29,-29l0 0c0,-16 13,-29 29,-29z"/>
  </g>
 </g>
</svg>
