<svg width="40" height="13" viewBox="0 0 40 13" fill="none" xmlns="http://www.w3.org/2000/svg">
<path d="M0.19043 1.03604L0 1.22647L0.00827955 5.11786C0.0165591 7.47754 0.0496773 9.13345 0.0993547 9.32388C0.3643 10.3174 0.496773 10.6569 0.836235 11.1619C1.29989 11.8491 2.01193 12.4287 2.68258 12.6688C2.96408 12.7682 3.26214 12.8841 3.33666 12.9255C3.52709 13.0248 4.95117 13.0248 5.01741 12.9255C5.04225 12.8841 5.17472 12.8178 5.31547 12.793C5.82881 12.6771 6.43321 12.288 7.01278 11.7167C7.47644 11.2447 7.65031 11.0046 7.84902 10.5079C8.56106 8.78571 8.33751 7.03872 7.23633 5.68087C6.03579 4.20711 3.75892 3.82625 2.24376 4.84464C2.02021 4.99367 1.8215 5.09302 1.79666 5.06819C1.77182 5.04335 1.74699 4.14088 1.74699 3.05625C1.74699 1.16024 1.73871 1.08572 1.58139 1.03604C1.49032 1.0112 1.4158 0.944967 1.4158 0.90357C1.4158 0.862172 1.18398 0.829053 0.902471 0.837333C0.480214 0.845613 0.347741 0.878731 0.19043 1.03604ZM4.57859 5.97066C5.36515 6.14453 5.85364 6.56679 6.26762 7.42786C6.45805 7.84184 6.49117 8.00743 6.48289 8.61184C6.48289 9.38183 6.36698 9.74613 5.953 10.3257C4.98429 11.667 3.18763 11.5925 2.27688 10.1684C1.26677 8.59528 1.93742 6.55851 3.65128 5.9955C4.04042 5.86302 4.07354 5.86302 4.57859 5.97066Z" fill="white"/>
<path d="M18.4302 4.27335C17.4615 4.53002 16.8737 4.84464 16.3189 5.37453C15.3916 6.277 14.9942 7.27055 14.9942 8.67807C14.9942 9.57226 15.0853 9.9614 15.4744 10.7645C15.905 11.6422 17.0724 12.6026 17.95 12.793C18.0991 12.8178 18.2398 12.8841 18.2646 12.9255C18.2978 12.9669 18.7035 13 19.1754 13C19.6473 13 20.053 12.9669 20.0861 12.9255C20.111 12.8841 20.2517 12.8178 20.4008 12.793C21.2287 12.6191 22.3465 11.6504 22.7853 10.7314C22.9757 10.334 23.0006 10.2181 22.926 10.0525C22.835 9.86205 22.7936 9.85377 22.1064 9.85377H21.386L21.0963 10.2512C20.2683 11.4103 18.778 11.6008 17.5857 10.7066C17.2545 10.4665 17.2463 10.3754 17.5443 10.2595C17.7596 10.1767 17.9003 10.1187 18.9105 9.65506C19.1754 9.53915 19.4072 9.43979 19.4321 9.43979C19.4569 9.43979 19.6804 9.34872 19.9288 9.2328C20.1772 9.11689 20.6078 8.92646 20.8975 8.81055C21.4109 8.59528 21.7669 8.43797 22.5949 8.05711C22.8681 7.93291 23.0254 7.80872 23.0254 7.71764C23.0254 7.26227 22.5121 6.16937 22.0484 5.62292C21.7089 5.20894 20.9886 4.72873 20.3925 4.4969C19.846 4.29819 18.8111 4.174 18.4302 4.27335ZM20.0034 6.19421C20.3925 6.39292 20.823 6.81517 20.7734 6.95593C20.7568 7.0056 20.318 7.23743 19.7964 7.46098C19.2748 7.68453 18.7531 7.90807 18.6372 7.95775C18.3392 8.09022 17.9831 8.23926 17.6023 8.39657C17.4201 8.47936 17.2049 8.57044 17.1303 8.61184C16.7743 8.81055 16.7081 8.72775 16.7578 8.15646C16.8488 7.17947 17.4864 6.42603 18.5544 6.01206C18.8028 5.92098 19.6804 6.02862 20.0034 6.19421Z" fill="white"/>
<path d="M27.3721 4.35614C26.6353 4.57141 26.0557 4.91087 25.501 5.46561C23.8947 7.03872 23.7457 9.58054 25.1532 11.4186C25.5424 11.9402 26.4034 12.5363 26.9996 12.7185C27.2728 12.8013 27.4963 12.8924 27.4963 12.9338C27.4963 12.9669 27.9103 13 28.4071 13C28.9121 13 29.3178 12.9669 29.3178 12.9338C29.3178 12.8924 29.5414 12.8013 29.8229 12.7185C30.3693 12.5529 31.1559 12.023 31.5202 11.5594C31.6527 11.3938 31.8762 11.0295 32.0252 10.748C32.2571 10.2926 32.2736 10.2015 32.1826 10.0608C32.0915 9.92001 31.9673 9.89517 31.338 9.87033L30.6012 9.84549L30.3114 10.276C29.9305 10.8473 29.3427 11.1785 28.6306 11.2365C27.9931 11.2861 27.546 11.1702 27.0327 10.8225C26.569 10.5079 26.5028 10.3754 26.7677 10.276C26.8754 10.2346 27.1486 10.1187 27.3721 10.0194C28.258 9.62194 28.4733 9.52259 29.2764 9.1914C30.0299 8.8685 30.5515 8.64495 31.2635 8.32205C31.4043 8.26409 31.6858 8.13162 31.9093 8.04055C32.3564 7.85012 32.373 7.7756 32.1246 7.12152C31.5533 5.61464 30.5846 4.71217 29.144 4.35614C28.4899 4.19883 27.9269 4.19883 27.3721 4.35614ZM28.7797 6.02034C29.0446 6.07829 29.7898 6.51711 29.9636 6.7241C30.0216 6.79861 30.0464 6.90625 30.0216 6.9642C29.9967 7.03044 29.3178 7.35334 28.5064 7.69281C27.7033 8.03227 26.8588 8.39657 26.6353 8.5042C26.4034 8.60356 26.155 8.69463 26.064 8.69463C25.9232 8.69463 25.9149 8.65323 25.9646 8.21442C26.0474 7.51066 26.5028 6.7655 27.0823 6.37636C27.5294 6.07001 28.167 5.86302 28.4071 5.93754C28.4733 5.9541 28.6472 5.9955 28.7797 6.02034Z" fill="white"/>
<path d="M12.0544 4.45584C10.9532 4.8367 10.3571 5.51562 9.99276 6.78239C9.88513 7.14669 9.86029 7.72626 9.86029 9.86239C9.86029 11.3113 9.88513 12.545 9.90997 12.6195C9.95137 12.7271 10.1004 12.752 10.6882 12.752C11.1767 12.752 11.4417 12.7188 11.4996 12.6443C11.5576 12.5781 11.599 11.6011 11.6156 9.85411C11.6404 7.35368 11.6487 7.13842 11.806 6.83207C12.0627 6.31874 12.5263 6.04551 13.2383 5.98756C13.5695 5.96272 13.8759 5.8882 13.9173 5.83853C13.9669 5.77229 14.0001 5.43283 13.9835 5.03541L13.9587 4.34821L13.2135 4.33165C12.6836 4.32337 12.3442 4.35648 12.0544 4.45584Z" fill="white"/>
<path d="M33.5162 4.53036C33.4831 4.55519 33.4583 4.91122 33.4583 5.30863C33.4583 5.8882 33.4831 6.03724 33.5907 6.07863C33.6653 6.10347 34.5346 6.12831 35.5364 6.12831C36.53 6.12831 37.3497 6.16143 37.3497 6.20283C37.3497 6.2939 37.0102 6.73272 35.1142 9.10895C34.2283 10.2184 33.4583 11.212 33.4003 11.303C33.2761 11.51 33.2596 12.3711 33.3755 12.5946C33.4583 12.7437 33.5825 12.752 36.679 12.752C39.5355 12.752 39.908 12.7354 39.9494 12.6195C40.0405 12.3794 39.9991 11.2948 39.8998 11.1954C39.8253 11.1209 39.2622 11.096 37.8713 11.096C36.1905 11.096 35.9421 11.0795 35.9421 10.9718C35.9421 10.8973 36.8363 9.72992 37.9292 8.37207L39.9163 5.89648V5.34175C39.9163 4.3896 40.2144 4.4724 36.6542 4.4724C34.9569 4.4724 33.5411 4.49724 33.5162 4.53036Z" fill="white"/>
</svg>
