<svg width="815" height="662" viewBox="0 0 815 662" fill="none" xmlns="http://www.w3.org/2000/svg">
<g opacity="0.8">
<path d="M629.108 193.04H593.944V316.137H629.108V193.04Z" fill="#B7CFDB"/>
<path d="M614.01 202.021H609.057C607.146 202.021 605.597 203.571 605.597 205.484V255.581C605.597 257.494 607.146 259.045 609.057 259.045H614.01C615.922 259.045 617.471 257.494 617.471 255.581V205.484C617.471 203.571 615.922 202.021 614.01 202.021Z" fill="#FCFCFC"/>
<g opacity="0.24">
<path opacity="0.24" d="M611.534 304.356C615.16 304.356 618.099 301.414 618.099 297.786C618.099 294.157 615.16 291.216 611.534 291.216C607.909 291.216 604.97 294.157 604.97 297.786C604.97 301.414 607.909 304.356 611.534 304.356Z" fill="#0C0C0C"/>
<path opacity="0.24" d="M611.534 305.221C610.069 305.218 608.637 304.78 607.421 303.963C606.204 303.146 605.256 301.986 604.698 300.63C604.139 299.274 603.995 297.783 604.283 296.345C604.571 294.907 605.278 293.587 606.316 292.551C607.353 291.515 608.674 290.81 610.111 290.525C611.549 290.24 613.038 290.388 614.392 290.95C615.745 291.512 616.902 292.463 617.716 293.683C618.53 294.902 618.964 296.336 618.964 297.803C618.959 299.772 618.175 301.659 616.782 303.049C615.389 304.44 613.502 305.221 611.534 305.221ZM611.534 292.064C610.404 292.068 609.301 292.406 608.363 293.037C607.425 293.668 606.695 294.562 606.265 295.608C605.835 296.654 605.724 297.803 605.947 298.912C606.169 300.021 606.715 301.039 607.515 301.837C608.315 302.635 609.334 303.179 610.442 303.398C611.551 303.617 612.699 303.503 613.743 303.07C614.786 302.636 615.678 301.903 616.305 300.962C616.933 300.022 617.268 298.916 617.268 297.786C617.274 297.028 617.131 296.276 616.846 295.574C616.561 294.872 616.139 294.233 615.606 293.695C615.073 293.157 614.439 292.73 613.74 292.438C613.041 292.147 612.291 291.997 611.534 291.997V292.064Z" fill="white"/>
</g>
<path d="M664.033 193.04H628.87V316.137H664.033V193.04Z" fill="url(#paint0_linear)"/>
<path d="M648.852 202.021H644.034C642.086 202.021 640.506 203.601 640.506 205.552V255.514C640.506 257.464 642.086 259.045 644.034 259.045H648.852C650.8 259.045 652.38 257.464 652.38 255.514V205.552C652.38 203.601 650.8 202.021 648.852 202.021Z" fill="#FCFCFC"/>
<g opacity="0.24">
<path opacity="0.24" d="M646.443 304.356C650.069 304.356 653.008 301.414 653.008 297.786C653.008 294.157 650.069 291.216 646.443 291.216C642.818 291.216 639.879 294.157 639.879 297.786C639.879 301.414 642.818 304.356 646.443 304.356Z" fill="#0C0C0C"/>
<path opacity="0.24" d="M646.443 305.221C644.978 305.218 643.546 304.78 642.33 303.963C641.113 303.146 640.165 301.986 639.607 300.63C639.048 299.274 638.904 297.783 639.192 296.345C639.48 294.907 640.187 293.587 641.225 292.551C642.262 291.515 643.583 290.81 645.02 290.525C646.458 290.24 647.947 290.388 649.301 290.95C650.654 291.512 651.811 292.463 652.625 293.683C653.438 294.902 653.873 296.336 653.873 297.803C653.868 299.772 653.083 301.659 651.691 303.049C650.298 304.44 648.411 305.221 646.443 305.221ZM646.443 292.064C645.313 292.068 644.21 292.406 643.272 293.037C642.334 293.668 641.604 294.562 641.174 295.608C640.744 296.654 640.633 297.803 640.856 298.912C641.078 300.021 641.624 301.039 642.424 301.837C643.224 302.635 644.243 303.179 645.351 303.398C646.459 303.617 647.608 303.503 648.652 303.07C649.695 302.636 650.587 301.903 651.214 300.962C651.842 300.022 652.176 298.916 652.176 297.786C652.183 297.028 652.04 296.276 651.755 295.574C651.47 294.872 651.048 294.233 650.515 293.695C649.982 293.157 649.348 292.73 648.649 292.438C647.95 292.147 647.2 291.997 646.443 291.997V292.064Z" fill="white"/>
</g>
<g opacity="0.24">
<path opacity="0.24" d="M815 647.451C815 655.175 577.185 662.73 381.946 661.932C186.707 661.134 0 653.936 0 646.212C0 638.487 183.535 627.758 378.774 628.624C574.013 629.49 815.034 639.744 815 647.451Z" fill="#13BF49" fill-opacity="0.552486"/>
</g>
<path d="M351.888 409.763L452.544 633.191H427.677L331.143 416.367L351.888 409.763Z" fill="#C4C4C4"/>
<path d="M230.521 427.384L136.939 635.126H161.823L254.015 428.063L230.521 427.384Z" fill="#C4C4C4"/>
<path d="M228.842 171.904C200.497 180.97 194.815 195.485 187.453 218.845C181.703 237.128 168.794 407.878 209.657 436.671C225.772 447.994 311.67 445.702 355.094 443.563C370.276 442.816 395.804 445.43 400.113 421.188L403.505 342.909C403.505 342.909 314.079 290.706 308.176 277.957C302.273 265.207 308.922 191.037 308.922 191.037C308.922 191.037 286.107 153.587 228.842 171.904Z" fill="#13BF49" fill-opacity="0.67"/>
<path d="M368.088 605.621C386.119 558.087 463.214 425.109 448.914 401.122C444.979 394.535 421.147 389.238 418.517 390.749C415.888 392.26 344.459 608.728 344.459 608.728C344.459 608.728 366.052 611.155 368.088 605.621Z" fill="#F4BEAB"/>
<path d="M413.327 642.494C399.757 647.706 370.92 643.462 363.592 637.011C362.497 636.012 361.284 635.151 359.979 634.447C359.442 634.152 358.873 633.918 358.283 633.751C357.74 633.569 357.162 633.519 356.595 633.604C356.029 633.69 355.491 633.909 355.026 634.243C354.337 634.823 353.84 635.599 353.602 636.467L335.078 635.737L335.163 633.497V631.799L335.876 612.31C343.763 584.74 384.049 619.813 384.049 619.813L393.294 621.053C393.294 621.053 427.762 636.96 413.327 642.494Z" fill="url(#paint1_linear)" fill-opacity="0.789842"/>
<path d="M338.284 603.193C338.284 603.193 363.626 630.016 378.061 629.337C396.618 628.454 398.145 624.074 392.598 620.56C387.051 617.046 368.46 610.476 368.121 606.436C367.85 603.363 369.987 595.265 369.987 595.265C369.987 595.265 341.524 597.744 338.284 603.193Z" fill="#F4BEAB"/>
<path d="M355.789 205.416C353.754 217.147 350.243 240.608 321.305 231.119C302.646 224.973 290.568 221.221 284.258 216.196C282.654 215.066 281.336 213.576 280.408 211.846C279.481 210.116 278.969 208.194 278.915 206.231C278.474 194.653 260.07 93.9651 260.511 89.2626C260.663 87.5649 261.579 81.9627 262.665 75.4607C264.616 63.7468 267.211 49.2319 267.211 49.2319C267.211 49.2319 269.263 20.8811 290.297 21.3225C294.059 21.4045 297.778 22.1398 301.289 23.4955L302.052 23.8011C302.252 23.8685 302.445 23.9537 302.629 24.0557C317.692 30.4728 328.598 45.5989 333.161 61.2852C338.861 81.029 332.296 144.997 340.303 160.496C350.158 179.697 358.86 187.659 355.789 205.416Z" fill="url(#paint2_linear)"/>
<g opacity="0.24">
<path opacity="0.24" d="M334.4 227.655L332.823 227.027C333.789 224.634 335.146 221.934 336.571 219.048C342.966 206.18 350.938 190.188 339.15 177.931C327.768 166.048 327.361 133.3 327.004 104.338C326.869 93.6256 326.75 83.5076 326.071 75.3419C323.103 39.5893 297.71 33.5796 297.456 33.5287L297.812 31.8311C298.083 31.8311 324.68 38.1803 327.768 75.1721C328.446 83.3888 328.582 93.5408 328.701 104.287C329.057 132.926 329.447 165.402 340.371 176.726C352.991 189.815 344.374 207.131 338.098 219.778C336.69 222.647 335.35 225.33 334.4 227.655Z" fill="#0C0C0C"/>
</g>
<path d="M337.86 182.345C337.86 182.345 399.112 278.279 401.741 290.129C404.37 301.978 363.287 303.065 363.287 303.065L324.51 267.414L337.86 182.345Z" fill="#EFEAEA"/>
<path d="M358.419 293.507C358.419 293.507 359.453 277.651 384.439 274.307C397.076 272.609 402.284 285.07 400.808 290.163C399.332 295.256 385.44 304.032 384.439 304.032C383.439 304.032 358.419 300.637 358.419 300.637V293.507Z" fill="#D6D4D4"/>
<g opacity="0.24">
<path opacity="0.24" d="M321.474 168.628C334.739 85.5279 300.39 41.8473 276.15 58.1448C251.911 74.4422 258.831 162.075 259.68 164.129C260.528 166.183 296.268 209.457 300.034 207.827C303.799 206.197 319.608 180.342 321.474 168.628Z" fill="#0C0C0C"/>
</g>
<path d="M325.257 599.526C325.257 599.526 291.095 624.737 287.295 638.793C283.495 652.85 292.095 656.245 302.018 653.614C311.942 650.982 340.218 636.314 346.325 612.327C347.851 606.334 338.827 600.443 338.827 600.443L325.257 599.526Z" fill="url(#paint3_linear)"/>
<path d="M418.585 390.766C417.364 388.016 399.044 378.322 391.92 381.174C382.675 384.892 351.617 425.093 344.526 478.467C336.198 541.178 325.24 600.392 325.24 600.392C325.24 600.392 295.488 628.132 298.541 636.026C301.594 643.92 322.475 633.463 333.026 626.129C337.86 622.734 341.88 615.128 344.221 609.712C366.289 558.528 419.738 393.346 418.585 390.766Z" fill="#FFCCB6"/>
<path d="M293.113 194.296C292.944 198.557 289.941 207.334 284.259 216.128C274.522 231.22 255.914 252.288 231.081 244.598C216.951 240.218 207.537 234.785 201.668 228.114C201.125 227.502 200.616 226.874 200.141 226.229C195.724 220.207 193.432 212.885 193.628 205.416C193.628 204.352 193.628 203.266 193.628 202.157C193.628 200.934 193.78 199.678 193.916 198.405C195.935 179.068 217.935 168.56 226.382 149.784C233.761 133.385 224.449 86.2747 235.186 51.8463C241.343 32.1365 258.052 9.88028 280.714 9.40494C282.001 9.37238 283.289 9.44619 284.564 9.62563C289.731 10.3106 294.444 12.939 297.744 16.9765L298.914 18.4704C299.963 19.9357 300.888 21.4859 301.679 23.105C301.815 23.3597 301.934 23.6143 302.052 23.8859C302.171 24.1575 302.205 24.2424 302.29 24.4122C297.903 28.613 294.597 33.8146 292.655 39.5722C292.359 40.4658 292.154 41.3873 292.045 42.3224C291.23 48.5189 294.708 53.9853 299.763 57.839C302.958 60.26 306.62 61.9939 310.517 62.932C311.755 69.7226 302.782 76.5132 302.952 78.3127C303.426 82.8964 293.588 182.701 293.113 194.296Z" fill="url(#paint4_linear)"/>
<g opacity="0.24">
<path opacity="0.24" d="M264.209 118.343C271.706 146.083 261.105 170.478 254.608 174.451C254.065 174.79 290.23 172.057 292.91 161.701C300.034 134.386 261.122 106.952 264.209 118.343Z" fill="#0C0C0C"/>
</g>
<path d="M340.269 360.904C340.269 376.212 334.193 390.894 323.377 401.718C312.561 412.543 297.892 418.624 282.596 418.624H282.223C270.834 418.547 259.722 415.096 250.289 408.707C240.856 402.318 233.525 393.277 229.22 382.723C224.914 372.17 223.828 360.577 226.097 349.406C228.366 338.235 233.889 327.987 241.97 319.954C250.051 311.92 260.328 306.462 271.505 304.266C282.681 302.07 294.257 303.236 304.773 307.616C315.289 311.996 324.273 319.394 330.593 328.877C336.913 338.361 340.286 349.505 340.286 360.904H340.269Z" fill="#016E7D"/>
<path d="M275.2 131.874C275.2 131.874 279.39 169.986 258.356 173.5H318.896C318.896 173.5 295.335 167.355 304.003 129.208C303.935 129.208 284.971 120.958 275.2 131.874Z" fill="#FFCCB6"/>
<path d="M337.894 320.857L246.466 322.673C246.466 322.673 245.957 319.957 245.109 315.271C240.461 289.552 225.941 204.669 232.964 187.625C233.285 186.733 233.821 185.934 234.524 185.299L234.728 185.146C235.22 184.739 235.695 184.365 236.187 183.992C242.669 178.894 250.2 175.3 258.238 173.466H318.896C325.014 175.513 331.011 177.905 336.859 180.63C339.726 182.056 345.103 207.284 354.975 237.077C361.506 256.991 337.894 320.857 337.894 320.857Z" fill="white"/>
<path d="M268.636 171.259L298.914 210.831L318.845 173.483C318.845 173.483 335.943 177.54 337.894 181.971C339.048 184.62 299.813 220.101 299.813 220.101L240.868 180.443C244.359 176.71 248.731 173.912 253.582 172.308C258.433 170.703 263.609 170.342 268.636 171.259Z" fill="#EEFDF3"/>
<path d="M374.007 290.18C367.527 295.018 360.793 300.926 361.573 304.033L408.882 304.559C408.882 304.559 410.171 297.361 400.808 290.163C396.948 287.246 392.242 285.669 387.405 285.672C382.568 285.675 377.864 287.258 374.007 290.18Z" fill="#DDA794"/>
<path d="M448.982 401.122C426.126 396.796 402.481 401.316 382.828 413.769C375.619 418.336 364 424.312 357.147 432.087L347.122 430.287L345.731 430.033L282.172 418.608L263.819 415.484L275.421 400.527L330.753 329.226C330.753 329.226 402.132 357.458 437.617 389.238L439.127 390.613C442.695 393.839 445.991 397.353 448.982 401.122Z" fill="url(#paint5_linear)"/>
<g opacity="0.24">
<path opacity="0.24" d="M382.879 413.769C375.67 418.336 364.051 424.311 357.198 432.087L282.223 418.607C272.094 418.543 262.161 415.809 253.422 410.682C244.684 405.555 237.449 398.215 232.445 389.401C227.442 380.586 224.846 370.608 224.919 360.471C224.992 350.334 227.732 340.394 232.862 331.653C237.086 331.568 240.343 331.433 240.343 331.433C240.343 331.433 236.509 386.538 275.472 400.527C314.435 414.516 382.879 413.769 382.879 413.769Z" fill="#0C0C0C"/>
</g>
<path d="M505.009 339.819V643.275L485.858 643.258L470.931 355.098L470.304 342.807L505.009 339.819Z" fill="#D5D5D5"/>
<g opacity="0.24">
<path opacity="0.24" d="M505.009 342.807V355.098H470.931L470.304 342.807H505.009Z" fill="black"/>
</g>
<path d="M56.0275 342.807L55.3999 355.098L40.3032 646.28H21.3221V342.807H56.0275Z" fill="#D9D7D6"/>
<path d="M671.751 342.807V646.28H652.77L637.691 355.098L637.063 342.807H671.751Z" fill="#D9D7D6"/>
<path d="M523.329 83.1851H461.856C458.802 83.1851 456.326 85.6629 456.326 88.7194V117.41C456.326 120.466 458.802 122.944 461.856 122.944H523.329C526.383 122.944 528.858 120.466 528.858 117.41V88.7194C528.858 85.6629 526.383 83.1851 523.329 83.1851Z" fill="#13BF49" fill-opacity="0.83601"/>
<path d="M520.75 95.5609H466.674C466.42 95.5609 466.176 95.4599 465.996 95.28C465.816 95.1001 465.715 94.8561 465.715 94.6017C465.715 94.3474 465.816 94.1034 465.996 93.9235C466.176 93.7436 466.42 93.6426 466.674 93.6426H520.75C521.005 93.6426 521.248 93.7436 521.428 93.9235C521.608 94.1034 521.709 94.3474 521.709 94.6017C521.709 94.8561 521.608 95.1001 521.428 95.28C521.248 95.4599 521.005 95.5609 520.75 95.5609Z" fill="white"/>
<path d="M507.774 104.032H467.539C467.285 104.032 467.041 103.931 466.862 103.751C466.682 103.571 466.581 103.327 466.581 103.073C466.581 102.819 466.682 102.575 466.862 102.395C467.041 102.215 467.285 102.114 467.539 102.114H507.791C508.046 102.114 508.289 102.215 508.469 102.395C508.649 102.575 508.75 102.819 508.75 103.073C508.75 103.327 508.649 103.571 508.469 103.751C508.289 103.931 508.046 104.032 507.791 104.032H507.774Z" fill="#FAFAFA"/>
<path d="M508.639 112.503H466.674C466.42 112.503 466.176 112.402 465.996 112.222C465.816 112.042 465.715 111.799 465.715 111.544C465.715 111.29 465.816 111.046 465.996 110.866C466.176 110.686 466.42 110.585 466.674 110.585H508.639C508.893 110.585 509.137 110.686 509.317 110.866C509.497 111.046 509.597 111.29 509.597 111.544C509.597 111.799 509.497 112.042 509.317 112.222C509.137 112.402 508.893 112.503 508.639 112.503Z" fill="white"/>
<path d="M602.51 100.942H569.314C563.637 100.942 559.035 105.548 559.035 111.23V127.307C559.035 132.989 563.637 137.595 569.314 137.595H602.51C608.187 137.595 612.79 132.989 612.79 127.307V111.23C612.79 105.548 608.187 100.942 602.51 100.942Z" fill="#13BF49" fill-opacity="0.552486"/>
<path d="M604.817 111.757H567.669C567.415 111.757 567.171 111.656 566.991 111.476C566.812 111.296 566.711 111.052 566.711 110.798C566.711 110.543 566.812 110.299 566.991 110.119C567.171 109.939 567.415 109.838 567.669 109.838H604.817C605.071 109.838 605.315 109.939 605.494 110.119C605.674 110.299 605.775 110.543 605.775 110.798C605.775 111.052 605.674 111.296 605.494 111.476C605.315 111.656 605.071 111.757 604.817 111.757Z" fill="white"/>
<path d="M595.928 120.228H568.245C567.991 120.228 567.748 120.127 567.568 119.947C567.388 119.767 567.287 119.523 567.287 119.269C567.287 119.014 567.388 118.77 567.568 118.591C567.748 118.411 567.991 118.31 568.245 118.31H595.911C596.166 118.31 596.409 118.411 596.589 118.591C596.769 118.77 596.87 119.014 596.87 119.269C596.87 119.523 596.769 119.767 596.589 119.947C596.409 120.127 596.166 120.228 595.911 120.228H595.928Z" fill="white"/>
<path d="M596.523 128.699H567.686C567.432 128.699 567.188 128.598 567.008 128.418C566.829 128.238 566.728 127.994 566.728 127.74C566.728 127.486 566.829 127.242 567.008 127.062C567.188 126.882 567.432 126.781 567.686 126.781H596.523C596.777 126.781 597.02 126.882 597.2 127.062C597.38 127.242 597.481 127.486 597.481 127.74C597.481 127.994 597.38 128.238 597.2 128.418C597.02 128.598 596.777 128.699 596.523 128.699Z" fill="white"/>
<path d="M527.078 151.991H488.115C484.03 151.991 480.719 155.305 480.719 159.392V181.241C480.719 185.329 484.03 188.643 488.115 188.643H527.078C531.162 188.643 534.474 185.329 534.474 181.241V159.392C534.474 155.305 531.162 151.991 527.078 151.991Z" fill="#13BF49" fill-opacity="0.75"/>
<path d="M527.213 162.449H490.065C489.811 162.449 489.567 162.348 489.387 162.168C489.208 161.988 489.107 161.744 489.107 161.489C489.107 161.235 489.208 160.991 489.387 160.811C489.567 160.631 489.811 160.53 490.065 160.53H527.213C527.467 160.53 527.711 160.631 527.891 160.811C528.071 160.991 528.172 161.235 528.172 161.489C528.172 161.744 528.071 161.988 527.891 162.168C527.711 162.348 527.467 162.449 527.213 162.449Z" fill="white"/>
<path d="M518.325 170.92H490.659C490.405 170.92 490.161 170.819 489.981 170.639C489.802 170.459 489.701 170.215 489.701 169.961C489.701 169.706 489.802 169.462 489.981 169.282C490.161 169.103 490.405 169.001 490.659 169.001H518.325C518.579 169.001 518.823 169.103 519.003 169.282C519.182 169.462 519.283 169.706 519.283 169.961C519.283 170.215 519.182 170.459 519.003 170.639C518.823 170.819 518.579 170.92 518.325 170.92Z" fill="#FAFAFA"/>
<path d="M518.919 179.391H490.083C489.828 179.391 489.585 179.29 489.405 179.11C489.225 178.93 489.124 178.686 489.124 178.432C489.124 178.177 489.225 177.933 489.405 177.754C489.585 177.574 489.828 177.473 490.083 177.473H518.919C519.173 177.473 519.417 177.574 519.597 177.754C519.776 177.933 519.877 178.177 519.877 178.432C519.877 178.686 519.776 178.93 519.597 179.11C519.417 179.29 519.173 179.391 518.919 179.391Z" fill="#FAFAFA"/>
<g opacity="0.24">
<path opacity="0.24" d="M56.0275 342.807L55.3999 355.098H21.3221V342.807H56.0275Z" fill="black"/>
</g>
<g opacity="0.24">
<path opacity="0.24" d="M671.751 342.807V355.098H637.691L637.063 342.807H671.751Z" fill="black"/>
</g>
<path d="M236.204 342.807L235.576 355.098L220.496 650.201H201.498V342.807H236.204Z" fill="#E5E5E5"/>
<g opacity="0.24">
<path opacity="0.24" d="M236.204 342.807L235.576 355.098H201.498V342.807H236.204Z" fill="black"/>
</g>
<path d="M811.845 542.298L800.633 618.863L799.225 628.471C798.541 633.16 796.193 637.445 792.611 640.544C789.029 643.642 784.452 645.347 779.718 645.346H728.83C723.999 645.342 719.336 643.566 715.726 640.353C712.115 637.139 709.807 632.713 709.239 627.911L708.289 619.796L699.146 542.01C698.981 540.603 699.115 539.177 699.54 537.826C699.965 536.475 700.671 535.229 701.611 534.171C702.552 533.112 703.706 532.265 704.997 531.685C706.288 531.105 707.688 530.805 709.103 530.805H801.905C803.348 530.799 804.774 531.105 806.088 531.703C807.401 532.3 808.57 533.175 809.514 534.266C810.458 535.358 811.155 536.641 811.557 538.027C811.96 539.413 812.058 540.87 811.845 542.298Z" fill="#0A687D"/>
<path d="M719.077 435.89C735.208 435.89 744.521 464.546 742.282 478.687C740.043 492.829 745.674 523.692 745.674 523.692C745.674 523.692 721.011 530.483 721.927 482.626C722.13 470.776 706.491 435.907 719.077 435.89Z" fill="#13BF49" fill-opacity="0.83601"/>
<path d="M776.987 458.366C776.987 458.366 789.929 432.902 797.104 435.143C804.28 437.384 810.081 465.157 805.586 474.562C801.091 483.967 789.539 528.31 776.97 526.969C764.401 525.627 740.687 512.572 745.606 502.981C750.525 493.389 776.987 458.366 776.987 458.366Z" fill="#93E2AC"/>
<path d="M748.303 544.743C746.336 535.338 734.411 512.657 733.376 502.981C729 498.771 712.054 477.244 699.604 478.45C685.762 479.791 712.037 518.871 728.813 536.594C729.085 531.807 749.321 549.53 748.303 544.743Z" fill="#13BF49" fill-opacity="0.552486"/>
<path d="M790.455 536.357C785.478 538.591 780.152 539.947 774.714 540.363C773.543 540.499 772.39 540.635 771.186 540.72C761.015 541.386 750.81 541.295 740.653 540.448C737.679 540.212 734.89 538.91 732.799 536.781L730.662 534.591C728.508 532.367 726.676 520.263 726.099 517.258C724.674 509.5 722.079 435.194 755.699 386.658C759.329 381.412 763.247 379.154 766.775 378.984C767.491 378.944 768.209 378.996 768.913 379.137C774.001 380.139 778.021 385.605 778.547 392.294C780.786 421.748 781.516 467.551 766.674 483.679C744.029 508.176 759.888 517.971 767.284 510.62C773.136 504.78 786.723 474.494 796.663 475.954C797.299 476.05 797.91 476.269 798.461 476.599C800.31 477.669 801.99 480.113 803.397 484.29C812.506 511.248 805.721 528.395 790.455 536.357Z" fill="#13BF49" fill-opacity="0.552486"/>
<path d="M743.197 535.949C743.214 536.064 743.208 536.181 743.18 536.293C743.151 536.406 743.101 536.512 743.032 536.605C742.962 536.698 742.875 536.776 742.776 536.836C742.676 536.895 742.566 536.934 742.451 536.951H742.315C742.102 536.949 741.895 536.871 741.734 536.731C741.572 536.591 741.466 536.398 741.433 536.187C741.264 535.117 726.574 433.003 766.741 378.967C767.457 378.927 768.176 378.979 768.879 379.12C728.287 432.307 742.96 534.88 743.197 535.949Z" fill="white"/>
<path d="M798.36 476.616C797.41 488.805 793.101 525.271 774.714 540.363C771.114 543.397 766.819 545.491 762.212 546.458L761.856 544.76C765.201 544.076 768.373 542.725 771.186 540.787C791.049 527.359 795.646 487.838 796.629 476.022C797.238 476.11 797.825 476.312 798.36 476.616Z" fill="#FAFAFA"/>
<path d="M744.656 435.889C744.484 435.887 744.317 435.835 744.174 435.74C744.03 435.645 743.917 435.511 743.848 435.354C743.778 435.197 743.755 435.023 743.781 434.853C743.807 434.683 743.881 434.525 743.994 434.395L766.707 409.372C766.873 409.223 767.088 409.14 767.311 409.141C767.534 409.142 767.749 409.225 767.914 409.375C768.079 409.526 768.182 409.732 768.203 409.954C768.225 410.176 768.163 410.398 768.03 410.577L745.25 435.601C745.097 435.77 744.884 435.874 744.656 435.889Z" fill="white"/>
<path d="M740.942 471.812C740.77 471.809 740.602 471.758 740.459 471.663C740.316 471.568 740.203 471.434 740.133 471.277C740.063 471.12 740.04 470.946 740.066 470.776C740.092 470.606 740.167 470.447 740.28 470.318L761.364 447.009C761.439 446.908 761.534 446.824 761.644 446.762C761.753 446.701 761.874 446.662 761.999 446.65C762.124 446.638 762.25 446.652 762.37 446.692C762.489 446.732 762.598 446.796 762.691 446.88C762.784 446.965 762.858 447.068 762.909 447.183C762.959 447.298 762.985 447.423 762.985 447.548C762.985 447.674 762.958 447.798 762.907 447.913C762.856 448.028 762.781 448.13 762.687 448.215L741.603 471.506C741.52 471.601 741.419 471.677 741.305 471.729C741.191 471.782 741.067 471.81 740.942 471.812Z" fill="white"/>
<path d="M739.686 504.288C739.532 504.286 739.38 504.245 739.247 504.167C739.113 504.09 739.001 503.979 738.923 503.847C736.124 499.178 728.745 486.87 728.406 486.395C728.336 486.297 728.286 486.186 728.26 486.068C728.233 485.95 728.231 485.829 728.252 485.71C728.274 485.592 728.319 485.478 728.385 485.378C728.45 485.277 728.536 485.19 728.636 485.123C728.736 485.056 728.849 485.01 728.967 484.987C729.085 484.964 729.207 484.965 729.324 484.991C729.442 485.016 729.554 485.064 729.652 485.133C729.751 485.203 729.835 485.291 729.899 485.393C730.357 486.072 740.076 502.234 740.466 502.913C740.585 503.116 740.62 503.358 740.563 503.586C740.506 503.815 740.362 504.012 740.161 504.135C740.02 504.23 739.856 504.283 739.686 504.288Z" fill="white"/>
<path d="M787.063 522.198C786.882 522.196 786.707 522.14 786.558 522.037C786.41 521.934 786.296 521.789 786.232 521.621L779.972 505.035C779.931 504.923 779.912 504.805 779.917 504.686C779.921 504.567 779.949 504.45 779.999 504.342C780.049 504.234 780.119 504.137 780.206 504.056C780.293 503.976 780.395 503.913 780.507 503.872C780.618 503.83 780.737 503.812 780.855 503.816C780.974 503.821 781.09 503.849 781.198 503.898C781.306 503.948 781.403 504.018 781.484 504.105C781.565 504.193 781.628 504.295 781.669 504.406L787.928 520.993C788.01 521.215 788.001 521.462 787.903 521.678C787.804 521.895 787.624 522.063 787.402 522.147C787.293 522.185 787.178 522.202 787.063 522.198Z" fill="white"/>
<path d="M743.35 531.705C743.188 531.703 743.028 531.657 742.89 531.571C742.751 531.486 742.639 531.364 742.564 531.219C742.489 531.075 742.455 530.912 742.465 530.75C742.475 530.587 742.529 530.43 742.621 530.296C742.926 529.855 750.186 519.431 754.071 516.019C754.253 515.886 754.479 515.826 754.703 515.852C754.927 515.878 755.134 515.987 755.281 516.158C755.428 516.329 755.506 516.55 755.499 516.775C755.491 517.001 755.399 517.216 755.241 517.377C751.526 520.636 744.164 531.213 744.097 531.315C744.014 531.436 743.902 531.535 743.772 531.603C743.642 531.671 743.497 531.706 743.35 531.705Z" fill="white"/>
<path d="M811.845 542.298L810.148 554.318L809.894 556.117L801.701 611.936C801.19 615.803 799.516 619.422 796.901 622.315C794.287 625.207 790.855 627.236 787.062 628.132C785.391 628.501 783.685 628.683 781.974 628.675H726.099C721.405 628.55 716.916 626.723 713.465 623.535C710.015 620.348 707.838 616.015 707.338 611.342L700.859 556.117L700.638 554.318L699.196 542.01C699.031 540.603 699.165 539.177 699.59 537.826C700.015 536.475 700.721 535.229 701.662 534.171C702.602 533.112 703.756 532.265 705.047 531.685C706.339 531.105 707.738 530.805 709.153 530.805H801.955C803.394 530.807 804.815 531.118 806.122 531.719C807.429 532.319 808.591 533.195 809.53 534.285C810.468 535.376 811.161 536.656 811.56 538.039C811.96 539.422 812.057 540.875 811.845 542.298Z" fill="url(#paint6_linear)"/>
<path d="M810.064 554.318L809.809 556.117H700.842L700.621 554.318H810.064Z" fill="white"/>
<path d="M261.631 170.869L298.914 210.849L318.845 173.5L295.59 168.628L261.631 170.869Z" fill="#FFCCB6"/>
<g opacity="0.24">
<path opacity="0.24" d="M275.201 131.874C275.201 131.874 300.424 134.251 304.699 129.582C303.886 131.725 302.922 133.807 301.815 135.812C300.119 138.291 292.638 139.377 288.601 139.208C285.972 139.023 283.413 138.272 281.1 137.007C278.787 135.741 276.775 133.99 275.201 131.874Z" fill="#333232"/>
</g>
<path d="M322.17 89.2627C322.17 115.441 309.092 136.661 290.06 136.661C271.028 136.661 255.609 115.441 255.609 89.2627C255.609 63.0849 271.045 41.8643 290.06 41.8643C309.075 41.8643 322.17 63.0849 322.17 89.2627Z" fill="#FFCCB6"/>
<path d="M291.943 106.443C291.853 106.463 291.761 106.463 291.671 106.443C291.52 106.37 291.403 106.24 291.346 106.081C291.289 105.922 291.296 105.748 291.366 105.594C291.96 104.355 295.522 101.554 297.422 100.111C295.804 99.1917 294.441 97.885 293.453 96.308C291.298 93.2183 289.415 88.3461 290.603 83.9831C290.648 83.821 290.755 83.6834 290.902 83.6007C291.048 83.5179 291.221 83.4967 291.383 83.5417C291.545 83.5867 291.682 83.6943 291.765 83.8407C291.848 83.9872 291.869 84.1605 291.824 84.3226C290.738 88.2612 292.486 92.709 294.487 95.5781C295.443 97.2851 297.005 98.5699 298.864 99.1771C298.997 99.1813 299.126 99.2281 299.231 99.3106C299.336 99.3931 299.412 99.5071 299.448 99.6359C299.484 99.7647 299.478 99.9016 299.431 100.027C299.384 100.152 299.298 100.259 299.186 100.331C296.751 101.989 294.515 103.92 292.52 106.087C292.466 106.194 292.384 106.284 292.282 106.347C292.18 106.41 292.063 106.443 291.943 106.443Z" fill="#DDA794"/>
<path d="M291.264 117.392C288.401 117.456 285.576 116.721 283.105 115.27C282.963 115.19 282.851 115.065 282.787 114.915C282.722 114.764 282.709 114.597 282.749 114.439C282.78 114.317 282.847 114.208 282.941 114.126C283.034 114.043 283.15 113.99 283.274 113.973C283.398 113.957 283.524 113.978 283.636 114.033C283.748 114.089 283.841 114.177 283.902 114.286C286.359 115.561 289.102 116.182 291.867 116.09C294.633 115.998 297.328 115.195 299.694 113.76C299.838 113.7 299.999 113.694 300.147 113.744C300.294 113.794 300.419 113.895 300.497 114.03C300.576 114.165 300.603 114.323 300.574 114.476C300.545 114.629 300.462 114.767 300.339 114.863C297.596 116.506 294.461 117.38 291.264 117.392Z" fill="#DDA794"/>
<path d="M261.054 77.7183C259.833 78.0239 263.564 73.3893 273.471 72.846C276.439 72.6763 281.307 73.0158 282.308 74.1193C283.309 75.2227 282.8 77.7183 277.525 77.1581C272.042 76.422 266.474 76.6114 261.054 77.7183Z" fill="#4F4F4F"/>
<path d="M277.175 87.1365C277.453 85.14 276.671 83.3807 275.428 83.2069C274.185 83.0332 272.951 84.5108 272.673 86.5072C272.394 88.5036 273.176 90.2629 274.419 90.4367C275.663 90.6105 276.896 89.1329 277.175 87.1365Z" fill="#2B2B2B"/>
<path d="M267.975 83.4567L278.186 82.6758L278.051 85.8334L268.06 84.4583L267.975 83.4567Z" fill="#2B2B2B"/>
<path d="M318.625 78.0919C319.846 78.3975 316.589 73.2706 306.751 72.7274C303.783 72.5576 301.238 72.3369 299.813 73.2367C297.422 74.7476 299.966 77.7185 303.206 77.1752C308.357 76.489 313.591 76.8002 318.625 78.0919Z" fill="#4F4F4F"/>
<path d="M309.59 90.7872C310.839 90.6684 311.698 88.9452 311.507 86.9384C311.317 84.9316 310.149 83.4012 308.899 83.5201C307.65 83.639 306.791 85.3622 306.982 87.3689C307.172 89.3757 308.34 90.9061 309.59 90.7872Z" fill="#2B2B2B"/>
<path d="M314.91 84.2207L304.834 82.3872L304.647 85.5279L314.723 85.2053L314.91 84.2207Z" fill="#2B2B2B"/>
<path d="M291.756 122.231C290.592 122.246 289.457 121.87 288.533 121.162C288.432 121.045 288.377 120.895 288.376 120.741C288.376 120.586 288.432 120.437 288.532 120.319C288.633 120.202 288.772 120.125 288.925 120.102C289.078 120.079 289.234 120.112 289.364 120.194C290.121 120.73 291.025 121.017 291.951 121.017C292.878 121.017 293.782 120.73 294.538 120.194C294.61 120.152 294.69 120.124 294.774 120.112C294.857 120.101 294.941 120.106 295.022 120.127C295.103 120.149 295.18 120.186 295.246 120.236C295.313 120.287 295.369 120.351 295.412 120.423C295.454 120.496 295.482 120.576 295.493 120.659C295.504 120.742 295.499 120.827 295.478 120.908C295.457 120.989 295.42 121.065 295.369 121.132C295.318 121.199 295.255 121.255 295.183 121.297C294.144 121.908 292.961 122.23 291.756 122.231Z" fill="#DDA794"/>
<path d="M245.414 223.802C245.414 223.802 255.168 267.72 247.331 278.789C243.565 284.102 248.79 292.098 265.142 286.717C281.493 281.335 319.761 278.127 322.814 284.629C322.814 284.629 329.599 264.596 286.905 275.58C269.433 280.062 257.05 278.975 256.626 269.316C256.202 259.656 245.414 223.802 245.414 223.802Z" fill="#EFEAEA"/>
<path d="M232.998 187.659C232.998 187.659 186.571 270.334 192.406 315.356H316.369C316.369 315.356 330.651 280.096 317.217 276.005C303.782 271.913 249.163 294.102 247.399 282.405C245.635 270.708 260.969 243.223 255.609 225.686C250.249 208.149 232.998 187.659 232.998 187.659Z" fill="white"/>
<path d="M322.492 283.508C331.357 281.914 340.482 282.633 348.988 285.596C361.506 289.722 375.602 304.474 375.602 304.474L351.668 303.948C351.668 303.948 351.668 304.848 344.391 304.848C337.114 304.848 322.475 306.019 322.475 306.019L322.492 283.508Z" fill="#FFCCB6"/>
<path d="M192.406 292.692H82.3873V315.339H192.406V292.692Z" fill="#0FBC45" fill-opacity="0.6"/>
<path d="M275.845 292.692H180.159V315.305H275.845V292.692Z" fill="#93E2AC"/>
<g opacity="0.65">
<path opacity="0.65" d="M275.845 297.072H82.3873V298.991H275.845V297.072Z" fill="#52767F"/>
</g>
<g opacity="0.65">
<path opacity="0.65" d="M275.845 303.065H82.3873V304.983H275.845V303.065Z" fill="#52767F"/>
</g>
<g opacity="0.65">
<path opacity="0.65" d="M275.845 309.33H82.3873V311.248H275.845V309.33Z" fill="#52767F"/>
</g>
<path d="M407.848 304.033H307.667V315.288H407.848V304.033Z" fill="#13BF49"/>
<path d="M439.093 210.067L381.624 315.356H545.499L597.981 213.87L439.093 210.067Z" fill="#13BF49"/>
<path d="M445.369 210.22L416.677 262.788L387.985 315.356H551.86L604.342 213.87L445.369 210.22Z" fill="#36DE6B"/>
<path d="M373.397 307.428H361.455C360.65 307.428 359.997 308.082 359.997 308.888V311.078C359.997 311.885 360.65 312.538 361.455 312.538H373.397C374.203 312.538 374.856 311.885 374.856 311.078V308.888C374.856 308.082 374.203 307.428 373.397 307.428Z" fill="#007C27"/>
<path d="M348.038 307.428H336.3C335.438 307.428 334.739 308.127 334.739 308.99V310.976C334.739 311.839 335.438 312.538 336.3 312.538H348.038C348.9 312.538 349.598 311.839 349.598 310.976V308.99C349.598 308.127 348.9 307.428 348.038 307.428Z" fill="#007C27"/>
<path d="M279.39 98.5995C274.166 98.5995 270.213 96.9018 270.213 94.4572C270.213 92.0126 274.149 90.3149 279.39 90.3149C284.632 90.3149 288.567 92.0126 288.567 94.4572C288.567 96.9018 284.615 98.5995 279.39 98.5995ZM279.39 91.6052C274.878 91.6052 271.486 93.1161 271.486 94.4742C271.486 95.8323 274.878 97.3432 279.39 97.3432C283.902 97.3432 287.295 95.8323 287.295 94.4742C287.295 93.1161 283.902 91.6731 279.39 91.6731V91.6052Z" fill="#FCFCFC"/>
<path d="M306.276 98.5995C300.984 98.5995 296.997 96.9018 296.997 94.4572C296.997 92.0126 300.984 90.3149 306.276 90.3149C311.568 90.3149 315.554 92.0126 315.554 94.4572C315.554 96.9018 311.568 98.5995 306.276 98.5995ZM306.276 91.6052C301.696 91.6052 298.27 93.1161 298.27 94.4742C298.27 95.8323 301.662 97.3432 306.276 97.3432C310.89 97.3432 314.282 95.8323 314.282 94.4742C314.282 93.1161 310.856 91.6731 306.276 91.6731V91.6052Z" fill="#FCFCFC"/>
<path d="M288.364 94.8986L287.431 94.0328C288.117 93.3148 288.938 92.7403 289.848 92.3426C290.758 91.945 291.737 91.7321 292.73 91.7163C293.722 91.7005 294.708 91.8821 295.63 92.2506C296.552 92.6192 297.391 93.1672 298.1 93.863L297.286 94.8307C296.704 94.2343 296.007 93.7617 295.238 93.441C294.469 93.1204 293.643 92.9584 292.81 92.9648C291.977 92.9711 291.154 93.1457 290.39 93.4779C289.626 93.8102 288.937 94.2934 288.364 94.8986Z" fill="#FCFCFC"/>
<path d="M302.629 24.0896L294.843 42.3224H294.419H292.044L286.26 42.2036L288.126 39.8778L301.289 23.5803L301.679 23.105C301.815 23.3596 301.933 23.6143 302.052 23.8859C302.25 23.9369 302.443 24.0051 302.629 24.0896Z" fill="#009F32"/>
<path d="M321.033 88.0574C321.441 87.2425 325.478 85.8674 326.258 89.2627C328.378 98.3791 319.693 106.239 319.693 106.239C319.693 106.239 319.473 91.215 321.033 88.0574Z" fill="#FFCCB6"/>
<path d="M519.631 257.076H495.544C493.68 257.076 492.169 258.588 492.169 260.454V261.982C492.169 263.848 493.68 265.36 495.544 265.36H519.631C521.496 265.36 523.007 263.848 523.007 261.982V260.454C523.007 258.588 521.496 257.076 519.631 257.076Z" fill="#F0F0FF"/>
<path d="M256.05 227.485C256.05 230.609 255.83 233.936 255.439 237.502C255.419 237.709 255.322 237.901 255.169 238.042C255.016 238.183 254.816 238.262 254.608 238.266H254.439C254.216 238.24 254.013 238.127 253.873 237.952C253.733 237.778 253.668 237.555 253.692 237.332C254.268 232.215 254.438 227.061 254.201 221.917C252.895 197.131 240.631 188.151 234.694 185.265C235.186 184.857 235.661 184.484 236.153 184.11C243.192 187.743 256.423 198.625 256.05 227.485Z" fill="#EFEAEA"/>
<path d="M323.985 95.6287H323.816C323.715 95.5809 323.637 95.4952 323.599 95.3904C323.561 95.2855 323.566 95.1699 323.612 95.0685C324.816 92.4202 324.63 91.2148 324.257 90.6716C324.131 90.493 323.963 90.3483 323.767 90.2506C323.572 90.1528 323.355 90.105 323.137 90.1113C323.028 90.1046 322.924 90.0604 322.844 89.9862C322.764 89.912 322.711 89.8122 322.696 89.7039C322.694 89.6482 322.702 89.5925 322.722 89.5401C322.741 89.4878 322.77 89.4397 322.808 89.3987C322.846 89.3577 322.891 89.3246 322.942 89.3012C322.993 89.2779 323.047 89.2647 323.103 89.2625C323.463 89.2528 323.819 89.3313 324.141 89.4911C324.464 89.6509 324.742 89.8871 324.952 90.1792C325.664 91.2318 325.478 92.9804 324.375 95.408C324.337 95.4776 324.281 95.5352 324.212 95.5742C324.143 95.6132 324.064 95.6321 323.985 95.6287Z" fill="#DDA794"/>
<path d="M321.101 102.708C321.027 102.708 320.955 102.689 320.891 102.653C320.826 102.616 320.773 102.564 320.735 102.5C320.698 102.437 320.677 102.365 320.676 102.291C320.674 102.217 320.692 102.144 320.728 102.08L322.95 98.1921C323.006 98.0957 323.099 98.0257 323.207 97.997C323.315 97.9684 323.43 97.9836 323.527 98.0393C323.623 98.096 323.693 98.1884 323.721 98.2965C323.75 98.4046 323.735 98.5196 323.679 98.6165L321.457 102.504C321.42 102.565 321.368 102.616 321.305 102.652C321.243 102.688 321.173 102.707 321.101 102.708Z" fill="#DDA794"/>
<g opacity="0.24">
<path opacity="0.24" d="M439.16 390.579C385.966 386.895 357.927 415.568 347.156 430.304L345.765 430.049C356.366 415.382 384.337 386.131 437.651 389.204L439.16 390.579Z" fill="#0C0C0C"/>
</g>
<g opacity="0.24">
<path opacity="0.24" d="M295.268 42.4411C262.157 69.1113 264.955 121.042 265.193 122.486L255.609 103.064C255.609 103.064 273.538 34.9375 274.183 34.9375C277.695 37.9887 281.714 40.4018 286.057 42.0676L286.277 42.1525L292.062 42.2714H294.436C294.723 42.2639 295.007 42.322 295.268 42.4411Z" fill="#0C0C0C"/>
</g>
<path d="M291.383 33.6645C291.383 33.6645 263.259 75.291 261.97 100.484C260.901 121.416 269.874 131.314 261.512 130.516C254.252 129.82 235.237 87.4122 235.237 87.4122C235.237 87.4122 251.351 37.7049 252.199 37.3824C253.047 37.0598 292.18 28.8601 291.383 33.6645Z" fill="url(#paint7_linear)"/>
<g opacity="0.24">
<path opacity="0.24" d="M284.665 9.69365C267.33 16.4843 249.926 30.0655 243.192 56.9394C238.917 73.9159 240.207 90.7396 241.496 106.986C243.362 131.127 245.109 153.943 226.62 171.225C223.651 174.01 220.869 176.573 218.274 178.967C206.248 190.052 198.241 197.42 193.678 205.484C193.678 204.42 193.678 203.334 193.678 202.225C198.564 194.789 206.265 187.676 217.07 177.727C219.665 175.334 222.447 172.77 225.415 169.986C243.294 153.264 241.665 131.874 239.766 107.173C238.51 90.8075 237.204 73.8819 241.462 56.5828C248.026 30.5578 264.141 16.7559 280.764 9.47296C282.068 9.43757 283.373 9.51139 284.665 9.69365Z" fill="#0C0C0C"/>
</g>
<g opacity="0.24">
<path opacity="0.24" d="M253.523 67.3291C249.163 84.7131 251.046 100.994 252.742 116.731C255.236 138.97 257.594 159.97 239.359 177.014C236.373 179.799 233.592 182.362 230.996 184.756C211.506 202.717 202.618 210.934 201.651 228.114C201.108 227.503 200.599 226.875 200.125 226.229C201.685 209.474 211.116 200.765 229.843 183.517C232.438 181.123 235.22 178.559 238.188 175.775C255.813 159.308 253.607 139.666 251.063 116.918C249.282 101.028 247.433 84.6621 251.86 66.9047C260.342 32.8328 278.593 21.0681 297.659 16.9258L298.83 18.4197C280.018 22.4092 261.953 33.6646 253.523 67.3291Z" fill="#0C0C0C"/>
</g>
<path d="M126.727 308.481C118.246 308.277 109.256 296.037 109.443 287.888C109.629 279.739 117.924 271.676 126.185 271.879C133.377 272.049 138.228 278.925 138.058 288.584C137.685 301.215 133.479 308.65 126.727 308.481ZM126.049 277.617C121.418 277.499 115.329 282.524 115.193 288.024C115.057 293.524 122.266 302.624 126.863 302.726C130.171 302.726 132.071 295.595 132.24 288.431C132.308 284.493 131.155 277.753 126.049 277.634V277.617Z" fill="#13BF49"/>
<path d="M157.837 316.188C154.851 320.619 147.269 318.395 139.568 319.006C123.725 320.279 123.793 313.285 122.877 301.741C122.258 291.71 122.321 281.648 123.063 271.625H124.115L161.806 270.844C161.806 270.844 163.315 308.022 157.837 316.188Z" fill="#13BF49"/>
<path d="M142.475 272.994C153.171 272.774 161.826 271.797 161.806 270.813C161.785 269.828 153.098 269.209 142.402 269.43C131.706 269.65 123.051 270.627 123.071 271.611C123.092 272.595 131.779 273.215 142.475 272.994Z" fill="#0A687D"/>
<path d="M143.936 260C143.778 259.998 143.623 259.965 143.483 259.904C143.343 259.842 143.223 259.754 143.133 259.646C143.043 259.538 142.985 259.414 142.964 259.284C142.944 259.154 142.961 259.022 143.015 258.898C145.638 252.818 143.21 250.262 140.888 247.78C139.157 246.328 138.129 244.399 138 242.36C138.213 235.208 146.648 233.063 146.718 233.034C146.972 232.972 147.246 232.996 147.478 233.1C147.711 233.205 147.884 233.382 147.959 233.592C148.034 233.803 148.005 234.029 147.879 234.222C147.753 234.415 147.539 234.558 147.286 234.62C147.002 234.62 140.197 236.456 139.985 242.39C140.132 244.058 141.007 245.625 142.448 246.796C144.858 249.366 147.87 252.553 144.893 259.486C144.815 259.641 144.681 259.774 144.511 259.865C144.34 259.957 144.14 260.004 143.936 260Z" fill="#13BF49" fill-opacity="0.552486"/>
<path d="M690.682 315.288H58.996V342.807H690.682V315.288Z" fill="#E2ECF1"/>
<path d="M244.414 315.288H9.94025V342.807H244.414V315.288Z" fill="#C4C4C4"/>
</g>
<defs>
<linearGradient id="paint0_linear" x1="646.273" y1="165.521" x2="646.452" y2="316.137" gradientUnits="userSpaceOnUse">
<stop stop-color="#09816D" stop-opacity="0.789842"/>
<stop offset="1" stop-color="#13BF49"/>
</linearGradient>
<linearGradient id="paint1_linear" x1="346.884" y1="618.795" x2="402.882" y2="649.314" gradientUnits="userSpaceOnUse">
<stop stop-color="#13BF49"/>
<stop offset="1" stop-color="#09816D"/>
</linearGradient>
<linearGradient id="paint2_linear" x1="308.459" y1="21.3174" x2="349.494" y2="227.473" gradientUnits="userSpaceOnUse">
<stop stop-color="#13BF49"/>
<stop offset="1" stop-color="#0A687D"/>
</linearGradient>
<linearGradient id="paint3_linear" x1="324.833" y1="599.272" x2="292.566" y2="650.177" gradientUnits="userSpaceOnUse">
<stop stop-color="#13BF49"/>
<stop offset="1" stop-color="#09816D" stop-opacity="0.789842"/>
</linearGradient>
<linearGradient id="paint4_linear" x1="252.125" y1="9.39746" x2="219.612" y2="280.955" gradientUnits="userSpaceOnUse">
<stop stop-color="#13BF49"/>
<stop offset="0.196827" stop-color="#11AE53"/>
<stop offset="0.346813" stop-color="#10A15B"/>
<stop offset="1" stop-color="#0A687D"/>
</linearGradient>
<linearGradient id="paint5_linear" x1="312.959" y1="373.484" x2="407.118" y2="406.54" gradientUnits="userSpaceOnUse">
<stop stop-color="#026E7D"/>
<stop offset="1" stop-color="#13BF49"/>
</linearGradient>
<linearGradient id="paint6_linear" x1="755.541" y1="530.805" x2="754.833" y2="640.864" gradientUnits="userSpaceOnUse">
<stop stop-color="#13BF49"/>
<stop offset="1" stop-color="#0A687D"/>
</linearGradient>
<linearGradient id="paint7_linear" x1="263.316" y1="32.1587" x2="248.478" y2="102.703" gradientUnits="userSpaceOnUse">
<stop stop-color="#13BF49"/>
<stop offset="1" stop-color="#0F9D5D"/>
</linearGradient>
</defs>
</svg>
