<svg width="26" height="26" viewBox="0 0 26 26" fill="none" xmlns="http://www.w3.org/2000/svg">
<path d="M21.6662 3.24967H4.33229C3.73266 3.24967 3.24841 3.73555 3.24841 4.33355V21.6674C3.24841 22.2654 3.73266 22.7513 4.33229 22.7513H13.6647V15.2113H11.1313V12.2587H13.6647V10.0925C13.6647 7.5738 15.2035 6.20067 17.4558 6.20067C18.213 6.19905 18.9719 6.23805 19.7259 6.31605V8.93717H18.1708C16.9488 8.93717 16.7099 9.52055 16.7099 10.372V12.2522H19.6317L19.253 15.2048H16.7099V22.7497H21.6645C22.2642 22.7497 22.7484 22.2638 22.7484 21.6658V4.33192C22.7484 3.73392 22.2642 3.24805 21.6645 3.24805L21.6662 3.24967Z" fill="white"/>
</svg>
