<svg width="166" height="44" viewBox="0 0 166 44" fill="none" xmlns="http://www.w3.org/2000/svg">
<path d="M27.2431 12.0567C29.8308 12.0567 31.8654 12.8518 33.3477 14.4419C34.8297 16.0323 35.5708 18.2421 35.5708 21.0719V33.2427H29.1648V21.8232C29.1648 20.4959 28.807 19.4631 28.0909 18.7243C27.3749 17.9856 26.4017 17.6162 25.1708 17.6165C23.8897 17.6165 22.8784 18.0107 22.1376 18.7998C21.3964 19.5885 21.026 20.6967 21.026 22.124V33.2424H14.5829V21.8232C14.5829 20.4959 14.2312 19.4631 13.5281 18.7243C12.8247 17.9856 11.8572 17.6162 10.626 17.6165C9.34485 17.6165 8.32741 18.0046 7.57368 18.7808C6.82028 19.5573 6.44342 20.6716 6.44342 22.1236V33.2424H0V15.4855L6.44342 12.282V15.8508C6.9851 14.6859 7.87306 13.7153 8.98701 13.071C10.1298 12.3948 11.4677 12.0567 13 12.0567C14.6077 12.0567 16.0272 12.426 17.258 13.1648C18.4943 13.9097 19.4686 15.0186 20.0463 16.3388C20.7551 15.0573 21.7879 13.9828 23.0418 13.2216C24.3043 12.4468 25.7608 12.0431 27.2431 12.0567ZM44.7271 12.282L49.7765 25.1287L54.4865 12.282H61.6082L48.4951 43.2342H41.4114L46.3477 32.4536L37.5309 12.282H44.7271ZM71.7445 12.0193C73.3522 12.0193 74.7336 12.3822 75.8894 13.1084C77.0227 13.8088 77.9059 14.8469 78.4139 16.0761V3.52364L84.8573 0V33.2424H78.4139V29.4485C77.9059 30.6774 77.0227 31.7159 75.8894 32.4159C74.7336 33.1421 73.3522 33.5054 71.7445 33.5054C70.0111 33.5054 68.4598 33.0731 67.091 32.2093C65.7218 31.3454 64.6415 30.0997 63.8504 28.4719C63.0589 26.8441 62.6634 24.9408 62.6634 22.7622C62.6634 20.5584 63.0589 18.6489 63.8504 17.0337C64.6415 15.4185 65.7218 14.1788 67.091 13.315C68.4598 12.4512 70.0111 12.0193 71.7445 12.0193ZM73.8168 17.6536C72.4354 17.6536 71.3238 18.1045 70.4821 19.0057C69.6403 19.9073 69.2196 21.1592 69.2196 22.7618C69.2196 24.3644 69.6407 25.6163 70.4821 26.5176C71.3235 27.4188 72.435 27.8697 73.8168 27.8707C75.1733 27.8707 76.2849 27.4072 77.1515 26.4809C78.018 25.5542 78.4516 24.3148 78.4516 22.7622C78.4516 21.1847 78.018 19.9389 77.1515 19.0248C76.2849 18.1106 75.1733 17.6536 73.8168 17.6536ZM99.1378 12.0193C101.223 12.0193 103.088 12.4512 104.733 13.315C106.361 14.1622 107.709 15.46 108.615 17.0528C109.557 18.6805 110.027 20.5835 110.027 22.7622C110.027 24.9408 109.557 26.8441 108.615 28.4719C107.709 30.0643 106.361 31.3624 104.733 32.2093C103.088 33.0735 101.223 33.5054 99.1378 33.5054C97.0526 33.5054 95.1812 33.0735 93.5232 32.2093C91.8873 31.3665 90.5324 30.0681 89.623 28.4719C88.6814 26.8441 88.2107 24.9408 88.2107 22.7622C88.2107 20.5835 88.6817 18.6805 89.6237 17.0528C90.5331 15.4563 91.888 14.1578 93.5239 13.315C95.1819 12.4512 97.0533 12.0193 99.1378 12.0193ZM99.1378 17.5785C98.5543 17.5679 97.9753 17.6811 97.4394 17.9112C96.9031 18.1412 96.4226 18.4824 96.0291 18.9119C95.1877 19.8009 94.767 21.0844 94.767 22.7622C94.767 24.4402 95.1877 25.7173 96.0291 26.5937C96.4253 27.0185 96.9069 27.3552 97.4428 27.5819C97.9783 27.8085 98.556 27.9197 99.1378 27.9085C99.7169 27.9207 100.292 27.8099 100.825 27.5832C101.358 27.3566 101.836 27.0191 102.227 26.5937C103.057 25.7173 103.471 24.4402 103.471 22.7622C103.471 21.0844 103.057 19.8009 102.228 18.9119C101.839 18.4817 101.362 18.1399 100.829 17.9098C100.295 17.6794 99.7186 17.5666 99.1378 17.5785ZM140.625 12.0567C143.212 12.0567 145.247 12.8518 146.73 14.4419C148.212 16.0323 148.953 18.2421 148.953 21.0719V33.2427H142.547V21.8232C142.547 20.4959 142.189 19.4631 141.473 18.7243C140.757 17.9856 139.784 17.6162 138.552 17.6165C137.271 17.6165 136.26 18.0107 135.519 18.7998C134.778 19.5885 134.408 20.6967 134.408 22.124V33.2424H127.964V21.8232C127.964 20.4959 127.612 19.4631 126.909 18.7243C126.206 17.9856 125.239 17.6162 124.008 17.6165C122.727 17.6165 121.71 18.0046 120.956 18.7808C120.202 19.5573 119.826 20.6716 119.826 22.124V33.2424H113.382V15.4855L119.825 12.282V15.8508C120.367 14.6859 121.255 13.7153 122.369 13.071C123.511 12.3948 124.849 12.057 126.382 12.057C127.989 12.057 129.408 12.4264 130.639 13.1652C131.876 13.9101 132.85 15.0189 133.428 16.3388C134.137 15.0573 135.169 13.9828 136.423 13.2216C137.686 12.4468 139.142 12.0431 140.625 12.0567Z" fill="white"/>
<path d="M160.168 32.9945C162.999 32.9945 165.294 30.6996 165.294 27.8692C165.294 25.0385 162.999 22.7437 160.168 22.7437C157.338 22.7437 155.043 25.0385 155.043 27.8692C155.043 30.6996 157.338 32.9945 160.168 32.9945Z" fill="white"/>
</svg>
