<svg width="107" height="32" viewBox="0 0 107 32" fill="none" xmlns="http://www.w3.org/2000/svg">
<g clip-path="url(#clip0)">
<path d="M103.037 32H3.96296C2.91286 31.9969 1.90664 31.5745 1.1641 30.825C0.421563 30.0755 0.00305615 29.0599 0 28V4C0.00305615 2.94008 0.421563 1.92446 1.1641 1.17498C1.90664 0.425503 2.91286 0.00308471 3.96296 0L103.037 0C104.087 0.00308471 105.093 0.425503 105.836 1.17498C106.578 1.92446 106.997 2.94008 107 4V28C107.005 28.5267 106.906 29.0492 106.709 29.5368C106.511 30.0245 106.22 30.4675 105.851 30.84C105.482 31.2125 105.043 31.5069 104.56 31.7061C104.077 31.9053 103.559 32.0052 103.037 32Z" fill="white"/>
<path d="M103.037 0.64C103.918 0.645328 104.762 1.00104 105.385 1.63001C106.008 2.25898 106.361 3.11052 106.366 4V28C106.361 28.8895 106.008 29.741 105.385 30.37C104.762 30.999 103.918 31.3547 103.037 31.36H3.96296C3.08172 31.3547 2.23806 30.999 1.61492 30.37C0.991769 29.741 0.639353 28.8895 0.634074 28V4C0.639353 3.11052 0.991769 2.25898 1.61492 1.63001C2.23806 1.00104 3.08172 0.645328 3.96296 0.64H103.037ZM103.037 0H3.96296C2.91286 0.00308471 1.90664 0.425503 1.1641 1.17498C0.421563 1.92446 0.00305615 2.94008 0 4V28C0.00305615 29.0599 0.421563 30.0755 1.1641 30.825C1.90664 31.5745 2.91286 31.9969 3.96296 32H103.037C104.087 31.9969 105.093 31.5745 105.836 30.825C106.578 30.0755 106.997 29.0599 107 28V4C106.997 2.94008 106.578 1.92446 105.836 1.17498C105.093 0.425503 104.087 0.00308471 103.037 0V0Z" fill="#A6A6A6"/>
<path d="M53.3348 17.1694C52.879 17.1591 52.4258 17.2421 52.0026 17.4134C51.5795 17.5847 51.1951 17.8408 50.8727 18.1662C50.5503 18.4916 50.2966 18.8796 50.1269 19.3067C49.9571 19.7338 49.8749 20.1912 49.8852 20.6513C49.8818 21.1095 49.9687 21.5638 50.1408 21.9878C50.313 22.4118 50.5669 22.797 50.8879 23.121C51.2089 23.445 51.5906 23.7013 52.0106 23.8751C52.4307 24.0489 52.8808 24.1366 53.3348 24.1331C53.7905 24.1435 54.2436 24.0605 54.6668 23.8892C55.0899 23.7179 55.4742 23.4619 55.7966 23.1366C56.119 22.8112 56.3727 22.4233 56.5425 21.9963C56.7123 21.5693 56.7945 21.1119 56.7844 20.6519C56.8016 20.19 56.7241 19.7294 56.5568 19.2991C56.3896 18.8688 56.1361 18.478 55.8123 18.1511C55.4885 17.8242 55.1013 17.5683 54.675 17.3994C54.2487 17.2305 53.7924 17.1522 53.3348 17.1694ZM53.3348 22.6753C53.0707 22.6668 52.811 22.6053 52.5707 22.4945C52.3304 22.3837 52.1144 22.2257 51.9352 22.0297C51.756 21.8338 51.6172 21.6038 51.5269 21.3532C51.4367 21.1026 51.3967 20.8364 51.4094 20.5701C51.3967 20.3037 51.4367 20.0375 51.5269 19.7869C51.6172 19.5363 51.756 19.3063 51.9352 19.1104C52.1144 18.9144 52.3304 18.7565 52.5707 18.6456C52.811 18.5348 53.0707 18.4733 53.3348 18.4648C53.6009 18.4665 53.8639 18.5234 54.1073 18.632C54.3508 18.7405 54.5696 18.8983 54.7501 19.0957C54.9306 19.2931 55.069 19.5258 55.1568 19.7794C55.2445 20.0331 55.2797 20.3022 55.2602 20.5701C55.2728 20.8364 55.2329 21.1026 55.1426 21.3532C55.0523 21.6038 54.9135 21.8338 54.7344 22.0297C54.5552 22.2257 54.3391 22.3837 54.0988 22.4945C53.8586 22.6053 53.5988 22.6668 53.3348 22.6753ZM45.8747 17.1694C45.4188 17.1591 44.9657 17.2421 44.5425 17.4134C44.1194 17.5847 43.735 17.8408 43.4126 18.1662C43.0902 18.4916 42.8365 18.8796 42.6668 19.3067C42.497 19.7338 42.4148 20.1912 42.425 20.6513C42.4216 21.1095 42.5085 21.5638 42.6807 21.9878C42.8528 22.4118 43.1068 22.797 43.4278 23.121C43.7488 23.445 44.1305 23.7013 44.5505 23.8751C44.9706 24.0489 45.4207 24.1366 45.8747 24.1331C46.3304 24.1435 46.7835 24.0605 47.2066 23.8892C47.6298 23.7179 48.0141 23.4619 48.3365 23.1366C48.6589 22.8112 48.9126 22.4233 49.0824 21.9963C49.2521 21.5693 49.3344 21.1119 49.3243 20.6519C49.3414 20.19 49.264 19.7294 49.0967 19.2991C48.9294 18.8688 48.676 18.478 48.3522 18.1511C48.0283 17.8242 47.6412 17.5683 47.2149 17.3994C46.7886 17.2305 46.3323 17.1522 45.8747 17.1694ZM45.8747 22.6753C45.6106 22.6668 45.3509 22.6053 45.1106 22.4945C44.8703 22.3837 44.6543 22.2257 44.4751 22.0297C44.2959 21.8338 44.1571 21.6038 44.0668 21.3532C43.9766 21.1026 43.9366 20.8364 43.9493 20.5701C43.9366 20.3037 43.9766 20.0375 44.0668 19.7869C44.1571 19.5363 44.2959 19.3063 44.4751 19.1104C44.6543 18.9144 44.8703 18.7565 45.1106 18.6456C45.3509 18.5348 45.6106 18.4733 45.8747 18.4648C46.1408 18.4665 46.4037 18.5234 46.6472 18.632C46.8907 18.7405 47.1094 18.8983 47.29 19.0957C47.4705 19.2931 47.6089 19.5258 47.6967 19.7794C47.7844 20.0331 47.8196 20.3022 47.8 20.5701C47.8127 20.8364 47.7727 21.1026 47.6825 21.3532C47.5922 21.6038 47.4534 21.8338 47.2742 22.0297C47.095 22.2257 46.879 22.3837 46.6387 22.4945C46.3984 22.6053 46.1387 22.6668 45.8747 22.6753ZM36.9732 18.2224V19.6796H40.4228C40.3731 20.3744 40.09 21.0312 39.6205 21.5418C39.275 21.8919 38.8614 22.1661 38.4058 22.3472C37.9503 22.5283 37.4625 22.6124 36.9732 22.5941C36.4697 22.5994 35.9703 22.502 35.5051 22.3076C35.0399 22.1132 34.6184 21.8259 34.266 21.4629C33.9135 21.0999 33.6375 20.6687 33.4544 20.1953C33.2713 19.7218 33.1849 19.2159 33.2005 18.7079C33.1917 18.2019 33.2826 17.6992 33.468 17.2289C33.6533 16.7587 33.9294 16.3304 34.2802 15.9688C34.631 15.6072 35.0496 15.3196 35.5114 15.1227C35.9733 14.9258 36.4694 14.8235 36.9708 14.8218C37.9516 14.8311 38.8943 15.2058 39.618 15.8741L40.6606 14.8218C39.6928 13.8775 38.3967 13.354 37.0507 13.3639C35.6419 13.3732 34.2922 13.9367 33.2886 14.9346C32.285 15.9326 31.7066 17.2863 31.6763 18.7079C31.7066 20.1296 32.285 21.4832 33.2886 22.4812C34.2922 23.4791 35.6419 24.0426 37.0507 24.0519C37.7406 24.0905 38.4302 23.9723 39.0688 23.7061C39.7075 23.4398 40.2787 23.0322 40.7405 22.5134C41.5872 21.5897 42.0471 20.3711 42.0239 19.1128C42.0407 18.8136 42.0136 18.5136 41.9434 18.2224H36.9732ZM73.3916 19.3559C73.1945 18.7341 72.8105 18.1897 72.293 17.798C71.7755 17.4063 71.1501 17.1869 70.5035 17.1701C70.0621 17.1722 69.6257 17.2655 69.2214 17.4444C68.8171 17.6233 68.4534 17.8839 68.1527 18.2102C67.8521 18.5364 67.6208 18.9214 67.4732 19.3414C67.3257 19.7613 67.2649 20.2073 67.2948 20.6519C67.2824 21.1057 67.3605 21.5573 67.5245 21.98C67.6884 22.4027 67.9348 22.7878 68.2491 23.1125C68.5633 23.4372 68.939 23.6949 69.3539 23.8702C69.7687 24.0456 70.2142 24.135 70.6639 24.1331C71.2223 24.1378 71.7726 23.999 72.2632 23.7299C72.7539 23.4608 73.1686 23.0701 73.4685 22.5947L72.3454 21.7848C72.1727 22.0807 71.9264 22.326 71.631 22.4965C71.3355 22.6669 71.0011 22.7565 70.6608 22.7565C70.3074 22.7748 69.9567 22.6839 69.6558 22.4959C69.3548 22.3078 69.1178 22.0317 68.9763 21.7042L73.5489 19.7608L73.3916 19.3559ZM68.7391 20.4894C68.7231 19.9888 68.8967 19.5007 69.2246 19.1247C69.5525 18.7487 70.0101 18.5129 70.5042 18.4654C70.7637 18.4567 71.0205 18.5201 71.2468 18.6485C71.4731 18.777 71.6602 18.9657 71.7875 19.1941L68.7391 20.4894ZM64.9652 23.8088H66.4894V13.6876H64.9652V23.8088ZM62.5587 17.9011C62.0737 17.3961 61.4105 17.105 60.7138 17.0913C59.8268 17.1323 58.9898 17.5173 58.3771 18.166C57.7645 18.8147 57.4234 19.6769 57.4252 20.5731C57.4189 21.0147 57.4991 21.4531 57.6611 21.8632C57.8232 22.2734 58.0639 22.6472 58.3695 22.9631C58.675 23.2791 59.0394 23.531 59.4418 23.7045C59.8441 23.8779 60.2764 23.9694 60.7138 23.9738C61.0486 23.9764 61.38 23.9053 61.6849 23.7654C61.9897 23.6255 62.2607 23.4203 62.4789 23.1639H62.5593V23.6494C62.5593 24.9448 61.8375 25.6734 60.7144 25.6734C60.3433 25.6732 59.9814 25.5561 59.6794 25.3383C59.3775 25.1205 59.1504 24.813 59.0299 24.4587L57.7465 25.0254C58.0021 25.6273 58.4274 26.14 58.9694 26.4998C59.5113 26.8597 60.1462 27.0508 60.7949 27.0494C62.5599 27.0494 64.0037 25.9971 64.0037 23.487V17.3331H62.5599V17.8999L62.5587 17.9011ZM60.7949 22.6753C60.5307 22.6669 60.2709 22.6056 60.0305 22.4948C59.79 22.3841 59.5738 22.2261 59.3945 22.0302C59.2152 21.8342 59.0763 21.6042 58.986 21.3535C58.8956 21.1028 58.8556 20.8365 58.8683 20.5701C58.8556 20.3037 58.8956 20.0375 58.9859 19.7869C59.0761 19.5363 59.2149 19.3063 59.3941 19.1104C59.5733 18.9144 59.7893 18.7565 60.0296 18.6456C60.2699 18.5348 60.5296 18.4733 60.7937 18.4648C61.0536 18.4755 61.3086 18.5391 61.5436 18.6517C61.7785 18.7644 61.9884 18.9239 62.1607 19.1205C62.3331 19.3171 62.4642 19.5469 62.5464 19.796C62.6285 20.0451 62.6598 20.3084 62.6386 20.5701C62.6598 20.8316 62.6285 21.0948 62.5465 21.3438C62.4644 21.5929 62.3334 21.8226 62.1612 22.0192C61.989 22.2158 61.7792 22.3753 61.5444 22.488C61.3096 22.6008 61.0547 22.6645 60.7949 22.6753ZM80.3658 13.6907H76.7559V23.8088H78.2801V20.0033H80.3658C80.7904 20.0257 81.215 19.9606 81.6139 19.812C82.0127 19.6635 82.3774 19.4345 82.6858 19.1391C82.9942 18.8437 83.2397 18.488 83.4075 18.0938C83.5753 17.6995 83.6619 17.2749 83.6619 16.8458C83.6619 16.4166 83.5753 15.992 83.4075 15.5977C83.2397 15.2035 82.9942 14.8478 82.6858 14.5524C82.3774 14.257 82.0127 14.028 81.6139 13.8795C81.215 13.7309 80.7904 13.6658 80.3658 13.6882V13.6907ZM80.4463 18.5485H78.2807V15.0642H80.4463C80.901 15.063 81.3386 15.2392 81.6676 15.5561C81.9965 15.873 82.1914 16.306 82.2114 16.7645C82.1937 17.2311 82.0022 17.6737 81.6752 18.0039C81.3482 18.3341 80.9097 18.5275 80.4475 18.5454L80.4463 18.5485ZM89.6715 17.0913C89.1278 17.0474 88.5838 17.1709 88.1112 17.4456C87.6385 17.7203 87.2595 18.1332 87.0242 18.6298L88.3881 19.1965C88.5213 18.955 88.7211 18.7577 88.9631 18.6284C89.2052 18.4991 89.4792 18.4433 89.752 18.4679C90.132 18.4392 90.5088 18.5569 90.8064 18.7972C91.104 19.0375 91.3004 19.3827 91.356 19.7633V19.8445C90.8896 19.5827 90.3655 19.4434 89.8318 19.4396C88.3881 19.4396 86.9444 20.2494 86.9444 21.7067C86.9576 22.0212 87.0327 22.33 87.1654 22.6149C87.298 22.8999 87.4856 23.1553 87.717 23.3663C87.9485 23.5774 88.2193 23.7397 88.5136 23.844C88.808 23.9483 89.1199 23.9924 89.4313 23.9738C89.807 23.9866 90.1799 23.9044 90.5162 23.7347C90.8525 23.565 91.1414 23.3131 91.3567 23.0021H91.4371V23.8119H92.8809V19.9221C92.8224 19.119 92.4529 18.3714 91.8526 17.841C91.2522 17.3107 90.4691 17.0403 89.6727 17.0882L89.6715 17.0913ZM89.5111 22.6778C89.0301 22.6778 88.3076 22.4347 88.3076 21.7873C88.3076 20.9774 89.1898 20.735 89.9117 20.735C90.3848 20.7365 90.8513 20.8472 91.2756 21.0587C91.214 21.4932 91.0042 21.8923 90.6824 22.1874C90.3605 22.4825 89.9467 22.6551 89.5124 22.6753L89.5111 22.6778ZM97.9339 17.3338L96.2494 21.703H96.1689L94.4039 17.3338H92.7998L95.447 23.4876L93.9228 26.8882H95.447L99.538 17.3344L97.9339 17.3338ZM84.4599 23.8113H85.9841V13.6876H84.4599V23.8113Z" fill="black"/>
<path d="M8.34233 5.87891C8.09481 6.20098 7.97993 6.60701 8.02163 7.01244V24.906C8.00408 25.3221 8.148 25.7288 8.42281 26.0395L8.50328 26.1208L18.4473 16.0808V15.9189L8.34233 5.87891Z" fill="url(#paint0_linear)"/>
<path d="M21.6585 19.4805L18.3699 16.1611V15.918L21.6585 12.5986L21.739 12.6799L25.6697 14.9469C26.7927 15.5949 26.7927 16.6472 25.6697 17.2952L21.6591 19.4811L21.6585 19.4805Z" fill="url(#paint1_linear)"/>
<path d="M21.7384 19.4001L18.3693 15.9995L8.34235 26.1201C8.74352 26.525 9.30504 26.525 10.0269 26.2014L21.7384 19.4001Z" fill="url(#paint2_linear)"/>
<path d="M21.7384 12.5989L10.0269 5.8764C9.78235 5.68571 9.4785 5.58915 9.16981 5.60404C8.86113 5.61892 8.56778 5.74428 8.34235 5.95764L18.3693 15.9995L21.7384 12.5989Z" fill="url(#paint3_linear)"/>
<path opacity="0.2" d="M21.6585 19.3193L10.0269 25.9587C9.7972 26.1378 9.51513 26.235 9.22487 26.235C8.93461 26.235 8.65254 26.1378 8.42282 25.9587L8.34235 26.04L8.42282 26.1212C8.65254 26.3003 8.93461 26.3974 9.22487 26.3974C9.51513 26.3974 9.7972 26.3003 10.0269 26.1212L21.6585 19.3193Z" fill="black"/>
<path opacity="0.12" d="M8.34233 25.9587C8.09481 25.6367 7.97993 25.2306 8.02163 24.8252V24.9064C8.00408 25.3226 8.148 25.7292 8.42281 26.04V25.9587H8.34233Z" fill="black"/>
<path opacity="0.12" d="M25.669 17.0518L21.6585 19.3189L21.739 19.4001L25.6696 17.1331C25.893 17.0359 26.0858 16.8789 26.2271 16.6791C26.3684 16.4793 26.4529 16.2443 26.4714 15.9995C26.4714 16.4044 26.1507 16.7281 25.669 17.0518Z" fill="black"/>
<path opacity="0.25" d="M10.0254 5.95998L25.6675 14.9446C26.1486 15.2683 26.4699 15.5926 26.4699 15.9969C26.4513 15.7521 26.3667 15.517 26.2253 15.3172C26.0839 15.1174 25.891 14.9604 25.6675 14.8634L10.0254 5.87875C8.90236 5.23136 8.02014 5.7169 8.02014 7.01229V7.09352C8.02014 5.87875 8.90236 5.31198 10.0254 5.95998Z" fill="white"/>
<path d="M33.1035 11.4936H32.542V9.87701H33.023C33.2579 9.63253 33.4371 9.33922 33.548 9.01757C33.6589 8.69592 33.6988 8.35371 33.665 8.01486V5.58594H36.8708V9.87701H37.4323V11.4936H36.8708V10.4413H33.184V11.4936H33.1035ZM34.2266 8.01178C34.2499 8.6666 34.0826 9.31398 33.7455 9.87394H36.1519V6.15271H34.1461V8.01486L34.2266 8.01178Z" fill="black" stroke="#0C0C0C" stroke-width="0.2" stroke-miterlimit="10"/>
<path d="M42.1677 9.79571C41.8199 10.1492 41.3757 10.3902 40.8917 10.488C40.4077 10.5859 39.9059 10.5362 39.45 10.3452C38.9941 10.1542 38.6048 9.83064 38.3317 9.41564C38.0586 9.00063 37.914 8.51299 37.9164 8.01479C37.9112 7.68188 37.9717 7.35127 38.0944 7.04219C38.217 6.73311 38.3994 6.45175 38.6308 6.21449C38.8622 5.97723 39.138 5.7888 39.4423 5.66018C39.7466 5.53157 40.0731 5.46533 40.403 5.46533C40.7329 5.46533 41.0594 5.53157 41.3637 5.66018C41.6679 5.7888 41.9438 5.97723 42.1752 6.21449C42.4066 6.45175 42.589 6.73311 42.7116 7.04219C42.8343 7.35127 42.8948 7.68188 42.8896 8.01479C42.8987 8.346 42.8391 8.67547 42.7148 8.98213C42.5905 9.2888 42.4042 9.5659 42.1677 9.79571ZM39.1193 9.39079C39.4594 9.73866 39.9188 9.94153 40.4027 9.95756C40.6452 9.96781 40.8869 9.92209 41.1093 9.82387C41.3317 9.72566 41.5289 9.57754 41.6861 9.39079C42.046 9.02473 42.2478 8.52987 42.2476 8.01417C42.266 7.75649 42.2249 7.49801 42.1275 7.25911C42.03 7.02021 41.8789 6.80744 41.6861 6.63756C41.346 6.28968 40.8866 6.08681 40.4027 6.07079C40.1601 6.06054 39.9185 6.10626 39.6961 6.20447C39.4737 6.30268 39.2764 6.4508 39.1193 6.63756C38.7594 7.00362 38.5576 7.49847 38.5578 8.01417C38.5394 8.2719 38.5806 8.53042 38.6782 8.76932C38.7757 9.00822 38.927 9.22097 39.1199 9.39079H39.1193Z" fill="black" stroke="#0C0C0C" stroke-width="0.2" stroke-miterlimit="10"/>
<path d="M46.0185 10.5242C45.6912 10.5271 45.3665 10.4642 45.0635 10.3392C44.7605 10.2141 44.4852 10.0294 44.2537 9.79575C44.0222 9.56214 43.8391 9.28432 43.7151 8.97851C43.5911 8.6727 43.5287 8.34503 43.5316 8.01462C43.5287 7.68416 43.591 7.35642 43.7149 7.05054C43.8389 6.74466 44.0219 6.46676 44.2535 6.23308C44.485 5.9994 44.7603 5.81462 45.0634 5.68952C45.3664 5.56442 45.6911 5.50151 46.0185 5.50446C46.3548 5.49174 46.6895 5.5583 46.9958 5.69888C47.3022 5.83945 47.5719 6.05017 47.7836 6.31431L47.3824 6.71923C47.2191 6.5134 47.0112 6.34801 46.7749 6.23569C46.5385 6.12338 46.2798 6.06713 46.0185 6.07123C45.7641 6.06046 45.5104 6.10556 45.2749 6.20342C45.0394 6.30127 44.8278 6.44954 44.6546 6.638C44.4618 6.80788 44.3107 7.02066 44.2132 7.25956C44.1158 7.49846 44.0747 7.75694 44.0931 8.01462C44.0747 8.2723 44.1158 8.53078 44.2132 8.76968C44.3107 9.00858 44.4618 9.22135 44.6546 9.39123C45.0173 9.75448 45.5076 9.95822 46.0185 9.958C46.2984 9.95663 46.5743 9.89019 46.8247 9.76384C47.075 9.63748 47.2932 9.4546 47.4623 9.22939L47.8634 9.63431C47.633 9.89331 47.362 10.1122 47.0611 10.2823C46.7383 10.4475 46.3804 10.5305 46.0185 10.5242Z" fill="black" stroke="#0C0C0C" stroke-width="0.2" stroke-miterlimit="10"/>
<path d="M50.4302 10.4438H49.7888V6.15271H48.4249V5.58594H51.7136V6.15271H50.3503V10.4438H50.4302Z" fill="black" stroke="#0C0C0C" stroke-width="0.2" stroke-miterlimit="10"/>
<path d="M55.9649 5.58594L54.12 9.71517C54.0446 9.96115 53.8967 10.1781 53.6961 10.3372C53.4955 10.4963 53.2516 10.5899 52.997 10.6056C52.8325 10.6183 52.6674 10.5904 52.5159 10.5244L52.6763 9.95763C52.7703 10.022 52.8839 10.0508 52.997 10.0389C53.1573 10.0389 53.2378 10.0389 53.3177 9.95763C53.4168 9.86542 53.4984 9.75572 53.5585 9.63394L53.7188 9.22901L52.1147 5.66717H52.8366L54.0401 8.41671L55.2431 5.58594H55.9649Z" fill="black" stroke="#0C0C0C" stroke-width="0.2" stroke-miterlimit="10"/>
<path d="M56.6874 10.4438V5.58594H60.137V10.4438H59.4919V6.15271H57.2489V10.4438H56.6874Z" fill="black" stroke="#0C0C0C" stroke-width="0.2" stroke-miterlimit="10"/>
<path d="M61.2595 10.4438V5.58594H61.9015V7.69117H64.3079V5.58594H64.9499V10.4438H64.3079V8.25794H61.9015V10.4438H61.2595Z" fill="black" stroke="#0C0C0C" stroke-width="0.2" stroke-miterlimit="10"/>
<path d="M70.003 9.79571C69.6551 10.1492 69.211 10.3902 68.727 10.488C68.243 10.5859 67.7411 10.5362 67.2852 10.3452C66.8293 10.1542 66.4401 9.83064 66.167 9.41564C65.8939 9.00063 65.7493 8.51299 65.7516 8.01479C65.7465 7.68188 65.807 7.35127 65.9296 7.04219C66.0523 6.73311 66.2346 6.45175 66.466 6.21449C66.6974 5.97723 66.9733 5.7888 67.2776 5.66018C67.5818 5.53157 67.9084 5.46533 68.2382 5.46533C68.5681 5.46533 68.8947 5.53157 69.1989 5.66018C69.5032 5.7888 69.7791 5.97723 70.0105 6.21449C70.2419 6.45175 70.4242 6.73311 70.5469 7.04219C70.6695 7.35127 70.73 7.68188 70.7248 8.01479C70.6697 8.66881 70.4178 9.2902 70.003 9.79571ZM66.8747 9.39079C67.2148 9.73866 67.6741 9.94153 68.1581 9.95756C68.4006 9.96781 68.6423 9.92209 68.8647 9.82387C69.0871 9.72566 69.2843 9.57754 69.4415 9.39079C69.8013 9.02473 70.0032 8.52987 70.003 8.01417C70.0214 7.75649 69.9803 7.49801 69.8828 7.25911C69.7854 7.02021 69.6343 6.80744 69.4415 6.63756C69.1014 6.28968 68.642 6.08681 68.1581 6.07079C67.9155 6.06054 67.6739 6.10626 67.4515 6.20447C67.2291 6.30268 67.0318 6.4508 66.8747 6.63756C66.5151 7.00369 66.3134 7.49835 66.3134 8.01386C66.3134 8.52938 66.5151 9.02403 66.8747 9.39017V9.39079Z" fill="black" stroke="#0C0C0C" stroke-width="0.2" stroke-miterlimit="10"/>
<path d="M73.2118 10.4438V5.58594H74.9768C75.3381 5.5874 75.6842 5.7329 75.9396 5.99075C76.1951 6.2486 76.3392 6.5979 76.3407 6.96255C76.3254 7.18639 76.2711 7.40575 76.1803 7.61055C76.0792 7.80433 75.9063 7.94989 75.6993 8.01548C75.9163 8.10247 76.109 8.24145 76.2608 8.4204C76.3471 8.51952 76.4128 8.63503 76.4541 8.76016C76.4955 8.88529 76.5116 9.01749 76.5017 9.14901C76.5032 9.32992 76.4684 9.50926 76.3995 9.67626C76.3305 9.84325 76.2288 9.99443 76.1005 10.1207C75.8085 10.3711 75.4409 10.5139 75.0579 10.5256H73.2118V10.4438ZM73.8538 7.69117H74.9768C75.0823 7.69414 75.1871 7.67394 75.2841 7.63197C75.381 7.59 75.4678 7.52726 75.5383 7.44809C75.6085 7.38744 75.666 7.31324 75.7073 7.22986C75.7487 7.14648 75.7731 7.0556 75.7792 6.96255C75.7335 6.76049 75.6519 6.56846 75.5383 6.39578C75.4678 6.31662 75.381 6.25388 75.2841 6.21191C75.1871 6.16993 75.0823 6.14974 74.9768 6.15271H73.8538V7.69117ZM73.8538 9.87701H75.1372C75.3484 9.87186 75.5495 9.78488 75.6989 9.63411C75.8482 9.48334 75.9344 9.28033 75.9395 9.06717C75.9301 8.85499 75.8445 8.65353 75.6987 8.5004C75.6281 8.42123 75.5414 8.35849 75.4444 8.31652C75.3475 8.27455 75.2426 8.25435 75.1372 8.25732H73.9337V9.8764L73.8538 9.87701Z" fill="black" stroke="#0C0C0C" stroke-width="0.2" stroke-miterlimit="10"/>
</g>
<defs>
<linearGradient id="paint0_linear" x1="17.4873" y1="140.123" x2="1.51701" y2="135.838" gradientUnits="userSpaceOnUse">
<stop stop-color="#00A0FF"/>
<stop offset="0.007" stop-color="#00A1FF"/>
<stop offset="0.26" stop-color="#00BEFF"/>
<stop offset="0.512" stop-color="#00D2FF"/>
<stop offset="0.76" stop-color="#00DFFF"/>
<stop offset="1" stop-color="#00E3FF"/>
</linearGradient>
<linearGradient id="paint1_linear" x1="27.1389" y1="130.977" x2="7.7282" y2="130.977" gradientUnits="userSpaceOnUse">
<stop stop-color="#FFE000"/>
<stop offset="0.409" stop-color="#FFBD00"/>
<stop offset="0.775" stop-color="#FFA500"/>
<stop offset="1" stop-color="#FF9C00"/>
</linearGradient>
<linearGradient id="paint2_linear" x1="19.9165" y1="129.108" x2="6.92916" y2="107.518" gradientUnits="userSpaceOnUse">
<stop stop-color="#FF3A44"/>
<stop offset="1" stop-color="#C31162"/>
</linearGradient>
<linearGradient id="paint3_linear" x1="5.85068" y1="147.147" x2="11.6168" y2="137.485" gradientUnits="userSpaceOnUse">
<stop stop-color="#32A071"/>
<stop offset="0.068" stop-color="#2DA771"/>
<stop offset="0.476" stop-color="#15CF74"/>
<stop offset="0.801" stop-color="#06E775"/>
<stop offset="1" stop-color="#00F076"/>
</linearGradient>
<clipPath id="clip0">
<rect width="107" height="32" fill="white"/>
</clipPath>
</defs>
</svg>
