<svg width="26" height="26" viewBox="0 0 26 26" fill="none" xmlns="http://www.w3.org/2000/svg">
<path d="M12.9984 7.99219C10.231 7.99219 7.99011 10.2347 7.99011 13.0004C7.99011 15.7662 10.231 18.0103 12.9984 18.0103C15.7625 18.0103 18.0066 15.7678 18.0066 13.0004C18.0066 10.2331 15.7625 7.99219 12.9984 7.99219ZM12.9984 16.2553C11.2011 16.2553 9.74349 14.7977 9.74349 13.0021C9.74349 11.2064 11.2011 9.74881 12.9984 9.74881C14.7956 9.74881 16.25 11.2048 16.25 13.0021C16.25 14.7977 14.7956 16.2553 12.9984 16.2553Z" fill="white"/>
<path d="M19.375 7.80802C19.375 8.45315 18.8517 8.9764 18.2066 8.9764C17.5615 8.9764 17.0382 8.45315 17.0382 7.80802C17.0382 7.1629 17.5615 6.63965 18.2066 6.63965C18.8517 6.63965 19.375 7.1629 19.375 7.80802Z" fill="white"/>
<path d="M22.2446 6.62026C21.736 5.31051 20.7025 4.27538 19.3927 3.76838C18.6355 3.48401 17.8343 3.33126 17.0251 3.31338C15.9818 3.26788 15.652 3.25488 13.0065 3.25488C10.361 3.25488 10.0213 3.25488 8.98784 3.31338C8.18022 3.32963 7.37909 3.48238 6.62184 3.76838C5.31047 4.27376 4.27697 5.31051 3.76997 6.62026C3.48559 7.37913 3.33284 8.17863 3.31659 8.98788C3.26947 10.0295 3.25647 10.361 3.25647 13.0065C3.25647 15.652 3.25647 15.9884 3.31659 17.0251C3.33284 17.836 3.48559 18.6355 3.76997 19.3944C4.27859 20.7025 5.3121 21.7393 6.62347 22.2463C7.37747 22.5404 8.17859 22.7078 8.99109 22.7338C10.0343 22.7793 10.3642 22.7939 13.0097 22.7939C15.6552 22.7939 15.9948 22.7939 17.0283 22.7338C17.8376 22.7175 18.6387 22.5631 19.396 22.2804C20.7057 21.7718 21.7408 20.7383 22.2478 19.4285C22.5322 18.6696 22.685 17.8701 22.7012 17.0609C22.7483 16.0193 22.7613 15.6878 22.7613 13.0423C22.7613 10.3968 22.7613 10.0604 22.7012 9.02363C22.6866 8.20301 22.5355 7.38888 22.2446 6.62188V6.62026ZM20.9251 16.9471C20.917 17.5711 20.8048 18.1903 20.5887 18.7753C20.2588 19.6284 19.5861 20.3011 18.7346 20.6294C18.1545 20.8455 17.5435 20.9576 16.926 20.9658C15.8973 21.0129 15.6065 21.0259 12.9675 21.0259C10.3268 21.0259 10.0571 21.0259 9.00735 20.9658C8.39147 20.9576 7.77722 20.8439 7.19872 20.6294C6.34397 20.3028 5.66634 19.63 5.33647 18.7753C5.12359 18.1968 5.00984 17.5841 5.00009 16.9666C4.95297 15.938 4.94322 15.6471 4.94322 13.0081C4.94322 10.3691 4.94322 10.0978 5.00009 9.04801C5.00822 8.42401 5.12034 7.80651 5.33647 7.21988C5.66634 6.36513 6.34397 5.69238 7.19872 5.36576C7.77722 5.15126 8.38985 5.03751 9.00735 5.02938C10.0376 4.98226 10.3268 4.96926 12.9675 4.96926C15.6081 4.96926 15.8778 4.96926 16.926 5.02938C17.5451 5.03751 18.1561 5.15126 18.7346 5.36576C19.5861 5.69401 20.2588 6.36838 20.5887 7.21988C20.8016 7.79838 20.9153 8.41101 20.9251 9.02851C20.9722 10.0588 20.9836 10.348 20.9836 12.9886C20.9836 15.6293 20.9836 15.912 20.9365 16.9471H20.9251Z" fill="white"/>
</svg>
