<svg width="80" height="73" viewBox="0 0 80 73" fill="none" xmlns="http://www.w3.org/2000/svg">
<path d="M28.0999 26.6572L80 0.400024V72.4001H0V40.9414L28.0999 26.6572Z" fill="#13BF49"/>
<path d="M16.1348 54.6758C17.1772 54.6758 17.9967 54.9961 18.5938 55.6366C19.1907 56.2772 19.4893 57.1674 19.4893 58.3072V63.2096H16.9089V58.6098C16.9089 58.0752 16.7648 57.6592 16.4764 57.3616C16.1879 57.064 15.7959 56.9152 15.3001 56.9154C14.7841 56.9154 14.3767 57.0742 14.0783 57.392C13.7798 57.7097 13.6306 58.1561 13.6306 58.731V63.2095H11.0353V58.6098C11.0353 58.0752 10.8936 57.6592 10.6104 57.3616C10.3271 57.064 9.93735 56.9152 9.44143 56.9154C8.92538 56.9154 8.51555 57.0717 8.21195 57.3843C7.90848 57.6971 7.75668 58.1459 7.75668 58.7308V63.2095H5.16125V56.057L7.75668 54.7666V56.2041C7.97487 55.7349 8.33254 55.344 8.78124 55.0844C9.24158 54.812 9.78048 54.6758 10.3977 54.6758C11.0453 54.6758 11.617 54.8246 12.1128 55.1222C12.6108 55.4223 13.0032 55.8689 13.2359 56.4007C13.5215 55.8845 13.9375 55.4517 14.4426 55.1451C14.9511 54.833 15.5377 54.6704 16.1348 54.6758ZM23.1774 54.7666L25.2114 59.9413L27.1085 54.7666H29.9772L24.6952 67.2342H21.8419L23.8302 62.8918L20.2788 54.7666H23.1774ZM34.0601 54.6608C34.7077 54.6608 35.2641 54.807 35.7297 55.0995C36.1862 55.3816 36.5419 55.7998 36.7466 56.2949V51.2387L39.342 49.8194V63.2095H36.7466V61.6813C36.5419 62.1763 36.1862 62.5946 35.7297 62.8766C35.2641 63.1691 34.7077 63.3154 34.0601 63.3154C33.3619 63.3154 32.737 63.1413 32.1856 62.7934C31.6341 62.4454 31.199 61.9436 30.8803 61.2879C30.5615 60.6323 30.4022 59.8656 30.4022 58.988C30.4022 58.1004 30.5615 57.3312 30.8803 56.6806C31.199 56.03 31.6341 55.5307 32.1856 55.1827C32.737 54.8348 33.3619 54.6608 34.0601 54.6608ZM34.8948 56.9303C34.3384 56.9303 33.8906 57.1119 33.5516 57.4749C33.2125 57.8381 33.0431 58.3424 33.0431 58.9879C33.0431 59.6334 33.2127 60.1377 33.5516 60.5007C33.8905 60.8637 34.3383 61.0454 34.8948 61.0458C35.4412 61.0458 35.889 60.8591 36.238 60.4859C36.5871 60.1127 36.7618 59.6135 36.7618 58.988C36.7618 58.3526 36.5871 57.8508 36.238 57.4826C35.889 57.1144 35.4412 56.9303 34.8948 56.9303ZM45.0942 54.6608C45.934 54.6608 46.6853 54.8348 47.3481 55.1827C48.0038 55.524 48.5466 56.0467 48.9114 56.6883C49.2909 57.344 49.4806 58.1105 49.4806 58.988C49.4806 59.8656 49.2909 60.6323 48.9114 61.2879C48.5466 61.9294 48.0038 62.4523 47.3481 62.7934C46.6853 63.1415 45.934 63.3154 45.0942 63.3154C44.2543 63.3154 43.5005 63.1415 42.8326 62.7934C42.1737 62.4539 41.6279 61.9309 41.2616 61.2879C40.8823 60.6323 40.6927 59.8656 40.6927 58.988C40.6927 58.1105 40.8825 57.344 41.2619 56.6883C41.6282 56.0452 42.1739 55.5222 42.8329 55.1827C43.5007 54.8348 44.2546 54.6608 45.0942 54.6608ZM45.0942 56.9C44.8592 56.8958 44.6259 56.9414 44.41 57.034C44.194 57.1267 44.0005 57.2641 43.842 57.4372C43.5031 57.7952 43.3336 58.3123 43.3336 58.988C43.3336 59.664 43.5031 60.1784 43.842 60.5314C44.0016 60.7025 44.1956 60.8381 44.4114 60.9294C44.6271 61.0207 44.8598 61.0655 45.0942 61.061C45.3274 61.0659 45.5592 61.0213 45.7738 60.93C45.9884 60.8387 46.181 60.7028 46.3387 60.5314C46.6727 60.1784 46.8397 59.664 46.8397 58.988C46.8397 58.3123 46.6727 57.7952 46.339 57.4372C46.1823 57.2639 45.9901 57.1262 45.7753 57.0335C45.5604 56.9407 45.3281 56.8952 45.0942 56.9ZM61.8053 54.6758C62.8475 54.6758 63.6672 54.9961 64.2643 55.6366C64.8612 56.2772 65.1598 57.1674 65.1598 58.3072V63.2096H62.5795V58.6098C62.5795 58.0752 62.4353 57.6592 62.1468 57.3616C61.8586 57.064 61.4664 56.9152 60.9705 56.9154C60.4544 56.9154 60.0472 57.0742 59.7487 57.392C59.4501 57.7097 59.3009 58.1561 59.3009 58.731V63.2095H56.7055V58.6098C56.7055 58.0752 56.5638 57.6592 56.2805 57.3616C55.9973 57.064 55.6077 56.9152 55.112 56.9154C54.5959 56.9154 54.1862 57.0717 53.8826 57.3843C53.579 57.6971 53.4273 58.1459 53.4273 58.731V63.2095H50.8316V56.057L53.427 54.7666V56.2041C53.6452 55.7349 54.0029 55.344 54.4516 55.0844C54.9119 54.812 55.4507 54.676 56.068 54.676C56.7156 54.676 57.2872 54.8248 57.783 55.1224C58.2811 55.4224 58.6736 55.869 58.9063 56.4007C59.1918 55.8845 59.6078 55.4517 60.1129 55.1451C60.6216 54.833 61.2081 54.6704 61.8053 54.6758Z" fill="white"/>
<path d="M69.6774 63.1098C70.8176 63.1098 71.742 62.1854 71.742 61.0453C71.742 59.9051 70.8176 58.9807 69.6774 58.9807C68.5371 58.9807 67.6129 59.9051 67.6129 61.0453C67.6129 62.1854 68.5371 63.1098 69.6774 63.1098Z" fill="white"/>
</svg>
