<svg width="128" height="28" viewBox="0 0 128 28" fill="none" xmlns="http://www.w3.org/2000/svg">
<path fill-rule="evenodd" clip-rule="evenodd" d="M115.6 22.3048C114.647 22.6591 113.637 22.8575 112.627 22.8575H3.58053H3.22491L3.29604 22.5032L6.29746 8.99729C6.51083 8.01943 6.92335 7.0699 7.47812 6.21958C8.06133 5.32674 8.78679 4.53311 9.62605 3.86703C10.4653 3.20094 11.4041 2.64823 12.3999 2.27976C13.3672 1.92546 14.3629 1.72705 15.3729 1.72705H124.42H124.79L124.704 2.08135L121.703 15.5873C121.489 16.5793 121.077 17.5147 120.522 18.365C119.953 19.2578 119.214 20.0515 118.374 20.7176C117.535 21.3836 116.596 21.9363 115.6 22.3048Z" fill="#F9B101"/>
<path d="M126.411 0.224609H15.8422H15.387C14.1637 0.224609 12.9261 0.465534 11.7597 0.890694C10.5364 1.3442 9.38415 2.01028 8.34574 2.83226C7.32156 3.66841 6.41118 4.64628 5.71416 5.73752C5.03137 6.78625 4.53351 7.92001 4.26324 9.12463L1.03422 23.6651L0.877747 24.3596H0.97732H1.58898H2.04418H112.158H112.613C113.851 24.3596 115.074 24.1186 116.24 23.6935C117.464 23.24 118.63 22.5739 119.654 21.7519C120.693 20.9299 121.589 19.9379 122.3 18.8466C122.969 17.8121 123.481 16.6641 123.737 15.4595L126.966 0.919038L127.122 0.224609H127.037H126.411ZM108.061 17.8404H110.152L112.556 6.74374H110.451L108.061 17.8404ZM41.2476 6.74374H47.919L47.5492 8.47272H40.8778L40.4083 10.6694H45.6146C45.956 10.6694 46.2547 10.7261 46.525 10.8253C46.8095 10.9103 47.0371 11.052 47.2078 11.2079C47.3927 11.3922 47.5207 11.6047 47.5918 11.8598C47.663 12.1149 47.7056 12.3842 47.7056 12.6676C47.7056 12.9511 47.6914 13.2203 47.6487 13.5038C47.6061 13.7872 47.5634 14.0423 47.5207 14.2549C47.4638 14.4958 47.4069 14.7368 47.3358 15.006C47.2647 15.2611 47.1651 15.5304 47.0513 15.7997C46.9375 16.0547 46.7952 16.3098 46.6388 16.5508C46.4681 16.7917 46.2832 16.9901 46.0413 17.1743C45.8422 17.3444 45.6288 17.472 45.4154 17.557C45.2021 17.6562 44.9887 17.7129 44.7896 17.7554C44.5762 17.7979 44.377 17.8263 44.1921 17.8263C44.0072 17.8404 43.8365 17.8404 43.6942 17.8404H38.3884C38.2035 17.8404 38.0043 17.8121 37.7768 17.7554C37.5492 17.7129 37.3785 17.5853 37.2362 17.4153C37.0797 17.2169 37.0086 17.0184 37.0228 16.8059C37.0371 16.5933 37.0655 16.3807 37.1224 16.1823L38.7725 8.47272L38.7867 8.41603L38.8009 8.40186V8.38769C38.8436 8.18928 38.9005 7.9767 38.9716 7.77829C39.057 7.56571 39.2135 7.3673 39.441 7.1689C39.6544 6.99883 39.8962 6.87128 40.1381 6.82877C40.3372 6.78625 40.5079 6.75791 40.6644 6.74374H41.2476ZM21.5036 9.23801C21.5321 9.16715 21.589 9.09629 21.6601 8.99709C21.7312 8.91205 21.7881 8.86954 21.845 8.86954C21.8735 8.86954 21.9162 8.88371 21.9588 8.92623C21.9873 8.95457 22.0015 9.05377 21.9731 9.19549L20.0385 17.8404H22.1295L24.249 8.07591C24.3486 7.56571 24.2632 7.19724 23.9787 6.97049C23.68 6.72956 23.2817 6.61619 22.7696 6.61619C22.5563 6.61619 22.3713 6.63036 22.1864 6.67288C21.9873 6.70122 21.8024 6.75791 21.6174 6.85711C21.4183 6.97049 21.2334 7.11221 21.0484 7.29644C20.8635 7.48068 20.6786 7.72161 20.4937 8.04756L16.0129 15.4454C15.9418 15.5587 15.8706 15.6579 15.7995 15.743C15.7426 15.8138 15.6857 15.8563 15.6288 15.8563C15.5719 15.8563 15.5292 15.8138 15.5008 15.743C15.4723 15.6579 15.4439 15.5587 15.4154 15.4454L14.1352 8.04756C14.1068 7.84915 14.0499 7.67909 13.993 7.49485C13.9361 7.32479 13.8507 7.1689 13.7369 7.04135C13.6231 6.89963 13.4667 6.80042 13.2675 6.72956C13.0684 6.6587 12.7981 6.61619 12.4851 6.61619C12.3998 6.61619 12.2575 6.63036 12.0584 6.64453C11.8593 6.6587 11.6459 6.71539 11.4325 6.8146C11.2049 6.89963 10.9915 7.05552 10.7924 7.23976C10.5933 7.43816 10.451 7.72161 10.3799 8.07591L8.26039 17.8404H10.3657L12.1864 9.19549C12.1864 9.18132 12.2149 9.12463 12.2433 9.02543C12.286 8.92623 12.3429 8.86954 12.4282 8.86954C12.4851 8.86954 12.5278 8.91205 12.5563 8.99709C12.5989 9.09629 12.6132 9.16715 12.6274 9.23801L13.8649 16.6358C13.8934 16.82 13.9218 16.9901 13.9645 17.146C14.0072 17.3019 14.0783 17.4436 14.1637 17.557C14.249 17.6845 14.377 17.7837 14.5335 17.8546C14.69 17.9255 14.9034 17.968 15.1736 17.968C15.4154 17.968 15.6288 17.9396 15.8137 17.8829C15.9987 17.8263 16.1551 17.7412 16.2974 17.6137C16.4396 17.5003 16.5676 17.3586 16.6814 17.2027C16.7952 17.0326 16.9233 16.8484 17.0513 16.6358L21.5036 9.23801ZM27.094 12.2992C27.2789 11.4347 27.478 10.7686 27.7056 10.3009C27.919 9.83324 28.175 9.46476 28.4453 9.18132C28.8578 8.78451 29.3272 8.52941 29.8536 8.43021C30.3657 8.331 30.9204 8.28849 31.5036 8.28849C32.0726 8.28849 32.5989 8.331 33.0968 8.43021C33.5805 8.52941 33.9503 8.78451 34.1921 9.18132C34.249 9.2947 34.3059 9.42225 34.3628 9.57814C34.4055 9.73403 34.4339 9.94661 34.4482 10.1875C34.4624 10.4285 34.4482 10.7261 34.4055 11.0662C34.377 11.4063 34.3059 11.8173 34.2063 12.2992C34.1068 12.7385 34.0072 13.1211 33.8934 13.4613C33.7796 13.8014 33.6658 14.099 33.552 14.3399C33.4382 14.5809 33.3244 14.7793 33.1964 14.9493C33.0826 15.1194 32.9688 15.2611 32.855 15.3887C32.6274 15.6012 32.3998 15.7571 32.1722 15.8847C31.9304 15.9981 31.6743 16.0973 31.4183 16.154C31.148 16.2248 30.8777 16.2673 30.6075 16.2815C30.3372 16.2957 30.0527 16.2957 29.7682 16.2957C29.4837 16.2957 29.1992 16.2957 28.929 16.2815C28.6587 16.2673 28.4026 16.2248 28.175 16.154C27.9474 16.0973 27.7341 15.9981 27.5492 15.8847C27.3642 15.7571 27.222 15.6012 27.1082 15.3887C27.0371 15.2611 26.9802 15.1336 26.9375 14.9635C26.8948 14.7934 26.8664 14.595 26.8521 14.3399C26.8379 14.099 26.8521 13.8014 26.8948 13.4754C26.9233 13.1353 26.9944 12.7527 27.094 12.2992ZM31.8735 6.61619C31.5321 6.61619 31.1765 6.63036 30.7782 6.63036C30.3941 6.64453 29.9958 6.68705 29.5833 6.75791C29.185 6.82877 28.7725 6.95632 28.36 7.11221C27.9474 7.2681 27.5634 7.49485 27.1935 7.79247C26.8237 8.07591 26.5107 8.40186 26.2547 8.77033C26.0129 9.12463 25.7995 9.50728 25.6288 9.9041C25.4581 10.3009 25.3159 10.7119 25.2163 11.1087C25.1025 11.5197 25.0029 11.9165 24.9318 12.2992C24.8607 12.611 24.7896 12.9653 24.7184 13.3479C24.6473 13.7447 24.6189 14.1415 24.6046 14.5525C24.5904 14.9635 24.6331 15.3603 24.7327 15.743C24.818 16.1398 24.9887 16.4941 25.2447 16.7917C25.4866 17.0893 25.7853 17.3161 26.1267 17.472C26.4681 17.6278 26.8237 17.7554 27.2078 17.8263C27.5918 17.8971 27.9759 17.9396 28.36 17.9538C28.744 17.968 29.0997 17.968 29.4268 17.968C29.7398 17.968 30.0954 17.968 30.4937 17.9538C30.892 17.9396 31.2903 17.8971 31.7028 17.8263C32.1295 17.7554 32.5278 17.6278 32.9403 17.472C33.3529 17.3161 33.7511 17.0893 34.121 16.7917C34.4624 16.5224 34.7611 16.1965 35.0172 15.828C35.259 15.4595 35.4723 15.0769 35.643 14.6659C35.8137 14.2691 35.956 13.8581 36.0698 13.4613C36.1836 13.0503 36.2832 12.6676 36.3685 12.2992C36.4396 11.9307 36.5107 11.548 36.5819 11.1371C36.653 10.7261 36.6814 10.3151 36.6814 9.91827C36.6814 9.50728 36.6245 9.12463 36.5392 8.75616C36.4538 8.38769 36.2832 8.06173 36.0698 7.79247C35.8137 7.49485 35.5292 7.2681 35.1878 7.11221C34.8465 6.95632 34.4766 6.82877 34.0925 6.75791C33.7227 6.68705 33.3386 6.64453 32.9546 6.63036C32.5705 6.63036 32.2006 6.61619 31.8735 6.61619ZM40.0385 12.3417L39.3557 15.5162C39.3415 15.6012 39.3273 15.7004 39.313 15.7855C39.313 15.8705 39.3273 15.9555 39.3842 16.0264C39.4553 16.1114 39.5264 16.1681 39.6117 16.1681C39.6971 16.1681 39.7824 16.1823 39.8536 16.1823H43.2391C43.424 16.1823 43.6374 16.154 43.9076 16.1256C44.1637 16.0831 44.4055 15.9697 44.6331 15.7997C44.8465 15.6154 45.0029 15.3745 45.1167 15.0769C45.2163 14.7793 45.3016 14.51 45.3585 14.2691C45.3728 14.1699 45.4012 14.0423 45.4297 13.9148C45.4439 13.7731 45.4581 13.6313 45.4723 13.5038C45.4723 13.3621 45.4581 13.2203 45.4439 13.0928C45.4154 12.9653 45.387 12.8519 45.3159 12.7527C45.1878 12.5401 44.9887 12.4125 44.7469 12.3842C44.5051 12.3559 44.2632 12.3417 44.0356 12.3417H40.0385ZM59.0001 17.8404H56.9659L58.7298 9.66317C58.7298 9.62066 58.744 9.56397 58.744 9.49311C58.744 9.42225 58.7014 9.3939 58.616 9.3939C58.5307 9.3939 58.4738 9.42225 58.4311 9.49311C58.4026 9.5498 58.3457 9.60648 58.3031 9.66317L51.9731 17.0893C51.7597 17.3444 51.5179 17.5428 51.2191 17.7129C50.9062 17.8829 50.5079 17.968 50.01 17.968C49.4837 17.968 49.0997 17.8404 48.8436 17.5712C48.6018 17.3019 48.5307 16.9334 48.6302 16.4657L50.7355 6.74374H52.7696L51.0058 14.8926C50.9915 15.006 50.9915 15.0911 51.0342 15.1336C51.0769 15.1903 51.1196 15.2044 51.1622 15.2044C51.1907 15.2044 51.2191 15.1903 51.2476 15.1619C51.2903 15.1336 51.3614 15.0485 51.4752 14.9352L57.7625 7.55154C58.0897 7.1689 58.4311 6.9138 58.7583 6.78625C59.0854 6.67288 59.4268 6.61619 59.7682 6.61619C60.2234 6.61619 60.579 6.74374 60.8493 6.98466C61.1338 7.22558 61.2049 7.6224 61.0769 8.18928L59.0001 17.8404ZM59.4695 17.8404H61.6886L67.5065 8.51524L68.7867 15.0344L69.3273 17.8404H71.5321L69.4837 7.8775C69.3842 7.40982 69.2135 7.08386 68.9859 6.89963C68.7583 6.71539 68.4026 6.61619 67.9332 6.61619C67.4211 6.61619 67.0228 6.71539 66.7241 6.89963C66.4254 7.08386 66.1267 7.40982 65.828 7.8775L59.4695 17.8404ZM75.3017 12.3417L74.6189 15.5162C74.5904 15.6012 74.5762 15.7004 74.562 15.7855C74.562 15.8705 74.5904 15.9555 74.6473 16.0264C74.7042 16.1114 74.7896 16.1681 74.8607 16.1681C74.946 16.1681 75.0314 16.1823 75.1025 16.1823H78.488C78.6729 16.1823 78.9005 16.154 79.1566 16.1256C79.4268 16.0831 79.6544 15.9697 79.882 15.7997C80.0954 15.6154 80.2661 15.3745 80.3657 15.0769C80.4795 14.7793 80.5506 14.51 80.6075 14.2691C80.6359 14.1699 80.6502 14.0423 80.6786 13.9148C80.7071 13.7731 80.7213 13.6313 80.7213 13.5038C80.7213 13.3621 80.7071 13.2203 80.6928 13.0928C80.6786 12.9653 80.6359 12.8519 80.5648 12.7527C80.4368 12.5401 80.2519 12.4125 80.01 12.3842C79.754 12.3559 79.5264 12.3417 79.2846 12.3417H75.3017ZM76.5107 6.74374L75.6573 10.6694H80.8778C81.2049 10.6694 81.5036 10.7261 81.7881 10.8253C82.0584 10.9103 82.286 11.052 82.4567 11.2079C82.6416 11.3922 82.7696 11.6047 82.8408 11.8598C82.9119 12.1149 82.9546 12.3842 82.9546 12.6676C82.9546 12.9511 82.9403 13.2203 82.8977 13.5038C82.8692 13.7872 82.8265 14.0423 82.7696 14.2549C82.727 14.4958 82.6558 14.7368 82.5847 15.006C82.5136 15.2611 82.414 15.5304 82.3002 15.7997C82.1864 16.0547 82.0442 16.3098 81.8877 16.5508C81.7312 16.7917 81.5321 16.9901 81.3045 17.1743C81.0911 17.3444 80.8778 17.472 80.6644 17.557C80.451 17.6562 80.2376 17.7129 80.0385 17.7554C79.8251 17.7979 79.6402 17.8263 79.441 17.8263C79.2561 17.8404 79.0997 17.8404 78.9432 17.8404H73.6516C73.4524 17.8404 73.2533 17.8121 73.0257 17.7554C72.8123 17.7129 72.6274 17.5853 72.4851 17.4153C72.3287 17.2169 72.2718 17.0184 72.286 16.8059C72.3002 16.5933 72.3287 16.3807 72.3714 16.1823L74.4055 6.74374H76.5107ZM95.9702 6.74374H93.8792L92.8977 11.293H87.1082L88.0897 6.74374H85.9844L83.5947 17.8404H85.6857L86.7383 12.9653H92.542L91.4752 17.8404H93.5805L95.9702 6.74374ZM106.141 17.8404H104.107L105.885 9.66317C105.885 9.62066 105.885 9.56397 105.885 9.49311C105.885 9.42225 105.842 9.3939 105.757 9.3939C105.686 9.3939 105.629 9.42225 105.586 9.49311C105.543 9.5498 105.501 9.60648 105.444 9.66317L99.1139 17.0893C98.9147 17.3444 98.6729 17.5428 98.36 17.7129C98.0612 17.8829 97.663 17.968 97.1651 17.968C96.6388 17.968 96.2405 17.8404 95.9987 17.5712C95.7568 17.3019 95.6857 16.9334 95.7853 16.4657L97.8906 6.74374H99.9247L98.1608 14.8926C98.1324 15.006 98.1466 15.0911 98.1893 15.1336C98.2319 15.1903 98.2746 15.2044 98.3173 15.2044C98.3315 15.2044 98.3742 15.1903 98.4026 15.1619C98.4453 15.1336 98.5164 15.0485 98.6302 14.9352L104.918 7.55154C105.245 7.1689 105.572 6.9138 105.913 6.78625C106.24 6.67288 106.582 6.61619 106.923 6.61619C107.378 6.61619 107.734 6.74374 108.004 6.98466C108.275 7.22558 108.36 7.6224 108.232 8.18928L106.141 17.8404ZM118.716 17.8404L114.462 13.1637C114.334 13.0219 114.221 12.8802 114.121 12.7243C114.007 12.5684 113.979 12.3559 114.036 12.1149C114.078 11.9307 114.164 11.7748 114.306 11.6473C114.434 11.5339 114.59 11.4063 114.733 11.293L120.522 6.74374H117.933L112.812 10.8961C112.642 11.052 112.471 11.2363 112.314 11.463C112.158 11.7039 112.058 11.9165 112.016 12.1291C111.973 12.3275 111.973 12.5543 112.002 12.8094C112.044 13.0645 112.172 13.3196 112.4 13.5746L116.056 17.8404H118.716ZM115.6 22.3046C114.647 22.6589 113.637 22.8573 112.627 22.8573H3.58045H3.22483L3.29595 22.503L6.29738 8.99709C6.51075 8.01922 6.92327 7.06969 7.47803 6.21937C8.06125 5.32653 8.78671 4.5329 9.62597 3.86682C10.4652 3.20073 11.4041 2.64802 12.3998 2.27955C13.3671 1.92525 14.3628 1.72684 15.3728 1.72684H124.42H124.79L124.704 2.08114L121.703 15.5871C121.489 16.5791 121.077 17.5145 120.522 18.3648C119.953 19.2576 119.213 20.0513 118.374 20.7173C117.535 21.3834 116.596 21.9361 115.6 22.3046Z" fill="#2B2A29"/>
<path d="M100.465 27.1512C100.821 27.0803 101.191 26.9811 101.546 26.8536C103.196 26.23 104.221 25.3655 104.918 24.2885C105.615 23.1972 105.999 21.865 106.34 20.3345H24.1495C23.7939 20.3345 23.4383 20.3628 23.0827 20.4337C22.7128 20.5045 22.3572 20.6037 22.0016 20.7313C20.3515 21.3407 19.3131 22.2052 18.6161 23.2964C17.9191 24.3877 17.535 25.7198 17.1936 27.2504H99.3842C99.7541 27.2504 100.11 27.2079 100.465 27.1512Z" fill="#FEFEFE"/>
<path d="M101.731 27.3501C101.347 27.4918 100.949 27.591 100.551 27.676C100.167 27.7469 99.7683 27.7752 99.3842 27.7752H17.1367H16.8665H16.5393L16.6104 27.4634L16.6673 27.1942C17.0229 25.5786 17.4212 24.1897 18.1752 23.0134C18.9291 21.823 20.0386 20.8876 21.8167 20.2357C22.2008 20.094 22.5848 19.9806 22.9831 19.9098C23.3672 19.8389 23.7655 19.7964 24.1495 19.7964H106.397H106.667H107.009L106.938 20.1223L106.866 20.3916C106.511 21.993 106.113 23.3961 105.359 24.5724C104.605 25.7486 103.495 26.684 101.731 27.3501ZM100.465 27.1517C100.821 27.0808 101.191 26.9816 101.546 26.8541C103.196 26.2305 104.221 25.366 104.918 24.2889C105.615 23.1977 105.999 21.8655 106.34 20.3349H24.1495C23.7939 20.3349 23.4383 20.3633 23.0827 20.4341C22.7128 20.505 22.3572 20.6042 22.0016 20.7317C20.3515 21.3411 19.3131 22.2056 18.6161 23.2969C17.9191 24.3881 17.535 25.7203 17.1936 27.2509H99.3842C99.7541 27.2509 100.11 27.2084 100.465 27.1517Z" fill="#2B2A29"/>
<path fill-rule="evenodd" clip-rule="evenodd" d="M23.111 23.0131H22.3713V25.0964H21.8023V23.0131H21.0768V22.5454H23.111V23.0131ZM29.185 23.6225H30.4367C30.4225 23.4666 30.3656 23.3249 30.2945 23.2257C30.1807 23.0698 30.0242 22.999 29.8251 22.999C29.6259 22.999 29.4694 23.0698 29.3414 23.2257C29.2561 23.3391 29.1992 23.4666 29.185 23.6225ZM30.451 24.0052H29.185C29.1992 24.1752 29.2561 24.3169 29.3414 24.4162C29.4694 24.572 29.6259 24.6429 29.8108 24.6429C30.01 24.6429 30.1665 24.572 30.2803 24.4303C30.3656 24.3169 30.4225 24.1752 30.451 24.0052ZM23.7795 23.6225H25.0313C25.0171 23.4666 24.9602 23.3249 24.8749 23.2257C24.7753 23.0698 24.6188 22.999 24.4197 22.999C24.2205 22.999 24.064 23.0698 23.936 23.2257C23.8507 23.3391 23.7938 23.4666 23.7795 23.6225ZM25.0455 24.0052H23.7653C23.7938 24.1752 23.8507 24.3169 23.936 24.4162C24.064 24.572 24.2063 24.6429 24.4054 24.6429C24.6046 24.6429 24.7611 24.572 24.8749 24.4303C24.9602 24.3169 25.0171 24.1752 25.0455 24.0052ZM102.457 25.0964H101.831L101.66 24.5295H100.75L100.565 25.0964H99.9389L100.878 22.5454H101.56L102.457 25.0964ZM101.518 24.0902L101.248 23.2399C101.233 23.169 101.219 23.0982 101.205 22.999H101.191C101.191 23.084 101.176 23.1548 101.148 23.2257L100.863 24.0902H101.518ZM99.6401 25.0964H99.0712V23.5658C99.0712 23.4099 99.0854 23.2257 99.0996 23.0273H99.0854C99.0427 23.1832 99.0285 23.2966 99 23.3674L98.4026 25.0964H97.9332L97.3215 23.3816C97.3073 23.3391 97.2788 23.2115 97.2504 23.0273H97.2219C97.2362 23.2824 97.2504 23.495 97.2504 23.6934V25.0964H96.7383V22.5454H97.5776L98.0897 24.0619C98.1323 24.1752 98.1608 24.3028 98.1892 24.4162H98.2034C98.2319 24.2744 98.2603 24.1611 98.303 24.0477L98.8151 22.5454H99.6401V25.0964ZM96.3258 25.0964H94.7895V22.5454H96.2689V23.0131H95.3727V23.58H96.1978V24.0477H95.3727V24.6287H96.3258V25.0964ZM94.4481 23.0131H93.7226V25.0964H93.1537V23.0131H92.4282V22.5454H94.4481V23.0131ZM92.2148 24.9972C92.0299 25.0964 91.7881 25.1389 91.4894 25.1389C91.0911 25.1389 90.7924 25.0255 90.5648 24.7988C90.3372 24.5579 90.2234 24.2603 90.2234 23.8776C90.2234 23.4666 90.3514 23.1407 90.6074 22.8856C90.8635 22.6305 91.1906 22.5029 91.5889 22.5029C91.8308 22.5029 92.0441 22.5454 92.2148 22.6021V23.1548C92.0441 23.0556 91.845 22.999 91.6316 22.999C91.3898 22.999 91.2049 23.0698 91.0484 23.2257C90.9062 23.3816 90.835 23.58 90.835 23.8351C90.835 24.076 90.9062 24.2744 91.0342 24.4162C91.1764 24.572 91.3613 24.6429 91.6032 24.6429C91.8308 24.6429 92.0299 24.5862 92.2148 24.4728V24.9972ZM89.7966 25.0964H89.2561V23.6934C89.2561 23.5375 89.2703 23.3958 89.2845 23.2824H89.2703C89.2419 23.3391 89.1992 23.4099 89.1423 23.495L88.0897 25.0964H87.5064V22.5454H88.047V23.9626C88.047 24.1327 88.047 24.2461 88.0328 24.3028H88.047C88.047 24.2886 88.0897 24.2177 88.175 24.1044L89.185 22.5454H89.7966V25.0964ZM87.0655 24.9972C86.8805 25.0964 86.6387 25.1389 86.34 25.1389C85.9417 25.1389 85.643 25.0255 85.4154 24.7988C85.1878 24.5579 85.074 24.2603 85.074 23.8776C85.074 23.4666 85.202 23.1407 85.4581 22.8856C85.6999 22.6305 86.0271 22.5029 86.4396 22.5029C86.6814 22.5029 86.8948 22.5454 87.0655 22.6021V23.1548C86.8948 23.0556 86.6956 22.999 86.4823 22.999C86.2404 22.999 86.0555 23.0698 85.899 23.2257C85.7568 23.3816 85.6857 23.58 85.6857 23.8351C85.6857 24.076 85.7568 24.2744 85.8848 24.4162C86.0271 24.572 86.212 24.6429 86.4538 24.6429C86.6672 24.6429 86.8805 24.5862 87.0655 24.4728V24.9972ZM83.6515 25.0964H83.0683V24.1044H82.9261C82.7838 24.1044 82.6558 24.2177 82.5704 24.4303L82.3002 25.0964H81.6316L81.9872 24.3311C82.0868 24.1185 82.2148 23.991 82.3855 23.9343C82.0015 23.8351 81.8165 23.6225 81.8165 23.2824C81.8165 23.0556 81.9019 22.8714 82.0726 22.7439C82.229 22.6163 82.4709 22.5454 82.7696 22.5454H83.6515V25.0964ZM83.0683 23.6792V22.9848H82.8265C82.5562 22.9848 82.4282 23.0982 82.4282 23.3249C82.4282 23.4241 82.4709 23.5091 82.542 23.58C82.6131 23.6367 82.7127 23.6792 82.8265 23.6792H83.0683ZM81.5889 25.0964H80.963L80.7781 24.5295H79.8677L79.6828 25.0964H79.0712L79.9958 22.5454H80.6786L81.5889 25.0964ZM80.6501 24.0902L80.3656 23.2399C80.3514 23.169 80.3372 23.0982 80.3229 22.999H80.3087C80.3087 23.084 80.2945 23.1548 80.266 23.2257L79.9958 24.0902H80.6501ZM78.7582 25.0964H78.175V24.0619H77.1224V25.0964H76.5534V22.5454H77.1224V23.5658H78.175V22.5454H78.7582V25.0964ZM76.2689 25.0964H75.5576L74.8037 23.991C74.7895 23.9626 74.7611 23.9201 74.7326 23.8634V25.0964H74.1636V23.8634C74.1494 23.8918 74.1209 23.9343 74.0925 23.991L73.3386 25.0964H72.6273L73.5946 23.7642L72.6985 22.5454H73.3813L74.0925 23.6083C74.1209 23.665 74.1494 23.6934 74.1636 23.7359V22.5454H74.7326V23.7359C74.7611 23.6934 74.7753 23.665 74.8037 23.6083L75.515 22.5454H76.1978L75.3016 23.7642L76.2689 25.0964ZM72.4993 25.0964H70.963V22.5454H72.4424V23.0131H71.5463V23.58H72.3713V24.0477H71.5463V24.6287H72.4993V25.0964ZM70.6217 23.0131H69.8962V25.0964H69.3272V23.0131H68.6017V22.5454H70.6217V23.0131ZM68.7298 25.0964H68.1039L67.919 24.5295H67.0086L66.8236 25.0964H66.212L67.1366 22.5454H67.8194L68.7298 25.0964ZM67.7909 24.0902L67.5064 23.2399C67.4922 23.169 67.478 23.0982 67.4638 22.999H67.4495C67.4495 23.084 67.4353 23.1548 67.4069 23.2257L67.1366 24.0902H67.7909ZM65.899 25.0964H65.3158V23.0273H64.818C64.6757 24.0052 64.5477 24.6004 64.4339 24.813C64.3059 25.0255 64.1209 25.1248 63.8791 25.1248C63.7795 25.1248 63.68 25.1106 63.5662 25.0822V24.6146C63.6373 24.6429 63.6942 24.6571 63.7511 24.6571C63.7938 24.6571 63.8364 24.6429 63.8791 24.6146C63.9218 24.572 63.9502 24.5012 64.0071 24.3595C64.0498 24.2319 64.1067 24.0052 64.1636 23.6792C64.2347 23.3533 64.2916 22.9848 64.3485 22.5454H65.899V25.0964ZM63.239 25.0964H62.67V23.0556H61.6032V25.0964H61.0342V22.5454H63.239V25.0964ZM58.4453 25.0964H57.8763V22.5454H58.4453V25.0964ZM55.7568 25.0964V22.5454H56.3258V23.5091H56.7098C57.3215 23.5091 57.6202 23.7501 57.6202 24.2461C57.6202 24.5154 57.5491 24.7279 57.3784 24.8697C57.2077 25.0114 56.9801 25.0964 56.6814 25.0964H55.7568ZM56.3258 23.9343V24.6571H56.5818C56.8805 24.6571 57.0228 24.5295 57.0228 24.2886C57.0228 24.0477 56.8805 23.9343 56.5961 23.9343H56.3258ZM55.3158 24.9972C55.1167 25.0964 54.8749 25.1389 54.5761 25.1389C54.1921 25.1389 53.8791 25.0255 53.6515 24.7988C53.4382 24.5579 53.3244 24.2603 53.3244 23.8776C53.3244 23.4666 53.4524 23.1407 53.6942 22.8856C53.9502 22.6305 54.2774 22.5029 54.6757 22.5029C54.9318 22.5029 55.1451 22.5454 55.3158 22.6021V23.1548C55.1451 23.0556 54.946 22.999 54.7326 22.999C54.4908 22.999 54.2916 23.0698 54.1494 23.2257C53.9929 23.3816 53.9218 23.58 53.9218 23.8351C53.9218 24.076 53.9929 24.2744 54.1352 24.4162C54.2774 24.572 54.4623 24.6429 54.6899 24.6429C54.9175 24.6429 55.1167 24.5862 55.3158 24.4728V24.9972ZM53.1963 25.0964H52.5704L52.3855 24.5295H51.4894L51.3044 25.0964H50.6786L51.6174 22.5454H52.2859L53.1963 25.0964ZM52.2575 24.0902L51.9872 23.2399C51.973 23.169 51.9446 23.0982 51.9446 22.999H51.9303C51.9161 23.084 51.9019 23.1548 51.8877 23.2257L51.6032 24.0902H52.2575ZM50.3798 25.0964H49.8108V23.5658C49.8108 23.4099 49.8108 23.2257 49.8251 23.0273H49.8108C49.7824 23.1832 49.7539 23.2966 49.7397 23.3674L49.1423 25.0964H48.6729L48.0612 23.3816C48.047 23.3391 48.0185 23.2115 47.9758 23.0273H47.9616C47.9758 23.2824 47.9901 23.495 47.9901 23.6934V25.0964H47.4638V22.5454H48.3172L48.8293 24.0619C48.872 24.1752 48.9005 24.3028 48.9289 24.4162C48.9716 24.2744 49 24.1611 49.0427 24.0477L49.5548 22.5454H50.3798V25.0964ZM47.0655 25.0964H45.5292V22.5454H47.0086V23.0131H46.1124V23.58H46.9374V24.0477H46.1124V24.6287H47.0655V25.0964ZM45.1878 23.0131H44.4623V25.0964H43.8791V23.0131H43.1679V22.5454H45.1878V23.0131ZM42.9545 24.9972C42.7696 25.0964 42.5278 25.1389 42.229 25.1389C41.8308 25.1389 41.532 25.0255 41.3044 24.7988C41.0768 24.5579 40.963 24.2603 40.963 23.8776C40.963 23.4666 41.0911 23.1407 41.3471 22.8856C41.5889 22.6305 41.9161 22.5029 42.3286 22.5029C42.5704 22.5029 42.7838 22.5454 42.9545 22.6021V23.1548C42.7838 23.0556 42.5847 22.999 42.3713 22.999C42.1295 22.999 41.9446 23.0698 41.7881 23.2257C41.6458 23.3816 41.5747 23.58 41.5747 23.8351C41.5747 24.076 41.6458 24.2744 41.7739 24.4162C41.9161 24.572 42.101 24.6429 42.3428 24.6429C42.5562 24.6429 42.7696 24.5862 42.9545 24.4728V24.9972ZM40.5363 25.0964H39.9958V23.6934C39.9958 23.5375 40.01 23.3958 40.01 23.2824C39.9815 23.3391 39.9389 23.4099 39.882 23.495L38.8293 25.0964H38.2461V22.5454H38.7867V23.9626C38.7867 24.1327 38.7867 24.2461 38.7724 24.3028H38.7867C38.7867 24.2886 38.8293 24.2177 38.9147 24.1044L39.9246 22.5454H40.5363V25.0964ZM37.8052 24.9972C37.6202 25.0964 37.3784 25.1389 37.0797 25.1389C36.6814 25.1389 36.3685 25.0255 36.1551 24.7988C35.9275 24.5579 35.8137 24.2603 35.8137 23.8776C35.8137 23.4666 35.9417 23.1407 36.1978 22.8856C36.4396 22.6305 36.7667 22.5029 37.1793 22.5029C37.4211 22.5029 37.6345 22.5454 37.8052 22.6021V23.1548C37.6345 23.0556 37.4353 22.999 37.2219 22.999C36.9801 22.999 36.781 23.0698 36.6387 23.2257C36.4965 23.3816 36.4254 23.58 36.4254 23.8351C36.4254 24.076 36.4822 24.2744 36.6245 24.4162C36.7667 24.572 36.9517 24.6429 37.1935 24.6429C37.4069 24.6429 37.6202 24.5862 37.8052 24.4728V24.9972ZM34.3912 25.0964H33.8222V23.5658C33.8222 23.4099 33.8364 23.2257 33.8507 23.0273H33.8364C33.7938 23.1832 33.7795 23.2966 33.7511 23.3674L33.1537 25.0964H32.6842L32.0726 23.3816C32.0584 23.3391 32.0299 23.2115 32.0015 23.0273H31.973C31.9872 23.2824 32.0015 23.495 32.0015 23.6934V25.0964H31.4894V22.5454H32.3286L32.8407 24.0619C32.8834 24.1752 32.9118 24.3028 32.9403 24.4162H32.9545C32.983 24.2744 33.0114 24.1611 33.0541 24.0477L33.5662 22.5454H34.3912V25.0964ZM29.7966 25.1389C29.441 25.1389 29.1423 25.0114 28.9147 24.7846C28.6729 24.5437 28.5591 24.2319 28.5591 23.8493C28.5591 23.4525 28.6729 23.1265 28.9147 22.8856C29.1423 22.6305 29.4552 22.5029 29.8393 22.5029C30.2091 22.5029 30.4936 22.6305 30.7212 22.8714C30.9488 23.0982 31.0626 23.4099 31.0626 23.8068C31.0626 24.2036 30.9488 24.5295 30.707 24.7705C30.4794 25.0114 30.1807 25.1389 29.7966 25.1389ZM28.1323 25.0964H27.5633V23.0273H27.0512C26.9232 24.0052 26.7952 24.6004 26.6672 24.813C26.5534 25.0255 26.3685 25.1248 26.1266 25.1248C26.0128 25.1248 25.9133 25.1106 25.8137 25.0822V24.6146C25.8848 24.6429 25.9417 24.6571 25.9844 24.6571C26.0413 24.6571 26.084 24.6429 26.1266 24.6146C26.1551 24.572 26.1978 24.5012 26.2404 24.3595C26.2831 24.2319 26.34 24.0052 26.4111 23.6792C26.468 23.3533 26.5249 22.9848 26.5818 22.5454H28.1323V25.0964ZM24.3912 25.1389C24.0356 25.1389 23.7369 25.0114 23.4951 24.7846C23.2675 24.5437 23.1537 24.2319 23.1537 23.8493C23.1537 23.4525 23.2675 23.1265 23.5093 22.8856C23.7369 22.6305 24.0498 22.5029 24.4339 22.5029C24.8037 22.5029 25.0882 22.6305 25.3158 22.8714C25.5434 23.0982 25.6572 23.4099 25.6572 23.8068C25.6572 24.2036 25.5434 24.5295 25.3016 24.7705C25.074 25.0114 24.7753 25.1389 24.3912 25.1389Z" fill="#2B2A29"/>
<path fill-rule="evenodd" clip-rule="evenodd" d="M59.7682 23.4243C60.0243 23.4243 60.2377 23.6369 60.2377 23.892C60.2377 24.1471 60.0243 24.3597 59.7682 24.3597C59.5122 24.3597 59.2988 24.1471 59.2988 23.892C59.2988 23.6369 59.5122 23.4243 59.7682 23.4243Z" fill="#2B2A29"/>
</svg>
