<svg width="1226" height="761" viewBox="0 0 1226 761" fill="none" xmlns="http://www.w3.org/2000/svg">
<path d="M0 11H1226V761H0V11Z" fill="url(#paint0_radial)"/>
<g clip-path="url(#clip0)">
<g opacity="0.5">
<path opacity="0.5" d="M276.004 715L49.9997 600.348V595.175L286.151 715H276.004Z" fill="white" fill-opacity="0.5"/>
<path opacity="0.5" d="M206.633 715L49.9997 635.53V630.398L216.78 715H206.633Z" fill="white" fill-opacity="0.5"/>
<path opacity="0.5" d="M229.743 715L50 623.816V618.643L239.89 715H229.743Z" fill="white" fill-opacity="0.5"/>
<path opacity="0.5" d="M368.484 715L49.9993 553.411V548.279L378.673 715H368.484Z" fill="white" fill-opacity="0.5"/>
<path opacity="0.5" d="M299.114 715L50.0002 588.593V583.461L309.261 715H299.114Z" fill="white" fill-opacity="0.5"/>
<path opacity="0.5" d="M345.375 715L49.9997 565.166V559.992L355.522 715H345.375Z" fill="white" fill-opacity="0.5"/>
<path opacity="0.5" d="M322.224 715L49.9995 576.88V571.706L332.412 715H322.224Z" fill="white" fill-opacity="0.5"/>
<path opacity="0.5" d="M252.853 715L49.9996 612.062V606.929L263.041 715H252.853Z" fill="white" fill-opacity="0.5"/>
<path opacity="0.5" d="M91.0015 715L50.0002 694.222V689.048L101.148 715H91.0015Z" fill="white" fill-opacity="0.5"/>
<path opacity="0.5" d="M67.8498 715L49.9997 705.936V700.762L78.038 715H67.8498Z" fill="white" fill-opacity="0.5"/>
<path opacity="0.5" d="M50.0003 715V712.517L54.8874 715H50.0003Z" fill="white" fill-opacity="0.5"/>
<path opacity="0.5" d="M114.112 715L50.0005 682.467V677.335L124.258 715H114.112Z" fill="white" fill-opacity="0.5"/>
<path opacity="0.5" d="M160.372 715L50.0001 658.998V653.866L170.519 715H160.372Z" fill="white" fill-opacity="0.5"/>
<path opacity="0.5" d="M137.221 715L49.9998 670.754V665.58L147.409 715H137.221Z" fill="white" fill-opacity="0.5"/>
<path opacity="0.5" d="M183.482 715L50.0004 647.285V642.111L193.629 715H183.482Z" fill="white" fill-opacity="0.5"/>
<path opacity="0.5" d="M421 624.313L50 436.069V430.937L421 619.181V624.313Z" fill="white" fill-opacity="0.5"/>
<path opacity="0.5" d="M391.636 715L49.9996 541.698V536.524L401.783 715H391.636Z" fill="white" fill-opacity="0.5"/>
<path opacity="0.5" d="M421 636.068L50 447.824V442.65L421 630.895V636.068Z" fill="white" fill-opacity="0.5"/>
<path opacity="0.5" d="M421 612.6L50 424.356V419.182L421 607.426V612.6Z" fill="white" fill-opacity="0.5"/>
<path opacity="0.5" d="M421 577.377L50 389.174V384L421 572.244V577.377Z" fill="white" fill-opacity="0.5"/>
<path opacity="0.5" d="M421 600.845L50 412.642V407.469L421 595.713V600.845Z" fill="white" fill-opacity="0.5"/>
<path opacity="0.5" d="M421 589.131L50 400.887V395.713L421 583.957V589.131Z" fill="white" fill-opacity="0.5"/>
<path opacity="0.5" d="M421 647.782L50 459.538V454.405L421 642.608V647.782Z" fill="white" fill-opacity="0.5"/>
<path opacity="0.5" d="M421 706.432L50 518.23V513.056L421 701.3V706.432Z" fill="white" fill-opacity="0.5"/>
<path opacity="0.5" d="M421 659.495L50 471.292V466.119L421 654.363V659.495Z" fill="white" fill-opacity="0.5"/>
<path opacity="0.5" d="M421 715H414.746L50 529.943V524.811L421 713.013V715Z" fill="white" fill-opacity="0.5"/>
<path opacity="0.5" d="M421 694.719L50 506.474V501.342L421 689.545V694.719Z" fill="white" fill-opacity="0.5"/>
<path opacity="0.5" d="M421 682.964L50 494.761V489.587L421 677.831V682.964Z" fill="white" fill-opacity="0.5"/>
<path opacity="0.5" d="M421 671.25L50 483.006V477.874L421 666.076V671.25Z" fill="white" fill-opacity="0.5"/>
</g>
</g>
<g clip-path="url(#clip1)">
<path d="M392 423.25L1224 0" stroke="white" stroke-width="2" stroke-dasharray="1 40"/>
<path d="M392 463.843L1224 40.593" stroke="white" stroke-width="2" stroke-dasharray="1 40"/>
<path d="M392 504.436L1224 81.1858" stroke="white" stroke-width="2" stroke-dasharray="1 40"/>
<path d="M392 545.029L1224 121.779" stroke="white" stroke-width="2" stroke-dasharray="1 40"/>
<path d="M392 585.622L1224 162.371" stroke="white" stroke-width="2" stroke-dasharray="1 40"/>
<path d="M392 626.214L1224 202.964" stroke="white" stroke-width="2" stroke-dasharray="1 40"/>
<path d="M392 666.807L1224 243.557" stroke="white" stroke-width="2" stroke-dasharray="1 40"/>
<path d="M392 707.4L1224 284.15" stroke="white" stroke-width="2" stroke-dasharray="1 40"/>
<path d="M392 747.993L1224 324.743" stroke="white" stroke-width="2" stroke-dasharray="1 40"/>
<path d="M392 788.585L1224 365.335" stroke="white" stroke-width="2" stroke-dasharray="1 40"/>
<path d="M392 829.178L1224 405.928" stroke="white" stroke-width="2" stroke-dasharray="1 40"/>
<path d="M392 869.771L1224 446.521" stroke="white" stroke-width="2" stroke-dasharray="1 40"/>
<path d="M392 910.365L1224 487.114" stroke="white" stroke-width="2" stroke-dasharray="1 40"/>
<path d="M392 950.957L1224 527.707" stroke="white" stroke-width="2" stroke-dasharray="1 40"/>
<path d="M392 991.55L1224 568.3" stroke="white" stroke-width="2" stroke-dasharray="1 40"/>
<path d="M392 1032.14L1224 608.893" stroke="white" stroke-width="2" stroke-dasharray="1 40"/>
<path d="M392 1072.74L1224 649.485" stroke="white" stroke-width="2" stroke-dasharray="1 40"/>
<path d="M392 1113.33L1224 690.078" stroke="white" stroke-width="2" stroke-dasharray="1 40"/>
<path d="M392 1153.92L1224 730.671" stroke="white" stroke-width="2" stroke-dasharray="1 40"/>
</g>
<defs>
<radialGradient id="paint0_radial" cx="0" cy="0" r="1" gradientUnits="userSpaceOnUse" gradientTransform="translate(15.7319 429.62) scale(2999.36 15975.9)">
<stop stop-color="#13BF49"/>
<stop offset="1" stop-color="#02428D"/>
</radialGradient>
<clipPath id="clip0">
<rect width="371" height="331" fill="white" transform="matrix(-1 0 0 1 421 384)"/>
</clipPath>
<clipPath id="clip1">
<rect width="832" height="760" fill="white" transform="translate(392)"/>
</clipPath>
</defs>
</svg>
