<svg width="121" height="110" viewBox="0 0 121 110" fill="none" xmlns="http://www.w3.org/2000/svg">
<path opacity="0.56" d="M119.533 66.0063L86.3399 108.318L63.4401 109.359L108.738 67.4374L104.583 67.7621L53.194 108.045H28.5073L103.77 67.8841L99.2949 68.2088L44.6724 92.5917L0 76.4888L90.6721 66.0063H119.533Z" fill="url(#paint0_linear)"/>
<path d="M103.775 33.1823C113.288 33.1823 121 25.7542 121 16.5911C121 7.42811 113.288 0 103.775 0C94.2622 0 86.5503 7.42811 86.5503 16.5911C86.5503 25.7542 94.2622 33.1823 103.775 33.1823Z" fill="url(#paint1_radial)"/>
<path d="M90.6719 66.0063H119.532L114.691 29.4242L109.936 22.5571L97.3312 26.5231L90.6719 66.0063Z" fill="#EEF5F1"/>
<path d="M91.3161 13.4534C93.4562 5.31882 101.51 0.256806 109.933 1.35284C109.221 1.0623 108.492 0.817664 107.749 0.620419C98.5494 -1.8002 89.1993 3.42024 86.8696 12.282C84.5399 21.1438 90.1058 30.2886 99.3078 32.7093C100.052 32.9038 100.807 33.0504 101.57 33.1482C93.6978 29.9588 89.176 21.5879 91.3161 13.4534Z" fill="url(#paint2_linear)"/>
<path d="M101.57 33.1511L97.4896 66.0061H90.6719L96.1209 31.4551L101.57 33.1511Z" fill="url(#paint3_linear)"/>
<path d="M96.1211 31.4551H101.952L101.448 34.1198H95.7004L96.1211 31.4551Z" fill="#0E8B68"/>
<path d="M101.942 31.4526C101.942 31.4526 94.8434 30.0008 92.267 24.3154L90.0255 26.3153L98.1237 32.3565L101.942 31.4526Z" fill="#0E8B68"/>
<path d="M28.6293 29.1541L94.9756 28.9541L94.9938 34.8992L93.0069 34.907L93.4355 45.4673L88.8669 45.4803L89.0565 42.3013L86.6723 42.3091L86.6827 45.4881L83.7036 45.4959L83.6932 41.9195L81.5064 41.9273L81.5219 46.6958L78.7403 46.7036L78.7014 33.9901L28.6448 34.1434L28.6293 29.1541Z" fill="url(#paint4_linear)" fill-opacity="0.78"/>
<path d="M23.4532 20.191C21.0666 20.1982 18.7358 20.9129 16.7554 22.2448C14.7751 23.5767 13.2341 25.4659 12.3275 27.6736C11.4208 29.8812 11.1892 32.3081 11.6618 34.6474C12.1345 36.9867 13.2902 39.1334 14.9829 40.8158C16.6755 42.4983 18.829 43.6411 21.1711 44.0996C23.5133 44.5581 25.9387 44.3119 28.1409 43.392C30.343 42.472 32.2229 40.9197 33.5429 38.9314C34.8628 36.943 35.5635 34.6079 35.5563 32.2214C35.5515 30.6367 35.2347 29.0686 34.6239 27.6064C34.013 26.1442 33.1202 24.8166 31.9963 23.6995C30.8724 22.5824 29.5395 21.6976 28.0737 21.0956C26.6079 20.4936 25.0378 20.1862 23.4532 20.191ZM19.0898 35.3614C18.4792 35.363 17.8818 35.1834 17.3731 34.8455C16.8645 34.5076 16.4675 34.0264 16.2322 33.4629C15.997 32.8993 15.9341 32.2787 16.0516 31.6795C16.169 31.0802 16.4615 30.5292 16.892 30.0961C17.3225 29.6631 17.8718 29.3674 18.4704 29.2464C19.0689 29.1254 19.6899 29.1847 20.2548 29.4166C20.8197 29.6485 21.3032 30.0427 21.6441 30.5493C21.985 31.0559 22.1681 31.6523 22.1701 32.2629C22.1715 32.6687 22.0929 33.0707 21.9388 33.4461C21.7847 33.8214 21.5582 34.1628 21.2721 34.4505C20.986 34.7383 20.646 34.9668 20.2716 35.1231C19.8972 35.2794 19.4956 35.3604 19.0898 35.3614Z" fill="url(#paint5_linear)"/>
<path d="M27.5332 29.1591L93.8796 28.9565L93.8978 34.9016L91.9109 34.9094L92.342 45.4698L87.7709 45.4828L87.9605 42.3037L85.5762 42.3115L85.5866 45.4905L82.6076 45.4983L82.5972 41.9245L80.4103 41.9297L80.4259 46.6983L77.6443 46.7061L77.6053 33.9926L27.5488 34.1458L27.5332 29.1591Z" fill="#93E2AC" fill-opacity="0.91"/>
<path d="M22.0011 20.1959C19.6146 20.2031 17.2837 20.9178 15.3034 22.2497C13.323 23.5816 11.7821 25.4708 10.8755 27.6784C9.9688 29.8861 9.73716 32.313 10.2098 34.6523C10.6825 36.9916 11.8382 39.1382 13.5308 40.8207C15.2235 42.5032 17.377 43.6459 19.7191 44.1045C22.0612 44.563 24.4867 44.3168 26.6889 43.3968C28.891 42.4769 30.7709 40.9246 32.0908 38.9363C33.4108 36.9479 34.1114 34.6128 34.1043 32.2262C34.0995 30.6416 33.7826 29.0734 33.1718 27.6113C32.561 26.1491 31.6682 24.8215 30.5443 23.7044C29.4204 22.5873 28.0875 21.7025 26.6217 21.1005C25.1558 20.4985 23.5858 20.1911 22.0011 20.1959ZM17.6378 35.3663C17.0264 35.3684 16.4281 35.189 15.9187 34.851C15.4092 34.513 15.0114 34.0315 14.7757 33.4674C14.5399 32.9033 14.4768 32.2819 14.5943 31.6819C14.7117 31.0819 15.0045 30.5302 15.4355 30.0966C15.8666 29.663 16.4165 29.367 17.0158 29.246C17.6151 29.125 18.2369 29.1845 18.8024 29.4169C19.3678 29.6494 19.8517 30.0443 20.1927 30.5518C20.5337 31.0592 20.7166 31.6564 20.7181 32.2678C20.7202 33.0866 20.3972 33.8728 19.8202 34.4537C19.2432 35.0347 18.4592 35.3629 17.6404 35.3663H17.6378Z" fill="white"/>
<path d="M22.0011 20.1959C19.6146 20.2031 17.2837 20.9178 15.3034 22.2497C13.323 23.5816 11.7821 25.4708 10.8755 27.6784C9.9688 29.8861 9.73716 32.313 10.2098 34.6523C10.6825 36.9916 11.8382 39.1382 13.5308 40.8207C15.2235 42.5032 17.377 43.6459 19.7191 44.1045C22.0612 44.563 24.4867 44.3168 26.6889 43.3968C28.891 42.4769 30.7709 40.9246 32.0908 38.9363C33.4108 36.9479 34.1114 34.6128 34.1043 32.2262C34.0995 30.6416 33.7826 29.0734 33.1718 27.6113C32.561 26.1491 31.6682 24.8215 30.5443 23.7044C29.4204 22.5873 28.0875 21.7025 26.6217 21.1005C25.1558 20.4985 23.5858 20.1911 22.0011 20.1959ZM17.6378 35.3663C17.0264 35.3684 16.4281 35.189 15.9187 34.851C15.4092 34.513 15.0114 34.0315 14.7757 33.4674C14.5399 32.9033 14.4768 32.2819 14.5943 31.6819C14.7117 31.0819 15.0045 30.5302 15.4355 30.0966C15.8666 29.663 16.4165 29.367 17.0158 29.246C17.6151 29.125 18.2369 29.1845 18.8024 29.4169C19.3678 29.6494 19.8517 30.0443 20.1927 30.5518C20.5337 31.0592 20.7166 31.6564 20.7181 32.2678C20.7202 33.0866 20.3972 33.8728 19.8202 34.4537C19.2432 35.0347 18.4592 35.3629 17.6404 35.3663H17.6378Z" fill="#8BDAAA"/>
<path d="M93.8902 28.9541C93.8902 28.9541 91.1294 31.2708 93.9084 34.9018C93.8902 34.894 96.3524 31.4163 93.8902 28.9541Z" fill="url(#paint6_radial)"/>
<g opacity="0.11">
<path opacity="0.11" d="M89.859 45.5633C89.8579 45.1491 89.9558 44.7406 90.1447 44.3719C90.3335 44.0032 90.6078 43.6851 90.9447 43.444C91.1773 43.2883 91.4243 43.1552 91.6823 43.0466C91.9445 42.9166 92.2233 42.8231 92.5108 42.7687C92.8014 42.7151 93.1015 42.7667 93.3575 42.9141L93.4328 45.4672L89.859 45.5633Z" fill="#282F56"/>
</g>
<g opacity="0.11">
<path opacity="0.11" d="M94.7836 34.7018C94.4329 34.4018 94.1503 34.0305 93.9546 33.6126C93.7589 33.1948 93.6546 32.7399 93.6486 32.2785C93.5443 31.5464 93.5443 30.8031 93.6486 30.0709C93.6873 29.7332 93.8447 29.4202 94.0927 29.1878C94.2202 29.0787 94.385 29.0231 94.5525 29.0328C94.72 29.0425 94.8773 29.1167 94.9914 29.2398L94.7836 34.7018Z" fill="#282F56"/>
</g>
<g opacity="0.11">
<path opacity="0.11" d="M21.1155 31.5667C21.2921 31.5537 21.5051 31.9563 21.5778 32.6601C21.6186 33.0796 21.6012 33.5026 21.5259 33.9172C21.4736 34.1981 21.3772 34.469 21.2402 34.7198C21.084 34.9944 20.8799 35.239 20.6376 35.4418C19.8794 36.0608 18.9309 36.3994 17.9521 36.4002C17.2222 36.3872 16.8093 36.1664 16.8223 35.9924C16.8353 35.8184 17.2378 35.6833 17.8092 35.473C18.1359 35.3557 18.4558 35.2204 18.7676 35.0678C19.1272 34.8943 19.4661 34.6808 19.7779 34.4315C20.0436 34.215 20.2411 33.9264 20.3467 33.6003C20.4688 33.2601 20.5623 32.8809 20.6428 32.5848C20.8064 31.9901 20.9311 31.5797 21.1155 31.5667Z" fill="#282F56"/>
</g>
<g opacity="0.12">
<path opacity="0.12" d="M55.3418 29.8891C55.8538 29.7603 56.3888 29.7534 56.9039 29.8689C57.419 29.9843 57.8999 30.219 58.3079 30.554C59.2974 31.3825 59.7779 32.7642 60.9051 33.3772C61.9622 33.9512 63.2738 33.681 64.388 33.2343C65.5022 32.7876 66.5827 32.1695 67.78 32.063C68.9773 31.9565 70.3642 32.5824 70.598 33.759C65.3542 34.068 59.7727 33.9693 54.5289 34.2784" fill="#282F56"/>
</g>
<g opacity="0.11">
<path opacity="0.11" d="M10.2589 29.3901C11.6874 29.4499 12.2484 30.4134 13.0094 31.6238C13.7704 32.8341 14.0275 34.3119 13.9626 35.7404C13.9236 36.6027 13.773 37.4701 13.8873 38.3376C14.0373 39.2882 14.4996 40.1616 15.2014 40.8201C15.9031 41.4786 16.8042 41.8845 17.7624 41.9737C18.3719 41.9913 18.9815 41.9426 19.5804 41.8283L21.8894 41.4751C22.988 41.3063 24.2269 41.1608 24.9515 42.3815C25.1589 42.7485 25.2797 43.158 25.3047 43.5788C25.3671 44.3372 25.5644 43.597 25.3645 44.3424L21.3751 44.2463C18.4617 44.1755 15.6764 43.0346 13.5505 41.0414C11.4245 39.0481 10.1068 36.342 9.84858 33.4392L10.2589 29.3901Z" fill="#282F56"/>
</g>
<path d="M21.1415 44.3557C21.1711 44.3091 21.2147 44.2732 21.2661 44.2531C21.3174 44.2331 21.3739 44.2299 21.4272 44.244C21.5305 44.277 21.6272 44.328 21.7129 44.3946C22.1495 44.6696 22.6585 44.8074 23.1743 44.7903C23.69 44.7731 24.1888 44.6019 24.6062 44.2985C23.8197 43.9839 23.0179 43.7091 22.2038 43.4752C22.3497 43.4526 22.4896 43.4004 22.6146 43.3218C22.7397 43.2432 22.8473 43.1398 22.931 43.0181C22.9518 42.9869 22.9725 42.948 22.9544 42.9142C22.9458 42.9028 22.9348 42.8935 22.9223 42.8868C22.9097 42.88 22.8958 42.8761 22.8816 42.8752C22.6744 42.8593 22.467 42.9035 22.2843 43.0025L21.1103 43.5012C21.0624 43.5165 21.02 43.5454 20.9882 43.5843C20.9614 43.6381 20.954 43.6996 20.9675 43.7583L21.0272 44.2777" fill="#F7D3A9"/>
<path d="M10.1084 74.7902L9.83829 76.3251L10.646 76.2654L11.0226 74.7227L10.1084 74.7902Z" fill="#DEE3FF"/>
<path d="M16.3314 74.3689L16.2223 75.922L17.0197 75.7818L17.2352 74.2104L16.3314 74.3689Z" fill="#DEE3FF"/>
<path d="M11.4121 31.3745L12.451 34.1562C12.5057 34.3035 12.5307 34.4601 12.5247 34.6171C12.5186 34.7742 12.4816 34.9284 12.4157 35.0711C12.3498 35.2137 12.2563 35.342 12.1407 35.4484C12.0251 35.5548 11.8895 35.6373 11.7419 35.6911L11.3757 35.8262L11.5238 37.8572L8.70056 38.0624L8.285 32.3303L11.4121 31.3745Z" fill="#F7D3A9"/>
<path d="M11.2982 29.7383C11.2982 29.7383 10.719 29.3695 10.0282 30.3097C9.3373 31.2499 7.69065 30.6161 7.17121 31.7823C6.65176 32.9485 7.04395 34.3198 7.77637 35.3613L8.29582 36.1794L9.73728 36.0755C9.73728 36.0755 10.3606 34.6626 10.0905 34.273C10.0905 34.273 8.48541 34.0471 8.97629 33.1926C9.46717 32.3381 10.2437 33.5458 10.2437 33.5458L10.6541 33.4809L10.158 31.8758C10.158 31.8758 11.5891 31.6005 11.7631 30.6993C11.9371 29.798 11.2982 29.7383 11.2982 29.7383Z" fill="url(#paint7_linear)"/>
<path d="M6.32945 53.3134L9.98376 61.9051C10.3204 62.6961 10.4578 63.5576 10.3837 64.414L9.44613 75.2211L11.3889 75.0809C11.3889 75.0809 14.0484 65.3828 14.0588 62.9128C14.0588 61.7311 12.6875 56.695 12.6875 56.695C12.6875 56.695 15.0042 60.5156 15.025 62.6193C15.0458 64.7231 15.8483 74.7562 15.8483 74.7562L17.4067 74.6419C17.4067 74.6419 19.9675 63.8141 17.5106 57.7365C15.36 52.4174 14.2458 49.2124 14.2458 49.2124L6.32945 53.3134Z" fill="url(#paint8_linear)"/>
<path d="M8.48513 36.8677C7.27763 37.3404 6.23701 38.1599 5.4943 39.2229C4.75159 40.2859 4.34001 41.5449 4.31138 42.8413C4.11918 47.4618 6.32942 53.3264 6.32942 53.3264L14.3809 50.2097L14.1445 47.6566L12.7238 38.9403C12.6882 38.7209 12.5928 38.5155 12.448 38.3469C12.3031 38.1782 12.1146 38.0528 11.9031 37.9845L8.48513 36.8677Z" fill="url(#paint9_linear)" fill-opacity="0.78"/>
<path d="M13.376 49.898C13.3619 49.8612 13.3523 49.8229 13.3474 49.7838L13.2877 49.4539L13.0851 48.2384L12.454 44.2205L11.8514 40.1974L11.68 38.9767L11.6384 38.6442C11.6336 38.6054 11.6336 38.5662 11.6384 38.5273C11.6524 38.5642 11.662 38.6025 11.667 38.6416L11.7267 38.9715L11.9293 40.187L12.5604 44.2049L13.1604 48.228L13.3318 49.4487L13.3734 49.7812C13.3789 49.8199 13.3798 49.8591 13.376 49.898Z" fill="#A0CED8"/>
<path d="M8.48518 36.8701L11.5369 37.6934L11.4382 38.522L7.79691 37.187L8.48518 36.8701Z" fill="#A0CED8"/>
<path d="M11.5059 37.6857L12.0902 38.4752L12.0409 37.8207L11.4695 37.1792L11.5059 37.6857Z" fill="#A0CED8"/>
<path d="M11.5395 37.7324L11.4383 38.522L11.9655 39.257L12.0538 38.4259L11.5785 37.787" fill="#008FC1"/>
<path d="M11.8848 39.1457C11.8848 39.1457 12.7237 44.6259 10.3265 45.6388C7.92924 46.6517 7.05657 46.8413 7.05657 46.8413L6.26181 48.3659L8.18117 48.6594C8.18117 48.6594 13.7756 47.3296 13.5055 43.7844C13.2354 40.2391 12.0043 38.8496 12.0043 38.8496L11.8848 39.1457Z" fill="#0A687D"/>
<path d="M6.60475 41.9846L13.9783 45.4857L21.1649 44.9636L21.0194 42.9559L15.1081 42.9014L8.31893 38.4653" fill="url(#paint10_linear)"/>
<path d="M6.62294 42.3013C6.72263 42.3361 6.81909 42.3796 6.91123 42.4311C7.09304 42.5194 7.35795 42.6467 7.6904 42.7922C8.3527 43.0856 9.28511 43.4493 10.3188 43.831C11.3525 44.2128 12.2849 44.6102 12.942 44.9141C13.2719 45.0673 13.5316 45.205 13.7212 45.3063C13.8124 45.3541 13.8993 45.4097 13.9809 45.4725C13.8812 45.4377 13.7848 45.3942 13.6926 45.3426C13.5108 45.2543 13.2459 45.1271 12.9134 44.9842C12.2511 44.6907 11.3187 44.3271 10.285 43.9453C9.25134 43.5635 8.31893 43.1661 7.66183 42.8623C7.33199 42.709 7.07226 42.5714 6.88266 42.4701C6.79139 42.4214 6.70449 42.3649 6.62294 42.3013Z" fill="#A0CED8"/>
<path d="M14.7809 42.7425C14.6983 42.7128 14.6191 42.6745 14.5446 42.6282C14.3939 42.5503 14.1836 42.4282 13.9264 42.2724C13.407 41.9581 12.7239 41.4932 11.9811 40.9478C11.2383 40.4024 10.5604 39.9297 10.0566 39.5998L9.4566 39.2154C9.37979 39.1737 9.30754 39.1241 9.24103 39.0674C9.32362 39.097 9.40285 39.1353 9.47738 39.1817C9.62802 39.2596 9.83839 39.3817 10.0955 39.5401C10.615 39.8543 11.298 40.3192 12.0408 40.8647C12.7837 41.4101 13.4615 41.8828 13.9654 42.2126L14.5654 42.597C14.6421 42.6379 14.7143 42.6866 14.7809 42.7425Z" fill="#A0CED8"/>
<path d="M20.0967 45.0386C20.1251 45.0347 20.0851 44.573 20.0073 44.0075C19.9296 43.4419 19.8435 42.9866 19.8151 42.9905C19.7866 42.9944 19.8267 43.456 19.9044 44.0216C19.9822 44.5872 20.0683 45.0425 20.0967 45.0386Z" fill="#A0CED8"/>
<path d="M21.1104 44.2026C20.7989 44.3705 20.4447 44.4428 20.0923 44.4104C20.4228 44.3032 20.7643 44.2335 21.1104 44.2026Z" fill="#A0CED8"/>
<path d="M9.83833 76.3223C9.70546 76.5882 9.63864 76.8822 9.64354 77.1794L13.8459 76.8756C13.8459 76.8756 14.2043 76.0055 10.6461 76.2652L9.83833 76.3223Z" fill="#145566"/>
<path d="M16.2326 75.8573C16.0998 76.1232 16.033 76.4172 16.0379 76.7144L20.5129 76.3897C20.5129 76.3897 20.6298 75.6105 17.0378 75.7975L16.2326 75.8573Z" fill="#145566"/>
<path d="M11.8176 76.0293C11.8306 76.0553 11.6644 76.1696 11.4774 76.3306C11.2904 76.4916 11.1527 76.6397 11.1294 76.6215C11.106 76.6033 11.2125 76.4189 11.4099 76.2501C11.6072 76.0813 11.7917 76.0033 11.8176 76.0293Z" fill="#222742"/>
<path d="M12.1578 76.1116C12.1734 76.1376 12.0201 76.2493 11.8383 76.3921C11.6565 76.535 11.5085 76.6518 11.4877 76.6337C11.4669 76.6155 11.5838 76.4545 11.7734 76.309C11.963 76.1636 12.1448 76.0882 12.1578 76.1116Z" fill="#222742"/>
<path d="M12.6331 76.1149C12.6331 76.1435 12.4746 76.2266 12.2876 76.3565C12.1006 76.4864 11.9656 76.6162 11.9422 76.598C11.9188 76.5799 12.0253 76.4084 12.2279 76.2682C12.4305 76.1279 12.6253 76.089 12.6331 76.1149Z" fill="#222742"/>
<path d="M11.1342 76.4342C11.0651 76.2922 11.0338 76.1347 11.0433 75.9771C11.0377 75.8925 11.0529 75.8078 11.0875 75.7303C11.1107 75.6795 11.1526 75.6395 11.2044 75.6187C11.2771 75.5849 11.3628 75.668 11.3602 75.7251C11.3597 75.8309 11.3431 75.936 11.3109 76.0368L11.2667 76.1875L11.2433 76.2628C11.2385 76.2813 11.2306 76.2988 11.22 76.3147C11.211 76.328 11.1983 76.3382 11.1835 76.3442C11.1687 76.3503 11.1525 76.3517 11.1368 76.3485C10.9258 76.286 10.7362 76.1665 10.5888 76.003C10.5702 75.9764 10.5602 75.9447 10.5602 75.9121C10.5602 75.8796 10.5702 75.8479 10.5888 75.8212C10.6073 75.7983 10.6313 75.7803 10.6585 75.769C10.6857 75.7576 10.7153 75.7533 10.7447 75.7563C10.7893 75.7645 10.8314 75.7831 10.8675 75.8106C10.9036 75.8382 10.9327 75.8738 10.9524 75.9147C11.1187 76.1745 11.0927 76.3693 11.0719 76.3615C11.0435 76.2142 10.9813 76.0755 10.8901 75.9563C10.8511 75.9018 10.7992 75.8446 10.7395 75.8446C10.6797 75.8446 10.6304 75.8914 10.6745 75.9485C10.8092 76.0804 10.9716 76.1807 11.1498 76.242C11.1213 76.2862 11.1498 76.1978 11.168 76.1537L11.2122 76.003C11.239 75.9187 11.2565 75.8316 11.2641 75.7433C11.2641 75.6758 11.207 75.7044 11.1628 75.7719C11.132 75.8359 11.116 75.906 11.1161 75.9771C11.1031 76.2576 11.1498 76.429 11.1342 76.4342Z" fill="#222742"/>
<path d="M18.2482 75.5064C18.2482 75.5064 18.2482 75.4935 18.2664 75.4805L18.2794 75.5116C18.2301 75.5584 18.0664 75.6493 17.9054 75.7921C17.7002 75.9662 17.6067 76.1713 17.5781 76.161C17.5496 76.1506 17.6093 75.9012 17.8379 75.7142C17.9596 75.6018 18.108 75.5222 18.269 75.4831L18.282 75.5142C18.2612 75.5142 18.2508 75.5116 18.2482 75.5064Z" fill="#222742"/>
<path d="M18.5909 75.5774C18.5909 75.6059 18.4195 75.6709 18.248 75.8189C18.0766 75.967 17.9883 76.1306 17.952 76.1176C17.9156 76.1046 17.9831 75.902 18.1779 75.7384C18.3727 75.5748 18.5883 75.5514 18.5909 75.5774Z" fill="#222742"/>
<path d="M18.9156 75.6369C18.9156 75.6655 18.778 75.733 18.6247 75.8499C18.4715 75.9668 18.365 76.0914 18.3416 76.0733C18.3183 76.0551 18.3884 75.8941 18.5598 75.7642C18.7312 75.6343 18.9104 75.6084 18.9156 75.6369Z" fill="#222742"/>
<path d="M17.4743 75.9173C17.4743 75.9173 17.4328 75.8966 17.4016 75.8264C17.3722 75.7251 17.3678 75.6182 17.3886 75.5148C17.3947 75.4423 17.4051 75.3704 17.4198 75.2992C17.438 75.2602 17.4484 75.1979 17.5237 75.1823C17.599 75.1667 17.651 75.2654 17.6536 75.3018C17.6806 75.4434 17.6735 75.5894 17.6328 75.7277C17.6255 75.7549 17.615 75.781 17.6016 75.8057C17.593 75.8232 17.5798 75.8381 17.5633 75.8487C17.5468 75.8592 17.5277 75.865 17.5081 75.8654C17.403 75.8612 17.2994 75.8393 17.2016 75.8005C17.1042 75.7682 17.0231 75.6993 16.9757 75.6083C16.9648 75.5828 16.9592 75.5554 16.9592 75.5278C16.9592 75.5001 16.9648 75.4727 16.9757 75.4472C16.9757 75.4005 17.0718 75.3927 17.0874 75.4109L17.1419 75.442C17.2039 75.4797 17.2621 75.5232 17.3159 75.5719C17.4228 75.6665 17.4981 75.7916 17.5315 75.9303C17.4415 75.8283 17.3461 75.7312 17.2458 75.6394C17.1928 75.5975 17.1363 75.5602 17.077 75.5278L17.0302 75.5044C17.0302 75.5044 17.0302 75.5044 17.0302 75.4862C17.0302 75.468 17.0302 75.4862 17.0458 75.4862C17.0432 75.514 17.0486 75.5419 17.0614 75.5667C17.1133 75.694 17.3393 75.7407 17.4847 75.7615C17.5185 75.7849 17.5471 75.6368 17.5575 75.5693C17.5707 75.4832 17.5707 75.3957 17.5575 75.3096C17.5575 75.268 17.5393 75.2628 17.5393 75.2654C17.5393 75.268 17.5159 75.2914 17.5029 75.32C17.4899 75.3485 17.4769 75.4576 17.464 75.5174C17.4387 75.6113 17.4317 75.7091 17.4432 75.8057C17.4562 75.8784 17.4821 75.9121 17.4743 75.9173Z" fill="#222742"/>
<path d="M10.4908 74.4385C11.0674 74.3471 11.5312 74.25 11.5267 74.2217C11.5222 74.1933 11.0511 74.2445 10.4745 74.3359C9.89792 74.4273 9.43413 74.5244 9.43862 74.5528C9.44312 74.5811 9.91419 74.53 10.4908 74.4385Z" fill="white"/>
<path d="M16.6603 74.1413C17.2655 74.0974 17.7544 74.0386 17.7523 74.01C17.7502 73.9814 17.2579 73.9938 16.6528 74.0377C16.0476 74.0816 15.5587 74.1404 15.5608 74.169C15.5629 74.1976 16.0551 74.1852 16.6603 74.1413Z" fill="white"/>
<path d="M7.99962 53.5786C8.1654 53.9759 8.22201 54.4103 8.16356 54.8368C8.10511 55.2633 7.93373 55.6664 7.66718 56.0044C8.07447 55.2649 8.19292 54.4005 7.99962 53.5786Z" fill="#222742"/>
<path d="M15.6691 53.0564C15.5191 53.0394 15.3732 52.9963 15.238 52.9292C14.9003 52.7874 14.592 52.584 14.329 52.3292C14.0693 52.0724 13.8519 51.7761 13.6849 51.4514C13.607 51.3217 13.5501 51.1806 13.516 51.0332C13.7647 51.4712 14.0617 51.8798 14.4017 52.2513C14.7775 52.587 15.2056 52.8589 15.6691 53.0564Z" fill="#222742"/>
<path d="M13.0146 55.6144C12.85 55.7297 12.6763 55.8314 12.4951 55.9183L12.4639 55.9339L12.4458 55.9027C12.251 55.5339 11.9809 54.9859 11.7237 54.3444C11.4666 53.7029 11.2874 53.2042 11.1653 52.8042C11.1116 52.6462 11.0682 52.4848 11.0355 52.3211C11.0225 52.1939 11.0822 52.1367 11.0848 52.1419C11.071 52.1982 11.071 52.257 11.0848 52.3133C11.1108 52.4224 11.1783 52.5731 11.2458 52.7782C11.3861 53.1704 11.5887 53.7133 11.8302 54.3028C12.0718 54.8924 12.3497 55.4794 12.5185 55.8612L12.4717 55.8456C12.6462 55.7541 12.8277 55.6768 13.0146 55.6144Z" fill="white"/>
<path d="M16.6588 74.0937C16.6588 74.0937 16.6588 74.0132 16.6588 73.8599C16.6588 73.7067 16.6588 73.4548 16.6588 73.1924L16.7003 70.7381C16.7445 68.6239 16.8042 65.7825 16.8718 62.6425C16.8346 61.1597 16.5493 59.6936 16.0277 58.3051C15.6102 57.1679 15.0939 56.0694 14.4849 55.0222C13.9654 54.1261 13.4954 53.4327 13.1577 52.96L12.7629 52.4224C12.672 52.3003 12.6253 52.2354 12.6253 52.2354C12.6253 52.2354 12.6824 52.2925 12.7785 52.4094C12.8746 52.5262 13.0175 52.7029 13.1889 52.9288C13.6784 53.5859 14.1319 54.2691 14.5472 54.9754C15.1643 56.0225 15.6858 57.123 16.1056 58.2635C16.6364 59.6617 16.9262 61.1397 16.9627 62.6347C16.8847 65.7773 16.8146 68.6083 16.7601 70.7329L16.6848 73.1873L16.6588 73.8547C16.6666 74.0132 16.6588 74.0937 16.6588 74.0937Z" fill="white" fill-opacity="0.61"/>
<path d="M10.4953 74.4733C10.4953 74.4733 10.4953 74.398 10.5342 74.2551L10.6641 73.6318L11.1472 71.3462L11.8458 67.9516L12.2328 65.944C12.3812 65.2289 12.4862 64.5056 12.5471 63.7779C12.5337 62.3673 12.3096 60.9666 11.8822 59.6223C11.5492 58.5177 11.1538 57.4329 10.6979 56.3731C10.3109 55.4667 9.96805 54.7447 9.72131 54.2512L9.43561 53.6824C9.37068 53.5525 9.33952 53.4824 9.33952 53.4824C9.33952 53.4824 9.38367 53.5448 9.45379 53.672L9.75767 54.2304C10.0174 54.7187 10.3706 55.4355 10.7654 56.3394C11.2321 57.3984 11.6354 58.4842 11.9731 59.5911C12.4096 60.9452 12.6382 62.3578 12.651 63.7805C12.5904 64.5135 12.4846 65.2421 12.3341 65.9621L11.9394 67.9724C11.6796 69.2502 11.4199 70.4008 11.2173 71.3644L10.6979 73.6448L10.5498 74.2629C10.5187 74.4006 10.4953 74.4733 10.4953 74.4733Z" fill="white"/>
<path opacity="0.14" d="M6.62294 42.3013C6.62294 42.3013 7.14239 46.4568 13.6511 45.8179L13.8329 45.8049L13.7887 45.1972L6.62294 42.3013Z" fill="#343B73"/>
<path opacity="0.14" d="M6.26181 48.3686L7.85911 48.8076C8.26599 48.9214 8.6963 48.9214 9.10318 48.8076C10.2174 48.4907 12.3679 47.6856 12.7393 46.1064C11.5913 47.4284 9.97585 48.1635 8.17857 48.6699L6.26181 48.3686Z" fill="#343B73"/>
<path d="M11.6768 52.6275C11.817 52.6173 11.9224 52.4954 11.9122 52.3552C11.902 52.215 11.7801 52.1096 11.6399 52.1198C11.4997 52.1299 11.3943 52.2518 11.4045 52.392C11.4146 52.5323 11.5365 52.6377 11.6768 52.6275Z" fill="#222742"/>
<path d="M93.7731 46.1376C93.8407 45.8418 94.011 45.5796 94.2536 45.3974C94.1037 45.2369 93.9422 45.0876 93.7705 44.9507" fill="#F7D3A9"/>
<path d="M93.8149 44.7376C93.6019 44.8623 93.3396 44.7376 93.1058 44.6649C92.8167 44.5686 92.5096 44.5384 92.2072 44.5766C92.1703 44.5793 92.1347 44.5909 92.1033 44.6104C92.002 44.6831 92.0747 44.8519 92.1864 44.9064C92.2981 44.961 92.4305 44.9558 92.5396 45.0129C92.5669 45.0248 92.589 45.046 92.602 45.0727C92.6253 45.135 92.563 45.1947 92.5085 45.2337C92.1739 45.4718 91.8823 45.7652 91.6462 46.1012C91.5972 46.1625 91.5634 46.2346 91.5475 46.3115C91.5404 46.3501 91.5457 46.3899 91.5624 46.4253C91.5792 46.4607 91.6067 46.49 91.641 46.5089C91.8072 46.5817 92.028 46.2206 92.1994 46.2726C92.1838 46.4154 92.1059 46.6466 92.0877 46.792C92.0877 46.8492 92.0877 46.9219 92.1423 46.9349C92.1577 46.936 92.1733 46.9341 92.188 46.9292C92.2027 46.9243 92.2163 46.9165 92.228 46.9063C92.35 46.8232 92.5188 46.5583 92.6383 46.4752C92.6903 46.5817 92.6175 46.8881 92.6383 46.9946C92.6591 47.1011 92.7344 47.2543 92.8487 47.2258C92.963 47.1972 93.0149 46.831 93.1084 46.7063C93.2123 46.6336 93.1084 46.9323 93.1786 47.1946C93.1786 47.1946 93.3707 47.4543 93.5526 46.9167C93.6489 46.6417 93.727 46.3605 93.7863 46.0752" fill="#F7D3A9"/>
<path d="M94.8435 32.4993C94.5747 32.0585 94.3502 31.5922 94.1734 31.1071C94.1474 31.0396 94.1293 30.9487 94.1734 30.902C94.2176 30.8552 94.3059 30.902 94.3526 30.9513C94.3994 31.0007 94.4461 31.0786 94.5136 31.0864C94.542 30.886 94.5367 30.6824 94.4981 30.4838C94.4825 30.2812 94.5266 30.0423 94.6903 29.9644C94.834 30.3003 94.9759 30.637 95.1162 30.9747C95.0954 30.7565 95.0824 30.5383 95.0772 30.3202C95.0718 30.2592 95.0807 30.1979 95.1032 30.141C95.1077 30.1276 95.115 30.1153 95.1246 30.1049C95.1342 30.0945 95.1458 30.0862 95.1588 30.0806C95.1718 30.075 95.1858 30.0721 95.1999 30.0722C95.214 30.0723 95.228 30.0754 95.2409 30.0812C95.2902 30.1124 95.298 30.1877 95.3006 30.2526C95.2922 31.0142 95.4555 31.7679 95.7785 32.4577C95.7136 32.3486 95.5707 32.3616 95.459 32.3876L94.8513 32.5252" fill="#F7D3A9"/>
<path d="M103.144 65.5567L103.476 67.0787L102.669 67.0553L102.224 65.5308L103.144 65.5567Z" fill="#DEE3FF"/>
<path d="M103.456 67.0166C103.625 67.2609 103.733 67.5425 103.77 67.8373L99.2948 68.162C99.2948 68.162 99.0662 67.3984 102.648 67.0763L103.456 67.0166Z" fill="#0A687D"/>
<path d="M101.422 66.9594C101.422 66.9594 101.422 66.9594 101.391 66.9594V66.9282C101.556 66.9445 101.714 67.0026 101.851 67.097C102.11 67.2555 102.199 67.4944 102.17 67.5022C102.142 67.51 102.022 67.3282 101.793 67.1853C101.614 67.0659 101.438 67.0009 101.383 66.962V66.9308C101.406 66.9464 101.422 66.9542 101.422 66.9594Z" fill="#222742"/>
<path d="M101.082 67.0787C101.082 67.0501 101.295 67.0423 101.513 67.1774C101.731 67.3124 101.817 67.5072 101.793 67.5202C101.77 67.5332 101.651 67.3851 101.458 67.2605C101.266 67.1358 101.079 67.0994 101.082 67.0787Z" fill="#222742"/>
<path d="M100.77 67.1827C100.77 67.1541 100.952 67.1541 101.139 67.2606C101.326 67.3671 101.422 67.5203 101.399 67.5333C101.375 67.5463 101.256 67.445 101.087 67.3515C100.918 67.258 100.765 67.2138 100.77 67.1827Z" fill="#222742"/>
<path d="M102.235 67.2528C102.235 67.2528 102.235 67.2113 102.253 67.1463C102.25 67.0488 102.229 66.9527 102.191 66.8632C102.17 66.8061 102.152 66.7334 102.123 66.6736C102.095 66.6139 102.092 66.6191 102.079 66.6269C102.066 66.6347 102.079 66.6269 102.079 66.6736C102.077 66.7614 102.088 66.849 102.113 66.9334C102.134 67.0009 102.183 67.1411 102.211 67.1152C102.352 67.0736 102.57 66.9957 102.601 66.8554C102.608 66.8291 102.608 66.8012 102.601 66.7749C102.601 66.7749 102.63 66.7749 102.601 66.7749L102.557 66.8061C102.503 66.8468 102.453 66.892 102.406 66.9412C102.32 67.0467 102.239 67.1568 102.165 67.271C102.185 67.1285 102.25 66.996 102.349 66.8918C102.395 66.836 102.447 66.7847 102.502 66.7386L102.552 66.6996C102.569 66.6872 102.591 66.6821 102.612 66.6855C102.634 66.6889 102.653 66.7005 102.666 66.7178C102.677 66.7432 102.682 66.7706 102.682 66.7983C102.682 66.826 102.677 66.8534 102.666 66.8788C102.632 66.9757 102.563 67.0558 102.471 67.1022C102.38 67.1549 102.281 67.1918 102.178 67.2113C102.158 67.2139 102.139 67.2111 102.121 67.2033C102.103 67.1956 102.088 67.183 102.076 67.1671C102.06 67.1445 102.046 67.1201 102.035 67.0944C102.014 67.0491 101.998 67.0022 101.985 66.9541C101.961 66.8637 101.95 66.7699 101.954 66.6762C101.954 66.6399 101.972 66.5386 102.063 66.5386C102.154 66.5386 102.162 66.6009 102.183 66.6373C102.208 66.7061 102.229 66.7763 102.245 66.8476C102.281 66.9475 102.291 67.0544 102.276 67.1593C102.274 67.2294 102.24 67.258 102.235 67.2528Z" fill="#222742"/>
<path d="M108.11 65.1104L108.445 66.6324L107.635 66.609L107.193 65.0845L108.11 65.1104Z" fill="#DEE3FF"/>
<path d="M108.435 66.5801C108.604 66.8244 108.712 67.1059 108.749 67.4008L104.274 67.7255C104.274 67.7255 104.045 66.9593 107.627 66.6398L108.435 66.5801Z" fill="#0A687D"/>
<path d="M106.378 66.5126C106.378 66.5126 106.378 66.5126 106.347 66.5126V66.4814C106.512 66.4975 106.67 66.5557 106.806 66.6503C107.066 66.8087 107.154 67.0476 107.126 67.0554C107.097 67.0632 106.978 66.8814 106.749 66.7386C106.57 66.6191 106.393 66.5542 106.339 66.5152V66.484C106.373 66.4996 106.38 66.5074 106.378 66.5126Z" fill="#222742"/>
<path d="M106.05 66.632C106.125 66.6158 106.202 66.6162 106.277 66.6332C106.351 66.6503 106.421 66.6836 106.481 66.7307C106.699 66.8632 106.785 67.0606 106.762 67.0736C106.738 67.0866 106.622 66.9385 106.427 66.8139C106.232 66.6892 106.048 66.6632 106.05 66.632Z" fill="#222742"/>
<path d="M105.736 66.7359C105.736 66.7073 105.918 66.7073 106.105 66.8138C106.292 66.9203 106.388 67.0735 106.365 67.0865C106.341 67.0995 106.222 66.9982 106.053 66.9047C105.884 66.8112 105.733 66.7671 105.736 66.7359Z" fill="#222742"/>
<path d="M107.204 66.8086C107.204 66.8086 107.204 66.7697 107.222 66.7021C107.219 66.6047 107.198 66.5087 107.159 66.4191C107.139 66.3619 107.121 66.2892 107.092 66.2295C107.063 66.1697 107.061 66.1749 107.048 66.1827C107.035 66.1905 107.048 66.1827 107.048 66.2295C107.046 66.3173 107.057 66.4049 107.082 66.4892C107.102 66.5567 107.152 66.697 107.18 66.671C107.321 66.6294 107.539 66.5515 107.57 66.4113C107.577 66.385 107.577 66.357 107.57 66.3307C107.57 66.3307 107.598 66.3307 107.57 66.3307L107.526 66.3619C107.472 66.4026 107.421 66.4478 107.375 66.497C107.289 66.6025 107.208 66.7126 107.134 66.8268C107.154 66.6843 107.219 66.5518 107.318 66.4476C107.364 66.3909 107.415 66.3387 107.471 66.2918L107.521 66.2528C107.529 66.2463 107.539 66.2417 107.549 66.2391C107.56 66.2365 107.571 66.236 107.582 66.2377C107.592 66.2394 107.602 66.2432 107.612 66.2489C107.621 66.2547 107.629 66.2622 107.635 66.271C107.646 66.2965 107.651 66.3238 107.651 66.3515C107.651 66.3792 107.646 66.4066 107.635 66.432C107.601 66.529 107.531 66.6091 107.44 66.6554C107.349 66.708 107.25 66.7449 107.146 66.7645C107.127 66.7671 107.108 66.7644 107.09 66.7566C107.072 66.7488 107.056 66.7363 107.045 66.7203C107.029 66.6978 107.015 66.6734 107.004 66.6476C106.983 66.6023 106.967 66.5554 106.954 66.5074C106.93 66.4169 106.919 66.3231 106.923 66.2295C106.923 66.1931 106.941 66.0918 107.032 66.0918C107.123 66.0918 107.131 66.1567 107.152 66.1905C107.177 66.2593 107.198 66.3296 107.214 66.4009C107.249 66.5007 107.26 66.6077 107.245 66.7125C107.243 66.7827 107.209 66.8112 107.204 66.8086Z" fill="#222742"/>
<path d="M105.17 31.2578C105.17 31.2578 108.333 30.2813 109.858 36.4731C111.383 42.6649 110.432 44.3894 110.432 44.3894L102.484 43.3895C102.484 43.3895 103.575 40.1326 103.264 38.1379C102.952 36.1432 101.744 32.3461 101.744 32.3461C101.744 32.3461 103.5 31.0137 105.17 31.2578Z" fill="url(#paint11_linear)"/>
<path d="M94.5731 32.4342C94.5731 32.4342 96.56 39.2546 99.1156 37.9092C101.671 36.5638 104.962 33.9199 104.962 33.9199L102.136 31.8862C102.136 31.8862 98.9598 35.7301 98.2404 35.1354C97.5209 34.5406 95.8821 32.3407 95.8821 32.3407L94.5731 32.4342Z" fill="url(#paint12_linear)"/>
<path opacity="0.35" d="M102.134 31.8862L99.2844 37.8235L103.079 35.3198L102.92 32.3122L102.134 31.8862Z" fill="#0A687D"/>
<path d="M103.856 42.7036C103.856 42.7036 97.5029 49.9577 97.0068 52.1549C96.5107 54.3522 102.183 66.3696 102.183 66.3696L103.586 66.2683C103.586 66.2683 100.523 54.6353 100.83 53.2821C101.136 51.929 104.251 48.1396 104.251 48.1396C104.251 48.1396 102.11 52.264 102.921 56.1105C103.806 60.3103 107.032 65.4294 107.032 65.4294L108.346 65.3333C108.346 65.3333 105.282 54.9444 106.492 52.6874C107.77 50.3057 110.523 44.3762 110.523 44.3762L103.856 42.7036Z" fill="url(#paint13_linear)"/>
<path d="M107.59 44.6489C107.59 44.6489 107.572 44.7191 107.525 44.8515L107.32 45.4229L106.541 47.5163L105.385 50.6174L104.7 52.4354C104.58 52.7558 104.482 53.0838 104.406 53.4172C104.346 53.7608 104.307 54.1077 104.289 54.4561C104.295 55.8032 104.49 57.1428 104.871 58.4351C105.166 59.4931 105.521 60.5337 105.933 61.5517C106.284 62.4244 106.596 63.1101 106.816 63.5984L107.076 64.1464C107.136 64.271 107.162 64.3386 107.162 64.3386C107.162 64.3386 107.12 64.2788 107.055 64.1542L106.777 63.6139C106.546 63.1412 106.224 62.4478 105.863 61.5777C105.44 60.5613 105.077 59.5205 104.778 58.461C104.388 57.1598 104.187 55.8092 104.183 54.4509C104.2 54.0938 104.24 53.7382 104.302 53.386C104.38 53.048 104.481 52.7157 104.603 52.3913L105.294 50.5732L106.471 47.4799L107.273 45.4021L107.497 44.8385C107.559 44.7165 107.59 44.6489 107.59 44.6489Z" fill="white"/>
<path d="M104.191 44.8618C104.191 44.8618 104.139 44.9267 104.035 45.0436L103.575 45.5631C103.178 46.0098 102.601 46.6565 101.911 47.4746C101.22 48.2928 100.412 49.2797 99.6094 50.4407C99.4146 50.7368 99.2172 51.038 99.0406 51.3601C98.8471 51.6794 98.7142 52.0315 98.6484 52.399C98.5595 53.1843 98.5972 53.9787 98.7601 54.7521C99.0588 56.253 99.4712 57.729 99.9937 59.1674C100.459 60.5024 100.929 61.6893 101.334 62.6789C101.739 63.6684 102.087 64.4632 102.329 65.0164L102.607 65.6475C102.669 65.7929 102.7 65.8683 102.7 65.8683C102.7 65.8683 102.659 65.7955 102.588 65.6553L102.292 65.0319C102.033 64.4891 101.682 63.6996 101.266 62.7126C100.851 61.7257 100.376 60.5413 99.9028 59.2063C99.3724 57.7615 98.9556 56.2774 98.6562 54.7677C98.4912 53.9823 98.4543 53.1754 98.5471 52.3782C98.6157 51.9994 98.754 51.6366 98.9548 51.3082C99.1341 50.9809 99.334 50.677 99.5314 50.3809C100.26 49.3561 101.04 48.3687 101.869 47.4227C102.568 46.6098 103.152 45.9708 103.56 45.5319L104.019 45.0228C104.131 44.9164 104.191 44.8618 104.191 44.8618Z" fill="white"/>
<path d="M102.686 65.9682C103.1 65.9382 103.433 65.8907 103.431 65.8621C103.429 65.8335 103.092 65.8346 102.679 65.8646C102.265 65.8946 101.932 65.9421 101.934 65.9708C101.936 65.9994 102.273 65.9982 102.686 65.9682Z" fill="#222742"/>
<path d="M107.481 64.7629C107.956 64.6753 108.338 64.5814 108.332 64.5532C108.327 64.525 107.938 64.5731 107.462 64.6607C106.987 64.7483 106.606 64.8422 106.611 64.8704C106.616 64.8986 107.006 64.8505 107.481 64.7629Z" fill="#222742"/>
<path d="M109.284 46.7968C109.297 46.7968 109.084 46.8591 108.882 46.6487C108.654 46.3735 108.515 46.0357 108.484 45.6799C108.401 45.1839 108.505 44.6745 108.778 44.2515C108.609 44.703 108.544 45.1869 108.588 45.667C108.619 46.0023 108.74 46.3232 108.936 46.5968C109.026 46.7014 109.149 46.772 109.284 46.7968Z" fill="#222742"/>
<path d="M105.209 43.4258C105.134 43.572 105.033 43.7031 104.91 43.8128C104.628 44.0937 104.292 44.3151 103.923 44.4641C103.553 44.6131 103.158 44.6866 102.76 44.6802C102.596 44.6857 102.432 44.661 102.277 44.6075C102.824 44.6541 103.374 44.5715 103.884 44.3662C104.393 44.1609 104.847 43.8388 105.209 43.4258Z" fill="#222742"/>
<path d="M106.188 43.4437C106.147 43.5895 106.088 43.7299 106.014 43.8618C105.894 44.1215 105.72 44.4592 105.494 44.8306C105.268 45.202 105.045 45.524 104.9 45.7396C104.845 45.8539 104.952 45.9318 105.016 45.9604C105.081 45.9889 105.126 46.0071 105.126 46.0149C105.126 46.0227 105.079 46.0149 105.001 45.9993C104.951 45.9848 104.905 45.958 104.868 45.9214C104.843 45.8937 104.825 45.859 104.819 45.8216C104.812 45.7843 104.817 45.7458 104.832 45.711C104.977 45.4513 105.193 45.15 105.403 44.776C105.837 44.041 106.157 43.4281 106.188 43.4437Z" fill="#222742"/>
<path d="M106.593 43.6982C106.555 43.719 106.522 43.7476 106.495 43.782C106.469 43.8165 106.45 43.856 106.44 43.8982C106.44 43.9839 106.51 44.0826 106.593 44.054C106.622 44.0426 106.647 44.0215 106.663 43.9943C106.693 43.9442 106.703 43.885 106.693 43.8278C106.682 43.7705 106.651 43.719 106.606 43.6826" fill="#222742"/>
<path opacity="0.35" d="M103.209 43.457L110.528 44.3765L110.177 45.1271L103.025 43.6726L103.209 43.457Z" fill="#282F56"/>
<path d="M98.6119 28.5284L99.8768 31.2139C99.9436 31.3561 100.038 31.4837 100.154 31.5893C100.271 31.6949 100.407 31.7765 100.555 31.8293C100.703 31.8822 100.859 31.9053 101.016 31.8973C101.173 31.8893 101.327 31.8503 101.469 31.7827L101.822 31.6139L103.17 33.141L105.297 31.2632L101.492 26.957L98.6119 28.5284Z" fill="#F7D3A9"/>
<path d="M97.5653 27.5151C97.5653 27.5151 97.7081 26.845 98.8639 26.9956C100.02 27.1463 100.708 25.5464 101.918 25.9801C103.129 26.4138 103.819 27.6657 104.053 28.915L104.282 29.85L103.199 30.8084C103.199 30.8084 101.755 30.2655 101.664 29.8006C101.664 29.8006 102.625 28.502 101.664 28.2423C100.703 27.9826 101.027 29.3955 101.027 29.3955L100.695 29.6552L99.895 28.1774C99.895 28.1774 98.6977 29.0085 97.9315 28.502C97.1653 27.9956 97.5653 27.5151 97.5653 27.5151Z" fill="#343B73"/>
<path d="M103.175 33.6106C103.193 33.5119 103.1 32.5717 103.1 32.5717L104.933 30.8394L105.879 31.2861" fill="#A0CED8"/>
<path d="M102.999 36.4181L102.57 32.46L103.277 33.1742L103.038 36.5844" fill="#A0CED8"/>
<path d="M103.141 33.0215L103.866 35.2785L103.037 36.9875L103.141 33.0215Z" fill="#07BD40"/>
<path d="M103.001 36.8753L102.253 34.0339L102.57 32.46L103.001 36.8753Z" fill="#13BF49"/>
<path d="M102.638 32.4551L103.141 33.0213L103.11 34.1641L102.687 33.8836L102.544 32.5979" fill="#006E9E" fill-opacity="0.67"/>
<path d="M102.931 34.0444C102.931 34.0444 103.476 39.7584 101.001 39.8155C98.5261 39.8726 98.1131 39.348 98.1131 39.348L96.6872 40.1272L97.4664 41.6284C97.4664 41.6284 100.819 42.7426 102.869 41.4128C106.245 39.2259 103.128 34.1613 103.128 34.1613L102.931 34.0444Z" fill="#54C2E8"/>
<path d="M104.51 35.6938C104.268 35.7951 93.3861 44.6257 93.3861 44.6257L94.2795 45.5426C94.2795 45.5426 103.988 39.9481 104.728 38.7326C105.468 37.5171 104.51 35.6938 104.51 35.6938Z" fill="url(#paint14_linear)"/>
<path d="M104.154 39.278C104.257 39.2143 104.364 39.157 104.474 39.1066C104.681 38.9975 104.978 38.8469 105.328 38.6157C105.74 38.3554 106.133 38.0664 106.505 37.7509C106.73 37.5779 106.927 37.3712 107.089 37.1379C107.173 37.018 107.223 36.8774 107.232 36.7313C107.242 36.5852 107.211 36.4393 107.144 36.3094C106.965 36.0679 106.712 35.8911 106.424 35.8055C106.161 35.6998 105.882 35.6367 105.598 35.6185C105.115 35.6244 104.644 35.7755 104.248 36.0523L103.414 36.5717C103.314 36.6401 103.209 36.7008 103.1 36.7535C103.191 36.6743 103.288 36.6022 103.391 36.538L104.209 35.9795C104.614 35.6858 105.1 35.5235 105.601 35.5146C105.895 35.5304 106.184 35.5935 106.458 35.7016C106.771 35.7923 107.045 35.9841 107.237 36.2471C107.315 36.3931 107.35 36.5576 107.34 36.7226C107.33 36.8876 107.275 37.0465 107.18 37.1821C107.012 37.4242 106.807 37.6381 106.572 37.8158C106.195 38.131 105.794 38.4167 105.372 38.6703C105.09 38.8415 104.797 38.9967 104.497 39.1352L104.237 39.2417C104.211 39.2577 104.184 39.2699 104.154 39.278Z" fill="#222742"/>
<path d="M100.711 41.7307C101.332 41.3096 101.673 40.7286 101.472 40.433C101.272 40.1374 100.606 40.2392 99.9849 40.6603C99.364 41.0815 99.0233 41.6625 99.2238 41.9581C99.4243 42.2536 100.09 42.1519 100.711 41.7307Z" fill="#222742"/>
<path opacity="0.35" d="M102.897 41.9064C102.897 41.9064 107.45 39.1871 107.146 37.1353L102.98 40.1922C102.98 40.1922 103.219 40.7272 102.897 41.9064Z" fill="#282F56"/>
<path opacity="0.14" d="M55.4875 76.5537C61.1348 76.5537 65.7128 76.113 65.7128 75.5693C65.7128 75.0257 61.1348 74.585 55.4875 74.585C49.8402 74.585 45.2622 75.0257 45.2622 75.5693C45.2622 76.113 49.8402 76.5537 55.4875 76.5537Z" fill="#343B73"/>
<path d="M56.8511 30.2007L57.89 32.9979C57.9447 33.1459 57.9698 33.3033 57.9636 33.461C57.9575 33.6187 57.9203 33.7736 57.8542 33.9169C57.7881 34.0602 57.6944 34.1891 57.5784 34.2961C57.4624 34.4032 57.3265 34.4863 57.1783 34.5407L56.8095 34.6757L56.9575 36.7197L54.1006 36.9249L53.6824 31.1617L56.8511 30.2007Z" fill="#F7D3A9"/>
<path d="M56.7496 28.554C56.7496 28.554 56.1678 28.1852 55.4717 29.128C54.7757 30.0708 53.1342 29.4344 52.594 30.6084C52.0538 31.7823 52.4667 33.1615 53.2017 34.2082L53.7212 35.0315L55.1705 34.925C55.1705 34.925 55.7964 33.5043 55.5263 33.1069C55.5263 33.1069 53.9134 32.881 54.4069 32.0187C54.9003 31.1564 55.6821 32.3719 55.6821 32.3719L56.0951 32.307L55.5964 30.6941C55.5964 30.6941 57.0353 30.4188 57.2119 29.5124C57.3885 28.6059 56.7496 28.554 56.7496 28.554Z" fill="url(#paint15_radial)"/>
<path d="M51.7889 56.8896L52.1473 61.0452C52.2502 62.2388 52.2092 63.4404 52.0253 64.6242L50.4228 74.9326H51.3344L54.3186 66.9747C54.8709 65.5027 55.1958 63.9552 55.2822 62.3854L55.5835 56.8948L51.7889 56.8896Z" fill="#FBC4B6"/>
<path d="M55.1732 55.4121L55.8979 60.6949C56.1545 62.194 56.2658 63.7144 56.2303 65.2349L55.9992 75.2342L56.7783 74.9277L58.3756 68.4139C59.0281 65.7546 59.2136 63.0021 58.9236 60.2793L58.6068 55.4121H55.1732Z" fill="#FBC4B6"/>
<path d="M54.3549 36.8677C54.3549 36.8677 51.9005 36.3015 52.4667 39.9844C53.0329 43.6673 53.6926 45.649 53.6926 45.649C53.6926 45.649 49.35 50.6565 50.672 57.3625L51.0201 61.1103H60.0221L58.8897 43.3868L59.1806 43.044C59.4129 42.767 59.5801 42.4415 59.67 42.0913C59.7599 41.7412 59.7702 41.3753 59.7 41.0207L59.2611 38.7585L65.3204 37.8131L70.2318 33.564L69.0994 32.6187L65.0867 35.6081L54.3549 36.8677Z" fill="url(#paint16_linear)"/>
<path d="M54.7784 30.201C53.9343 31.1775 53.4278 32.3879 54.4407 33.1852C54.6106 33.2897 54.7475 33.44 54.8355 33.6189C54.8745 33.7332 55.4926 33.8423 55.4848 33.9618C55.4095 35.2604 54.7056 36.5746 54.6381 37.8732C54.6507 38.3852 54.5355 38.8922 54.3031 39.3484C53.9135 39.977 53.1395 40.2341 52.5785 40.7172C51.9734 41.2366 51.6331 41.9976 51.1111 42.6028C50.2753 43.5009 49.1401 44.0626 47.9191 44.1819C46.3979 44.3927 44.8541 44.0074 43.6103 43.1066C42.9982 42.6525 42.504 42.0581 42.1692 41.3734C41.8343 40.6888 41.6685 39.9338 41.6857 39.1718C41.7974 36.959 43.7271 35.1098 45.8958 34.6501C46.8075 34.4579 47.758 34.4682 48.6593 34.2345C49.5605 34.0007 50.4774 33.4345 50.7371 32.5411C50.8825 32.045 50.8176 31.5022 51.0306 31.0217C51.0306 31.0217 51.55 28.9829 54.8641 29.5621" fill="url(#paint17_radial)"/>
<path d="M51.5549 74.8911C51.5549 74.8911 53.2223 75.1508 53.3002 75.5015C53.3782 75.8521 50.2745 75.3171 50.2745 75.3171L50.329 74.9353" fill="#0A687D"/>
<path d="M56.8068 74.8447C56.8068 74.8447 58.8197 74.9512 58.9469 75.2785C59.0742 75.6057 55.9263 75.5382 55.9263 75.5382V75.1512" fill="#0A687D"/>
<path d="M59.3499 50.5677C59.3544 50.5306 57.5874 50.2851 55.4031 50.0192C53.2188 49.7533 51.4445 49.5678 51.44 49.6048C51.4355 49.6419 53.2025 49.8874 55.3868 50.1533C57.571 50.4192 59.3454 50.6047 59.3499 50.5677Z" fill="#222742"/>
<path d="M54.8055 45.402C55.4179 45.2983 55.9093 45.1844 55.903 45.1476C55.8968 45.1109 55.3953 45.1651 54.783 45.2688C54.1706 45.3725 53.6792 45.4864 53.6854 45.5231C53.6916 45.5599 54.1931 45.5056 54.8055 45.402Z" fill="#222742"/>
<path d="M56.1904 46.0542C56.196 46.0174 55.744 45.9185 55.181 45.8335C54.6179 45.7484 54.1569 45.7093 54.1514 45.7462C54.1458 45.7831 54.5977 45.8819 55.1608 45.967C55.7239 46.0521 56.1849 46.0911 56.1904 46.0542Z" fill="#222742"/>
<path d="M60.8869 38.4285C60.6728 38.5027 60.4518 38.5549 60.2272 38.5843C59.8168 38.6622 59.248 38.7635 58.6169 38.8648C57.9858 38.9661 57.4144 39.0492 57.0014 39.1064C56.7812 39.1406 56.5647 39.1954 56.3547 39.27C56.5346 39.1227 56.7543 39.0323 56.9858 39.0103C57.3988 38.9298 57.965 38.8311 58.5961 38.7298C59.2272 38.6285 59.7986 38.5428 60.2116 38.4882C60.4341 38.4457 60.6603 38.4257 60.8869 38.4285Z" fill="#222742"/>
<path d="M64.2297 37.9588C64.7102 37.3147 65.5283 37.0056 66.3308 36.9199C66.0971 37.1796 65.7569 37.3744 65.5075 37.629C65.4538 37.6994 65.3867 37.7585 65.3101 37.803C65.2536 37.8155 65.1964 37.8241 65.1387 37.829C64.8141 37.9043 64.4972 37.8991 64.1959 37.9952" fill="#222742"/>
<path d="M54.8563 36.1143C54.8677 36.3886 54.8115 36.6615 54.6927 36.909C54.5057 37.3739 54.2304 38.005 53.8902 38.6907C53.6003 39.2782 53.2523 39.835 52.8513 40.3529C52.6949 40.5747 52.5107 40.7754 52.3032 40.9503C52.2877 40.9373 52.4877 40.6906 52.7759 40.2958C53.148 39.767 53.4788 39.2105 53.7655 38.631C54.1031 37.9531 54.394 37.3324 54.6018 36.8752C54.7057 36.6284 54.7908 36.374 54.8563 36.1143Z" fill="#222742"/>
<path d="M57.5132 50.9189C57.378 54.3642 57.4943 57.8147 57.8612 61.243L57.5132 50.9189Z" fill="#222742"/>
<path d="M57.8613 61.243C57.827 61.111 57.8044 60.9763 57.7938 60.8404C57.7574 60.5807 57.7159 60.2041 57.6691 59.7392C57.5756 58.8067 57.4795 57.5159 57.4302 56.09C57.3808 54.6642 57.3912 53.3681 57.4302 52.4305C57.4458 51.963 57.4614 51.5838 57.4795 51.3241C57.4816 51.1881 57.4955 51.0525 57.5211 50.9189C57.533 51.0546 57.533 51.191 57.5211 51.3267C57.5211 51.6124 57.5211 51.9864 57.5211 52.4331C57.5211 53.3681 57.5211 54.659 57.5704 56.0848C57.6198 57.5107 57.7003 58.799 57.7678 59.721L57.8483 60.8248C57.8652 60.9635 57.8695 61.1035 57.8613 61.243Z" fill="#222742"/>
<path d="M69.237 32.946C69.4292 32.2915 69.6421 31.6006 70.146 31.1279C70.3148 31.3487 70.0447 31.6759 70.146 31.9383C70.4057 31.6785 70.746 31.4188 71.107 31.4863C71.0122 31.7044 70.8503 31.8864 70.6447 32.0058C70.8994 31.847 71.2063 31.7947 71.4992 31.8604C71.2506 32.064 70.9905 32.253 70.72 32.4265C71.0034 32.3797 71.2899 32.3545 71.5771 32.3512C71.6212 32.398 71.5615 32.4707 71.507 32.5019C71.31 32.6202 71.1021 32.7194 70.8862 32.798L71.2524 32.8213C71.2744 32.8193 71.2965 32.8223 71.3172 32.8299C71.3378 32.8375 71.3565 32.8497 71.3719 32.8655C71.4109 32.9226 71.3511 32.9953 71.2966 33.0369C71.116 33.1466 70.9186 33.2256 70.7122 33.2706L69.9902 33.4706C69.9756 33.4737 69.9606 33.4737 69.946 33.4706C69.9217 33.4632 69.9006 33.4476 69.8863 33.4265C69.6744 33.1883 69.3985 33.0161 69.0915 32.9304" fill="#F7D3A9"/>
<path d="M76.0937 67.671C77.3222 68.0969 78.7818 67.9774 79.6883 67.045C80.1344 66.5693 80.4244 65.9685 80.5196 65.3233C80.6147 64.6781 80.5104 64.0192 80.2207 63.4349C79.9298 62.8765 79.4571 62.3544 79.4857 61.7259C79.5214 61.3869 79.6499 61.0643 79.8571 60.7935C80.2285 60.2507 80.709 59.7858 81.0544 59.2352C81.3998 58.6845 81.5972 57.9625 81.3349 57.3574C80.8155 56.1834 78.9766 56.1341 78.4208 54.9783C78.1611 54.4329 78.265 53.7939 78.3195 53.194C78.4246 52.4717 78.3144 51.7346 78.0027 51.0746C77.6546 50.4383 76.9144 49.9734 76.208 50.137C75.3639 50.3292 74.9353 51.2487 74.6289 52.059L74.0185 53.6667C73.4523 55.1575 72.8757 56.76 73.2523 58.3105C73.5562 59.5598 74.4341 60.5753 75.1717 61.6272C75.3322 61.8134 75.4239 62.049 75.4314 62.2947C75.4002 62.6713 75.0054 62.9076 74.6392 62.9908C74.273 63.0739 73.8601 63.0765 73.551 63.2739C73.3635 63.4051 73.2145 63.5842 73.1195 63.7924C73.0245 64.0007 72.987 64.2305 73.0108 64.4582C73.0666 64.9142 73.2463 65.3463 73.5302 65.7075C73.5302 65.7075 74.7353 67.2009 76.0937 67.671Z" fill="url(#paint18_linear)" fill-opacity="0.78"/>
<path d="M76.9873 61.5129L78.8054 59.1339C78.9696 58.9043 79.1558 58.6912 79.3612 58.4976" fill="#A0CFEF"/>
<path d="M75.2549 64.1411C75.8247 64.6768 76.3559 65.2523 76.8444 65.8631C76.9434 65.9641 77.0071 66.0944 77.0262 66.2345" fill="#A0CFEF"/>
<path d="M75.4004 56.4014C75.8965 57.0792 76.4731 58.2402 76.9873 58.9986L75.4004 56.4014Z" fill="#A0CFEF"/>
<path d="M70.5719 68.2711C72.2419 68.8503 74.2288 68.6866 75.4625 67.4218C76.0694 66.7746 76.4641 65.9573 76.5936 65.0795C76.7231 64.2018 76.5813 63.3054 76.1871 62.5104C75.7924 61.7494 75.1482 61.0404 75.1872 60.1729C75.2351 59.7113 75.4094 59.2718 75.6911 58.9029C76.1949 58.1627 76.8494 57.5315 77.3195 56.7679C77.7896 56.0044 78.0597 55.0356 77.7013 54.2149C77.0079 52.6305 74.4885 52.5552 73.7327 50.9969C73.3769 50.2567 73.5224 49.3866 73.5925 48.5685C73.6782 47.5867 73.6366 46.5504 73.1614 45.6855C72.6861 44.8207 71.6809 44.1895 70.72 44.4077C69.572 44.6674 68.9902 45.9219 68.572 47.0231L67.7409 49.21C66.9618 51.2384 66.1826 53.4201 66.702 55.5265C67.115 57.2276 68.3097 58.6068 69.3148 60.0379C69.535 60.2908 69.6616 60.6117 69.6733 60.9469C69.6317 61.4663 69.0941 61.7806 68.5954 61.8923C68.0967 62.004 67.5565 62.0066 67.115 62.2767C66.86 62.4552 66.6574 62.6986 66.5282 62.9817C66.399 63.2649 66.3478 63.5774 66.38 63.887C66.4542 64.5074 66.6967 65.0956 67.0812 65.5881C67.0812 65.5881 68.7253 67.6192 70.5719 68.2711Z" fill="url(#paint19_linear)"/>
<path d="M71.8733 68.4346C71.9106 68.4346 71.9408 65.0496 71.9408 60.874C71.9408 56.6985 71.9106 53.3135 71.8733 53.3135C71.836 53.3135 71.8057 56.6985 71.8057 60.874C71.8057 65.0496 71.836 68.4346 71.8733 68.4346Z" fill="white"/>
<path d="M75.0161 55.791C75.0161 55.8066 74.8161 56.004 74.5356 56.3806C74.2551 56.7572 73.8681 57.2844 73.4292 57.8558C72.9902 58.4272 72.5903 58.9441 72.2916 59.3103C72.1421 59.5179 71.9743 59.7117 71.7903 59.8895C71.9131 59.6651 72.0556 59.4522 72.2162 59.2531C72.4942 58.8713 72.8837 58.3467 73.3227 57.7727C73.7616 57.1987 74.159 56.6845 74.4629 56.3183C74.6143 56.1109 74.8016 55.9323 75.0161 55.791Z" fill="white"/>
<path d="M71.8397 66.3207C71.8397 66.3207 71.8241 66.2687 71.7878 66.183C71.7312 66.065 71.6567 65.9563 71.567 65.861C71.3462 65.6013 71.0476 65.248 70.6943 64.8636C70.0035 64.0845 69.3957 63.5027 69.4295 63.4741C69.5881 63.5704 69.7331 63.6874 69.8606 63.8221C70.1203 64.0533 70.4476 64.3858 70.7956 64.7727C71.1436 65.1597 71.4397 65.5285 71.6423 65.8116C71.7309 65.9186 71.7971 66.0422 71.8371 66.1752C71.8605 66.2558 71.8475 66.3207 71.8397 66.3207Z" fill="white"/>
<path d="M71.7876 56.4745C71.7512 56.5004 71.2214 55.7317 70.6604 54.7317C70.3747 54.2357 70.1202 53.7863 69.928 53.4643C69.8136 53.2996 69.7128 53.1259 69.6267 52.9448C69.7757 53.0845 69.9043 53.2445 70.0085 53.4201C70.2215 53.7292 70.4916 54.1733 70.7877 54.672L71.5097 55.9446C71.6182 56.1124 71.7112 56.2898 71.7876 56.4745Z" fill="white"/>
<path d="M27.4916 73.377C28.7201 73.803 30.1797 73.6835 31.0862 72.7511C31.5322 72.2753 31.8223 71.6746 31.9175 71.0294C32.0126 70.3841 31.9083 69.7252 31.6186 69.1409C31.3277 68.5825 30.855 68.0605 30.8836 67.432C30.9193 67.0929 31.0478 66.7703 31.255 66.4996C31.6264 65.9567 32.1069 65.4918 32.4523 64.9412C32.7977 64.3906 32.9951 63.6686 32.7328 63.0634C32.2134 61.8895 30.3745 61.8401 29.8187 60.6843C29.559 60.1389 29.6629 59.5 29.7174 58.9C29.8223 58.1778 29.7121 57.4407 29.4005 56.7807C29.0525 56.1444 28.3123 55.6795 27.6059 55.8431C26.7618 56.0353 26.3332 56.9547 26.0267 57.765L25.4164 59.3727C24.8502 60.8635 24.2736 62.466 24.6502 64.0166C24.9541 65.2659 25.8319 66.2814 26.5696 67.3333C26.7299 67.5195 26.8215 67.7551 26.8293 68.0008C26.7981 68.3774 26.4033 68.6137 26.0371 68.6968C25.6709 68.7799 25.258 68.7825 24.9489 68.9799C24.7614 69.1112 24.6124 69.2902 24.5174 69.4985C24.4224 69.7067 24.3849 69.9366 24.4087 70.1642C24.4645 70.6203 24.6442 71.0523 24.9281 71.4135C24.9281 71.4135 26.1332 72.9069 27.4916 73.377Z" fill="url(#paint20_linear)" fill-opacity="0.78"/>
<path d="M28.3852 67.219L30.2033 64.8399C30.3676 64.6104 30.5537 64.3973 30.7591 64.2036" fill="#A0CFEF"/>
<path d="M26.6527 69.8447C27.2225 70.3805 27.7537 70.9559 28.2422 71.5667C28.3412 71.6677 28.405 71.798 28.4241 71.9381" fill="#A0CFEF"/>
<path d="M26.8007 62.105C27.2967 62.7829 27.8733 63.9438 28.3876 64.7022L26.8007 62.105Z" fill="#A0CFEF"/>
<path d="M35.9561 72.7927C37.3741 72.0135 38.8286 71.1824 39.8675 69.9358C40.1062 69.6809 40.2768 69.3701 40.3636 69.0319C40.4042 68.8622 40.3944 68.6842 40.3354 68.52C40.2763 68.3557 40.1706 68.2123 40.0311 68.1073C39.7831 67.9801 39.4996 67.9398 39.226 67.993C38.5894 68.0591 37.9658 68.2166 37.3741 68.4605C38.2001 67.6078 38.859 66.6079 39.3169 65.5127C39.4545 65.1828 39.5454 64.7335 39.2597 64.5257C39.1525 64.4563 39.0289 64.416 38.9013 64.4088C37.343 64.2244 35.9509 65.388 34.9224 66.5801C35.3514 64.4695 35.4791 62.3088 35.3016 60.1624C35.2808 59.9026 35.2158 59.6039 34.9743 59.5234C34.8149 59.4908 34.6491 59.5216 34.512 59.6091C33.2965 60.2143 32.4342 61.3831 31.9148 62.6427C31.3953 63.9024 31.2135 65.2659 31.0343 66.6113C30.6454 65.2282 30.065 63.9064 29.3097 62.6843C29.2746 62.6129 29.2184 62.554 29.1487 62.5155C29.0059 62.4557 28.8552 62.5752 28.7539 62.6921C27.7618 63.8348 27.6267 65.5023 27.8657 66.9957C28.14 68.7097 28.8293 70.3307 29.8733 71.7175C30.2733 72.2369 30.8525 73.2135 32.1018 73.2135L35.9561 72.7927Z" fill="url(#paint21_linear)"/>
<path d="M33.8081 62.8765C33.7795 63.0154 33.7395 63.1518 33.6886 63.2842C33.6029 63.544 33.4808 63.918 33.3406 64.3829C32.6004 66.8075 32.1506 69.3115 32.0004 71.8421C31.9718 72.3278 31.9536 72.72 31.9458 72.9927C31.9481 73.1344 31.9386 73.276 31.9173 73.416C31.8977 73.2758 31.8899 73.1342 31.8939 72.9927C31.8939 72.733 31.8939 72.3252 31.8939 71.8369C31.9914 69.2924 32.4433 66.7739 33.2367 64.3543C33.3899 63.892 33.525 63.5206 33.6263 63.2661C33.6754 63.1312 33.7363 63.0008 33.8081 62.8765Z" fill="white"/>
<path d="M36.7224 66.9487C36.669 67.0421 36.6054 67.1292 36.5328 67.2085L35.9718 67.8785C35.5095 68.4447 34.8836 69.2369 34.2213 70.1381C33.559 71.0394 32.9928 71.8731 32.5902 72.4756L32.1123 73.2003C32.0598 73.2935 31.997 73.3806 31.9253 73.46C31.9622 73.3598 32.0101 73.264 32.0682 73.1743C32.1668 72.9951 32.3279 72.738 32.5097 72.4263C32.8915 71.8004 33.4499 70.9537 34.1122 70.0498C34.7745 69.146 35.4108 68.3616 35.8965 67.811C36.138 67.5357 36.3354 67.3149 36.4783 67.1669C36.5511 67.0852 36.633 67.012 36.7224 66.9487Z" fill="white"/>
<path d="M38.169 69.5459C38.169 69.5459 38.1924 69.5641 38.1976 69.616C38.2004 69.692 38.1744 69.7662 38.1249 69.8238C38.049 69.9121 37.9617 69.9899 37.8651 70.055C37.7638 70.1381 37.6496 70.2316 37.5119 70.3147C36.8059 70.7981 36.0554 71.2129 35.2705 71.5536C34.3615 71.9691 33.5433 72.3327 32.9771 72.6626C32.4109 72.9924 32.0811 73.2158 32.0681 73.1976C32.1329 73.1273 32.2062 73.0654 32.2863 73.0132C32.4924 72.8563 32.7075 72.7115 32.9304 72.5795C33.6701 72.1535 34.4332 71.7694 35.2159 71.4289C35.9938 71.0895 36.7441 70.69 37.46 70.2342C37.5976 70.1485 37.7197 70.0601 37.821 69.9744C37.9153 69.9165 38.0025 69.8476 38.0807 69.7693C38.1112 69.741 38.1349 69.7063 38.1502 69.6676C38.1655 69.629 38.1719 69.5874 38.169 69.5459Z" fill="white"/>
<path d="M31.9614 72.98C31.9614 72.98 31.8497 72.98 31.7458 72.8164C31.6281 72.6032 31.5257 72.3819 31.4393 72.1541C31.2004 71.5905 30.8809 70.8113 30.5329 69.9439C30.1849 69.0764 29.8784 68.292 29.6628 67.718C29.5537 67.4323 29.4706 67.1986 29.4031 67.0376C29.3665 66.9547 29.3412 66.8674 29.3278 66.7778C29.3787 66.8509 29.4197 66.9304 29.4499 67.0142C29.52 67.17 29.6187 67.396 29.7381 67.6791C29.9771 68.2427 30.2966 69.0218 30.6446 69.8893C30.9926 70.7568 31.2991 71.5412 31.5147 72.1125C31.6263 72.3956 31.6965 72.632 31.7744 72.78C31.8222 72.8589 31.8859 72.927 31.9614 72.98Z" fill="white"/>
<defs>
<linearGradient id="paint0_linear" x1="61.5805" y1="32.2631" x2="34.3407" y2="69.9178" gradientUnits="userSpaceOnUse">
<stop stop-color="#A0CED8"/>
<stop offset="0.99" stop-color="#E5E5E5" stop-opacity="0"/>
</linearGradient>
<radialGradient id="paint1_radial" cx="0" cy="0" r="1" gradientUnits="userSpaceOnUse" gradientTransform="translate(103.775 16.5911) rotate(75.9985) scale(37.5068 38.9394)">
<stop stop-color="white"/>
<stop offset="1" stop-color="#D0E4D6"/>
</radialGradient>
<linearGradient id="paint2_linear" x1="107.655" y1="-1.42882" x2="101.422" y2="45.3214" gradientUnits="userSpaceOnUse">
<stop stop-color="#13BF49"/>
<stop offset="1" stop-color="#0A687D"/>
</linearGradient>
<linearGradient id="paint3_linear" x1="96.1209" y1="31.4551" x2="96.1209" y2="66.0061" gradientUnits="userSpaceOnUse">
<stop stop-color="#0E8B68"/>
<stop offset="1" stop-color="#145566"/>
</linearGradient>
<linearGradient id="paint4_linear" x1="96.2275" y1="28.8294" x2="61.6843" y2="45.7115" gradientUnits="userSpaceOnUse">
<stop stop-color="#07BD40"/>
<stop offset="1" stop-color="#0A687D"/>
</linearGradient>
<linearGradient id="paint5_linear" x1="29.4788" y1="20.2585" x2="-0.389393" y2="55.1913" gradientUnits="userSpaceOnUse">
<stop stop-color="#13BF49"/>
<stop offset="1" stop-color="#0A687D"/>
</linearGradient>
<radialGradient id="paint6_radial" cx="0" cy="0" r="1" gradientUnits="userSpaceOnUse" gradientTransform="translate(96.7471 29.7385) rotate(115.53) scale(9.64218 3.75569)">
<stop stop-color="#0A687D"/>
<stop offset="1" stop-color="#07BD40" stop-opacity="0.78"/>
</radialGradient>
<linearGradient id="paint7_linear" x1="9.48009" y1="29.2188" x2="9.48009" y2="37.4001" gradientUnits="userSpaceOnUse">
<stop stop-color="#0A687D"/>
<stop offset="1" stop-color="#07BD40"/>
</linearGradient>
<linearGradient id="paint8_linear" x1="12.3368" y1="47.01" x2="12.4529" y2="75.2211" gradientUnits="userSpaceOnUse">
<stop stop-color="#145566"/>
<stop offset="1" stop-color="#145566"/>
</linearGradient>
<linearGradient id="paint9_linear" x1="6.36324" y1="37.4001" x2="11.298" y2="55.7106" gradientUnits="userSpaceOnUse">
<stop stop-color="#07BD40"/>
<stop offset="1" stop-color="#0A687D"/>
</linearGradient>
<linearGradient id="paint10_linear" x1="10.3889" y1="41.2963" x2="20.7778" y2="44.5428" gradientUnits="userSpaceOnUse">
<stop stop-color="#38BD6A"/>
<stop offset="1" stop-color="#0A687D"/>
</linearGradient>
<linearGradient id="paint11_linear" x1="107.526" y1="32.7253" x2="106.234" y2="44.3894" gradientUnits="userSpaceOnUse">
<stop stop-color="#13BF49"/>
<stop offset="1" stop-color="#145566"/>
</linearGradient>
<linearGradient id="paint12_linear" x1="100.643" y1="33.5043" x2="94.6692" y2="32.9849" gradientUnits="userSpaceOnUse">
<stop stop-color="#13B04D"/>
<stop offset="1" stop-color="#0A687D"/>
</linearGradient>
<linearGradient id="paint13_linear" x1="104.279" y1="43.8932" x2="105.837" y2="70.1252" gradientUnits="userSpaceOnUse">
<stop stop-color="#0A687D"/>
<stop offset="1" stop-color="#145566"/>
</linearGradient>
<linearGradient id="paint14_linear" x1="105.058" y1="37.4002" x2="94.2795" y2="45.4517" gradientUnits="userSpaceOnUse">
<stop stop-color="#139754"/>
<stop offset="1" stop-color="#0A687D"/>
</linearGradient>
<radialGradient id="paint15_radial" cx="0" cy="0" r="1" gradientUnits="userSpaceOnUse" gradientTransform="translate(54.5419 31.4265) rotate(-44.1931) scale(13.0406 9.74826)">
<stop stop-color="#12BC4B"/>
<stop offset="1" stop-color="#0A687D"/>
</radialGradient>
<linearGradient id="paint16_linear" x1="54.6718" y1="36.4911" x2="59.9961" y2="61.4246" gradientUnits="userSpaceOnUse">
<stop stop-color="#0A687D"/>
<stop offset="0.99987" stop-color="#13BF49"/>
</linearGradient>
<radialGradient id="paint17_radial" cx="0" cy="0" r="1" gradientUnits="userSpaceOnUse" gradientTransform="translate(53.633 30.7776) rotate(110.558) scale(14.3762 13.4236)">
<stop stop-color="#13BF49"/>
<stop offset="1" stop-color="#0A687D"/>
</radialGradient>
<linearGradient id="paint18_linear" x1="77.2298" y1="50.104" x2="77.2677" y2="83.631" gradientUnits="userSpaceOnUse">
<stop stop-color="#07BD40"/>
<stop offset="1" stop-color="#0A687D"/>
</linearGradient>
<linearGradient id="paint19_linear" x1="70.6446" y1="43.7636" x2="72.5926" y2="73.2422" gradientUnits="userSpaceOnUse">
<stop stop-color="#13BF49"/>
<stop offset="1" stop-color="#145566"/>
</linearGradient>
<linearGradient id="paint20_linear" x1="28.6277" y1="55.8101" x2="29.2188" y2="86.4879" gradientUnits="userSpaceOnUse">
<stop stop-color="#07BD40"/>
<stop offset="1" stop-color="#0A687D"/>
</linearGradient>
<linearGradient id="paint21_linear" x1="34.0758" y1="59.5107" x2="34.1535" y2="74.8004" gradientUnits="userSpaceOnUse">
<stop stop-color="#13BF49"/>
<stop offset="1" stop-color="#0A687D"/>
</linearGradient>
</defs>
</svg>
