<svg width="120" height="96" viewBox="0 0 120 96" fill="none" xmlns="http://www.w3.org/2000/svg">
<g clip-path="url(#clip0)">
<path d="M60.1561 34.4132C60.1612 34.8475 60.1441 35.2817 60.1048 35.7141C59.4703 35.6179 58.8358 35.5143 58.1998 35.3959C58.2306 35.282 58.2614 35.1695 58.2936 35.0585C58.4988 34.3451 58.9296 33.4113 58.8944 32.6653C58.8944 32.5262 58.446 31.2978 58.4782 31.2786L58.7449 31.0906L58.9281 31.36L59.1523 31.4014L58.8592 30.4824L59.9158 30.2026L60.8389 31.0773C60.6059 31.8454 60.1722 32.5691 60.1253 33.3817C60.1107 33.725 60.1473 34.0684 60.1561 34.4132Z" fill="#EAC1A4"/>
<path d="M51.7976 43.413C51.6218 43.117 56.856 39.8092 56.856 39.8092L58.7244 33.2661H60.4418L59.7179 41.2063L53.3934 48.8372L51.7976 43.413Z" fill="url(#paint0_linear)"/>
<path d="M42.0867 91.3222C41.6984 91.3489 41.3438 91.2112 40.9686 91.1742C40.9843 89.8451 41.1346 88.521 41.417 87.2227C42.0032 87.8783 42.4941 87.4965 42.4736 88.7293C42.4662 89.1215 42.0105 90.7214 42.0867 91.3222Z" fill="#EAC1A4"/>
<path d="M40.8836 90.5006C40.444 90.3408 40.3428 91.4049 40.3399 91.655C40.3502 91.8034 40.3428 91.9525 40.3179 92.099C40.2652 92.2559 40.1808 92.4 40.0703 92.5223L39.4299 93.3363C39.3274 93.453 39.2447 93.586 39.1852 93.73C39.133 93.9163 39.147 94.1151 39.2246 94.2921C39.3022 94.4691 39.4385 94.6132 39.6102 94.6994C40.7942 95.3033 41.8756 93.841 42.132 92.876C42.1716 92.728 42.1995 92.58 42.2288 92.432C42.2874 92.1212 42.5218 91.4419 42.3987 91.1385C42.2522 90.7833 41.8243 91.0409 41.54 90.9077C41.2558 90.7745 41.0609 90.5732 40.8836 90.5006Z" fill="#1A3151"/>
<path d="M49.2919 69.226C48.1885 72.26 46.9151 75.2289 46.1883 78.402C45.2914 82.3254 43.8437 86.1527 43.1022 90.0851C42.6222 90.1007 42.1416 90.0799 41.6647 90.0229C41.1181 89.9578 40.2506 89.8083 40.0528 89.2059C39.9517 88.8981 40.0528 88.3964 40.0748 88.0767C40.1246 87.0525 40.1964 86.0284 40.2711 85.0057C40.4821 82.1108 40.6272 79.1804 41.1503 76.327C41.7042 73.3241 42.2362 70.3123 42.7241 67.3109C42.9762 65.7598 43.2868 64.2177 43.6693 62.6933C43.7675 62.3011 44.7932 58.2533 44.9881 58.2844C47.3556 58.6551 49.6311 59.4794 51.6922 60.713C51.8999 60.8117 52.0658 60.9824 52.1596 61.194C52.2081 61.3923 52.1873 61.6014 52.101 61.786C51.4797 63.6523 50.6503 65.4017 49.9879 67.262C49.7681 67.9162 49.5293 68.5629 49.2919 69.226Z" fill="#E3E4E5"/>
<path d="M49.4999 91.1045C49.8618 91.2525 50.2413 91.2214 50.6136 91.2924C50.989 90.0187 51.2345 88.7095 51.3462 87.3853C50.5945 87.8293 50.237 87.3246 49.8941 88.5056C49.7856 88.8889 49.7519 90.548 49.4999 91.1045Z" fill="#EAC1A4"/>
<path d="M50.9945 90.9061C50.9945 91.6328 51.5616 92.4157 51.8738 93.0699C51.9367 93.16 51.9642 93.2705 51.9509 93.3799C51.9377 93.4893 51.8846 93.5898 51.802 93.6619C51.713 93.8143 51.5829 93.938 51.4268 94.0186C51.2615 94.0688 51.0852 94.0688 50.9198 94.0186C50.6394 93.9564 50.3625 93.8814 50.089 93.7936C50.0195 93.7759 49.9539 93.7453 49.8955 93.7033C49.8322 93.6448 49.7823 93.5731 49.749 93.4932C49.5556 93.0995 49.3914 92.8212 49.4017 92.3832C49.412 91.9451 49.4691 91.4626 49.3871 91.0142C49.346 90.7966 49.2933 90.5184 49.4779 90.4C49.6244 90.3082 49.8809 90.4355 50.0362 90.4607C50.3102 90.5065 50.5637 90.4888 50.8158 90.6338C50.8689 90.6608 50.9146 90.7004 50.9491 90.7493C50.9779 90.7965 50.9936 90.8507 50.9945 90.9061Z" fill="#1A3151"/>
<path d="M49.1277 67.8433C49.2874 71.0727 49.6303 74.2887 49.3871 77.5388C49.094 81.5555 49.3416 85.6432 48.8932 89.62C49.3469 89.7792 49.8117 89.9039 50.2839 89.9929C50.8246 90.0951 51.6965 90.2135 52.0628 89.6969C52.2504 89.4335 52.2958 88.9229 52.3749 88.6121C52.6299 87.619 52.8614 86.62 53.0915 85.621C53.7421 82.7942 54.4675 79.9526 54.8045 77.0696C55.1591 74.0371 55.5372 71.0016 55.9578 67.9884C56.1732 66.4314 56.3314 64.8656 56.4149 63.2953C56.4369 62.8913 56.6494 58.7177 56.4487 58.6881C54.0791 58.3308 51.6639 58.4343 49.3328 58.9929C49.1061 59.025 48.8983 59.1379 48.7467 59.3111C48.6394 59.4882 48.5968 59.6977 48.6265 59.9031C48.6705 61.8715 48.9475 63.7911 49.0324 65.7639C49.0588 66.4492 49.0896 67.1374 49.1277 67.8433Z" fill="#E3E4E5"/>
<path d="M47.7825 41.9345L47.6667 41.9759C47.0234 42.2216 46.4769 42.6656 45.9435 43.1022C45.1405 43.7578 44.7448 44.045 44.4342 45.0144C44.1625 45.9292 43.9462 46.8599 43.7865 47.8012C42.8765 52.589 42.7006 57.3561 42.0485 62.1794C41.8712 63.4921 41.7335 65.0358 42.6948 65.9371C44.4004 64.5962 46.5443 64.5193 48.6134 64.5163C50.067 64.5163 51.4869 64.0397 52.9435 64.204C54.3356 64.3609 55.5519 64.0087 56.963 64.1019C57.303 64.1241 57.7382 64.1211 57.8715 63.8059C57.3821 62.3259 57.3909 60.7349 57.2854 59.1779C56.9923 55.1524 55.6735 51.291 55.1459 47.2921C54.9642 45.9334 54.8675 43.6779 53.8271 42.6493C52.6944 41.5319 50.1124 41.5083 48.6573 41.7273C48.3602 41.7698 48.0674 41.8391 47.7825 41.9345Z" fill="url(#paint1_linear)"/>
<path d="M48.8639 41.8666C48.8893 41.9165 48.9224 41.962 48.9621 42.0013C49.1379 42.1651 49.3605 42.2687 49.5981 42.2973C49.9068 42.3269 50.2182 42.3049 50.5198 42.2322C50.9301 42.1537 50.9154 41.9095 50.9755 41.5336C51.0077 41.3279 51.0283 41.1207 51.0444 40.912C51.0532 40.798 51.0092 40.3896 51.081 40.3111C51.1294 40.2564 51.3287 40.2756 51.4151 40.2297C51.5531 40.1473 51.6685 40.0313 51.7507 39.8923C51.875 39.676 51.9692 39.4434 52.0306 39.2011L52.4057 37.955C52.5462 37.5348 52.6444 37.1015 52.6988 36.6615C52.7603 35.9955 52.6548 35.0557 52.1566 34.5687C51.7023 34.1247 51.0414 33.9693 50.4333 33.8909C49.6251 33.7776 48.8029 33.9457 48.1019 34.3675C47.8066 34.5365 47.5608 34.7817 47.3898 35.0779C47.1348 35.5559 47.1538 36.1538 47.1817 36.7059L47.2579 38.2525C47.2872 38.8445 47.3605 39.5282 47.8001 39.8494C48.0331 40.0196 48.3393 40.0566 48.5327 40.2756C48.7833 40.5494 48.7672 40.9608 48.7775 41.3116C48.7648 41.5008 48.7943 41.6905 48.8639 41.8666Z" fill="#EACDB0"/>
<path d="M51.4079 35.2035C51.4354 35.2505 51.4585 35.3001 51.4768 35.3515C51.5705 35.6253 51.5075 35.9331 51.5984 36.2069C51.7449 36.642 52.2461 36.9025 52.3208 37.3539C52.3824 37.7239 52.1332 38.0747 52.1113 38.4491C52.0878 38.8576 52.3472 39.2454 52.3076 39.6494C52.2411 40.0553 52.0826 40.4403 51.8446 40.7742C51.909 40.6869 52.4893 40.718 52.6403 40.6262C52.8718 40.4782 52.8982 40.3938 52.967 40.1511C53.0359 39.9084 52.9817 39.6716 53.0887 39.4244C53.2191 39.1284 53.4872 38.899 53.581 38.5749C53.7085 38.1309 53.477 37.6677 53.4946 37.2074C53.5224 36.5118 54.1173 35.8562 53.9019 35.1946C53.7744 34.8068 53.4022 34.5582 53.1927 34.2089C53.033 33.944 52.9744 33.6317 52.8645 33.3416C52.7546 33.0516 52.5641 32.763 52.2695 32.6742C52.1017 32.6452 51.9324 32.625 51.7625 32.6135C51.4694 32.5587 51.232 32.3574 50.9522 32.2612C50.5521 32.1251 49.8473 32.5336 49.6143 32.8754C49.3813 33.2173 49.5 33.5044 49.7359 33.8034C50.1301 34.3066 51.0826 34.6292 51.4079 35.2035Z" fill="#1A3151"/>
<path d="M46.0255 33.1492C45.7867 33.3268 45.4907 33.4556 45.2709 33.6628C44.8445 34.0668 44.7639 34.7135 44.7477 35.3041C44.7346 35.8295 44.506 36.2971 44.5631 36.8447C44.5747 37.0299 44.6241 37.2105 44.7084 37.3754C44.7926 37.5402 44.9098 37.6856 45.0525 37.8023C45.4218 38.0731 46.0021 38.1175 46.1662 38.5423C46.345 39.0085 45.8731 39.5975 46.1574 40.0031C46.3171 40.2265 46.6322 40.2591 46.8608 40.4101C47.1172 40.5773 47.2477 40.8777 47.4044 41.1426C47.5612 41.4076 47.7957 41.6725 48.1005 41.6784C48.1122 41.2092 48.1269 40.8392 47.929 40.4101C47.8133 40.1599 47.4733 39.6997 47.7342 39.4303C47.8983 39.2053 48.2881 39.1343 48.2969 38.8531C48.2814 38.7223 48.2267 38.5993 48.1401 38.5009C48.0073 38.2842 47.9274 38.0387 47.907 37.7848C47.8866 37.5308 47.9263 37.2755 48.0228 37.0401C48.223 36.5683 48.5882 36.1874 49.0486 35.9701C49.579 35.7111 49.4882 35.5793 49.6479 35.0673C49.7945 34.5951 50.0553 34.4841 50.4758 34.3125C50.8539 34.1645 50.9755 34.0623 51.1147 33.7042C51.2173 33.4422 51.3419 33.13 51.1939 32.8384C51.0585 32.6156 50.8758 32.4261 50.659 32.2834C50.2311 31.9534 49.749 31.607 49.2112 31.6455C48.9182 31.6677 48.6251 31.8083 48.332 31.8261C48.1327 31.8379 47.9349 31.7935 47.7356 31.7861C47.3874 31.7741 47.045 31.8781 46.7612 32.0821C46.4827 32.2878 46.4915 32.5039 46.3362 32.797C46.2605 32.9367 46.1543 33.0572 46.0255 33.1492Z" fill="#1A3151"/>
<path d="M47.2287 31.2255C47.2814 30.8984 47.2477 30.4736 46.9356 30.3626C46.7671 30.3019 46.5766 30.3626 46.4007 30.3315C46.0256 30.2546 45.8981 29.7958 45.7018 29.4657C45.676 29.4137 45.6351 29.3708 45.5845 29.3429C45.5054 29.3211 45.4219 29.3211 45.3427 29.3429C44.9705 29.3888 44.6863 29.0173 44.336 28.8826C44.1147 28.8097 43.8738 28.8285 43.6661 28.9347C43.4584 29.041 43.301 29.2261 43.2282 29.4495C43.174 29.6345 43.1843 29.8328 43.133 30.0193C42.9278 30.7726 41.8347 31.0937 41.8142 31.8752C41.7951 32.4035 42.3065 32.9112 42.1072 33.3966C41.9797 33.7089 41.5826 33.922 41.6281 34.2565C41.6529 34.3625 41.7137 34.4563 41.7999 34.5217C41.8861 34.5871 41.9922 34.62 42.0999 34.6147C42.3162 34.5969 42.5194 34.5032 42.6743 34.3497C42.9322 34.1233 43.1257 33.8317 43.3704 33.592C43.6151 33.3522 43.9419 33.1569 44.2804 33.1998C44.6189 33.2427 44.9061 33.4958 45.2314 33.444C45.4922 33.3996 45.6856 33.1643 45.9421 33.0991C46.1985 33.034 46.4315 33.1317 46.6748 33.148C46.918 33.1643 47.2257 33.0325 47.2316 32.7839C47.223 32.724 47.223 32.6632 47.2316 32.6033C47.2843 32.442 47.5569 32.4553 47.6082 32.2896C47.4792 32.0883 47.2975 32.1608 47.2052 31.8989C47.1363 31.6887 47.1964 31.4267 47.2287 31.2255Z" fill="#1A3151"/>
<path d="M103.8 92.6143C103.428 92.6026 103.057 92.567 102.69 92.5077C102.498 88.7944 102.845 84.902 102.996 81.1709L105.83 81.3189C105.172 83.3145 104.702 85.3685 104.428 87.4535C104.384 87.788 103.855 92.6113 103.8 92.6143Z" fill="#EAC1A4"/>
<path d="M102.575 91.7856C102.342 91.7441 102.205 91.8477 102.049 91.9913C101.958 92.0742 101.903 92.1926 101.789 92.2518C101.681 92.3039 101.564 92.3326 101.444 92.3361C100.763 92.4057 99.1934 92.3761 100.029 93.5275C100.788 94.5724 102.805 94.1565 103.97 93.8724C104.049 93.8642 104.123 93.8328 104.184 93.7821C104.241 93.7148 104.282 93.6346 104.302 93.5483C104.435 93.0569 104.617 92.4427 104.017 92.2355C103.762 92.1482 103.526 92.3184 103.257 92.2237C103.036 92.1497 102.808 91.8285 102.575 91.7856Z" fill="#1A3151"/>
<path d="M100.879 83.4103L106.656 83.2978C108.215 75.8061 109.586 68.2778 110.771 60.713C110.863 60.121 110.953 59.5172 110.786 58.9474C110.469 57.8715 109.328 57.2573 108.236 57.0515C106.538 56.7319 103.418 57.1773 102.548 58.9607C101.627 60.8448 101.781 64.2103 101.558 66.2926C100.949 71.9765 100.722 77.6955 100.879 83.4103Z" fill="#1A3151"/>
<path d="M114.816 92.6143C115.188 92.6026 115.559 92.567 115.926 92.5077C116.118 88.7944 115.771 84.902 115.62 81.1709L112.786 81.3189C113.444 83.3145 113.914 85.3685 114.188 87.4535C114.232 87.788 114.761 92.6113 114.816 92.6143Z" fill="#EAC1A4"/>
<path d="M116.042 91.7856C116.275 91.7441 116.413 91.8477 116.568 91.9913C116.659 92.0742 116.715 92.1926 116.829 92.2518C116.937 92.3041 117.055 92.3328 117.175 92.3361C117.856 92.4057 119.426 92.3761 118.59 93.5275C117.831 94.5724 115.813 94.1565 114.648 93.8724C114.57 93.8642 114.495 93.8328 114.435 93.7821C114.377 93.7148 114.337 93.6346 114.317 93.5483C114.184 93.0569 114.002 92.4427 114.602 92.2355C114.857 92.1482 115.092 92.3184 115.362 92.2237C115.582 92.1497 115.809 91.8285 116.042 91.7856Z" fill="#1A3151"/>
<path d="M117.739 83.4103L111.954 83.2963C110.391 75.8046 109.019 68.2763 107.839 60.7116C107.747 60.1196 107.657 59.5157 107.824 58.9459C108.141 57.87 109.282 57.2558 110.374 57.0501C112.072 56.7304 115.192 57.1759 116.063 58.9593C116.983 60.8433 116.829 64.2088 117.052 66.2912C117.663 71.9753 117.893 77.6948 117.739 83.4103Z" fill="#1A3151"/>
<path d="M99.5158 31.563C99.5429 31.5896 99.5661 31.62 99.5846 31.6533C99.7312 31.9626 99.6315 32.2142 99.6931 32.5531C99.7209 32.7011 100.08 32.8491 99.8499 33.0741C99.7649 33.1555 99.529 33.3242 99.3458 33.4944C99.0791 33.7431 98.8901 34.2226 98.8095 34.6296C98.493 36.2324 98.616 37.8856 98.789 39.5032C98.7922 39.5966 98.8173 39.6879 98.8622 39.7696C98.9531 39.9087 99.1362 39.9428 99.3018 39.9694C100.059 40.0899 100.803 40.2811 101.525 40.5407C102.168 40.773 102.808 41.069 103.283 41.5574C103.758 42.0458 104.066 42.7621 103.915 43.4355C103.856 43.6878 103.739 43.9224 103.573 44.12C103.406 44.3176 103.196 44.4726 102.959 44.5722C101.787 45.0532 100.476 43.7271 99.5773 43.1085C98.7269 42.525 97.918 41.8821 97.1565 41.1845C97.057 41.1033 96.9748 41.0026 96.9148 40.8885C96.8673 40.76 96.8474 40.6228 96.8561 40.4859C96.8688 38.7246 96.9765 36.9652 97.1785 35.2156C97.2283 34.7332 97.5244 34.338 97.5668 33.8837C97.5932 33.598 97.4115 33.3553 97.3778 33.08C97.3467 32.7778 97.367 32.4725 97.4379 32.1772C97.5727 31.6548 98.0856 31.4491 98.5164 31.2241C98.6039 31.1667 98.7052 31.1345 98.8095 31.1309C98.9847 31.1512 99.149 31.2274 99.2784 31.3484C99.3643 31.4119 99.4439 31.4837 99.5158 31.563Z" fill="#EAC1A4"/>
<path d="M100.07 43.0774L100.949 40.0967C100.93 40.1603 105.491 41.1578 105.763 41.2259C106.788 41.4879 107.855 41.7676 108.682 42.441C110.44 43.8766 109.6 46.7655 107.256 46.7966C104.71 46.8307 101.939 45.885 99.8982 44.362C99.8509 44.3326 99.8121 44.2913 99.7853 44.2422C99.7634 44.1686 99.7675 44.0895 99.7971 44.0187L100.07 43.0774Z" fill="url(#paint2_linear)"/>
<path d="M112.799 42.3254C114.33 43.8249 115.495 45.663 116.203 47.6948C117.437 51.1921 117.461 54.9276 117.472 58.5876C117.472 59.8052 117.476 61.0232 117.484 62.2417C117.484 63.4405 117.383 63.6981 116.093 63.5397C113.703 63.2437 111.22 62.7494 109.06 61.6764C108.034 61.1658 107.067 60.522 105.982 60.1194C104.412 59.5348 102.8 59.7997 101.245 59.4194C101.907 57.4853 102.411 55.4993 102.75 53.4816C103.106 51.2957 103.431 48.9114 103.953 46.755C104.266 45.4615 104.85 44.2524 105.443 43.055C105.842 42.2558 106.264 41.4359 106.941 40.8587C108.973 39.1242 111.261 40.8454 112.799 42.3254Z" fill="url(#paint3_radial)"/>
<path d="M107.226 37.1974C107.519 37.8412 107.994 38.3814 108.384 38.9734C108.774 39.5654 108.898 40.0642 109 40.7287C109.073 41.2082 109.241 41.5842 109.814 41.6656C110.894 41.8136 110.585 40.9256 110.83 40.264C111.11 39.5151 111.709 38.9231 112.125 38.2542C113.333 36.3228 112.987 32.5044 110.48 31.6904C107.736 30.795 106.341 35.2438 107.226 37.1974Z" fill="#EAC1A4"/>
<path d="M111.599 35.3278C111.91 35.3411 112.253 35.3648 112.478 35.5764C112.704 35.788 112.683 36.2483 112.379 36.2986C112.102 36.343 111.744 36.0529 111.576 36.2646C111.477 36.3889 111.564 36.5709 111.639 36.7086C111.925 37.261 112.01 37.8977 111.877 38.5068C111.992 38.6133 112.171 38.5068 112.269 38.3913C112.764 37.8424 113.15 37.2022 113.406 36.5058C113.508 36.676 113.652 36.8167 113.823 36.9143C113.721 36.6538 113.785 36.3682 113.85 36.1033C114.084 35.1265 114.244 33.981 113.568 33.1832C113.181 32.7647 112.664 32.4908 112.103 32.4062C111.549 32.3242 110.988 32.3063 110.43 32.353C110.191 32.3633 109.898 32.4151 109.844 32.6386C110.367 32.8502 110.907 33.2632 111.162 33.7634C111.252 33.9247 111.567 35.3263 111.599 35.3278Z" fill="#152A44"/>
<path d="M110.488 32.9808L110.544 33.0223C110.781 33.2043 111.003 33.4263 111.29 33.5062C111.703 33.6232 112.147 33.4219 112.554 33.564C113.009 33.7223 113.308 34.2729 113.64 34.6C114.189 35.1328 114.856 35.5264 115.585 35.7484C115.955 35.8626 116.338 35.9317 116.725 35.9542C116.919 35.983 117.117 35.983 117.311 35.9542C117.54 35.892 117.532 35.7869 117.288 35.707C116.521 35.4598 116.282 34.375 116.339 33.6528C116.385 33.0844 116.58 32.491 116.364 31.9626C116.2 31.5601 115.849 31.3514 115.509 31.122C115.133 30.8674 114.726 30.937 114.3 30.8141C113.873 30.6913 113.492 30.3331 113.039 30.2429C112.56 30.1481 112.083 30.3627 111.602 30.456C111.205 30.5337 110.796 30.5287 110.4 30.4412C110.047 30.3627 109.703 30.2192 109.341 30.2221C108.807 30.2221 108.315 30.5625 108.007 31.0006C107.568 31.6193 107.283 32.6774 107.437 33.4914C107.414 33.3656 107.834 32.9068 107.921 32.8092C108.088 32.5843 108.331 32.429 108.604 32.3726C109.237 32.2912 109.986 32.6079 110.488 32.9808Z" fill="#1A3151"/>
<path d="M111.061 58.0785C111.056 58.0407 111.056 58.0023 111.061 57.9645C111.111 57.6241 111.34 57.4761 111.479 57.1638C111.542 57.0247 111.332 56.6932 111.643 56.6458C111.759 56.6281 112.047 56.6251 112.295 56.5896C112.656 56.5378 113.081 56.2536 113.377 55.9636C113.788 55.5755 114.17 55.1576 114.521 54.713C115.244 53.7473 115.878 52.7163 116.414 51.6331C115.582 51.1523 114.896 50.4518 114.429 49.6067C113.961 48.7616 113.731 47.8039 113.762 46.8364C113.759 46.6338 113.805 46.4335 113.897 46.2533C113.99 46.1107 114.116 45.9929 114.265 45.91C115.789 44.9716 116.609 46.4709 117.311 47.6504C117.757 48.3889 118.149 49.1596 118.483 49.9563C118.943 51.0692 118.58 52.0401 117.943 53.0228C117.267 54.0588 116.564 55.1081 115.68 55.9828C115.251 56.409 114.773 56.7228 114.297 57.0854C113.821 57.448 114.004 57.6345 113.678 58.0548C113.494 58.2886 113.349 58.5639 113.122 58.7593C112.716 59.1115 112.178 58.9857 111.697 58.9221C111.593 58.919 111.492 58.8872 111.404 58.8303C111.273 58.7139 111.181 58.5585 111.142 58.3863C111.105 58.2866 111.078 58.1835 111.061 58.0785Z" fill="#EAC1A4"/>
<path d="M117.093 48.2896L114.694 50.2373C114.745 50.1958 111.555 46.7533 111.372 46.5373C110.673 45.7307 109.956 44.8885 109.654 43.8614C109.013 41.6666 111.335 39.7766 113.281 41.0983C115.393 42.5324 117.14 44.9033 117.96 47.3291C117.982 47.3803 117.991 47.4363 117.985 47.4919C117.962 47.5653 117.913 47.6282 117.849 47.6695L117.093 48.2896Z" fill="url(#paint4_linear)"/>
<path opacity="0.49" d="M78.5963 19.6897C78.5963 19.6771 78.5963 19.6645 78.5963 19.6533L78.6173 19.6729L78.5963 19.6897Z" fill="#808080"/>
<path d="M38.5391 35.1146C38.5611 35.0968 38.5831 35.0761 38.608 35.0509C38.7243 34.9274 38.8112 34.7786 38.8619 34.616C38.9127 34.4534 38.9261 34.2812 38.901 34.1126L38.2885 33.9646C38.182 34.1984 38.0396 34.4137 37.8665 34.6025C37.854 34.6287 37.8341 34.6506 37.8094 34.6655C37.7846 34.6804 37.7561 34.6875 37.7273 34.6861C37.6985 34.6847 37.6708 34.6747 37.6476 34.6575C37.6244 34.6403 37.6068 34.6165 37.5969 34.5892C37.1257 33.9402 36.9062 33.1394 36.9799 32.3381C36.9799 32.3855 36.4246 32.2597 36.3748 32.2434C36.2854 32.1999 36.1875 32.1772 36.0883 32.1772C35.9891 32.1772 35.8911 32.1999 35.8018 32.2434C35.7619 32.2516 35.7234 32.2656 35.6875 32.2848L35.308 32.421C35.2658 32.4266 35.2252 32.441 35.1887 32.4631C35.1523 32.4852 35.1207 32.5147 35.096 32.5497C35.0712 32.5846 35.0539 32.6243 35.045 32.6664C35.0361 32.7084 35.0358 32.7518 35.0442 32.7939C35.0442 33.5418 35.0442 34.2892 35.0442 35.0361C35.0381 35.1298 35.05 35.2238 35.0794 35.3129C35.1246 35.4064 35.1908 35.488 35.2728 35.5512C35.6304 35.8643 36.0376 36.1145 36.4773 36.2912C36.5599 36.3159 36.635 36.3612 36.6957 36.4229C36.7343 36.4779 36.7613 36.5404 36.7748 36.6064L37.1148 37.8466C37.634 37.6696 38.1786 37.5801 38.7267 37.5817C38.806 37.0124 38.7394 36.432 38.5332 35.896C38.451 35.7369 38.4012 35.5628 38.3867 35.3839C38.3858 35.3293 38.3994 35.2755 38.4262 35.2281C38.4531 35.1807 38.492 35.1415 38.5391 35.1146Z" fill="#EACDB0"/>
<path d="M36.3234 36.5058L38.8746 36.084L41.4756 43.2753L47.6214 42.2171L46.2835 50.4903L38.4658 45.7617L36.3234 36.5058Z" fill="url(#paint5_linear)"/>
<path d="M78.4393 77.5728L78.5331 83.3033C78.495 84.8928 78.6372 86.4779 78.7324 88.063C78.8218 89.5356 78.5273 91.0526 79.2189 92.4156C79.4358 92.8433 79.8974 93.1408 80.2447 92.6465C80.5158 92.2661 80.3912 91.6105 80.4571 91.1665C80.9598 87.8454 81.8947 84.6057 82.3621 81.2772C82.8516 77.7888 81.5166 77.8821 78.4393 77.5728Z" fill="#EACDB0"/>
<path d="M78.7618 91.4361L78.3969 92.3922L80.192 93.9876L81.8361 94.0557L82.368 93.1796L80.1553 91.2378L78.7618 91.4361Z" fill="#1A3151"/>
<path d="M74.4199 77.6276L73.3853 83.262C73.0263 85.778 72.213 88.2377 71.8525 90.7582C71.7705 91.3383 71.8115 91.9718 71.5712 92.5179C71.3309 93.064 70.8766 93.0744 70.4722 92.7103C69.9285 92.2248 70.1791 91.3561 70.1894 90.6916C70.2553 86.2678 69.9109 81.9063 69.8289 77.4752C69.8242 77.4466 69.8259 77.4173 69.8337 77.3894C69.8416 77.3615 69.8554 77.3357 69.8743 77.3139C69.9143 77.2882 69.9625 77.2787 70.0091 77.2872C70.4355 77.3198 74.3979 77.7505 74.4199 77.6276Z" fill="#EACDB0"/>
<path d="M70.1762 91.6714L69.6077 92.5194L70.9998 94.4819L72.5868 94.9244L73.3004 94.1918L71.58 91.7957L70.1762 91.6714Z" fill="#1A3151"/>
<path d="M84.2861 81.2182L83.5124 73.0264L83.1388 67.7028L81.8844 63.3561L75.1071 62.2935L66.7282 63.7439L66.3252 65.3881L67.9386 80.6069L76.02 81.2182L75.9101 71.7462L77.1572 77.6174L77.1029 81.2182H84.2861Z" fill="#1A3151"/>
<path d="M68.5071 47.3501C68.4954 47.6264 68.4876 47.9026 68.4837 48.1789C68.3855 53.8029 68.6918 59.489 68.7269 65.1545C71.6011 64.7003 74.5033 64.45 77.4121 64.4056C78.0847 64.3952 81.1459 64.8733 81.5708 64.4663C82.1497 63.9157 81.5137 64.0223 81.5562 63.3015C81.6104 62.3736 81.1693 61.6128 81.3364 60.5132C81.5327 59.2197 81.9225 57.941 82.1467 56.6489C82.5976 54.0565 82.8684 51.4355 82.9571 48.8049C83.0347 46.4725 82.9571 44.0527 81.9577 41.9451C79.5076 36.7474 71.6108 36.8406 69.4435 42.2678C68.8017 43.8721 68.5789 45.6126 68.5071 47.3501Z" fill="white"/>
<path d="M85.4086 35.5454C86.238 34.4295 86.5882 33.2292 86.9267 31.7226C87.1788 30.6022 87.3868 29.4685 87.5905 28.3378C87.7418 27.6324 87.8296 26.9147 87.8528 26.1933C87.8528 25.5658 88.1943 24.6926 87.6418 24.1983C87.6717 24.1372 87.7144 24.0835 87.7668 24.0408C87.8193 23.9982 87.8804 23.9675 87.9458 23.951C88.0112 23.9346 88.0793 23.9326 88.1455 23.9454C88.2117 23.9582 88.2743 23.9854 88.3291 24.0251C88.3591 24.0565 88.3956 24.0807 88.436 24.0961C88.4728 24.0995 88.5098 24.0919 88.5423 24.0743C88.5749 24.0566 88.6016 24.0298 88.6192 23.997C88.7438 23.8194 88.757 23.59 88.7995 23.3769C88.8683 23.0335 88.9856 22.477 89.2391 22.2284C89.4546 22.0404 89.7031 21.8948 89.9718 21.7992C89.9919 21.7848 90.0147 21.7747 90.0389 21.7695C90.063 21.7644 90.088 21.7643 90.1122 21.7693C90.1363 21.7743 90.1592 21.7843 90.1794 21.7986C90.1997 21.8129 90.2168 21.8312 90.2297 21.8525C90.5218 22.1511 90.7963 22.4669 91.0517 22.7982C90.6869 23.1134 90.6282 23.5752 90.4231 23.9911C90.1535 24.5372 89.8194 24.9708 89.7813 25.6087C89.7226 26.6003 89.7402 27.5963 89.6684 28.5894C89.5219 30.5297 89.2698 32.4581 89.0222 34.3866C88.8551 35.6638 88.6837 36.9706 88.1811 38.1665C87.6785 39.3623 86.9692 40.055 86.0123 40.8926C85.803 41.1008 85.5536 41.2635 85.2796 41.3707C84.8591 41.5053 84.3916 41.3633 84.0238 41.1146C83.5462 40.771 83.2046 40.2676 83.0598 39.6937C82.9149 39.1198 82.9761 38.5126 83.2325 37.98C83.5256 37.4191 84.0136 36.9973 84.4766 36.5696C84.8181 36.2581 85.1301 35.9153 85.4086 35.5454Z" fill="#EACDB0"/>
<path d="M77.4195 40.0579L75.2742 44.0065L75.6127 55.9723L75.7593 61.4852C75.7769 62.1231 75.793 62.7625 75.8135 63.4004C75.8223 63.6875 75.7446 64.1685 75.9058 64.4023C76.2575 64.91 77.5412 64.7516 78.1039 64.796C78.9831 64.8656 79.8623 64.944 80.6858 65.24C81.2339 65.4428 81.7526 65.7476 82.33 65.832C82.3937 65.8477 82.4598 65.8503 82.5245 65.8396C82.5892 65.829 82.6511 65.8052 82.7066 65.7698C82.7566 65.7156 82.7954 65.6518 82.8206 65.5821C82.8458 65.5124 82.8568 65.4384 82.8531 65.3643C83.0539 62.6263 83.0583 59.804 83.2077 57.0364C83.3308 54.772 83.6473 52.3788 83.4495 50.11C83.4495 50.0715 83.4495 50.0345 83.4363 49.9975C83.237 48.9068 83.4363 45.303 83.4363 45.303C83.4451 45.155 83.958 44.7583 84.0576 44.6547L85.5889 43.0652C86.6074 42.0026 88.5724 40.6972 87.787 38.973C87.6841 38.767 87.5495 38.5787 87.3884 38.4151C86.2352 37.1674 84.7595 36.4674 83.9345 34.9312C82.4897 35.6504 81.3115 37.0742 79.7744 37.6662C78.9869 37.9904 78.1198 38.0623 77.2906 37.8719C76.7982 37.7505 75.7387 37.3628 76.004 38.347C76.1534 38.9035 77.0429 39.6065 77.4195 40.0579Z" fill="url(#paint6_linear)"/>
<path d="M72.7523 40.4293L74.8975 44.378C74.8521 44.378 74.625 54.0557 74.6045 54.7098L74.3978 62.1572C74.3788 62.8483 74.4696 63.6564 74.3363 64.3357C74.1502 65.2829 73.164 65.0964 72.32 65.1734C70.4795 65.3406 68.5408 65.6588 66.6945 65.5641C66.1625 65.5375 66.863 54.3161 66.8615 53.2654C66.8615 49.4988 66.0878 45.3192 67.9825 41.9019C68.5335 40.9074 69.505 39.3149 70.5777 38.8235C71.577 38.3662 73.0087 38.2878 74.0945 38.0317L74.1517 38.7421L72.7523 40.4293Z" fill="url(#paint7_linear)"/>
<path d="M77.4078 30.8658C77.7367 31.4722 77.9185 32.1488 77.9382 32.8401C77.9455 33.0236 77.9587 33.2337 78.1053 33.3418C78.2518 33.4498 78.1243 33.7103 78.243 33.5564C78.3617 33.4025 78.7662 32.8652 78.7852 32.6684C78.8285 32.2111 78.8285 31.7507 78.7852 31.2935C78.7471 30.8968 78.6665 30.481 78.4086 30.1776C78.2466 30.0061 78.0586 29.8618 77.8518 29.7498C77.5708 29.5555 77.2577 29.4136 76.9271 29.331C76.3512 29.223 75.9981 29.4316 76.5066 29.8372C76.8704 30.1175 77.1765 30.4669 77.4078 30.8658Z" fill="#1A3151"/>
<path d="M73.8103 38.6655C73.8103 38.9467 73.7575 39.2382 74.0022 39.4572C74.1296 39.5555 74.2821 39.6151 74.4418 39.6289C74.8451 39.6932 75.2575 39.6638 75.6478 39.5431C75.8103 39.5006 75.9608 39.4206 76.0874 39.3092C76.1441 39.2513 76.1876 39.1816 76.2147 39.1048C76.2418 39.0281 76.2519 38.9463 76.2442 38.8653C76.2515 38.6536 76.294 38.4375 76.3219 38.2229C76.382 37.7523 76.4083 37.2787 76.423 36.8036C77.1132 36.6837 77.925 36.4588 78.1609 35.7291C78.2238 35.4929 78.2505 35.2483 78.2401 35.0039L78.2503 31.9655C78.2734 31.616 78.2342 31.2651 78.1345 30.9295C77.9265 30.3597 77.4019 30.0208 76.8787 29.8062C75.5599 29.2616 74.0139 29.2823 72.7918 30.0578C72.4508 30.2571 72.1682 30.5441 71.9727 30.8895C71.6796 31.4445 71.7206 32.1313 71.7646 32.7721L71.8892 34.5481C71.936 35.2289 72.0357 36.0118 72.5618 36.3715C72.8402 36.5624 73.1992 36.5979 73.441 36.8436C73.8586 37.2743 73.6593 37.9181 73.7839 38.4405C73.8008 38.5143 73.8097 38.5897 73.8103 38.6655Z" fill="#EACDB0"/>
<path d="M78.4761 34.5941C78.4644 34.4061 78.3838 33.8541 78.1039 34.2019C78.0372 34.3018 78.0038 34.4205 78.0086 34.5408C78.0131 34.6609 78.0008 34.781 77.972 34.8975C77.8855 35.158 77.6013 35.2749 77.3478 35.2705C77.2458 35.2725 77.1451 35.2485 77.0547 35.2009C76.9695 35.1448 76.8943 35.0748 76.832 34.9937L76.3455 34.4284C76.0656 34.1042 75.5102 34.2448 75.1336 34.2937C74.6894 34.3357 74.2654 34.5012 73.9086 34.7717L73.8031 34.862C73.7214 34.9391 73.6303 35.0052 73.532 35.0588C73.1964 35.2246 72.7802 35.0588 72.5458 34.7436C72.4373 34.5956 72.3377 34.4195 72.1706 34.3958C72.103 34.3931 72.036 34.4106 71.9782 34.4462C71.9203 34.4817 71.8741 34.5337 71.8453 34.5956C71.7848 34.7253 71.7528 34.8666 71.7516 35.01C71.7077 35.5324 71.7981 36.0575 72.0139 36.5344C72.5004 37.5393 73.4396 37.6621 74.3848 37.6399L75.5043 37.6133C76.1872 37.597 76.9082 37.5689 77.484 37.1693C77.9911 36.8156 78.2929 36.2147 78.416 35.5857C78.4778 35.2591 78.498 34.9259 78.4761 34.5941ZM75.985 36.0179C75.8158 36.1292 75.6233 36.1995 75.4227 36.2231C75.2221 36.2467 75.0188 36.2231 74.8288 36.154C74.6588 36.1022 74.7306 35.8136 74.9021 35.858C75.0567 35.9168 75.2229 35.9379 75.3871 35.9197C75.5513 35.9014 75.709 35.8443 75.8472 35.7529C75.9908 35.6582 76.1286 35.9157 75.9791 36.0179H75.985Z" fill="#1A3151"/>
<path d="M78.6182 29.1135C78.6841 28.8706 78.7331 28.6233 78.7647 28.3735C78.5324 28.4552 78.2835 28.4766 78.0408 28.4356V27.999C78.0408 27.8777 76.4201 27.7933 76.2824 27.783C75.05 27.6808 73.9232 27.5832 72.8095 28.2521C71.857 28.8234 71.2474 29.6744 71.1009 30.7844C70.9543 31.8441 71.3045 33.2279 71.9112 34.107C71.9112 33.8243 71.7471 33.1598 71.813 32.8919C71.8557 32.6233 71.9434 32.3641 72.0724 32.1253C72.3329 31.6472 72.7116 31.2455 73.1714 30.959C73.9059 30.5197 74.7237 30.2414 75.5717 30.1421C76.3395 30.034 77.2759 29.9349 78.035 30.1421C78.3998 30.2412 78.4599 30.333 78.6812 29.9615C78.8064 29.6922 78.9127 29.4142 78.9992 29.1298L78.6182 29.1135Z" fill="#1A3151"/>
<path d="M99.9889 42.133L104.794 13.4655C104.811 13.3672 104.791 13.266 104.737 13.1824C104.683 13.0988 104.599 13.0391 104.503 13.0155C104.407 12.9919 104.306 13.0062 104.22 13.0554C104.134 13.1047 104.07 13.1851 104.041 13.2805L97.9741 34.7005L98.6701 41.9806L99.9889 42.133Z" fill="#E1E1E5"/>
<path d="M102.149 46.4562H102.142C101.38 46.2017 100.889 44.3842 100.676 43.4207L100.561 42.8287L100.304 41.5264L98.2672 41.2896L97.199 50.2983V50.3175C97.1048 51.1735 97.2622 52.0385 97.6514 52.8048C98.0406 53.5711 98.6444 54.2048 99.3877 54.627C100.131 55.0491 100.981 55.241 101.831 55.1787C102.682 55.1164 103.495 54.8028 104.171 54.2768C104.846 53.7508 105.353 53.0358 105.629 52.2208C105.904 51.4059 105.937 50.5269 105.721 49.6936C105.506 48.8603 105.052 48.1094 104.417 47.5345C103.782 46.9596 102.994 46.5862 102.15 46.4607L102.149 46.4562ZM101.183 53.6031C100.636 53.5407 100.118 53.3154 99.6975 52.9558C99.2766 52.5962 98.9709 52.1185 98.8191 51.5832C98.6673 51.048 98.6762 50.4792 98.8448 49.9491C99.0133 49.419 99.3339 48.9513 99.7659 48.6054C100.198 48.2595 100.722 48.0509 101.271 48.006C101.821 47.9612 102.371 48.0821 102.852 48.3534C103.334 48.6247 103.725 49.0343 103.975 49.5302C104.226 50.0261 104.325 50.586 104.261 51.1389C104.221 51.5057 104.109 51.8608 103.932 52.1838C103.755 52.5067 103.517 52.791 103.231 53.0201C102.944 53.2493 102.616 53.4189 102.264 53.5189C101.912 53.619 101.545 53.6476 101.182 53.6031H101.183Z" fill="#145566"/>
<path d="M94.3459 39.2484L113.237 17.3016C113.301 17.2232 113.392 17.1728 113.492 17.1609C113.592 17.149 113.692 17.1766 113.772 17.2379C113.852 17.2992 113.906 17.3893 113.921 17.4895C113.937 17.5897 113.913 17.6921 113.856 17.7752L101.312 36.1094L95.3042 40.1853L94.3459 39.2484Z" fill="#E1E1E5"/>
<path d="M83.6077 40.5215C83.2114 40.936 82.8998 41.4254 82.6908 41.9616C82.4817 42.4977 82.3792 43.0703 82.3892 43.6464C82.3992 44.2226 82.5215 44.7912 82.749 45.3196C82.9766 45.8481 83.305 46.3261 83.7154 46.7264C84.1259 47.1266 84.6104 47.4413 85.1413 47.6525C85.6722 47.8637 86.239 47.9672 86.8095 47.9571C87.38 47.9469 87.9429 47.8235 88.4661 47.5936C88.9894 47.3638 89.4626 47.0321 89.859 46.6176L89.8692 46.6057L96.0868 40.0553L94.6097 38.6152L93.4506 39.2428L92.9274 39.5254C92.0599 39.9694 90.3543 40.7435 89.6758 40.3098C88.8376 39.5372 87.7332 39.1267 86.599 39.1663C85.4649 39.2058 84.3912 39.6923 83.6077 40.5215ZM84.7449 41.63C85.1259 41.2352 85.6142 40.9631 86.1481 40.8481C86.6821 40.7331 87.2378 40.7803 87.7452 40.9837C88.2526 41.1872 88.689 41.5378 88.9995 41.9914C89.3099 42.445 89.4805 42.9812 89.4896 43.5325C89.4988 44.0838 89.3462 44.6256 89.051 45.0894C88.7558 45.5532 88.3313 45.9185 87.8309 46.139C87.3306 46.3596 86.7768 46.4256 86.2393 46.3288C85.7018 46.2319 85.2048 45.9766 84.8108 45.5949C84.5469 45.34 84.3357 45.0348 84.1894 44.697C84.043 44.3592 83.9644 43.9954 83.9582 43.6267C83.9519 43.2579 84.0181 42.8916 84.1528 42.5489C84.2876 42.2062 84.4883 41.8939 84.7434 41.63H84.7449Z" fill="#145566"/>
<path d="M100.245 35.4197C100.276 35.314 100.275 35.2015 100.242 35.0964C100.21 34.9913 100.147 34.8983 100.062 34.829C99.9776 34.7598 99.8744 34.7175 99.7658 34.7074C99.6572 34.6973 99.5481 34.7199 99.4522 34.7724C99.3563 34.8248 99.2779 34.9047 99.2269 35.0021C99.1759 35.0994 99.1546 35.2098 99.1656 35.3194C99.1766 35.429 99.2195 35.5328 99.2888 35.6178C99.3582 35.7028 99.4509 35.7652 99.5553 35.7971C99.6251 35.8184 99.6984 35.8256 99.771 35.8181C99.8436 35.8107 99.9141 35.7888 99.9782 35.7537C100.042 35.7186 100.099 35.671 100.145 35.6137C100.191 35.5564 100.225 35.4904 100.245 35.4197Z" fill="#7F7F7F"/>
<path d="M23.857 9.60038L16.7371 15.5029L33.4878 36.1139L40.6077 30.2113L23.857 9.60038Z" fill="#F2F2F2"/>
<path d="M23.5045 10.7363L17.6801 15.5493L22.4455 21.4319L28.2699 16.6189L23.5045 10.7363Z" fill="#E2F2EB"/>
<path d="M28.8225 17.3417L22.998 22.1548L27.7635 28.0374L33.5879 23.2243L28.8225 17.3417Z" fill="#C5E2D4"/>
<path d="M34.3727 23.8497L28.5259 28.6968L33.3251 34.602L39.1719 29.7548L34.3727 23.8497Z" fill="#B5D6CA"/>
<path d="M33.7011 5.8802L25.0001 8.93359L33.6652 34.1216L42.3662 31.0682L33.7011 5.8802Z" fill="#F2F2F2"/>
<path opacity="0.5" d="M33.1423 6.78897L25.9971 9.29639L28.4797 16.5129L35.6249 14.0055L33.1423 6.78897Z" fill="#F9D478"/>
<path d="M35.9174 14.8559L28.7722 17.3633L31.2548 24.5798L38.4 22.0724L35.9174 14.8559Z" fill="#F9D478"/>
<path d="M38.5449 22.7323L31.4346 25.2534L33.9308 32.4348L41.0411 29.9137L38.5449 22.7323Z" fill="#F7BE3E"/>
<path d="M44.1709 6.92025L34.9632 6.66211L34.2306 33.317L43.4384 33.5751L44.1709 6.92025Z" fill="#F2F2F2"/>
<path opacity="0.4" d="M43.329 7.57136L35.7676 7.35938L35.5578 14.9962L43.1191 15.2082L43.329 7.57136Z" fill="#3ABABA"/>
<path opacity="0.6" d="M43.096 16.107L35.5347 15.895L35.3248 23.5318L42.8861 23.7438L43.096 16.107Z" fill="#3ABABA"/>
<path d="M42.8601 24.6412L35.2988 24.4292L35.0889 32.066L42.6502 32.278L42.8601 24.6412Z" fill="#3ABABA"/>
<path d="M8.71446 42.2201C8.75229 42.2176 8.79029 42.2206 8.82729 42.229C9.15553 42.3207 9.2669 42.5679 9.55997 42.7455C9.68892 42.8254 10.0406 42.6537 10.0494 42.9734C10.0494 43.0918 10.0201 43.3819 10.0245 43.6335C10.0245 44.0005 10.2589 44.4623 10.5066 44.7938C10.8375 45.2533 11.2014 45.6876 11.5954 46.0932C12.4556 46.9371 13.391 47.6991 14.3898 48.3695C14.964 47.5945 15.7364 46.9921 16.624 46.6271C17.5115 46.262 18.4808 46.1481 19.4277 46.2975C19.6269 46.3195 19.8176 46.3906 19.9831 46.5047C20.1122 46.616 20.2127 46.7571 20.2762 46.9161C21.0088 48.5589 19.4394 49.1924 18.1924 49.7562C17.4116 50.1116 16.6059 50.4084 15.7819 50.6442C14.6316 50.9698 13.7216 50.4859 12.8336 49.7266C11.8928 48.9215 10.9535 48.0883 10.1959 47.0952C9.8296 46.6127 9.58049 46.0947 9.28302 45.5738C8.98555 45.0528 8.77747 45.22 8.4038 44.8338C8.19572 44.6192 7.94368 44.4401 7.77955 44.19C7.48648 43.746 7.67258 43.2161 7.79421 42.7425C7.80998 42.6385 7.85355 42.5407 7.92023 42.4598C8.0516 42.3415 8.21685 42.2684 8.39208 42.2512C8.49823 42.2299 8.60624 42.2195 8.71446 42.2201Z" fill="#EAC1A4"/>
<path d="M17.898 50.847C17.2723 51.0557 16.6509 51.2333 16.0443 51.3798C15.1402 51.5989 14.151 51.8105 13.3143 51.4006C13.001 51.2273 12.7121 51.0123 12.4556 50.7612C11.1856 49.6265 9.94056 48.4603 8.7204 47.2625C9.1735 46.4846 9.74068 45.7805 10.4026 45.1742C10.5887 45.004 10.8012 44.8338 11.0503 44.8249C11.4225 44.8101 11.7039 45.1431 11.9295 45.445L13.0095 46.925C13.1267 47.0849 13.2616 47.2566 13.4491 47.2906C13.5774 47.3024 13.7065 47.281 13.8243 47.2284C16.1132 46.4174 17.8599 45.2926 19.8542 43.9295C20.7334 43.3287 21.6478 42.713 22.6941 42.5369C24.9302 42.1624 26.504 44.7228 24.9639 46.5106C23.2084 48.5412 20.5268 49.9709 17.898 50.847Z" fill="#138559"/>
<path d="M28.3577 92.9946L28.3225 94.0868L26.123 95.1095L25.0767 93.9818L26.1933 92.9236L28.3928 91.9009L28.3577 92.9946Z" fill="#1A3151"/>
<path d="M32.8168 60.1117L32.7098 63.4313L27.8668 77.6719L28.4822 92.645L26.3223 93.0091L21.9291 74.7089L22.2691 69.3424L24.6445 58.4541L32.8168 60.1117Z" fill="#0A687D"/>
<path d="M19.1289 60.6416L16.3799 74.3227L15.5974 92.4941L17.5653 92.873L21.8896 76.8002L27.6631 61.0072L19.1289 60.6416Z" fill="#145566"/>
<path d="M17.599 92.6351L17.3954 93.7095L15.0654 94.3726L14.2053 93.0939L15.4713 92.2251L17.599 92.6351Z" fill="#1A3151"/>
<path d="M34.5474 62.0362C34.5753 63.309 34.5357 65.0258 34.0507 65.0894C33.9593 65.0913 33.8697 65.0644 33.7942 65.0125C32.956 64.5507 32.364 63.901 31.5376 63.454C30.6715 62.9863 29.6824 62.7377 28.7109 62.566C27.254 62.2918 25.7774 62.1378 24.2957 62.1057C23.1305 62.106 21.966 62.1653 20.8067 62.2833C19.844 62.3647 18.9472 62.6533 17.9654 62.5793C16.9545 62.5105 15.9748 62.1968 15.1094 61.6647C15.0758 61.6483 15.0486 61.6213 15.0317 61.5877C15.0222 61.5479 15.0269 61.506 15.0449 61.4694C15.2501 60.901 15.3981 60.3372 15.7776 59.8665C16.1937 59.3411 16.4897 58.6722 16.7916 58.0742C17.4377 56.8226 17.9916 55.5246 18.4489 54.1907C19.1113 52.3836 19.8689 50.6239 20.5092 48.8124C20.9488 47.5559 21.3591 46.2772 21.9614 45.0858C22.4333 44.1534 23.2802 42.7903 24.2869 42.3803C24.6381 42.2618 25.0071 42.2067 25.3772 42.2175L28.7387 42.1199C29.1475 42.108 29.5725 42.0991 29.9447 42.2679C30.503 42.5224 30.8239 43.1144 31.0936 43.6665C32.3107 46.1568 33.1415 48.8213 33.5568 51.5667C33.7869 53.0038 33.9964 54.4438 34.1664 55.8898C34.3511 57.503 34.4785 59.1236 34.5049 60.7471C34.5064 60.9262 34.5342 61.4309 34.5474 62.0362Z" fill="url(#paint8_radial)"/>
<path d="M27.0726 48.38C27.0525 49.0244 27.0991 49.6693 27.2118 50.3039L28.8676 61.9249L19.8425 61.845L20.1692 57.4893C20.218 56.5568 20.3296 55.6286 20.5033 54.7114C20.8169 53.2314 21.447 51.8505 22.0727 50.4771L25.5383 42.8625C25.5859 42.701 25.6836 42.5592 25.8172 42.4582C25.9507 42.3572 26.1129 42.3023 26.2798 42.3016C27.14 42.1536 28.1115 42.0234 28.9746 42.1536C29.19 42.9484 28.3885 44.3292 28.0954 45.0692C27.6616 46.1407 27.1488 47.2093 27.0726 48.38Z" fill="white"/>
<path d="M26.523 42.8523L28.3943 42.7709C28.4277 42.269 28.4213 41.7652 28.3752 41.2643C28.3752 41.325 29.379 40.7937 29.4669 40.6723C29.7204 40.326 29.7512 39.7429 29.8567 39.3299C30.0824 38.4508 30.2963 37.4607 29.8333 36.6808C29.357 35.8727 28.3254 35.5959 27.3949 35.5708C26.2226 35.5397 24.9214 35.8845 24.3177 36.9027C23.7755 37.8174 24.4642 39.1671 24.6547 40.1351C24.7514 40.6116 24.8979 41.1563 25.3376 41.3575C25.5705 41.4641 25.8534 41.4523 26.0614 41.6032C26.4234 41.8637 26.3413 42.432 26.523 42.8523Z" fill="#EACDB0"/>
<path d="M22.4713 35.1489L22.2632 33.1909C22.22 32.9501 22.229 32.7026 22.2896 32.4657C22.4186 32.0824 22.8039 31.8426 23.1923 31.736C23.5806 31.6295 23.988 31.6265 24.3792 31.5392C24.7968 31.446 25.2042 31.258 25.6321 31.2773C26.4454 31.3128 27.0696 32.0764 27.8741 32.2052C28.9878 32.3843 30.0106 31.8692 30.6832 33.1938C30.8063 33.4366 30.8415 33.7178 30.9499 33.9679C31.0964 34.2905 31.347 34.5466 31.5478 34.8352C32.427 36.108 32.1442 38.0393 31.0759 39.1183C30.5586 39.6407 30.3432 40.1143 29.634 40.2815C29.9608 39.6111 29.53 36.9397 28.6346 36.6408C28.3972 36.5608 27.6865 36.8539 27.4242 36.8924C26.8454 36.9565 26.2768 37.0937 25.7317 37.3008C24.914 37.6516 24.0466 37.8699 23.1615 37.9476C23.1088 37.9664 23.0522 37.9713 22.9972 37.9616C22.9421 37.9519 22.8904 37.9281 22.8471 37.8924C22.8038 37.8567 22.7704 37.8104 22.75 37.7578C22.7296 37.7053 22.7229 37.6483 22.7307 37.5924L22.4713 35.1489Z" fill="#1A3151"/>
<path d="M16.9591 42.3417L15.9152 41.7378L13.2345 46.4653L14.2785 47.0691L16.9591 42.3417Z" fill="#8B8D96"/>
<path d="M14.4719 41.8488L13.6879 43.2311L13.3846 43.7669L12.6006 45.1492L13.2381 46.4664L14.4265 44.3692L14.7298 43.8349L15.9182 41.7378L14.4719 41.8488Z" fill="#E1E1E5"/>
<path d="M34.1093 49.9384L20.1883 41.8887L17.1917 41.9301L15.9095 44.1915L15.3233 45.2187L14.0411 47.4801L15.4787 51.0898C15.921 52.1994 16.7077 53.1341 17.7207 53.7538L21.8076 56.255C22.0915 56.4287 22.3167 56.685 22.4537 56.9904C22.5908 57.2957 22.6332 57.6357 22.5754 57.9659L21.069 66.6076C20.9892 67.0672 21.0521 67.5405 21.2491 67.9626C21.4462 68.3847 21.7676 68.7349 22.1695 68.9652L23.4576 69.7052C23.7694 69.8858 24.1198 69.9879 24.4789 70.0029C24.8381 70.0179 25.1956 69.9453 25.5212 69.7913C25.8467 69.6373 26.1307 69.4063 26.3493 69.118C26.5678 68.8297 26.7144 68.4925 26.7766 68.1349L27.9987 61.1257C28.0187 61.0173 28.0614 60.9145 28.124 60.8242C28.1866 60.7339 28.2676 60.6581 28.3616 60.602C28.4556 60.546 28.5603 60.5109 28.6689 60.4991C28.7774 60.4873 28.8871 60.4991 28.9908 60.5337C29.8084 60.7927 31.0745 60.8297 32.0021 59.1913L33.1671 57.1371L33.8528 55.9279L34.1459 55.4144L34.439 54.9008L35.1248 53.6916C35.4825 53.0578 35.5765 52.3065 35.3861 51.6028C35.1957 50.899 34.7364 50.3004 34.1093 49.9384Z" fill="#F7BE3E"/>
<path d="M11.8895 43.5625L13.1051 44.2656L13.947 42.781L12.7313 42.0778L11.8895 43.5625Z" fill="#8B8D96"/>
<path d="M-1.01367 35.7953L8.54742 41.3257L9.09361 40.3625L-0.467482 34.8321L-1.01367 35.7953Z" fill="#8B8D96"/>
<path opacity="0.1" d="M-0.874065 35.5429L-1.01971 35.7998L8.32648 41.2059L8.47213 40.949L-0.874065 35.5429Z" fill="#272525"/>
<path opacity="0.1" d="M12.0836 43.2162L11.8834 43.5693L13.0837 44.2637L13.284 43.9105L12.0836 43.2162Z" fill="#272525"/>
<path d="M-0.438155 36.3255L-1.1723 35.9007L0.260823 35.0571L0.986177 35.4878L-0.438155 36.3255Z" fill="#E1E1E5"/>
<path d="M1.01112 37.1634L0.276978 36.7386L1.7101 35.8965L2.43546 36.3257L1.01112 37.1634Z" fill="#E1E1E5"/>
<path d="M2.46028 38.0008L1.72614 37.576L3.15926 36.7339L3.88461 37.1646L2.46028 38.0008Z" fill="#E1E1E5"/>
<path d="M3.90956 38.8387L3.17542 38.4139L4.60854 37.5718L5.33389 38.0025L3.90956 38.8387Z" fill="#E1E1E5"/>
<path d="M5.35884 39.6775L4.62469 39.2528L6.05782 38.4106L6.78171 38.8398L5.35884 39.6775Z" fill="#E1E1E5"/>
<path d="M6.80806 40.5154L6.07391 40.0907L7.50704 39.2485L8.23093 39.6777L6.80806 40.5154Z" fill="#E1E1E5"/>
<path d="M8.25734 41.3528L7.52319 40.9281L8.95485 40.0859L9.6802 40.5166L8.25734 41.3528Z" fill="#E1E1E5"/>
<path d="M13.1927 41.255L10.5478 39.7251L8.73809 42.9166L11.383 44.4464L13.1927 41.255Z" fill="#E1E1E5"/>
<path d="M9.2347 39.605L8.70571 40.5374L8.50055 40.9L7.97156 41.8324L8.74087 42.9172L9.54389 41.5023L9.74758 41.1412L10.5506 39.7249L9.2347 39.605Z" fill="#8B8D96"/>
<path d="M23.8238 66.7319L24.7587 61.3892C24.8405 60.9217 24.7774 60.4401 24.5781 60.0102C24.3788 59.5803 24.0529 59.223 23.6451 58.9871L22.5197 58.3359L21.1202 66.3619L22.6896 67.2692C22.7963 67.3306 22.916 67.3652 23.0387 67.3702C23.1614 67.3751 23.2835 67.3502 23.3946 67.2975C23.5058 67.2449 23.6028 67.166 23.6775 67.0676C23.7522 66.9692 23.8024 66.854 23.8238 66.7319Z" fill="url(#paint9_linear)"/>
<path d="M19.7329 43.9458L19.3514 43.7251L17.0749 47.7398L17.4564 47.9604L19.7329 43.9458Z" fill="#145566"/>
<path d="M20.6464 44.476L20.265 44.2554L17.9885 48.2701L18.3699 48.4907L20.6464 44.476Z" fill="#145566"/>
<path d="M32.7086 51.4504L27.8422 48.6356C27.7109 48.5596 27.5435 48.6056 27.4682 48.7382L27.0998 49.3881C27.0245 49.5207 27.07 49.6898 27.2014 49.7658L32.0677 52.5806C32.1991 52.6566 32.3665 52.6106 32.4417 52.478L32.8102 51.8281C32.8854 51.6955 32.8399 51.5264 32.7086 51.4504Z" fill="#B5D6CA"/>
<path d="M33.4175 54.9939C33.4571 55.1419 33.4395 55.3417 33.2959 55.392C33.2056 55.4075 33.1128 55.3956 33.0292 55.358C32.861 55.3156 32.6836 55.3304 32.5246 55.4003C32.3656 55.4701 32.2339 55.5911 32.15 55.7443C31.9624 56.1084 32.0987 56.579 32.3859 56.8676C32.6913 57.1423 33.0719 57.3172 33.4776 57.3693C33.7282 57.4152 34.011 57.4315 34.2103 57.2731C34.309 57.1855 34.388 57.0775 34.4418 56.9564C34.751 56.354 35.0367 55.5563 34.5986 54.9421C34.2572 54.4611 33.1464 53.992 33.4175 54.9939Z" fill="#EACDB0"/>
<path d="M36.3248 55.1332C36.2786 55.0629 36.2251 54.9979 36.1651 54.9393C35.6669 54.4494 35.0104 53.964 34.2748 54.1208C34.3666 55.4894 34.0397 56.8534 33.3384 58.028C33.3052 58.0689 33.2809 58.1164 33.267 58.1674C33.2531 58.2184 33.25 58.2717 33.2578 58.324C33.3223 58.515 33.8982 58.7014 34.074 58.7251C34.8492 58.8317 35.6859 58.5135 36.0772 57.9644C36.2785 57.6423 36.4075 57.2796 36.4553 56.9018C36.5652 56.3423 36.656 55.6452 36.3248 55.1332Z" fill="#13795C"/>
<path d="M63.1865 74.8097C63.1876 74.7332 63.2037 74.6576 63.2338 74.5872C63.2638 74.5169 63.3073 74.4533 63.3618 74.4C63.4162 74.3467 63.4805 74.3047 63.551 74.2765C63.6215 74.2482 63.6968 74.2343 63.7726 74.2355L66.6682 74.348C66.8203 74.3586 66.9622 74.4297 67.0627 74.5456C67.1631 74.6615 67.2141 74.8129 67.2045 74.9666L67.1884 75.384L79.4784 75.862L84.6364 70.8049C84.6428 70.7983 84.6507 70.7932 84.6593 70.7902C84.6679 70.7871 84.6772 70.786 84.6862 70.7871L84.8225 67.2248C84.8665 66.0778 84.1543 65.1113 83.2414 65.0743L73.2769 64.6866L73.2242 66.0778C73.2037 66.6061 72.8476 67.0205 72.427 67.0042C72.0065 66.988 71.6826 66.5469 71.7031 66.0186L71.7559 64.6274L63.4502 64.3047L63.3931 65.7847C63.3813 66.3131 63.0297 66.7364 62.6091 66.729H62.5944C62.1812 66.7127 61.8618 66.285 61.8691 65.7625L61.9277 64.2411L56.2538 64.0206C56.014 64.0184 55.7771 64.0732 55.562 64.1803C55.347 64.2875 55.1598 64.4442 55.0156 64.6377L51.6453 67.8819L51.021 68.4739C50.7844 68.8434 50.6521 69.2712 50.6386 69.7112L50.4393 74.7372L63.1703 75.233L63.1865 74.8097Z" fill="#FFD559"/>
<path d="M79.4915 76.0367L67.1824 75.5572L67.1575 76.2055C67.1564 76.282 67.1403 76.3576 67.1102 76.4279C67.0802 76.4982 67.0367 76.5619 66.9822 76.6152C66.9278 76.6685 66.8635 76.7105 66.793 76.7387C66.7225 76.7669 66.6472 76.7809 66.5714 76.7797L63.6744 76.6613C63.5222 76.6507 63.3804 76.5796 63.2799 76.4637C63.1794 76.3478 63.1284 76.1964 63.138 76.0427L63.163 75.3944L50.4319 74.8986L50.026 85.5265C49.982 86.6735 50.6942 87.6414 51.6071 87.6769L78.5903 88.7277C78.9356 88.7367 79.2726 88.6201 79.5398 88.3991L79.7684 88.1816L83.3982 84.7421C83.484 84.6741 83.5639 84.5989 83.637 84.5171L83.6473 84.5053C83.9997 84.0929 84.1996 83.5699 84.2129 83.0253L84.673 70.9707L79.5369 76.0027C79.5326 76.0116 79.5262 76.0194 79.5183 76.0253C79.5104 76.0312 79.5012 76.0351 79.4915 76.0367Z" fill="#EBB044"/>
<path d="M84.7273 70.8182C84.7224 70.8096 84.7156 70.8022 84.7075 70.7966C84.6994 70.7909 84.6901 70.7872 84.6804 70.7856L84.673 70.981L84.7141 70.9396C84.7289 70.9235 84.7382 70.903 84.7406 70.8811C84.743 70.8592 84.7383 70.8372 84.7273 70.8182Z" fill="#D6952B"/>
<path d="M50.3674 74.8158C50.3644 74.8366 50.3697 74.8577 50.382 74.8746C50.3944 74.8915 50.4128 74.9028 50.4333 74.9061V74.7329C50.4142 74.7362 50.3969 74.7464 50.3847 74.7617C50.3726 74.7769 50.3664 74.7962 50.3674 74.8158Z" fill="#D6952B"/>
<path d="M84.6306 70.8051L79.4725 75.8623L67.1825 75.3843V75.5574L79.4915 76.0369C79.5 76.0371 79.5084 76.0354 79.5162 76.0321C79.524 76.0288 79.5311 76.0239 79.537 76.0177L84.6731 70.9857L84.6804 70.7903C84.6715 70.7889 84.6624 70.7895 84.6538 70.792C84.6452 70.7946 84.6372 70.7991 84.6306 70.8051Z" fill="#D6952B"/>
<path d="M50.4421 74.7357L50.4355 74.9087L63.1659 75.4049L63.1725 75.2319L50.4421 74.7357Z" fill="#D6952B"/>
<path d="M63.5117 62.6529C63.5351 62.0298 63.9513 61.5385 64.4539 61.5592L70.9572 61.8123C71.4525 61.8315 71.8364 62.354 71.813 62.977L71.75 64.6272L73.2725 64.6864L73.3355 63.0362C73.4 61.3594 72.3654 59.9534 71.0305 59.9016L64.5272 59.6411C63.1922 59.5893 62.0536 60.911 61.9892 62.5878L61.9261 64.238L63.4487 64.2972L63.5117 62.6529Z" fill="#145566"/>
<path d="M71.6973 66.0186C71.6768 66.547 72.0021 66.9881 72.4212 67.0043C72.8403 67.0206 73.1993 66.6062 73.2183 66.0778L73.2711 64.6866L71.7486 64.6274L71.6973 66.0186Z" fill="#145566"/>
<path d="M62.593 66.7334H62.6076C63.0282 66.7334 63.3784 66.3161 63.3916 65.7892L63.4488 64.3092L61.9262 64.25L61.8676 65.7714C61.8559 66.288 62.1797 66.7172 62.593 66.7334Z" fill="#145566"/>
<path d="M63.1381 76.0501C63.1285 76.2039 63.1795 76.3552 63.2799 76.4711C63.3804 76.587 63.5223 76.6581 63.6744 76.6687L66.57 76.7812C66.6458 76.7824 66.7212 76.7684 66.7916 76.7402C66.8621 76.712 66.9264 76.67 66.9809 76.6167C67.0353 76.5634 67.0788 76.4998 67.1089 76.4295C67.139 76.3591 67.155 76.2835 67.1562 76.207L67.1811 75.5587L63.1572 75.4004L63.1381 76.0501Z" fill="#145566"/>
<path d="M66.6637 74.3479L63.7682 74.2354C63.6923 74.2342 63.617 74.2482 63.5465 74.2764C63.476 74.3046 63.4117 74.3466 63.3573 74.3999C63.3029 74.4532 63.2594 74.5169 63.2293 74.5872C63.1992 74.6575 63.1832 74.7331 63.182 74.8097L63.1659 75.227L67.1781 75.3839L67.1942 74.9665C67.2039 74.8137 67.1537 74.6632 67.0544 74.5474C66.9552 74.4317 66.8148 74.36 66.6637 74.3479Z" fill="#145566"/>
<path d="M63.173 75.2322L63.1664 75.4053L67.18 75.5617L67.1866 75.3887L63.173 75.2322Z" fill="#145566"/>
<path d="M81.2902 20.064L83.9789 16.7709L91.8136 23.2961C92.2385 23.65 92.5068 24.1598 92.5594 24.7135C92.6121 25.2671 92.4449 25.8192 92.0945 26.2484L92.0479 26.3055C91.6976 26.7346 91.1928 27.0055 90.6446 27.0588C90.0964 27.112 89.5498 26.9431 89.1249 26.5892L81.2902 20.064Z" fill="#145566"/>
<path d="M79.5442 4.08669L68.1144 18.0756C67.6847 18.6013 67.0659 18.9331 66.394 18.9981C65.7221 19.063 65.0522 18.8558 64.5316 18.4219L63.6069 17.6509C63.0864 17.2169 62.7579 16.5919 62.6936 15.9133C62.6293 15.2347 62.8345 14.5581 63.264 14.0323L74.6939 0.0433365C75.1242 -0.481709 75.7433 -0.812669 76.4152 -0.876779C77.0871 -0.940889 77.7566 -0.732901 78.2767 -0.298543L79.2013 0.472536C79.7205 0.906404 80.0482 1.53052 80.1125 2.20802C80.1768 2.88553 79.9724 3.56113 79.5442 4.08669Z" fill="url(#paint10_diamond)"/>
<g opacity="0.1">
<path opacity="0.1" d="M68.3049 17.8433L79.3538 4.31905C80.3532 3.09657 80.2154 1.31466 79.0461 0.34082L64.3792 18.2932C65.5486 19.267 67.307 19.0657 68.3049 17.8433Z" fill="#272525"/>
</g>
<path d="M82.9395 18.0532L82.3446 18.7814L80.8792 17.5663C80.7725 17.479 80.6446 17.4221 80.5087 17.4018C80.3729 17.3815 80.2341 17.3985 80.1069 17.4509L68.4324 22.7685C68.1542 22.8866 67.8496 22.9264 67.5508 22.8837C67.252 22.8409 66.9703 22.7173 66.7355 22.5258L64.2195 20.4212C63.8788 20.1244 63.6683 19.7034 63.6339 19.2502C63.5996 18.7971 63.7443 18.3487 64.0363 18.0029L64.7324 18.5831C64.5979 18.7423 64.5315 18.949 64.5477 19.1576C64.5639 19.3663 64.6614 19.5599 64.8188 19.696L67.3422 21.7991C67.4488 21.8866 67.5767 21.9435 67.7126 21.9638C67.8485 21.9841 67.9873 21.9671 68.1144 21.9146L79.786 16.5999C80.0631 16.4836 80.366 16.4449 80.663 16.4876C80.96 16.5303 81.2402 16.6529 81.4741 16.8426L82.9395 18.0532Z" fill="#8B8D96"/>
<g opacity="0.1">
<path opacity="0.1" d="M90.341 27.0814C90.6707 27.0943 90.9988 27.0298 91.2997 26.893C91.6005 26.7561 91.8657 26.5506 92.0745 26.2926C92.252 26.0831 92.387 25.8403 92.4715 25.5782C92.5561 25.316 92.5887 25.0396 92.5675 24.7647C92.5463 24.4898 92.4716 24.2219 92.3478 23.9761C92.224 23.7304 92.0535 23.5117 91.8459 23.3326L85.6064 18.1289C85.6064 18.1289 92.3808 24.2428 90.341 27.0814Z" fill="#1A3151"/>
</g>
<path d="M91.1543 25.5202C91.3969 25.2233 91.3633 24.7907 91.0793 24.554C90.7953 24.3173 90.3684 24.3661 90.1258 24.663C89.8831 24.96 89.9167 25.3926 90.2007 25.6293C90.4847 25.866 90.9116 25.8172 91.1543 25.5202Z" fill="#B5D6CA"/>
<path d="M70.0325 45.0529C70.2713 45.3752 70.4046 45.7647 70.4138 46.1672C70.423 46.5696 70.3076 46.9649 70.0838 47.298L67.5648 51.0572C67.093 51.7602 66.3295 52.549 66.1229 53.3527C65.7581 54.775 65.8665 56.5169 65.8181 57.9806C65.7932 58.7206 65.6042 59.7359 65.8181 60.4493C65.8577 60.5825 66.586 61.6629 66.5596 61.6895L66.3471 61.9381L66.1039 61.7235L65.8767 61.7398L66.3882 62.5568L65.4313 63.0911L64.3293 62.4709C64.3674 61.6688 64.6121 60.8592 64.4583 60.06C64.3938 59.7226 64.2751 59.3985 64.1813 59.0669C64.0216 58.4986 63.9395 57.9125 63.8326 57.3324C63.7256 56.7522 63.5175 56.2283 63.4237 55.6748C63.2157 54.439 63.0149 53.2032 62.8112 51.9659L66.7955 45.2275C66.9608 44.9511 67.1905 44.7197 67.4646 44.5535C67.7387 44.3874 68.049 44.2915 68.3682 44.2743C68.6875 44.2571 69.006 44.319 69.2961 44.4547C69.5862 44.5904 69.8391 44.7958 70.0325 45.0529Z" fill="#EACDB0"/>
<path d="M73.2828 46.7077C71.9093 47.3015 70.685 48.1987 69.7 49.3332L69.6194 49.4635C68.9746 50.5306 68.7153 51.497 67.4213 51.1758C65.786 50.7733 64.7617 49.5123 62.8904 49.6736C63.5723 47.6303 64.4334 45.6526 65.4636 43.764C66.2066 42.4009 67.1459 40.2017 68.5511 39.3936C71.7134 37.5761 73.0293 40.7049 73.5553 43.1261L74.0829 45.5578C74.123 45.6975 74.1354 45.8438 74.1195 45.9884C74.0448 46.3673 73.633 46.5568 73.2828 46.7077Z" fill="url(#paint11_linear)"/>
<ellipse cx="73.6345" cy="32.1159" rx="0.366348" ry="0.444003" fill="#2B2A29"/>
<ellipse cx="76.5652" cy="32.1159" rx="0.366333" ry="0.444003" fill="#2B2A29"/>
<ellipse rx="0.29965" ry="0.360496" transform="matrix(0.789216 0.614115 -0.606474 0.795104 108.213 34.081)" fill="#2B2A29"/>
<ellipse rx="0.367662" ry="0.44243" transform="matrix(0.797698 0.603058 -0.595434 0.803404 109.975 34.9278)" fill="#2B2A29"/>
<ellipse cx="49.456" cy="37.0002" rx="0.366341" ry="0.444004" fill="#2B2A29"/>
<ellipse cx="51.2877" cy="36.6298" rx="0.293068" ry="0.370001" fill="#2B2A29"/>
<ellipse rx="0.369912" ry="0.439708" transform="matrix(0.148494 0.988913 -0.988472 0.151403 27.1537 38.1653)" fill="#2B2A29"/>
<ellipse rx="0.295884" ry="0.36648" transform="matrix(0.194862 0.980831 -0.980076 0.198621 25.0349 38.5471)" fill="#2B2A29"/>
<line x1="75.1516" y1="31.8198" x2="75.1516" y2="33.8918" stroke="white" stroke-width="0.25"/>
<line y1="-0.125" x2="1.2527" y2="-0.125" transform="matrix(0.498795 0.86672 -0.862382 0.506258 50.5357 36.605)" stroke="white" stroke-width="0.25"/>
<line x1="75.0266" y1="33.3921" x2="75.3196" y2="33.3921" stroke="white"/>
<line y1="-0.125" x2="0.328328" y2="-0.125" transform="matrix(0.892619 -0.450812 0.44363 0.89621 50.9946 37.8877)" stroke="white" stroke-width="0.25"/>
<line y1="-0.125" x2="1.34003" y2="-0.125" transform="matrix(-0.109352 0.994003 -0.993762 -0.111522 25.7904 38.332)" stroke="white" stroke-width="0.25"/>
<line x1="26.23" y1="40.0161" x2="25.7904" y2="40.0161" stroke="white"/>
<line y1="-0.125" x2="1.47065" y2="-0.125" transform="matrix(-0.797129 0.603809 -0.596188 -0.802845 109.316 34.188)" stroke="white" stroke-width="0.25"/>
<line y1="-0.125" x2="0.416546" y2="-0.125" transform="matrix(-0.703568 -0.710628 0.703568 -0.710628 108.583 35.3721)" stroke="white" stroke-width="0.25"/>
</g>
<defs>
<linearGradient id="paint0_linear" x1="57.3689" y1="41.8072" x2="48.7237" y2="62.9113" gradientUnits="userSpaceOnUse">
<stop stop-color="#13BF49"/>
<stop offset="1" stop-color="#145566"/>
</linearGradient>
<linearGradient id="paint1_linear" x1="49.8966" y1="41.6187" x2="49.8966" y2="65.9371" gradientUnits="userSpaceOnUse">
<stop stop-color="#13BF49"/>
<stop offset="1" stop-color="#145566"/>
</linearGradient>
<linearGradient id="paint2_linear" x1="107.338" y1="43.5119" x2="99.7664" y2="40.1639" gradientUnits="userSpaceOnUse">
<stop stop-color="#13BF49"/>
<stop offset="1" stop-color="#145566"/>
</linearGradient>
<radialGradient id="paint3_radial" cx="0" cy="0" r="1" gradientUnits="userSpaceOnUse" gradientTransform="translate(109.364 51.8563) rotate(90) scale(11.7255 25.0696)">
<stop stop-color="#145566"/>
<stop offset="1" stop-color="#13BF49"/>
</radialGradient>
<linearGradient id="paint4_linear" x1="113.766" y1="40.6606" x2="113.766" y2="50.2373" gradientUnits="userSpaceOnUse">
<stop stop-color="#13BF49"/>
<stop offset="1" stop-color="#145566"/>
</linearGradient>
<linearGradient id="paint5_linear" x1="39.4183" y1="42.1031" x2="47.6924" y2="49.052" gradientUnits="userSpaceOnUse">
<stop stop-color="#13BF49"/>
<stop offset="0.655712" stop-color="#13B94A"/>
<stop offset="1" stop-color="#139C52"/>
</linearGradient>
<linearGradient id="paint6_linear" x1="80.0821" y1="38.4772" x2="81.6519" y2="65.8443" gradientUnits="userSpaceOnUse">
<stop stop-color="#145566"/>
<stop offset="1" stop-color="#13BF49"/>
</linearGradient>
<linearGradient id="paint7_linear" x1="70.6304" y1="42.6952" x2="70.6976" y2="65.5814" gradientUnits="userSpaceOnUse">
<stop stop-color="#145566"/>
<stop offset="1" stop-color="#13BF49"/>
</linearGradient>
<radialGradient id="paint8_radial" cx="0" cy="0" r="1" gradientUnits="userSpaceOnUse" gradientTransform="translate(24.7905 53.6019) rotate(70.7465) scale(19.2525 16.3988)">
<stop stop-color="#13BF49"/>
<stop offset="1" stop-color="#145566"/>
</radialGradient>
<linearGradient id="paint9_linear" x1="28.5013" y1="54.2417" x2="22.9107" y2="68.412" gradientUnits="userSpaceOnUse">
<stop stop-color="#13BF49"/>
<stop offset="1" stop-color="#145566"/>
</linearGradient>
<radialGradient id="paint10_diamond" cx="0" cy="0" r="1" gradientUnits="userSpaceOnUse" gradientTransform="translate(71.3631 9.02779) rotate(90) scale(15.984 58.7437)">
<stop stop-color="#13BF49"/>
<stop offset="1" stop-color="#145566"/>
</radialGradient>
<linearGradient id="paint11_linear" x1="71.6562" y1="44.9895" x2="65.2767" y2="53.142" gradientUnits="userSpaceOnUse">
<stop stop-color="#145566"/>
<stop offset="1" stop-color="#13BF49"/>
</linearGradient>
<clipPath id="clip0">
<rect width="120" height="96" fill="white"/>
</clipPath>
</defs>
</svg>
