<svg width="120" height="95" viewBox="0 0 120 95" fill="none" xmlns="http://www.w3.org/2000/svg">
<g opacity="0.6" clip-path="url(#clip0)">
<path d="M85.7141 22.8423H61.8517V94.3348H85.7141V22.8423Z" fill="url(#paint0_linear)"/>
<path d="M68.3452 21.2651H61.8517V94.3174H68.3452V21.2651Z" fill="#006E9E"/>
<g opacity="0.68">
<path opacity="0.68" d="M78.1902 27.0815H68.3439V28.4425H78.1902V27.0815Z" fill="#A4E3FF"/>
</g>
<g opacity="0.68">
<path opacity="0.68" d="M67.972 47.4087H63.1848V48.7697H67.972V47.4087Z" fill="#A4E3FF"/>
</g>
<g opacity="0.68">
<path opacity="0.68" d="M81.5855 50.0444H70.6848V51.4054H81.5855V50.0444Z" fill="#A4E3FF"/>
</g>
<g opacity="0.68">
<path opacity="0.68" d="M69.8463 29.7158H63.1848V31.0768H69.8463V29.7158Z" fill="#A4E3FF"/>
</g>
<g opacity="0.68">
<path opacity="0.68" d="M72.6458 32.2046H68.3439V33.5656H72.6458V32.2046Z" fill="#A4E3FF"/>
</g>
<g opacity="0.68">
<path opacity="0.68" d="M68.5971 52.5332H63.1848V53.8942H68.5971V52.5332Z" fill="#A4E3FF"/>
</g>
<g opacity="0.68">
<path opacity="0.68" d="M76.6624 68.752H68.5759V70.1129H76.6624V68.752Z" fill="#A4E3FF"/>
</g>
<g opacity="0.68">
<path opacity="0.68" d="M67.972 34.8403H63.1848V36.2013H67.972V34.8403Z" fill="#A4E3FF"/>
</g>
<g opacity="0.68">
<path opacity="0.68" d="M79.8272 76.3813H75.6066V77.7423H79.8272V76.3813Z" fill="#A4E3FF"/>
</g>
<g opacity="0.68">
<path opacity="0.68" d="M75.6053 71.2407H72.4418V72.6017H75.6053V71.2407Z" fill="#A4E3FF"/>
</g>
<g opacity="0.68">
<path opacity="0.68" d="M72.739 37.3291H64.5179V38.6901H72.739V37.3291Z" fill="#A4E3FF"/>
</g>
<g opacity="0.68">
<path opacity="0.68" d="M84.2784 77.8667H78.754V79.2276H84.2784V77.8667Z" fill="#A4E3FF"/>
</g>
<g opacity="0.68">
<path opacity="0.68" d="M79.1205 73.875H70.3341V75.236H79.1205V73.875Z" fill="#A4E3FF"/>
</g>
<g opacity="0.68">
<path opacity="0.68" d="M68.1999 60.2905H65.3897V61.6515H68.1999V60.2905Z" fill="#A4E3FF"/>
</g>
<g opacity="0.68">
<path opacity="0.68" d="M69.2144 39.9639H65.6751V41.3248H69.2144V39.9639Z" fill="#A4E3FF"/>
</g>
<g opacity="0.68">
<path opacity="0.68" d="M82.972 62.7793H74.9854V64.1402H82.972V62.7793Z" fill="#A4E3FF"/>
</g>
<g opacity="0.68">
<path opacity="0.68" d="M76.661 42.4521H63.1848V43.8131H76.661V42.4521Z" fill="#A4E3FF"/>
</g>
<g opacity="0.68">
<path opacity="0.68" d="M82.9705 65.415H77.7994V66.776H82.9705V65.415Z" fill="#A4E3FF"/>
</g>
<g opacity="0.68">
<path opacity="0.68" d="M72.0085 45.0884H64.6259V46.4494H72.0085V45.0884Z" fill="#A4E3FF"/>
</g>
<g opacity="0.68">
<path opacity="0.68" d="M71.094 65.415H67.3468V66.776H71.094V65.415Z" fill="#A4E3FF"/>
</g>
<g opacity="0.68">
<path opacity="0.68" d="M69.1543 76.3813H64.9911V77.7423H69.1543V76.3813Z" fill="#A4E3FF"/>
</g>
<g opacity="0.68">
<path opacity="0.68" d="M82.6852 27.0815H80.8375V28.4425H82.6852V27.0815Z" fill="#CFF3FF"/>
</g>
<g opacity="0.68">
<path opacity="0.68" d="M78.4233 47.4087H73.6361V48.7697H78.4233V47.4087Z" fill="#CFF3FF"/>
</g>
<g opacity="0.68">
<path opacity="0.68" d="M80.3378 29.7158H73.6763V31.0768H80.3378V29.7158Z" fill="#CFF3FF"/>
</g>
<g opacity="0.68">
<path opacity="0.68" d="M83.1199 52.5332H76.7131V53.8942H83.1199V52.5332Z" fill="#CFF3FF"/>
</g>
<g opacity="0.68">
<path opacity="0.68" d="M78.3888 32.2046H73.5443V33.5656H78.3888V32.2046Z" fill="#CFF3FF"/>
</g>
<g opacity="0.68">
<path opacity="0.68" d="M72.383 52.5332H66.9707V53.8942H72.383V52.5332Z" fill="#CFF3FF"/>
</g>
<g opacity="0.68">
<path opacity="0.68" d="M80.9255 68.752H72.839V70.1129H80.9255V68.752Z" fill="#CFF3FF"/>
</g>
<g opacity="0.68">
<path opacity="0.68" d="M75.7571 34.8403H70.97V36.2013H75.7571V34.8403Z" fill="#CFF3FF"/>
</g>
<g opacity="0.68">
<path opacity="0.68" d="M84.0904 83.0068H79.8699V84.3678H84.0904V83.0068Z" fill="#CFF3FF"/>
</g>
<g opacity="0.68">
<path opacity="0.68" d="M79.8699 71.2407H76.7065V72.6017H79.8699V71.2407Z" fill="#CFF3FF"/>
</g>
<g opacity="0.68">
<path opacity="0.68" d="M79.3726 37.3291H74.0709V38.6901H79.3726V37.3291Z" fill="#CFF3FF"/>
</g>
<g opacity="0.68">
<path opacity="0.68" d="M83.3851 73.875H74.5987V75.236H83.3851V73.875Z" fill="#CFF3FF"/>
</g>
<g opacity="0.68">
<path opacity="0.68" d="M73.3203 60.2905H70.5102V61.6515H73.3203V60.2905Z" fill="#CFF3FF"/>
</g>
<g opacity="0.68">
<path opacity="0.68" d="M80.9243 42.4521H79.4459V43.8131H80.9243V42.4521Z" fill="#CFF3FF"/>
</g>
<g opacity="0.68">
<path opacity="0.68" d="M83.7385 45.0884H76.3558V46.4494H83.7385V45.0884Z" fill="#CFF3FF"/>
</g>
<g opacity="0.68">
<path opacity="0.68" d="M76.3557 65.415H72.1364V66.776H76.3557V65.415Z" fill="#CFF3FF"/>
</g>
<g opacity="0.68">
<path opacity="0.68" d="M72.9404 76.3813H68.7772V77.7423H72.9404V76.3813Z" fill="#CFF3FF"/>
</g>
<path d="M85.7141 20.7974H61.8517V23.3603H85.7141V20.7974Z" fill="white"/>
<path d="M85.7128 24.7119H68.3439V26.0239H85.7128V24.7119Z" fill="#D7FDFF"/>
<path d="M68.3452 20.7974H61.8517V23.3603H68.3452V20.7974Z" fill="#86E5EA"/>
<g opacity="0.68">
<path opacity="0.68" d="M65.2217 27.0815H63.374V28.4425H65.2217V27.0815Z" fill="#CFF3FF"/>
</g>
<path d="M68.3452 24.7119H61.8517V26.0239H68.3452V24.7119Z" fill="#86E5EA"/>
<g opacity="0.68">
<path opacity="0.68" d="M81.8401 47.4087H80.2524V48.7697H81.8401V47.4087Z" fill="#CFF3FF"/>
</g>
<g opacity="0.68">
<path opacity="0.68" d="M84.1904 52.5332H73.2896V53.8942H84.1904V52.5332Z" fill="#A4E3FF"/>
</g>
<g opacity="0.68">
<path opacity="0.68" d="M74.9881 55.022H69.5757V56.3829H74.9881V55.022Z" fill="#CFF3FF"/>
</g>
<g opacity="0.68">
<path opacity="0.68" d="M79.8124 34.8325H78.4287V36.1935H79.8124V34.8325Z" fill="#CFF3FF"/>
</g>
<g opacity="0.68">
<path opacity="0.68" d="M85.1795 32.1982H83.4638V33.5592H85.1795V32.1982Z" fill="#CFF3FF"/>
</g>
<g opacity="0.68">
<path opacity="0.68" d="M85.1781 29.7095H83.4624V31.0704H85.1781V29.7095Z" fill="#CFF3FF"/>
</g>
<g opacity="0.5">
<path opacity="0.5" d="M68.3452 26.0225H61.8517V93.8309H68.3452V26.0225Z" fill="#07BD40" fill-opacity="0.66"/>
</g>
<g opacity="0.81">
<path opacity="0.81" d="M85.7128 63.8013H70.8581V94.3163H85.7128V63.8013Z" fill="#006E9E"/>
</g>
<path d="M63.0327 2.55908H38.7357V94.2779H63.0327V2.55908Z" fill="url(#paint1_linear)"/>
<path d="M43.1431 2.55908H34.1526V94.2779H43.1431V2.55908Z" fill="#006E9E"/>
<path d="M61.5984 47.479H58.3923V48.4133H61.5984V47.479Z" fill="#A4E3FF"/>
<path d="M58.3924 6.94141H55.7782V7.87566H58.3924V6.94141Z" fill="#A4E3FF"/>
<path d="M55.7781 27.2686H52.9533V28.2028H55.7781V27.2686Z" fill="#A4E3FF"/>
<path d="M52.9545 6.94141H48.47V7.87566H52.9545V6.94141Z" fill="#A4E3FF"/>
<path d="M48.4687 47.479H45.6932V48.4133H48.4687V47.479Z" fill="#A4E3FF"/>
<path d="M45.6932 27.2686H41.1607V28.2028H45.6932V27.2686Z" fill="#A4E3FF"/>
<path d="M41.1619 6.94141H36.5094V7.87566H41.1619V6.94141Z" fill="#A4E3FF"/>
<path d="M34.9591 27.2686H34.2286V28.2028H34.9591V27.2686Z" fill="#A4E3FF"/>
<path d="M61.5997 29.9043H58.3923V30.8385H61.5997V29.9043Z" fill="#A4E3FF"/>
<path d="M53.9517 9.57715H51.1322V10.5114H53.9517V9.57715Z" fill="#A4E3FF"/>
<path d="M51.1322 50.1147H45.6932V51.049H51.1322V50.1147Z" fill="#A4E3FF"/>
<path d="M44.1736 9.57715H43.1431V10.5114H44.1736V9.57715Z" fill="#A4E3FF"/>
<path d="M42.6563 29.9043H37.5066V30.8385H42.6563V29.9043Z" fill="#A4E3FF"/>
<path d="M41.5766 9.57715H40.6275V10.5114H41.5766V9.57715Z" fill="#A4E3FF"/>
<path d="M61.5997 52.6035H56.5699V53.5378H61.5997V52.6035Z" fill="#A4E3FF"/>
<path d="M56.57 12.0659H52.9533V13.0002H56.57V12.0659Z" fill="#A4E3FF"/>
<path d="M52.9532 32.3931H49.3098V33.3273H52.9532V32.3931Z" fill="#A4E3FF"/>
<path d="M49.31 12.0659H43.1764V13.0002H49.31V12.0659Z" fill="#A4E3FF"/>
<path d="M36.4416 12.0659H34.1526V13.0002H36.4416V12.0659Z" fill="#A4E3FF"/>
<path d="M35.0551 32.3931H34.2286V33.3273H35.0551V32.3931Z" fill="#A4E3FF"/>
<path d="M63.0394 14.7002H61.5983V15.6344H63.0394V14.7002Z" fill="#A4E3FF"/>
<path d="M60.1572 55.2378H57.6057V56.1721H60.1572V55.2378Z" fill="#A4E3FF"/>
<path d="M57.607 14.7002H51.1322V15.6344H57.607V14.7002Z" fill="#A4E3FF"/>
<path d="M51.1323 35.0273H47.517V35.9616H51.1323V35.0273Z" fill="#A4E3FF"/>
<path d="M47.517 14.7002H43.1764V15.6344H47.517V14.7002Z" fill="#A4E3FF"/>
<path d="M40.3301 55.2378H36.5094V56.1721H40.3301V55.2378Z" fill="#A4E3FF"/>
<path d="M36.5095 14.7002H33.9619V15.6344H36.5095V14.7002Z" fill="#A4E3FF"/>
<path d="M61.5984 17.189H60.1573V18.1232H61.5984V17.189Z" fill="#A4E3FF"/>
<path d="M60.1573 37.5161H52.9533V38.4504H60.1573V37.5161Z" fill="#A4E3FF"/>
<path d="M52.9545 17.189H49.3098V18.1232H52.9545V17.189Z" fill="#A4E3FF"/>
<path d="M49.3086 17.189H47.5156V18.1232H49.3086V17.189Z" fill="#A4E3FF"/>
<path d="M38.7358 37.5161H35.1604V38.4504H38.7358V37.5161Z" fill="#A4E3FF"/>
<path d="M41.8259 62.8667H39.8315V63.8009H41.8259V62.8667Z" fill="#A4E3FF"/>
<path d="M39.8302 57.7266H38.3358V58.6608H39.8302V57.7266Z" fill="#A4E3FF"/>
<path d="M38.3359 17.189H33.9619V18.1232H38.3359V17.189Z" fill="#A4E3FF"/>
<path d="M61.5983 40.1519H56.5685V41.0861H61.5983V40.1519Z" fill="#A4E3FF"/>
<path d="M53.7531 55.2378H51.9588V56.1721H53.7531V55.2378Z" fill="#A4E3FF"/>
<path d="M54.7743 19.8247H53.7851V20.759H54.7743V19.8247Z" fill="#A4E3FF"/>
<path d="M50.9682 55.2378H44.6987V56.1721H50.9682V55.2378Z" fill="#A4E3FF"/>
<path d="M47.5155 60.3623H44.1028V61.2965H47.5155V60.3623Z" fill="#A4E3FF"/>
<path d="M46.5958 57.7266H43.9856V58.6608H46.5958V57.7266Z" fill="#A4E3FF"/>
<path d="M41.4912 60.3623H37.34V61.2965H41.4912V60.3623Z" fill="#A4E3FF"/>
<path d="M37.3412 40.1519H35.8455V41.0861H37.3412V40.1519Z" fill="#A4E3FF"/>
<path d="M37.1708 19.8247H35.2871V20.759H37.1708V19.8247Z" fill="#A4E3FF"/>
<path d="M61.5996 22.3135H59.2681V23.2477H61.5996V22.3135Z" fill="#A4E3FF"/>
<path d="M59.2682 42.6406H52.9533V43.5749H59.2682V42.6406Z" fill="#A4E3FF"/>
<path d="M52.9532 22.3135H51.9574V23.2477H52.9532V22.3135Z" fill="#A4E3FF"/>
<path d="M51.9562 22.3135H46.4758V23.2477H51.9562V22.3135Z" fill="#A4E3FF"/>
<path d="M46.4757 62.8511H44.1028V63.7853H46.4757V62.8511Z" fill="#A4E3FF"/>
<path d="M40.1035 42.6406H36.3295V43.5749H40.1035V42.6406Z" fill="#A4E3FF"/>
<path d="M35.1431 22.3135H34.2286V23.2477H35.1431V22.3135Z" fill="#A4E3FF"/>
<path d="M61.5984 24.9478H58.3923V25.882H61.5984V24.9478Z" fill="#A4E3FF"/>
<path d="M54.7729 45.2749H51.1309V46.2092H54.7729V45.2749Z" fill="#A4E3FF"/>
<path d="M51.1322 24.9478H44.1028V25.882H51.1322V24.9478Z" fill="#A4E3FF"/>
<path d="M44.1028 45.2749H41.6592V46.2092H44.1028V45.2749Z" fill="#A4E3FF"/>
<path d="M41.6592 24.9478H38.1705V25.882H41.6592V24.9478Z" fill="#A4E3FF"/>
<path d="M36.8373 45.2749H34.843V46.2092H36.8373V45.2749Z" fill="#A4E3FF"/>
<path d="M37.5027 70.626H35.2871V71.5602H37.5027V70.626Z" fill="#A4E3FF"/>
<path d="M62.9394 6.94141H60.3253V7.87566H62.9394V6.94141Z" fill="#CFF3FF"/>
<path d="M57.7937 27.2686H54.9688V28.2028H57.7937V27.2686Z" fill="#CFF3FF"/>
<path d="M54.9689 6.94141H50.4844V7.87566H54.9689V6.94141Z" fill="#CFF3FF"/>
<path d="M50.4845 47.479H47.709V48.4133H50.4845V47.479Z" fill="#CFF3FF"/>
<path d="M47.7089 27.2686H43.1764V28.2028H47.7089V27.2686Z" fill="#CFF3FF"/>
<path d="M42.3445 6.94141H38.5238V7.87566H42.3445V6.94141Z" fill="#CFF3FF"/>
<path d="M38.5237 27.2686H35.9762V28.2028H38.5237V27.2686Z" fill="#CFF3FF"/>
<path d="M55.9661 9.57715H53.1466V10.5114H55.9661V9.57715Z" fill="#CFF3FF"/>
<path d="M53.1465 50.1147H47.7074V51.049H53.1465V50.1147Z" fill="#CFF3FF"/>
<path d="M48.2422 9.57715H46.1172V10.5114H48.2422V9.57715Z" fill="#CFF3FF"/>
<path d="M44.6721 29.9043H39.521V30.8385H44.6721V29.9043Z" fill="#CFF3FF"/>
<path d="M39.5209 9.57715H35.9762V10.5114H39.5209V9.57715Z" fill="#CFF3FF"/>
<path d="M58.5842 12.0659H54.9675V13.0002H58.5842V12.0659Z" fill="#CFF3FF"/>
<path d="M54.9676 32.3931H51.3242V33.3273H54.9676V32.3931Z" fill="#CFF3FF"/>
<path d="M51.3242 12.0659H50.427V13.0002H51.3242V12.0659Z" fill="#CFF3FF"/>
<path d="M44.1736 32.3931H41.1461V33.3273H44.1736V32.3931Z" fill="#CFF3FF"/>
<path d="M41.146 12.0659H38.8571V13.0002H41.146V12.0659Z" fill="#CFF3FF"/>
<path d="M38.857 32.3931H35.9762V33.3273H38.857V32.3931Z" fill="#CFF3FF"/>
<path d="M59.6215 14.7002H53.1466V15.6344H59.6215V14.7002Z" fill="#CFF3FF"/>
<path d="M53.1465 35.0273H49.5311V35.9616H53.1465V35.0273Z" fill="#CFF3FF"/>
<path d="M42.3445 55.2378H38.5238V56.1721H42.3445V55.2378Z" fill="#CFF3FF"/>
<path d="M38.5237 14.7002H35.9762V15.6344H38.5237V14.7002Z" fill="#CFF3FF"/>
<path d="M54.9689 17.189H51.3242V18.1232H54.9689V17.189Z" fill="#CFF3FF"/>
<path d="M51.3242 17.189H49.5311V18.1232H51.3242V17.189Z" fill="#CFF3FF"/>
<path d="M49.53 37.5161H43.8403V38.4504H49.53V37.5161Z" fill="#CFF3FF"/>
<path d="M43.8403 62.8667H41.8459V63.8009H43.8403V62.8667Z" fill="#CFF3FF"/>
<path d="M41.8459 57.7266H40.3515V58.6608H41.8459V57.7266Z" fill="#CFF3FF"/>
<path d="M40.3501 17.189H35.9762V18.1232H40.3501V17.189Z" fill="#CFF3FF"/>
<path d="M55.7673 55.2378H53.973V56.1721H55.7673V55.2378Z" fill="#CFF3FF"/>
<path d="M56.7898 19.8247H55.8007V20.759H56.7898V19.8247Z" fill="#CFF3FF"/>
<path d="M52.984 55.2378H46.7144V56.1721H52.984V55.2378Z" fill="#CFF3FF"/>
<path d="M49.5299 60.3623H46.1172V61.2965H49.5299V60.3623Z" fill="#CFF3FF"/>
<path d="M57.9416 57.7266H55.3314V58.6608H57.9416V57.7266Z" fill="#CFF3FF"/>
<path d="M43.507 60.3623H39.3557V61.2965H43.507V60.3623Z" fill="#CFF3FF"/>
<path d="M39.3557 40.1519H37.86V41.0861H39.3557V40.1519Z" fill="#CFF3FF"/>
<path d="M61.2824 42.6406H54.9675V43.5749H61.2824V42.6406Z" fill="#CFF3FF"/>
<path d="M54.9677 22.3135H53.9718V23.2477H54.9677V22.3135Z" fill="#CFF3FF"/>
<path d="M53.9717 22.3135H48.4914V23.2477H53.9717V22.3135Z" fill="#CFF3FF"/>
<path d="M48.4901 62.8511H46.1172V63.7853H48.4901V62.8511Z" fill="#CFF3FF"/>
<path d="M49.0512 42.6406H45.2772V43.5749H49.0512V42.6406Z" fill="#CFF3FF"/>
<path d="M42.3444 22.3135H35.9762V23.2477H42.3444V22.3135Z" fill="#CFF3FF"/>
<path d="M56.7886 45.2749H53.1466V46.2092H56.7886V45.2749Z" fill="#CFF3FF"/>
<path d="M53.1466 24.9478H46.1172V25.882H53.1466V24.9478Z" fill="#CFF3FF"/>
<path d="M46.1172 45.2749H43.6737V46.2092H46.1172V45.2749Z" fill="#CFF3FF"/>
<path d="M40.1862 45.2749H38.1919V46.2092H40.1862V45.2749Z" fill="#CFF3FF"/>
<path d="M39.5183 70.626H37.3026V71.5602H39.5183V70.626Z" fill="#CFF3FF"/>
<path d="M63.0329 4.62891H34.1526V6.1277H63.0329V4.62891Z" fill="#D7FDFF"/>
<path d="M57.1046 85.8125H54.2798V86.7468H57.1046V85.8125Z" fill="#A4E3FF"/>
<path d="M54.2797 65.4854H49.7951V66.4196H54.2797V65.4854Z" fill="#A4E3FF"/>
<path d="M48.3527 85.8125H43.8202V86.7468H48.3527V85.8125Z" fill="#A4E3FF"/>
<path d="M42.4871 65.4854H37.8345V66.4196H42.4871V65.4854Z" fill="#A4E3FF"/>
<path d="M37.8347 85.8125H35.2871V86.7468H37.8347V85.8125Z" fill="#A4E3FF"/>
<path d="M62.9248 88.4482H59.7174V89.3825H62.9248V88.4482Z" fill="#A4E3FF"/>
<path d="M55.2768 68.1211H52.4573V69.0554H55.2768V68.1211Z" fill="#A4E3FF"/>
<path d="M47.0183 68.1211H45.4279V69.0554H47.0183V68.1211Z" fill="#A4E3FF"/>
<path d="M45.4279 68.1211H43.9829V69.0554H45.4279V68.1211Z" fill="#A4E3FF"/>
<path d="M42.6484 88.4482H37.4987V89.3825H42.6484V88.4482Z" fill="#A4E3FF"/>
<path d="M38.8318 68.1211H35.2871V69.0554H38.8318V68.1211Z" fill="#A4E3FF"/>
<path d="M54.2783 90.937H50.6349V91.8713H54.2783V90.937Z" fill="#A4E3FF"/>
<path d="M50.635 70.6099H43.483V71.5441H50.635V70.6099Z" fill="#A4E3FF"/>
<path d="M40.4568 70.6099H38.1678V71.5441H40.4568V70.6099Z" fill="#A4E3FF"/>
<path d="M38.1679 90.937H35.2871V91.8713H38.1679V90.937Z" fill="#A4E3FF"/>
<path d="M62.9236 73.2446H61.4825V74.1789H62.9236V73.2446Z" fill="#A4E3FF"/>
<path d="M58.9322 73.2446H52.4573V74.1789H58.9322V73.2446Z" fill="#A4E3FF"/>
<path d="M51.5082 73.2446H44.3215V74.1789H51.5082V73.2446Z" fill="#A4E3FF"/>
<path d="M37.8347 73.2446H35.2871V74.1789H37.8347V73.2446Z" fill="#A4E3FF"/>
<path d="M62.9248 75.7329H61.4838V76.6671H62.9248V75.7329Z" fill="#A4E3FF"/>
<path d="M54.2796 75.7329H50.6349V76.6671H54.2796V75.7329Z" fill="#A4E3FF"/>
<path d="M50.6351 75.7329H48.8421V76.6671H50.6351V75.7329Z" fill="#A4E3FF"/>
<path d="M39.661 75.7329H35.2871V76.6671H39.661V75.7329Z" fill="#A4E3FF"/>
<path d="M56.1008 78.3691H55.1116V79.3034H56.1008V78.3691Z" fill="#A4E3FF"/>
<path d="M38.4973 78.3691H36.6136V79.3034H38.4973V78.3691Z" fill="#A4E3FF"/>
<path d="M62.9248 80.8574H60.5932V81.7917H62.9248V80.8574Z" fill="#A4E3FF"/>
<path d="M54.2784 80.8574H53.2826V81.7917H54.2784V80.8574Z" fill="#A4E3FF"/>
<path d="M53.2825 80.8574H47.8021V81.7917H53.2825V80.8574Z" fill="#A4E3FF"/>
<path d="M41.6553 80.8574H35.2871V81.7917H41.6553V80.8574Z" fill="#A4E3FF"/>
<path d="M62.9248 83.4922H59.7188V84.4264H62.9248V83.4922Z" fill="#A4E3FF"/>
<path d="M52.4573 83.4922H45.4279V84.4264H52.4573V83.4922Z" fill="#A4E3FF"/>
<path d="M40.1849 83.4922H36.6961V84.4264H40.1849V83.4922Z" fill="#A4E3FF"/>
<path d="M59.1188 85.8125H56.2939V86.7468H59.1188V85.8125Z" fill="#CFF3FF"/>
<path d="M56.2939 65.4854H51.8094V66.4196H56.2939V65.4854Z" fill="#CFF3FF"/>
<path d="M49.0339 85.8125H44.5014V86.7468H49.0339V85.8125Z" fill="#CFF3FF"/>
<path d="M48.5008 65.4854H43.8483V66.4196H48.5008V65.4854Z" fill="#CFF3FF"/>
<path d="M39.8502 85.8125H37.3026V86.7468H39.8502V85.8125Z" fill="#CFF3FF"/>
<path d="M57.2924 68.1211H54.4729V69.0554H57.2924V68.1211Z" fill="#CFF3FF"/>
<path d="M49.0327 68.1211H47.4423V69.0554H49.0327V68.1211Z" fill="#CFF3FF"/>
<path d="M47.4422 68.1211H45.9971V69.0554H47.4422V68.1211Z" fill="#CFF3FF"/>
<path d="M53.9958 88.4482H48.8447V89.3825H53.9958V88.4482Z" fill="#CFF3FF"/>
<path d="M40.8473 68.1211H37.3026V69.0554H40.8473V68.1211Z" fill="#CFF3FF"/>
<path d="M56.294 90.937H52.6507V91.8713H56.294V90.937Z" fill="#CFF3FF"/>
<path d="M52.6506 70.6099H45.4985V71.5441H52.6506V70.6099Z" fill="#CFF3FF"/>
<path d="M46.8316 90.937H43.8041V91.8713H46.8316V90.937Z" fill="#CFF3FF"/>
<path d="M42.4712 70.6099H40.1823V71.5441H42.4712V70.6099Z" fill="#CFF3FF"/>
<path d="M40.1835 90.937H37.3026V91.8713H40.1835V90.937Z" fill="#CFF3FF"/>
<path d="M60.9477 73.2446H54.4729V74.1789H60.9477V73.2446Z" fill="#CFF3FF"/>
<path d="M39.8502 73.2446H37.3026V74.1789H39.8502V73.2446Z" fill="#CFF3FF"/>
<path d="M56.294 75.7329H52.6494V76.6671H56.294V75.7329Z" fill="#CFF3FF"/>
<path d="M52.6493 75.7329H50.8563V76.6671H52.6493V75.7329Z" fill="#CFF3FF"/>
<path d="M41.6765 75.7329H37.3026V76.6671H41.6765V75.7329Z" fill="#CFF3FF"/>
<path d="M58.115 78.3691H57.1259V79.3034H58.115V78.3691Z" fill="#CFF3FF"/>
<path d="M56.2939 80.8574H55.2981V81.7917H56.2939V80.8574Z" fill="#CFF3FF"/>
<path d="M55.2969 80.8574H49.8165V81.7917H55.2969V80.8574Z" fill="#CFF3FF"/>
<path d="M43.6708 80.8574H37.3026V81.7917H43.6708V80.8574Z" fill="#CFF3FF"/>
<path d="M54.4717 83.4922H47.4423V84.4264H54.4717V83.4922Z" fill="#CFF3FF"/>
<path d="M42.2004 83.4922H38.7117V84.4264H42.2004V83.4922Z" fill="#CFF3FF"/>
<path d="M63.0329 0H34.1526V2.55894H63.0329V0Z" fill="white"/>
<path d="M43.1056 4.62891H34.1299V6.1277H43.1056V4.62891Z" fill="#86E5EA"/>
<path d="M43.1056 0H34.1299V2.55894H43.1056V0Z" fill="#86E5EA"/>
<g opacity="0.5">
<path opacity="0.5" d="M43.1416 6.15967H34.1299V94.278H43.1416V6.15967Z" fill="url(#paint2_linear)"/>
</g>
<path d="M15.4639 25.666H11.4646V93.1883H15.4639V25.666Z" fill="#008FC1"/>
<g opacity="0.68">
<path opacity="0.68" d="M29.4001 26.3687H15.4639V93.1886H29.4001V26.3687Z" fill="url(#paint3_linear)"/>
</g>
<g opacity="0.68">
<path opacity="0.68" d="M25.2301 29.1274H16.2797V30.1637H25.2301V29.1274Z" fill="#A4E3FF"/>
</g>
<g opacity="0.68">
<path opacity="0.68" d="M29.4002 42.6748H28.0231V43.7111H29.4002V42.6748Z" fill="#A4E3FF"/>
</g>
<g opacity="0.68">
<path opacity="0.68" d="M22.264 44.4307H13.8309V45.467H22.264V44.4307Z" fill="#A4E3FF"/>
</g>
<g opacity="0.68">
<path opacity="0.68" d="M29.3988 30.8848H22.2627V31.9211H29.3988V30.8848Z" fill="#A4E3FF"/>
</g>
<g opacity="0.68">
<path opacity="0.68" d="M23.3505 32.5425H19.6031V33.5788H23.3505V32.5425Z" fill="#A4E3FF"/>
</g>
<g opacity="0.68">
<path opacity="0.68" d="M29.0763 46.0898H27.7498V47.1261H29.0763V46.0898Z" fill="#A4E3FF"/>
</g>
<g opacity="0.68">
<path opacity="0.68" d="M25.2288 81.1929H17.6395V82.2292H25.2288V81.1929Z" fill="#A4E3FF"/>
</g>
<g opacity="0.68">
<path opacity="0.68" d="M29.3989 34.2983H27.3139V35.3346H29.3989V34.2983Z" fill="#A4E3FF"/>
</g>
<g opacity="0.68">
<path opacity="0.68" d="M18.4567 86.2764H15.192V87.3127H18.4567V86.2764Z" fill="#A4E3FF"/>
</g>
<g opacity="0.68">
<path opacity="0.68" d="M20.9043 82.8506H18.4568V83.8869H20.9043V82.8506Z" fill="#A4E3FF"/>
</g>
<g opacity="0.68">
<path opacity="0.68" d="M14.7348 35.9575H12.9591V36.9938H14.7348V35.9575Z" fill="#A4E3FF"/>
</g>
<g opacity="0.68">
<path opacity="0.68" d="M16.0211 82.8506H11.7472V83.8869H16.0211V82.8506Z" fill="#A4E3FF"/>
</g>
<g opacity="0.68">
<path opacity="0.68" d="M22.5346 84.6079H15.7372V85.6442H22.5346V84.6079Z" fill="#A4E3FF"/>
</g>
<g opacity="0.68">
<path opacity="0.68" d="M26.3166 51.2607H22.5346V52.297H26.3166V51.2607Z" fill="#A4E3FF"/>
</g>
<g opacity="0.68">
<path opacity="0.68" d="M27.2299 37.7134H22.8134V38.7497H27.2299V37.7134Z" fill="#A4E3FF"/>
</g>
<g opacity="0.68">
<path opacity="0.68" d="M18.9367 52.9189H12.7591V53.9552H18.9367V52.9189Z" fill="#A4E3FF"/>
</g>
<g opacity="0.68">
<path opacity="0.68" d="M29.4002 39.3726H28.0231V40.4088H29.4002V39.3726Z" fill="#A4E3FF"/>
</g>
<g opacity="0.68">
<path opacity="0.68" d="M16.7597 54.6758H12.7591V55.7121H16.7597V54.6758Z" fill="#A4E3FF"/>
</g>
<g opacity="0.68">
<path opacity="0.68" d="M21.1762 41.1284H15.4639V42.1647H21.1762V41.1284Z" fill="#A4E3FF"/>
</g>
<g opacity="0.68">
<path opacity="0.68" d="M25.7727 54.6758H21.1748V55.7121H25.7727V54.6758Z" fill="#A4E3FF"/>
</g>
<g opacity="0.68">
<path opacity="0.68" d="M27.2284 91.4473H22.2693V92.4836H27.2284V91.4473Z" fill="#A4E3FF"/>
</g>
<g opacity="0.68">
<path opacity="0.68" d="M14.2001 29.1274H12.9803V30.1637H14.2001V29.1274Z" fill="#CFF3FF"/>
</g>
<g opacity="0.68">
<path opacity="0.68" d="M26.1007 42.6748H20.5977V43.7111H26.1007V42.6748Z" fill="#CFF3FF"/>
</g>
<g opacity="0.68">
<path opacity="0.68" d="M19.4352 30.8848H12.2992V31.9211H19.4352V30.8848Z" fill="#CFF3FF"/>
</g>
<g opacity="0.68">
<path opacity="0.68" d="M17.6008 46.0898H12.6443V47.1261H17.6008V46.0898Z" fill="#CFF3FF"/>
</g>
<g opacity="0.68">
<path opacity="0.68" d="M17.4235 32.5425H16.3037V33.5788H17.4235V32.5425Z" fill="#CFF3FF"/>
</g>
<g opacity="0.68">
<path opacity="0.68" d="M26.0994 46.0898H20.0512V47.1261H26.0994V46.0898Z" fill="#CFF3FF"/>
</g>
<g opacity="0.68">
<path opacity="0.68" d="M20.5976 81.1929H14.3414V82.2292H20.5976V81.1929Z" fill="#CFF3FF"/>
</g>
<g opacity="0.68">
<path opacity="0.68" d="M26.1007 34.2983H20.5963V35.3346H26.1007V34.2983Z" fill="#CFF3FF"/>
</g>
<g opacity="0.68">
<path opacity="0.68" d="M15.1573 86.2764H11.8926V87.3127H15.1573V86.2764Z" fill="#CFF3FF"/>
</g>
<g opacity="0.68">
<path opacity="0.68" d="M17.6049 82.8506H15.1573V83.8869H17.6049V82.8506Z" fill="#CFF3FF"/>
</g>
<g opacity="0.68">
<path opacity="0.68" d="M26.0993 35.9575H17.6049V36.9938H26.0993V35.9575Z" fill="#CFF3FF"/>
</g>
<g opacity="0.68">
<path opacity="0.68" d="M19.2365 84.6079H12.4391V85.6442H19.2365V84.6079Z" fill="#CFF3FF"/>
</g>
<g opacity="0.68">
<path opacity="0.68" d="M21.6841 51.2607H19.2352V52.297H21.6841V51.2607Z" fill="#CFF3FF"/>
</g>
<g opacity="0.68">
<path opacity="0.68" d="M26.0993 39.3726H14.3414V40.4088H26.0993V39.3726Z" fill="#CFF3FF"/>
</g>
<g opacity="0.68">
<path opacity="0.68" d="M17.8768 41.1284H12.1645V42.1647H17.8768V41.1284Z" fill="#CFF3FF"/>
</g>
<g opacity="0.68">
<path opacity="0.68" d="M21.1415 54.6758H17.8768V55.7121H21.1415V54.6758Z" fill="#CFF3FF"/>
</g>
<g opacity="0.68">
<path opacity="0.68" d="M22.5973 91.4473H18.9713V92.4836H22.5973V91.4473Z" fill="#CFF3FF"/>
</g>
<path d="M29.4001 25.5405H11.4646V26.5755H29.4001V25.5405Z" fill="#D7FDFF"/>
<path d="M29.4001 27.3452H11.4646V28.1973H29.4001V27.3452Z" fill="#D7FDFF"/>
<path d="M15.4639 25.5405H11.4646V26.5755H15.4639V25.5405Z" fill="#54C2E8"/>
<path d="M15.4639 27.3452H11.4646V28.1973H15.4639V27.3452Z" fill="#54C2E8"/>
<g opacity="0.68">
<path opacity="0.68" d="M15.9837 68.6353H11.8138V69.6716H15.9837V68.6353Z" fill="#A4E3FF"/>
</g>
<g opacity="0.68">
<path opacity="0.68" d="M27.3845 66.8779H17.6183V67.9143H27.3845V66.8779Z" fill="#A4E3FF"/>
</g>
<g opacity="0.68">
<path opacity="0.68" d="M16.529 65.2202H11.8138V66.2565H16.529V65.2202Z" fill="#A4E3FF"/>
</g>
<g opacity="0.68">
<path opacity="0.68" d="M15.9851 77.0107H11.8138V78.047H15.9851V77.0107Z" fill="#A4E3FF"/>
</g>
<g opacity="0.68">
<path opacity="0.68" d="M18.9765 75.3525H11.8138V76.3888H18.9765V75.3525Z" fill="#A4E3FF"/>
</g>
<g opacity="0.68">
<path opacity="0.68" d="M17.3463 60.0493H14.8974V61.0856H17.3463V60.0493Z" fill="#A4E3FF"/>
</g>
<g opacity="0.68">
<path opacity="0.68" d="M17.069 73.5957H13.9856V74.632H17.069V73.5957Z" fill="#A4E3FF"/>
</g>
<g opacity="0.68">
<path opacity="0.68" d="M28.4549 58.3906H20.9442V59.4269H28.4549V58.3906Z" fill="#A4E3FF"/>
</g>
<g opacity="0.68">
<path opacity="0.68" d="M22.2386 71.938H11.8138V72.9743H22.2386V71.938Z" fill="#A4E3FF"/>
</g>
<g opacity="0.68">
<path opacity="0.68" d="M28.455 56.6343H23.1213V57.6706H28.455V56.6343Z" fill="#A4E3FF"/>
</g>
<g opacity="0.68">
<path opacity="0.68" d="M25.7514 70.1821H18.706V71.2184H25.7514V70.1821Z" fill="#A4E3FF"/>
</g>
<g opacity="0.68">
<path opacity="0.68" d="M18.7059 56.6343H15.4412V57.6706H18.7059V56.6343Z" fill="#A4E3FF"/>
</g>
<g opacity="0.68">
<path opacity="0.68" d="M19.2832 68.6353H15.1133V69.6716H19.2832V68.6353Z" fill="#CFF3FF"/>
</g>
<g opacity="0.68">
<path opacity="0.68" d="M28.5697 65.2202H22.2801V66.2565H28.5697V65.2202Z" fill="#CFF3FF"/>
</g>
<g opacity="0.68">
<path opacity="0.68" d="M19.8284 65.2202H15.1133V66.2565H19.8284V65.2202Z" fill="#CFF3FF"/>
</g>
<g opacity="0.68">
<path opacity="0.68" d="M19.2845 77.0107H15.1133V78.047H19.2845V77.0107Z" fill="#CFF3FF"/>
</g>
<g opacity="0.68">
<path opacity="0.68" d="M22.2746 75.3525H15.1133V76.3888H22.2746V75.3525Z" fill="#CFF3FF"/>
</g>
<g opacity="0.68">
<path opacity="0.68" d="M20.6457 60.0493H18.1968V61.0856H20.6457V60.0493Z" fill="#CFF3FF"/>
</g>
<g opacity="0.68">
<path opacity="0.68" d="M26.8712 71.938H15.1133V72.9743H26.8712V71.938Z" fill="#CFF3FF"/>
</g>
<g opacity="0.68">
<path opacity="0.68" d="M29.0494 70.1821H22.004V71.2184H29.0494V70.1821Z" fill="#CFF3FF"/>
</g>
<g opacity="0.68">
<path opacity="0.68" d="M22.004 56.6343H18.7393V57.6706H22.004V56.6343Z" fill="#CFF3FF"/>
</g>
<g opacity="0.8">
<path opacity="0.8" d="M25.0342 48.0273H18.2727V94.6871H25.0342V48.0273Z" fill="#006E9E"/>
</g>
<g opacity="0.55">
<path opacity="0.55" d="M15.4639 28.1987H11.4646V93.2164H15.4639V28.1987Z" fill="#13BF49"/>
</g>
<path d="M48.7407 41.8866L23.6465 41.8628V94.975H48.7407V41.8866Z" fill="url(#paint4_linear)"/>
<path d="M46.0984 40.5894H22.7412V42.8422H46.0984V40.5894Z" fill="#0A687D"/>
<path d="M52.3614 42.8433H27.7831V94.6872H52.3614V42.8433Z" fill="#D0F3F7"/>
<path d="M35.9376 44.5698H29.2374V52.1472H35.9376V44.5698Z" fill="url(#paint5_linear)"/>
<path d="M43.4603 44.5698H36.7601V52.1472H43.4603V44.5698Z" fill="url(#paint6_linear)"/>
<path d="M35.9376 52.7544H29.2374V60.3318H35.9376V52.7544Z" fill="url(#paint7_linear)"/>
<path d="M43.4603 52.7544H36.7601V60.3318H43.4603V52.7544Z" fill="url(#paint8_linear)"/>
<path d="M50.9082 60.9614H44.208V68.5389H50.9082V60.9614Z" fill="url(#paint9_linear)"/>
<path d="M50.9082 69.1455H44.208V76.7229H50.9082V69.1455Z" fill="url(#paint10_linear)"/>
<path d="M50.9082 77.1416H44.208V84.719H50.9082V77.1416Z" fill="url(#paint11_linear)"/>
<path d="M50.9082 85.3262H44.208V92.9036H50.9082V85.3262Z" fill="url(#paint12_linear)"/>
<path d="M50.9082 44.5698H44.208V52.1472H50.9082V44.5698Z" fill="url(#paint13_linear)"/>
<path d="M50.9082 52.7544H44.208V60.3318H50.9082V52.7544Z" fill="url(#paint14_linear)"/>
<path d="M35.9376 60.9614H29.2374V68.5389H35.9376V60.9614Z" fill="url(#paint15_linear)"/>
<path d="M43.4603 60.9614H36.7601V68.5389H43.4603V60.9614Z" fill="url(#paint16_linear)"/>
<path d="M35.9376 69.1455H29.2374V76.7229H35.9376V69.1455Z" fill="url(#paint17_linear)"/>
<path d="M43.4603 69.1455H36.7601V76.7229H43.4603V69.1455Z" fill="url(#paint18_linear)"/>
<path d="M35.9376 77.1416H29.2374V84.719H35.9376V77.1416Z" fill="url(#paint19_linear)"/>
<path d="M43.4603 77.1416H36.7601V84.719H43.4603V77.1416Z" fill="url(#paint20_linear)"/>
<path d="M35.9376 85.3262H29.2374V92.9036H35.9376V85.3262Z" fill="url(#paint21_linear)"/>
<path d="M43.4603 85.3262H36.7601V92.9036H43.4603V85.3262Z" fill="url(#paint22_linear)"/>
<g opacity="0.3">
<path opacity="0.3" d="M27.7831 66.1771V83.7226L52.3628 52.0785V42.6206H46.0812L27.7831 66.1771Z" fill="#D0F3F7"/>
</g>
<path d="M52.3627 42.793H25.2249V43.6822H52.3627V42.793Z" fill="#0A687D"/>
<path d="M53.2944 40.5933H27.0764V42.8434H53.2944V40.5933Z" fill="#F0FCFF"/>
<g opacity="0.3">
<path opacity="0.3" d="M27.8204 92.4939L52.4001 60.8498V56.1997L27.8204 87.8438V92.4939Z" fill="#D0F3F7"/>
</g>
<path d="M96.0843 36.4639H92.085V94.9987H96.0843V36.4639Z" fill="#008FC1"/>
<g opacity="0.68">
<path opacity="0.68" d="M110.02 37.166H96.0843V94.1676H110.02V37.166Z" fill="url(#paint23_linear)"/>
</g>
<g opacity="0.68">
<path opacity="0.68" d="M105.849 39.9268H96.8987V40.9631H105.849V39.9268Z" fill="#A4E3FF"/>
</g>
<g opacity="0.68">
<path opacity="0.68" d="M110.02 53.4741H108.643V54.5104H110.02V53.4741Z" fill="#A4E3FF"/>
</g>
<g opacity="0.68">
<path opacity="0.68" d="M102.884 55.23H94.4512V56.2663H102.884V55.23Z" fill="#A4E3FF"/>
</g>
<g opacity="0.68">
<path opacity="0.68" d="M110.019 41.6826H102.883V42.7189H110.019V41.6826Z" fill="#A4E3FF"/>
</g>
<g opacity="0.68">
<path opacity="0.68" d="M103.971 43.3418H100.223V44.3781H103.971V43.3418Z" fill="#A4E3FF"/>
</g>
<g opacity="0.68">
<path opacity="0.68" d="M109.697 56.8877H108.37V57.924H109.697V56.8877Z" fill="#A4E3FF"/>
</g>
<g opacity="0.68">
<path opacity="0.68" d="M105.849 91.9907H98.2598V93.027H105.849V91.9907Z" fill="#A4E3FF"/>
</g>
<g opacity="0.68">
<path opacity="0.68" d="M110.019 45.0977H107.934V46.1339H110.019V45.0977Z" fill="#A4E3FF"/>
</g>
<g opacity="0.68">
<path opacity="0.68" d="M101.525 93.6499H99.0771V94.6862H101.525V93.6499Z" fill="#A4E3FF"/>
</g>
<g opacity="0.68">
<path opacity="0.68" d="M95.355 46.7563H93.5794V47.7926H95.355V46.7563Z" fill="#A4E3FF"/>
</g>
<g opacity="0.68">
<path opacity="0.68" d="M96.6416 93.6499H92.3677V94.6862H96.6416V93.6499Z" fill="#A4E3FF"/>
</g>
<g opacity="0.68">
<path opacity="0.68" d="M106.937 62.0586H103.155V63.0949H106.937V62.0586Z" fill="#A4E3FF"/>
</g>
<g opacity="0.68">
<path opacity="0.68" d="M107.849 48.5122H103.432V49.5485H107.849V48.5122Z" fill="#A4E3FF"/>
</g>
<g opacity="0.68">
<path opacity="0.68" d="M99.557 63.7178H93.3794V64.7541H99.557V63.7178Z" fill="#A4E3FF"/>
</g>
<g opacity="0.68">
<path opacity="0.68" d="M110.02 50.1704H108.643V51.2067H110.02V50.1704Z" fill="#A4E3FF"/>
</g>
<g opacity="0.68">
<path opacity="0.68" d="M97.38 65.4736H93.3794V66.5099H97.38V65.4736Z" fill="#A4E3FF"/>
</g>
<g opacity="0.68">
<path opacity="0.68" d="M101.797 51.9272H96.0843V52.9636H101.797V51.9272Z" fill="#A4E3FF"/>
</g>
<g opacity="0.68">
<path opacity="0.68" d="M106.393 65.4736H101.795V66.5099H106.393V65.4736Z" fill="#A4E3FF"/>
</g>
<g opacity="0.68">
<path opacity="0.68" d="M94.8206 39.9268H93.6008V40.9631H94.8206V39.9268Z" fill="#CFF3FF"/>
</g>
<g opacity="0.68">
<path opacity="0.68" d="M106.721 53.4741H101.218V54.5104H106.721V53.4741Z" fill="#CFF3FF"/>
</g>
<g opacity="0.68">
<path opacity="0.68" d="M100.056 41.6826H92.9195V42.7189H100.056V41.6826Z" fill="#CFF3FF"/>
</g>
<g opacity="0.68">
<path opacity="0.68" d="M98.2213 56.8877H93.2648V57.924H98.2213V56.8877Z" fill="#CFF3FF"/>
</g>
<g opacity="0.68">
<path opacity="0.68" d="M98.0438 43.3418H96.924V44.3781H98.0438V43.3418Z" fill="#CFF3FF"/>
</g>
<g opacity="0.68">
<path opacity="0.68" d="M106.72 56.8877H100.671V57.924H106.72V56.8877Z" fill="#CFF3FF"/>
</g>
<g opacity="0.68">
<path opacity="0.68" d="M101.218 91.9907H94.9618V93.027H101.218V91.9907Z" fill="#CFF3FF"/>
</g>
<g opacity="0.68">
<path opacity="0.68" d="M106.721 45.0977H101.217V46.1339H106.721V45.0977Z" fill="#CFF3FF"/>
</g>
<g opacity="0.68">
<path opacity="0.68" d="M98.2253 93.6499H95.7777V94.6862H98.2253V93.6499Z" fill="#CFF3FF"/>
</g>
<g opacity="0.68">
<path opacity="0.68" d="M106.72 46.7563H98.2252V47.7926H106.72V46.7563Z" fill="#CFF3FF"/>
</g>
<g opacity="0.68">
<path opacity="0.68" d="M102.304 62.0586H99.8555V63.0949H102.304V62.0586Z" fill="#CFF3FF"/>
</g>
<g opacity="0.68">
<path opacity="0.68" d="M106.72 50.1704H94.9618V51.2067H106.72V50.1704Z" fill="#CFF3FF"/>
</g>
<g opacity="0.68">
<path opacity="0.68" d="M98.4972 51.9272H92.7849V52.9636H98.4972V51.9272Z" fill="#CFF3FF"/>
</g>
<g opacity="0.68">
<path opacity="0.68" d="M101.762 65.4736H98.4973V66.5099H101.762V65.4736Z" fill="#CFF3FF"/>
</g>
<path d="M110.02 36.3394H92.085V37.3743H110.02V36.3394Z" fill="#D7FDFF"/>
<path d="M110.02 38.144H92.085V38.9961H110.02V38.144Z" fill="#D7FDFF"/>
<path d="M96.0843 36.3394H92.085V37.3743H96.0843V36.3394Z" fill="#54C2E8"/>
<path d="M96.0843 38.144H92.085V38.9961H96.0843V38.144Z" fill="#54C2E8"/>
<g opacity="0.68">
<path opacity="0.68" d="M96.6042 79.4331H92.4343V80.4694H96.6042V79.4331Z" fill="#A4E3FF"/>
</g>
<g opacity="0.68">
<path opacity="0.68" d="M108.003 77.6772H98.2372V78.7135H108.003V77.6772Z" fill="#A4E3FF"/>
</g>
<g opacity="0.68">
<path opacity="0.68" d="M97.1495 76.0181H92.4343V77.0544H97.1495V76.0181Z" fill="#A4E3FF"/>
</g>
<g opacity="0.68">
<path opacity="0.68" d="M96.6056 87.8096H92.4343V88.8459H96.6056V87.8096Z" fill="#A4E3FF"/>
</g>
<g opacity="0.68">
<path opacity="0.68" d="M99.5971 86.1504H92.4343V87.1867H99.5971V86.1504Z" fill="#A4E3FF"/>
</g>
<g opacity="0.68">
<path opacity="0.68" d="M97.9666 70.8472H95.5177V71.8835H97.9666V70.8472Z" fill="#A4E3FF"/>
</g>
<g opacity="0.68">
<path opacity="0.68" d="M97.6893 84.3945H94.6059V85.4308H97.6893V84.3945Z" fill="#A4E3FF"/>
</g>
<g opacity="0.68">
<path opacity="0.68" d="M109.075 69.1895H101.565V70.2257H109.075V69.1895Z" fill="#A4E3FF"/>
</g>
<g opacity="0.68">
<path opacity="0.68" d="M102.859 82.7354H92.4343V83.7717H102.859V82.7354Z" fill="#A4E3FF"/>
</g>
<g opacity="0.68">
<path opacity="0.68" d="M109.075 67.4336H103.742V68.4699H109.075V67.4336Z" fill="#A4E3FF"/>
</g>
<g opacity="0.68">
<path opacity="0.68" d="M106.37 80.9795H99.325V82.0158H106.37V80.9795Z" fill="#A4E3FF"/>
</g>
<g opacity="0.68">
<path opacity="0.68" d="M99.3263 67.4336H96.0615V68.4699H99.3263V67.4336Z" fill="#A4E3FF"/>
</g>
<g opacity="0.68">
<path opacity="0.68" d="M99.9037 79.4331H95.7338V80.4694H99.9037V79.4331Z" fill="#CFF3FF"/>
</g>
<g opacity="0.68">
<path opacity="0.68" d="M109.19 76.0181H102.9V77.0544H109.19V76.0181Z" fill="#CFF3FF"/>
</g>
<g opacity="0.68">
<path opacity="0.68" d="M100.449 76.0181H95.7338V77.0544H100.449V76.0181Z" fill="#CFF3FF"/>
</g>
<g opacity="0.68">
<path opacity="0.68" d="M99.905 87.8096H95.7338V88.8459H99.905V87.8096Z" fill="#CFF3FF"/>
</g>
<g opacity="0.68">
<path opacity="0.68" d="M102.895 86.1504H95.7338V87.1867H102.895V86.1504Z" fill="#CFF3FF"/>
</g>
<g opacity="0.68">
<path opacity="0.68" d="M101.266 70.8472H98.8171V71.8835H101.266V70.8472Z" fill="#CFF3FF"/>
</g>
<g opacity="0.68">
<path opacity="0.68" d="M107.492 82.7354H95.7338V83.7717H107.492V82.7354Z" fill="#CFF3FF"/>
</g>
<g opacity="0.68">
<path opacity="0.68" d="M109.67 80.9795H102.624V82.0158H109.67V80.9795Z" fill="#CFF3FF"/>
</g>
<g opacity="0.68">
<path opacity="0.68" d="M102.624 67.4336H99.3596V68.4699H102.624V67.4336Z" fill="#CFF3FF"/>
</g>
<g opacity="0.55">
<path opacity="0.55" d="M96.0843 38.9961H92.085V94.6858H96.0843V38.9961Z" fill="#006E9E"/>
</g>
<path d="M97.1893 54.7769H76.3264V95.0003H97.1893V54.7769Z" fill="#CCB5A3"/>
<path d="M98.0427 52.708H75.4707V54.8826H98.0427V52.708Z" fill="#CCB5A3"/>
<path d="M101.271 54.9199H80.4084V94.3164H101.271V54.9199Z" fill="#FFF3DC"/>
<path d="M102.126 52.7197H79.5539V54.8944H102.126V52.7197Z" fill="#FFF3DC"/>
<path d="M101.271 54.8945H79.5539V55.5545H101.271V54.8945Z" fill="#CCB5A3"/>
<path d="M87.4271 57.0068H82.8186V94.3161H87.4271V57.0068Z" fill="url(#paint24_linear)"/>
<path d="M93.2288 57.0068H88.6203V94.6859H93.2288V57.0068Z" fill="url(#paint25_linear)"/>
<path d="M98.8611 57.1514H94.2526V95.0001H98.8611V57.1514Z" fill="url(#paint26_linear)"/>
<g opacity="0.3">
<path opacity="0.3" d="M80.5016 77.3024V93.2298L101.349 64.5024V55.9165H96.0202L80.5016 77.3024Z" fill="#FFF3DC"/>
</g>
<path d="M43.6803 81.6512C44.4638 79.4191 44.4275 76.9833 43.5778 74.7752C42.7282 72.5671 41.12 70.7291 39.038 69.5865C36.9559 68.4439 34.5343 68.0705 32.2019 68.5323C29.8695 68.9941 27.7767 70.2615 26.294 72.1099C25.1583 71.7629 23.9588 71.6738 22.7839 71.8491C21.609 72.0245 20.4886 72.4598 19.5055 73.1229C18.5224 73.786 17.7016 74.6601 17.1036 75.6806C16.5056 76.7012 16.1457 77.8421 16.0505 79.0194C16.0389 79.159 16.0314 79.2977 16.0278 79.4355L43.6803 81.6512Z" fill="url(#paint27_radial)"/>
<path d="M34.9831 68.3649C33.337 68.2319 31.6833 68.5037 30.1679 69.1563C28.6525 69.809 27.3221 70.8225 26.294 72.1073C25.2971 71.8027 24.2496 71.6964 23.2113 71.7944C22.1731 71.8925 21.1644 72.193 20.2431 72.6788C19.3217 73.1645 18.5057 73.826 17.8417 74.6254C17.1776 75.4248 16.6786 76.3465 16.373 77.3378C17.9967 78.5245 19.9076 79.2625 21.9113 79.4767C23.915 79.6908 25.9401 79.3735 27.7804 78.5569C29.378 79.6042 31.2168 80.2316 33.1247 80.3804C37.6119 80.7408 41.6726 78.4854 43.6482 74.9551C42.9934 73.1452 41.8279 71.5611 40.2912 70.3924C38.7545 69.2237 36.9117 68.5198 34.9831 68.3649Z" fill="url(#paint28_diamond)"/>
<path d="M119.98 89.0752H0.00134277V94.975H119.98V89.0752Z" fill="#07BD40"/>
<path d="M87.6871 93.3861L0 93.1794V76.5801C26.8112 76.5801 82.4667 88.3703 87.6871 93.3861Z" fill="#13BF49"/>
<path d="M0.321361 76.9112C10.9475 76.9192 21.5962 78.3013 32.0837 79.8902C43.4497 81.613 54.7677 83.7584 65.9444 86.4207C68.2648 86.9729 70.5755 87.5547 72.8765 88.166C73.9358 88.4487 74.9925 88.7407 76.0466 89.042C76.5798 89.193 77.149 89.4395 77.6983 89.4939C79.2233 89.633 80.8271 89.4939 82.3561 89.4939H103.886C109.158 89.4939 113.884 89.5614 119.158 89.4939C119.335 89.4939 119.512 89.4939 119.691 89.4872C120.111 89.4594 120.081 88.8313 119.66 88.8313H78.1675C77.3677 88.8313 76.6678 88.5251 75.9013 88.3012C73.691 87.6744 71.4674 87.09 69.2358 86.5334C58.3151 83.8075 47.2397 81.6434 36.131 79.8518C25.3769 78.1184 14.4948 76.6329 3.59411 76.2976C2.50453 76.2641 1.41494 76.2464 0.325361 76.2446C-0.103896 76.2446 -0.103896 76.9072 0.325361 76.9072L0.321361 76.9112Z" fill="#08A73A"/>
<path d="M119.112 89.5546C119.819 86.8668 119.547 84.0169 118.342 81.5098C117.138 79.0027 115.08 77.0003 112.533 75.8574C109.985 74.7144 107.113 74.5047 104.425 75.2654C101.737 76.0261 99.4065 77.708 97.8466 80.0133C96.4839 79.7136 95.0708 79.7218 93.7117 80.0374C92.3525 80.3529 91.082 80.9678 89.9938 81.8366C88.9056 82.7054 88.0276 83.806 87.4244 85.0572C86.8212 86.3084 86.5082 87.6782 86.5087 89.0657C86.5087 89.23 86.5131 89.393 86.522 89.5546H119.112Z" fill="url(#paint29_radial)"/>
<path d="M107.665 74.8159C105.725 74.8152 103.815 75.2891 102.103 76.1957C100.392 77.1024 98.9305 78.4139 97.8492 80.0146C96.6532 79.7511 95.4167 79.7244 94.2104 79.9362C93.004 80.1479 91.8515 80.5939 90.8186 81.2486C89.7857 81.9033 88.8927 82.7539 88.1907 83.7519C87.4887 84.7498 86.9914 85.8755 86.7272 87.0646C88.7413 88.3017 91.0491 88.9863 93.4158 89.0487C95.7825 89.1111 98.1236 88.549 100.201 87.4198C102.171 88.4965 104.384 89.0587 106.633 89.0537C111.921 89.0537 116.462 86.031 118.439 81.7122C117.499 79.6554 115.983 77.9113 114.073 76.6883C112.162 75.4653 109.937 74.8153 107.665 74.8159Z" fill="url(#paint30_diamond)"/>
<path d="M22.176 75.8998L16.8223 84.9297H17.9728L12.6191 75.8998C12.1832 75.1657 11.0314 75.8323 11.4686 76.5624L16.8223 85.5923C16.8824 85.6905 16.9668 85.7716 17.0676 85.8279C17.1683 85.8843 17.282 85.9138 17.3976 85.9138C17.5132 85.9138 17.6268 85.8843 17.7275 85.8279C17.8283 85.7716 17.9127 85.6905 17.9728 85.5923L23.3292 76.5677C23.7651 75.8309 22.6133 75.1644 22.1787 75.9051L22.176 75.8998Z" fill="#603A26"/>
<path d="M12.0432 79.869C17.9575 79.869 22.7519 75.103 22.7519 69.2238C22.7519 63.3446 17.9575 58.5786 12.0432 58.5786C6.12889 58.5786 1.33441 63.3446 1.33441 69.2238C1.33441 75.103 6.12889 79.869 12.0432 79.869Z" fill="url(#paint31_radial)"/>
<path d="M22.2693 67.5209C22.2693 72.7515 18.0034 75.5238 12.7416 75.5238C7.4799 75.5238 3.21399 72.7528 3.21399 67.5209C3.21399 65.009 4.21779 62.6 6.00457 60.8238C7.79135 59.0477 10.2147 58.0498 12.7416 58.0498C15.2685 58.0498 17.6919 59.0477 19.4787 60.8238C21.2655 62.6 22.2693 65.009 22.2693 67.5209Z" fill="url(#paint32_radial)"/>
<path d="M22.3013 79.8689C29.5519 79.8689 35.4296 74.026 35.4296 66.8185C35.4296 59.6109 29.5519 53.7681 22.3013 53.7681C15.0507 53.7681 9.17297 59.6109 9.17297 66.8185C9.17297 74.026 15.0507 79.8689 22.3013 79.8689Z" fill="url(#paint33_radial)"/>
<path d="M33.55 66.6476C33.55 73.7612 27.743 77.5287 20.5803 77.5287C13.4176 77.5287 7.6106 73.7599 7.6106 66.6476C7.6106 63.2283 8.97704 59.9489 11.4093 57.5311C13.8416 55.1132 17.1405 53.7549 20.5803 53.7549C24.0201 53.7549 27.3189 55.1132 29.7512 57.5311C32.1835 59.9489 33.55 63.2283 33.55 66.6476Z" fill="url(#paint34_radial)"/>
<path d="M22.7626 74.4757C20.6936 75.7664 19.9005 78.2127 19.9005 78.2127C19.9005 78.2127 22.4613 78.5665 24.5303 77.2745C26.5993 75.9824 27.3925 73.5375 27.3925 73.5375C27.3925 73.5375 24.8316 73.1797 22.7626 74.4757Z" fill="#13BF49"/>
<path opacity="0.3" d="M44.7814 78.5083C44.7953 79.0179 45.0087 79.5021 45.3762 79.8577C45.7437 80.2134 46.2362 80.4124 46.7491 80.4126H48.7034C48.7015 80.4501 48.7015 80.4877 48.7034 80.5252V80.5478C48.7034 80.8437 48.8217 81.1275 49.0322 81.3368C49.2427 81.546 49.5282 81.6636 49.8259 81.6636H62.6556C62.803 81.6636 62.949 81.6347 63.0852 81.5786C63.2213 81.5226 63.3451 81.4404 63.4493 81.3368C63.5535 81.2332 63.6362 81.1101 63.6926 80.9748C63.749 80.8394 63.7781 80.6943 63.7781 80.5478V80.5252C63.7781 80.3787 63.749 80.2336 63.6926 80.0982C63.6362 79.9629 63.5535 79.8399 63.4493 79.7362C63.3451 79.6326 63.2213 79.5504 63.0852 79.4944C62.949 79.4383 62.803 79.4094 62.6556 79.4094H59.2962C59.4514 79.134 59.537 78.8252 59.5455 78.5096L44.7814 78.5083Z" fill="#EAA242"/>
<path opacity="0.3" d="M78.8327 91.5132C78.824 91.835 78.6893 92.1407 78.4572 92.3652C78.2252 92.5897 77.9141 92.7152 77.5903 92.7151H76.3571C76.3571 92.739 76.3571 92.7628 76.3571 92.7867V92.8013C76.3571 92.9879 76.2826 93.1669 76.1498 93.2988C76.0171 93.4308 75.837 93.5049 75.6493 93.5049H67.5547C67.367 93.5049 67.1869 93.4308 67.0542 93.2988C66.9214 93.1669 66.8468 92.9879 66.8468 92.8013V92.7867C66.8468 92.6001 66.9214 92.4211 67.0542 92.2891C67.1869 92.1572 67.367 92.083 67.5547 92.083H69.6743C69.5763 91.909 69.5223 91.7139 69.517 91.5145L78.8327 91.5132Z" fill="#EAA242"/>
<path opacity="0.3" d="M56.6379 86.1506C56.6379 86.3123 56.5733 86.4673 56.4583 86.5817C56.3433 86.696 56.1873 86.7602 56.0247 86.7602H49.2752C49.1126 86.7602 48.9566 86.696 48.8416 86.5817C48.7266 86.4673 48.662 86.3123 48.662 86.1506C48.662 85.9889 48.7266 85.8339 48.8416 85.7196C48.9566 85.6052 49.1126 85.541 49.2752 85.541H56.0247C56.1873 85.541 56.3433 85.6052 56.4583 85.7196C56.5733 85.8339 56.6379 85.9889 56.6379 86.1506Z" fill="#93E2AC" fill-opacity="0.91"/>
<path opacity="0.3" d="M77.0676 89.3826C77.0676 89.4827 77.0276 89.5788 76.9563 89.6496C76.8851 89.7205 76.7884 89.7602 76.6877 89.7602H72.5098C72.409 89.7602 72.3123 89.7205 72.2411 89.6496C72.1698 89.5788 72.1298 89.4827 72.1298 89.3826C72.1298 89.2824 72.1698 89.1863 72.2411 89.1155C72.3123 89.0447 72.409 89.0049 72.5098 89.0049H76.689C76.7898 89.0049 76.8864 89.0447 76.9577 89.1155C77.0289 89.1863 77.0689 89.2824 77.0689 89.3826H77.0676Z" fill="#FFCA76"/>
<g opacity="0.5">
<path opacity="0.5" d="M26.4047 88.3901H29.6042C30.8933 88.3901 30.8933 86.4023 29.6042 86.4023H26.4047C25.1156 86.4023 25.1156 88.3901 26.4047 88.3901Z" fill="#89F0CB"/>
</g>
<g opacity="0.5">
<path opacity="0.5" d="M5.18839 88.3901H19.8258C21.1149 88.3901 21.1149 86.4023 19.8258 86.4023H5.18839C3.89928 86.4023 3.89928 88.3901 5.18839 88.3901Z" fill="#0A687D"/>
</g>
<g opacity="0.5">
<path opacity="0.5" d="M110.087 91.9306H113.287C114.576 91.9306 114.576 89.9429 113.287 89.9429H110.087C108.798 89.9429 108.798 91.9306 110.087 91.9306Z" fill="#CEDB2A"/>
</g>
<g opacity="0.5">
<path opacity="0.5" d="M88.8709 91.9306H103.508C104.797 91.9306 104.797 89.9429 103.508 89.9429H88.8709C87.5818 89.9429 87.5818 91.9306 88.8709 91.9306Z" fill="#CFF3FF"/>
</g>
<g opacity="0.5">
<path opacity="0.5" d="M9.86487 84.9536H13.0643C14.3534 84.9536 14.3534 82.9658 13.0643 82.9658H9.86487C8.57576 82.9658 8.57576 84.9536 9.86487 84.9536Z" fill="#93E2AC"/>
</g>
<path d="M5.82155 69.0768C7.05333 70.9559 6.76405 73.3174 6.76405 73.3174C6.76405 73.3174 4.47779 72.6203 3.24734 70.7425C2.01689 68.8648 2.30484 66.502 2.30484 66.502C2.30484 66.502 4.58977 67.1977 5.82155 69.0768Z" fill="#13BF49" fill-opacity="0.84"/>
<path d="M5.24173 71.6103C7.45334 72.0516 8.94507 73.9068 8.94507 73.9068C8.94507 73.9068 6.84811 75.0452 4.63651 74.6079C2.4249 74.1705 0.933167 72.3073 0.933167 72.3073C0.933167 72.3073 3.02879 71.1624 5.24173 71.6103Z" fill="#13BF49"/>
<path d="M15.2986 81.4764L12.7657 81.2763C12.4445 81.2511 12.4471 81.7481 12.7657 81.7733L15.2986 81.9734C15.6199 81.9985 15.6172 81.5016 15.2986 81.4764Z" fill="#603A26"/>
<path d="M17.5649 85.5502L20.4217 83.4869C20.7656 83.239 20.4324 82.6639 20.0857 82.9144L17.2303 84.979C16.8863 85.2268 17.2196 85.8019 17.5662 85.5515L17.5649 85.5502Z" fill="#603A26"/>
</g>
<defs>
<linearGradient id="paint0_linear" x1="74.9867" y1="-2.7166" x2="74.5256" y2="66.3257" gradientUnits="userSpaceOnUse">
<stop stop-color="#0A687D"/>
<stop offset="1" stop-color="#13BF49"/>
</linearGradient>
<linearGradient id="paint1_linear" x1="48.6579" y1="-3.31282" x2="50.8579" y2="94.2785" gradientUnits="userSpaceOnUse">
<stop stop-color="#09816D" stop-opacity="0.789842"/>
<stop offset="1" stop-color="#13BF49"/>
</linearGradient>
<linearGradient id="paint2_linear" x1="38.6358" y1="6.15967" x2="38.6358" y2="94.278" gradientUnits="userSpaceOnUse">
<stop stop-color="#09816D" stop-opacity="0.789842"/>
<stop offset="1" stop-color="#13BF49"/>
</linearGradient>
<linearGradient id="paint3_linear" x1="22.432" y1="26.3687" x2="22.432" y2="93.1886" gradientUnits="userSpaceOnUse">
<stop stop-color="#09816D" stop-opacity="0.789842"/>
<stop offset="1" stop-color="#13BF49" stop-opacity="0.552486"/>
</linearGradient>
<linearGradient id="paint4_linear" x1="27.1953" y1="27.3652" x2="26.339" y2="69.6389" gradientUnits="userSpaceOnUse">
<stop stop-color="#0A687D"/>
<stop offset="1" stop-color="#13BF49"/>
</linearGradient>
<linearGradient id="paint5_linear" x1="32.5875" y1="44.5698" x2="32.5875" y2="52.1472" gradientUnits="userSpaceOnUse">
<stop stop-color="#0A687D"/>
<stop offset="1" stop-color="#07BD40" stop-opacity="0.78"/>
</linearGradient>
<linearGradient id="paint6_linear" x1="40.1102" y1="44.5698" x2="40.1102" y2="52.1472" gradientUnits="userSpaceOnUse">
<stop stop-color="#0A687D"/>
<stop offset="1" stop-color="#07BD40" stop-opacity="0.78"/>
</linearGradient>
<linearGradient id="paint7_linear" x1="32.5875" y1="52.7544" x2="32.5875" y2="60.3318" gradientUnits="userSpaceOnUse">
<stop stop-color="#0A687D"/>
<stop offset="1" stop-color="#07BD40" stop-opacity="0.78"/>
</linearGradient>
<linearGradient id="paint8_linear" x1="40.1102" y1="52.7544" x2="40.1102" y2="60.3318" gradientUnits="userSpaceOnUse">
<stop stop-color="#0A687D"/>
<stop offset="1" stop-color="#07BD40" stop-opacity="0.78"/>
</linearGradient>
<linearGradient id="paint9_linear" x1="47.5581" y1="60.9614" x2="47.5581" y2="68.5389" gradientUnits="userSpaceOnUse">
<stop stop-color="#0A687D"/>
<stop offset="1" stop-color="#07BD40" stop-opacity="0.78"/>
</linearGradient>
<linearGradient id="paint10_linear" x1="47.5581" y1="69.1455" x2="47.5581" y2="76.7229" gradientUnits="userSpaceOnUse">
<stop stop-color="#0A687D"/>
<stop offset="1" stop-color="#07BD40" stop-opacity="0.78"/>
</linearGradient>
<linearGradient id="paint11_linear" x1="47.5581" y1="77.1416" x2="47.5581" y2="84.719" gradientUnits="userSpaceOnUse">
<stop stop-color="#0A687D"/>
<stop offset="1" stop-color="#07BD40" stop-opacity="0.78"/>
</linearGradient>
<linearGradient id="paint12_linear" x1="47.5581" y1="85.3262" x2="47.5581" y2="92.9036" gradientUnits="userSpaceOnUse">
<stop stop-color="#0A687D"/>
<stop offset="1" stop-color="#07BD40" stop-opacity="0.78"/>
</linearGradient>
<linearGradient id="paint13_linear" x1="47.5581" y1="44.5698" x2="47.5581" y2="52.1472" gradientUnits="userSpaceOnUse">
<stop stop-color="#0A687D"/>
<stop offset="1" stop-color="#07BD40" stop-opacity="0.78"/>
</linearGradient>
<linearGradient id="paint14_linear" x1="47.5581" y1="52.7544" x2="47.5581" y2="60.3318" gradientUnits="userSpaceOnUse">
<stop stop-color="#0A687D"/>
<stop offset="1" stop-color="#07BD40" stop-opacity="0.78"/>
</linearGradient>
<linearGradient id="paint15_linear" x1="32.5875" y1="60.9614" x2="32.5875" y2="68.5389" gradientUnits="userSpaceOnUse">
<stop stop-color="#0A687D"/>
<stop offset="1" stop-color="#07BD40" stop-opacity="0.78"/>
</linearGradient>
<linearGradient id="paint16_linear" x1="40.1102" y1="60.9614" x2="40.1102" y2="68.5389" gradientUnits="userSpaceOnUse">
<stop stop-color="#0A687D"/>
<stop offset="1" stop-color="#07BD40" stop-opacity="0.78"/>
</linearGradient>
<linearGradient id="paint17_linear" x1="32.5875" y1="69.1455" x2="32.5875" y2="76.7229" gradientUnits="userSpaceOnUse">
<stop stop-color="#0A687D"/>
<stop offset="1" stop-color="#07BD40" stop-opacity="0.78"/>
</linearGradient>
<linearGradient id="paint18_linear" x1="40.1102" y1="69.1455" x2="40.1102" y2="76.7229" gradientUnits="userSpaceOnUse">
<stop stop-color="#0A687D"/>
<stop offset="1" stop-color="#07BD40" stop-opacity="0.78"/>
</linearGradient>
<linearGradient id="paint19_linear" x1="32.5875" y1="77.1416" x2="32.5875" y2="84.719" gradientUnits="userSpaceOnUse">
<stop stop-color="#0A687D"/>
<stop offset="1" stop-color="#07BD40" stop-opacity="0.78"/>
</linearGradient>
<linearGradient id="paint20_linear" x1="40.1102" y1="77.1416" x2="40.1102" y2="84.719" gradientUnits="userSpaceOnUse">
<stop stop-color="#0A687D"/>
<stop offset="1" stop-color="#07BD40" stop-opacity="0.78"/>
</linearGradient>
<linearGradient id="paint21_linear" x1="32.5875" y1="85.3262" x2="32.5875" y2="92.9036" gradientUnits="userSpaceOnUse">
<stop stop-color="#0A687D"/>
<stop offset="1" stop-color="#07BD40" stop-opacity="0.78"/>
</linearGradient>
<linearGradient id="paint22_linear" x1="40.1102" y1="85.3262" x2="40.1102" y2="92.9036" gradientUnits="userSpaceOnUse">
<stop stop-color="#0A687D"/>
<stop offset="1" stop-color="#07BD40" stop-opacity="0.78"/>
</linearGradient>
<linearGradient id="paint23_linear" x1="103.052" y1="37.166" x2="103.052" y2="94.1676" gradientUnits="userSpaceOnUse">
<stop stop-color="#0A687D"/>
<stop offset="1" stop-color="#13BF49"/>
</linearGradient>
<linearGradient id="paint24_linear" x1="85.1228" y1="57.0068" x2="85.1228" y2="94.3161" gradientUnits="userSpaceOnUse">
<stop stop-color="#0A687D"/>
<stop offset="1" stop-color="#13BF49"/>
</linearGradient>
<linearGradient id="paint25_linear" x1="90.9245" y1="57.0068" x2="90.9245" y2="94.6859" gradientUnits="userSpaceOnUse">
<stop stop-color="#0A687D"/>
<stop offset="1" stop-color="#13BF49"/>
</linearGradient>
<linearGradient id="paint26_linear" x1="96.5568" y1="57.1514" x2="96.5568" y2="95.0001" gradientUnits="userSpaceOnUse">
<stop stop-color="#0A687D"/>
<stop offset="1" stop-color="#13BF49"/>
</linearGradient>
<radialGradient id="paint27_radial" cx="0" cy="0" r="1" gradientUnits="userSpaceOnUse" gradientTransform="translate(32.4609 77.9871) rotate(91.3559) scale(5.6336 11.9405)">
<stop stop-color="#13BF49"/>
<stop offset="1" stop-color="#0A687D"/>
</radialGradient>
<radialGradient id="paint28_diamond" cx="0" cy="0" r="1" gradientUnits="userSpaceOnUse" gradientTransform="translate(30.0106 74.3751) rotate(72.384) scale(16.0252 36.1255)">
<stop stop-color="#13BF49"/>
<stop offset="1" stop-color="#0A687D"/>
</radialGradient>
<radialGradient id="paint29_radial" cx="0" cy="0" r="1" gradientUnits="userSpaceOnUse" gradientTransform="translate(103.003 82.1853) rotate(80.3521) scale(11.8048 26.4129)">
<stop stop-color="#13BF49"/>
<stop offset="0.955778" stop-color="#0A687D"/>
</radialGradient>
<radialGradient id="paint30_diamond" cx="0" cy="0" r="1" gradientUnits="userSpaceOnUse" gradientTransform="translate(102.648 80.77) rotate(80.7768) scale(17.0503 37.9643)">
<stop stop-color="#13BF49"/>
<stop offset="1" stop-color="#0A687D"/>
</radialGradient>
<radialGradient id="paint31_radial" cx="0" cy="0" r="1" gradientUnits="userSpaceOnUse" gradientTransform="translate(10.7314 71.3613) rotate(84.2854) scale(12.7187 12.7932)">
<stop stop-color="#13BF49"/>
<stop offset="1" stop-color="#0A687D"/>
</radialGradient>
<radialGradient id="paint32_radial" cx="0" cy="0" r="1" gradientUnits="userSpaceOnUse" gradientTransform="translate(8.59835 67.6508) rotate(76.494) scale(24.2592 26.4376)">
<stop stop-color="#13BF49"/>
<stop offset="1" stop-color="#0A687D"/>
</radialGradient>
<radialGradient id="paint33_radial" cx="0" cy="0" r="1" gradientUnits="userSpaceOnUse" gradientTransform="translate(22.3013 66.8185) rotate(76.8724) scale(18.6123 18.712)">
<stop stop-color="#13BF49"/>
<stop offset="1" stop-color="#0A687D"/>
</radialGradient>
<radialGradient id="paint34_radial" cx="0" cy="0" r="1" gradientUnits="userSpaceOnUse" gradientTransform="translate(20.5803 65.6418) rotate(85.6904) scale(25.9357 28.2962)">
<stop stop-color="#13BF49"/>
<stop offset="1" stop-color="#0A687D"/>
</radialGradient>
<clipPath id="clip0">
<rect width="120" height="95" fill="white"/>
</clipPath>
</defs>
</svg>
