<svg width="572" height="410" viewBox="0 0 572 410" fill="none" xmlns="http://www.w3.org/2000/svg">
<path d="M529.536 398.066H428.343C424.742 395.256 421.845 391.647 419.881 387.524C418.16 383.523 418.18 378.522 420.881 375.032C422.882 372.491 425.943 371.081 428.333 368.931C431.704 365.93 433.515 361.55 435.996 357.759C438.477 353.968 442.278 350.388 446.809 350.538C450.4 350.648 453.561 353.078 457.133 353.428C462.444 353.948 466.956 349.918 471.777 347.647C479.92 343.826 489.533 345.017 498.186 347.487C511.74 351.348 525.065 358.709 532.117 370.901C537.018 379.403 535.358 390.184 529.536 398.066Z" fill="url(#paint0_linear)"/>
<path d="M509.361 372.301C503.629 370.471 498.357 366 497.297 360.079C496.517 355.698 498.077 350.968 496.427 346.837C494.926 343.086 491.195 340.836 488.514 337.835C481.232 329.634 483.402 315.002 492.765 309.281C497.817 306.19 504.359 305.45 508.45 301.169C512.212 297.238 512.902 291.378 515.153 286.427C518.154 279.866 524.496 274.645 531.688 274.185C538.88 273.725 546.353 278.795 547.543 285.907C548.143 289.517 547.213 293.238 547.743 296.848C548.743 303.47 554.215 308.33 558.897 313.111C563.578 317.892 568.03 324.373 566.179 330.804C564.869 335.355 560.587 338.876 560.317 343.596C560.087 347.517 562.708 350.998 563.568 354.828C565.399 362.92 558.767 370.981 550.944 373.732C543.592 376.322 535.939 375.292 528.457 374.352C522.195 373.531 515.483 374.252 509.361 372.301Z" fill="url(#paint1_linear)"/>
<path d="M541.351 325.043L539.561 323.203L528.227 334.245V310.951H525.656V359.079L511.912 339.596L509.811 341.076L525.656 363.54V398.086H528.227V337.835L541.351 325.043Z" fill="#18516B"/>
<path d="M304.704 49.2764H297.161V398.086H381.939V49.2764H304.704Z" fill="url(#paint2_linear)"/>
<path d="M407.237 49.2764H381.938V398.086H414.779V49.2764H407.237Z" fill="url(#paint3_linear)"/>
<path d="M407.237 12H381.938V49.2763H407.237V12Z" fill="url(#paint4_linear)"/>
<path d="M381.929 12H304.704V49.2763H381.929V12Z" fill="url(#paint5_linear)"/>
<path d="M381.299 264.683H305.354V280.446H381.299V264.683Z" fill="#C8E8E2"/>
<path d="M381.299 230.587H305.354V246.35H381.299V230.587Z" fill="#C8E8E2"/>
<path d="M381.299 196.501H305.354V212.264H381.299V196.501Z" fill="#C8E8E2"/>
<path d="M381.299 213.544H305.354V229.307H381.299V213.544Z" fill="#C8E8E2"/>
<path d="M381.299 247.64H305.354V263.403H381.299V247.64Z" fill="#C8E8E2"/>
<path d="M381.299 315.822H305.354V331.584H381.299V315.822Z" fill="#C8E8E2"/>
<path d="M381.299 281.726H305.354V297.489H381.299V281.726Z" fill="#C8E8E2"/>
<path d="M381.299 298.779H305.354V314.541H381.299V298.779Z" fill="#C8E8E2"/>
<path d="M381.299 94.2239H305.354V109.987H381.299V94.2239Z" fill="#C8E8E2"/>
<path d="M381.299 179.448H305.354V195.211H381.299V179.448Z" fill="#C8E8E2"/>
<path d="M381.299 77.1711H305.354V92.9338H381.299V77.1711Z" fill="#C8E8E2"/>
<path d="M381.299 332.865H305.354V348.627H381.299V332.865Z" fill="#C8E8E2"/>
<path d="M381.299 60.1282H305.354V75.8908H381.299V60.1282Z" fill="#C8E8E2"/>
<path d="M381.299 111.267H305.354V127.03H381.299V111.267Z" fill="#C8E8E2"/>
<path d="M381.299 162.406H305.354V178.168H381.299V162.406Z" fill="#C8E8E2"/>
<path d="M381.299 128.31H305.354V144.072H381.299V128.31Z" fill="#C8E8E2"/>
<path d="M381.299 145.363H305.354V161.125H381.299V145.363Z" fill="#C8E8E2"/>
<path d="M406.596 77.1711H382.579V92.9338H406.596V77.1711Z" fill="#A3E2DA"/>
<path d="M406.596 162.406H382.579V178.168H406.596V162.406Z" fill="#A3E2DA"/>
<path d="M406.596 145.363H382.579V161.125H406.596V145.363Z" fill="#A3E2DA"/>
<path d="M406.596 179.448H382.579V195.211H406.596V179.448Z" fill="#A3E2DA"/>
<path d="M406.596 128.31H382.579V144.072H406.596V128.31Z" fill="#A3E2DA"/>
<path d="M406.596 94.2239H382.579V109.987H406.596V94.2239Z" fill="#A3E2DA"/>
<path d="M406.596 111.267H382.579V127.03H406.596V111.267Z" fill="#A3E2DA"/>
<path d="M406.596 332.865H382.579V348.627H406.596V332.865Z" fill="#A3E2DA"/>
<path d="M406.596 196.501H382.579V212.264H406.596V196.501Z" fill="#A3E2DA"/>
<path d="M406.596 60.1282H382.579V75.8908H406.596V60.1282Z" fill="#A3E2DA"/>
<path d="M382.579 58.838H304.063V349.887H407.877V58.838H382.579ZM406.586 348.627H382.579V332.865H406.586V348.627ZM381.288 348.627H305.354V332.865H381.288V348.627ZM305.354 60.1282H381.288V75.8909H305.354V60.1282ZM305.354 77.1311H381.288V92.9338H305.354V77.1311ZM305.354 94.134H381.288V110.017H305.354V94.134ZM305.354 111.137H381.288V127.02H305.354V111.137ZM305.354 128.14H381.288V144.022H305.354V128.14ZM305.354 145.143H381.288V160.905H305.354V145.143ZM305.354 162.146H381.288V177.908H305.354V162.146ZM305.354 179.148H381.288V194.911H305.354V179.148ZM305.354 196.151H381.288V211.914H305.354V196.151ZM305.354 213.154H381.288V228.917H305.354V213.154ZM305.354 230.157H381.288V245.92H305.354V230.157ZM305.354 247.16H381.288V262.923H305.354V247.16ZM305.354 264.163H381.288V280.446H305.354V264.163ZM305.354 281.166H381.288V296.928H305.354V281.166ZM305.354 298.169H381.288V313.931H305.354V298.169ZM305.354 315.172H381.288V330.934H305.354V315.172ZM406.596 331.584H382.589V315.822H406.596V331.584ZM406.596 314.581H382.589V298.779H406.596V314.581ZM406.596 297.579H382.589V281.726H406.596V297.579ZM406.596 280.576H382.589V264.683H406.596V280.576ZM406.596 263.573H382.589V247.64H406.596V263.573ZM406.596 246.57H382.589V230.587H406.596V246.57ZM406.596 229.567H382.589V213.544H406.596V229.567ZM406.596 212.564H382.589V196.501H406.596V212.564ZM406.596 195.561H382.589V179.449H406.596V195.561ZM406.596 178.558H382.589V162.406H406.596V178.558ZM406.596 161.555H382.589V145.363H406.596V161.555ZM406.596 144.553H382.589V128.31H406.596V144.553ZM406.596 127.55H382.589V111.267H406.596V127.55ZM406.596 110.547H382.589V94.224H406.596V110.547ZM406.596 93.5439H382.589V77.1711H406.596V93.5439ZM406.596 76.541H382.589V60.1282H406.596V76.541Z" fill="#EEFFFF"/>
<path d="M406.596 298.779H382.579V314.541H406.596V298.779Z" fill="#A3E2DA"/>
<path d="M406.596 281.726H382.579V297.489H406.596V281.726Z" fill="#A3E2DA"/>
<path d="M406.596 315.822H382.579V331.584H406.596V315.822Z" fill="#A3E2DA"/>
<path d="M406.596 213.544H382.579V229.307H406.596V213.544Z" fill="#A3E2DA"/>
<path d="M406.596 230.587H382.579V246.35H406.596V230.587Z" fill="#A3E2DA"/>
<path d="M406.596 264.683H382.579V280.446H406.596V264.683Z" fill="#A3E2DA"/>
<path d="M406.596 247.64H382.579V263.403H406.596V247.64Z" fill="#A3E2DA"/>
<path d="M407.237 359.919H388.37V373.561H407.237V359.919Z" fill="#C8E8E2"/>
<path d="M339.555 367.3H311.306V398.086H339.555V367.3Z" fill="#09816D" fill-opacity="0.789842"/>
<path d="M339.545 367.3V359.919H304.704V398.085H311.306V367.3H339.545Z" fill="#0B8C66"/>
<path d="M374.386 359.919H339.545V367.3H374.386V359.919Z" fill="#0B8C67"/>
<path d="M374.386 367.3H339.545V398.086H374.386V367.3Z" fill="#0A687D"/>
<g opacity="0.63">
<path opacity="0.63" d="M309.225 128.31L310.175 127.03L321.879 111.267L322.829 109.977L334.533 94.224L335.484 92.9338L347.177 77.1711L348.138 75.8909L359.831 60.1282L360.792 58.838H321.019L320.059 60.1282L308.365 75.8909L307.404 77.1711L305.344 79.9516L304.063 81.6819V92.9338V94.224V109.977V111.267V127.03V128.31V135.261L305.344 133.531L309.225 128.31Z" fill="white"/>
<path opacity="0.63" d="M402.585 246.35L401.625 247.64L389.931 263.393L388.971 264.683L382.579 273.304L381.288 275.035L377.277 280.446L376.327 281.726L364.623 297.489L363.672 298.779L351.969 314.531L351.018 315.822L339.315 331.584L338.364 332.865L326.671 348.627L325.71 349.917H365.483L366.443 348.627L378.137 332.865L379.087 331.584L381.288 328.614L382.579 326.884L390.791 315.822L391.742 314.531L403.445 298.779L404.396 297.489L406.586 294.538L407.877 292.798V281.726V280.446V264.683V263.393V247.64V246.35V239.219L406.586 240.949L402.585 246.35Z" fill="white"/>
<path opacity="0.63" d="M406.586 71.2402L403.145 75.891L402.195 77.1712L390.491 92.9339L389.541 94.2241L382.579 103.596L381.288 105.326L377.837 109.977L376.887 111.267L365.183 127.03L364.233 128.31L352.539 144.073L351.579 145.363L339.885 161.115L338.925 162.406L327.231 178.168L326.27 179.449L314.577 195.211L313.626 196.501L305.344 207.643L304.063 209.374V212.254V213.544V229.307V230.587V237.508L305.344 235.778L309.195 230.587L310.155 229.307L321.849 213.544L322.809 212.254L334.503 196.501L335.463 195.211L347.157 179.449L348.118 178.168L359.811 162.406L360.772 161.115L372.465 145.363L373.416 144.073L381.288 133.461L382.579 131.73L385.119 128.31L386.07 127.03L397.774 111.267L398.724 109.977L406.586 99.385L407.877 97.6547V94.2241V92.9339V77.1712V75.891V69.5099L406.586 71.2402Z" fill="white"/>
<path opacity="0.63" d="M405.626 161.115L404.666 162.406L392.972 178.168L392.022 179.448L382.579 192.161L381.288 193.901L380.318 195.211L379.368 196.501L367.664 212.254L366.714 213.544L355.01 229.307L354.059 230.587L342.356 246.35L341.405 247.64L329.702 263.393L328.751 264.683L317.058 280.446L316.097 281.726L305.344 296.208L304.063 297.939V298.779V314.531V315.822V326.083L305.344 324.343L311.676 315.822L312.636 314.531L324.33 298.779L325.29 297.489L336.984 281.726L337.934 280.446L349.638 264.683L350.588 263.393L362.292 247.64L363.242 246.35L374.946 230.587L375.897 229.307L381.288 222.036L382.579 220.305L387.6 213.544L388.551 212.254L400.244 196.501L401.205 195.211L406.586 187.95L407.877 186.22V179.448V178.168V162.406V161.115V158.085L406.586 159.815L405.626 161.115Z" fill="white"/>
<path opacity="0.63" d="M312.456 145.363L313.416 144.072L325.16 128.31L326.111 127.03L337.854 111.267L338.815 109.977L350.558 94.224L351.509 92.9338L363.252 77.1711L364.213 75.8909L375.957 60.1282L376.917 58.838H373.156L372.195 60.1282L360.452 75.8909L359.501 77.1711L347.757 92.9338L346.797 94.224L335.053 109.977L334.103 111.267L322.359 127.03L321.399 128.31L309.655 144.072L308.695 145.363L305.344 149.853L304.063 151.584V156.625L305.344 154.894L312.456 145.363Z" fill="white"/>
<path opacity="0.63" d="M314.877 162.406L315.827 161.115L327.551 145.363L328.501 144.073L340.225 128.31L341.175 127.03L352.899 111.267L353.849 109.977L365.563 94.224L366.524 92.9338L378.237 77.1711L379.198 75.8909L381.288 73.0704L382.579 71.3401L390.911 60.1282L391.872 58.838H387.07L386.11 60.1282L382.579 64.889L381.288 66.6093L374.396 75.8909L373.446 77.1711L361.722 92.9338L360.772 94.224L349.058 109.977L348.098 111.267L336.384 127.03L335.424 128.31L323.71 144.073L322.749 145.363L311.036 161.115L310.075 162.406L305.344 168.767L304.063 170.497V176.948L305.344 175.218L314.877 162.406Z" fill="white"/>
<path opacity="0.63" d="M398.124 212.254L397.163 213.544L385.45 229.307L384.489 230.587L382.579 233.168L381.288 234.888L372.776 246.35L371.815 247.64L360.101 263.393L359.151 264.683L347.427 280.446L346.477 281.726L334.753 297.489L333.803 298.779L322.079 314.531L321.129 315.822L309.415 331.584L308.455 332.865L305.344 337.045L304.063 338.776V345.227L305.344 343.496L313.256 332.865L314.207 331.584L325.92 315.822L326.881 314.531L338.594 298.779L339.555 297.489L351.269 281.726L352.229 280.446L363.943 264.683L364.903 263.393L376.617 247.64L377.577 246.35L381.288 241.349L382.579 239.619L389.291 230.587L390.241 229.307L401.965 213.544L402.915 212.254L406.586 207.313L407.877 205.583V199.132L406.586 200.862L398.124 212.254Z" fill="white"/>
</g>
<path d="M361.002 153.234H353.459V398.086H438.237V153.234H361.002Z" fill="url(#paint6_linear)"/>
<path d="M463.535 153.234H438.237V398.086H471.077V153.234H463.535Z" fill="url(#paint7_linear)"/>
<path d="M437.596 264.683H361.652V280.446H437.596V264.683Z" fill="#C8E8E2"/>
<path d="M437.596 230.587H361.652V246.35H437.596V230.587Z" fill="#C8E8E2"/>
<path d="M437.596 196.501H361.652V212.264H437.596V196.501Z" fill="#C8E8E2"/>
<path d="M437.596 213.544H361.652V229.307H437.596V213.544Z" fill="#C8E8E2"/>
<path d="M437.596 247.64H361.652V263.403H437.596V247.64Z" fill="#C8E8E2"/>
<path d="M437.596 315.822H361.652V331.584H437.596V315.822Z" fill="#C8E8E2"/>
<path d="M437.596 281.726H361.652V297.489H437.596V281.726Z" fill="#C8E8E2"/>
<path d="M437.596 298.779H361.652V314.541H437.596V298.779Z" fill="#C8E8E2"/>
<path d="M437.596 179.448H361.652V195.211H437.596V179.448Z" fill="#C8E8E2"/>
<path d="M437.596 332.865H361.652V348.627H437.596V332.865Z" fill="#C8E8E2"/>
<path d="M437.596 162.406H361.652V178.168H437.596V162.406Z" fill="#C8E8E2"/>
<path d="M462.885 162.406H438.877V178.168H462.885V162.406Z" fill="url(#paint8_linear)"/>
<path d="M438.877 161.115H360.362V349.917H464.175V161.115H438.877ZM462.885 348.627H438.877V332.864H462.885V348.627ZM437.587 348.627H361.682V332.864H437.627L437.587 348.627ZM361.682 162.405H437.627V178.168H361.682V162.405ZM361.682 179.408H437.627V195.171H361.682V179.408ZM361.682 196.411H437.627V212.174H361.682V196.411ZM361.682 213.414H437.627V229.177H361.682V213.414ZM361.682 230.417H437.627V246.18H361.682V230.417ZM361.682 247.42H437.627V263.183H361.682V247.42ZM361.682 264.423H437.627V280.446H361.682V264.423ZM361.682 281.426H437.627V297.188H361.682V281.426ZM361.682 298.429H437.627V314.191H361.682V298.429ZM361.682 315.431H437.627V331.194H361.682V315.431ZM462.925 331.194H438.917V315.822H462.925V331.194ZM462.925 314.191H438.917V298.779H462.925V314.191ZM462.925 297.188H438.917V281.726H462.925V297.188ZM462.925 280.185H438.917V264.683H462.925V280.185ZM462.925 263.183H438.917V247.64H462.925V263.183ZM462.925 246.18H438.917V230.587H462.925V246.18ZM462.925 229.177H438.917V213.544H462.925V229.177ZM462.925 212.174H438.917V196.501H462.925V212.174ZM462.925 195.171H438.917V179.448H462.925V195.171ZM462.925 178.168H438.917V162.405H462.925V178.168Z" fill="#EEFFFF"/>
<path d="M462.885 179.448H438.877V195.211H462.885V179.448Z" fill="url(#paint9_linear)"/>
<path d="M462.885 332.865H438.877V348.627H462.885V332.865Z" fill="url(#paint10_linear)"/>
<path d="M462.885 196.501H438.877V212.264H462.885V196.501Z" fill="url(#paint11_linear)"/>
<path d="M462.885 298.779H438.877V314.541H462.885V298.779Z" fill="url(#paint12_linear)"/>
<path d="M462.885 281.726H438.877V297.489H462.885V281.726Z" fill="url(#paint13_linear)"/>
<path d="M462.885 315.822H438.877V331.584H462.885V315.822Z" fill="url(#paint14_linear)"/>
<path d="M462.885 213.544H438.877V229.307H462.885V213.544Z" fill="url(#paint15_linear)"/>
<path d="M462.885 230.587H438.877V246.35H462.885V230.587Z" fill="url(#paint16_linear)"/>
<path d="M462.885 264.683H438.877V280.446H462.885V264.683Z" fill="url(#paint17_linear)"/>
<path d="M462.885 247.64H438.877V263.403H462.885V247.64Z" fill="url(#paint18_linear)"/>
<path d="M462.885 360.559H445.309V372.921H462.885V360.559Z" fill="url(#paint19_linear)"/>
<path d="M444.029 359.279V374.212H464.175V359.279H444.029ZM462.895 372.921H445.309V360.559H462.885L462.895 372.921Z" fill="#EEFFFF"/>
<path d="M350.078 139.812H438.237L412.268 97.8446L350.078 139.812Z" fill="url(#paint20_linear)"/>
<path d="M412.268 97.8446L438.237 139.812H474.458L412.268 97.8446Z" fill="url(#paint21_linear)"/>
<path d="M438.227 139.812H347.688V153.244H438.227V139.812Z" fill="url(#paint22_linear)"/>
<path d="M444.979 139.812H438.237V153.234H444.979H476.849V139.812H444.979Z" fill="url(#paint23_linear)"/>
<path d="M395.843 368.8V359.919H361.002V398.085H369.715V368.8H395.843Z" fill="#09816D" fill-opacity="0.789842"/>
<path d="M395.843 368.801H369.715V398.086H395.843V368.801Z" fill="#0A687D"/>
<path d="M430.684 359.919H395.843V368.8H430.684V359.919Z" fill="#09816D" fill-opacity="0.789842"/>
<path d="M430.684 368.801H395.843V398.086H430.684V368.801Z" fill="#0A687D"/>
<path d="M428.503 264.683L416.94 280.446H430.544L437.586 270.844V264.683H428.503Z" fill="#C8E8E2"/>
<path d="M423.492 264.683H416.14L404.566 280.446H411.918L423.492 264.683Z" fill="#C8E8E2"/>
<path d="M437.587 280.445V276.065L434.375 280.445H437.587Z" fill="#C8E8E2"/>
<path d="M364.463 264.683L361.652 268.464V280.446H377.427L389.001 264.683H364.463Z" fill="#C8E8E2"/>
<path d="M437.586 245.48V235.458L429.594 246.35H436.946L437.586 245.48Z" fill="#C8E8E2"/>
<path d="M363.732 230.587L361.652 233.398V246.35H362.202L373.946 230.587H363.732Z" fill="#C8E8E2"/>
<path d="M389.811 230.587L378.087 246.35H402.455L414.029 230.587H389.811Z" fill="#C8E8E2"/>
<path d="M385.77 230.587H377.107L365.363 246.35H374.056L385.77 230.587Z" fill="#C8E8E2"/>
<path d="M399.344 196.501H389.041L377.337 212.254H387.6L399.344 196.501Z" fill="#C8E8E2"/>
<path d="M411.118 196.501H402.505L390.762 212.254H399.394L411.118 196.501Z" fill="#C8E8E2"/>
<path d="M427.483 212.254L437.586 198.492V196.501H415.149L403.435 212.254H427.483Z" fill="#C8E8E2"/>
<path d="M426.543 213.544H402.475L390.762 229.307H414.969L426.543 213.544Z" fill="#C8E8E2"/>
<path d="M389.811 213.544L378.067 229.307H386.72L398.444 213.544H389.811Z" fill="#C8E8E2"/>
<path d="M386.65 213.544H376.387L364.683 229.307H374.906L386.65 213.544Z" fill="#C8E8E2"/>
<path d="M401.515 247.64H377.137L365.413 263.393H389.941L401.515 247.64Z" fill="#C8E8E2"/>
<path d="M437.587 263.393V252.311L429.454 263.393H437.587Z" fill="#C8E8E2"/>
<path d="M364.413 247.64L361.652 251.341V263.033L373.095 247.64H364.413Z" fill="#C8E8E2"/>
<path d="M428.654 247.64L417.08 263.393H424.432L436.006 247.64H428.654Z" fill="#C8E8E2"/>
<path d="M385.94 315.822H378.587L367.024 331.584H374.376L385.94 315.822Z" fill="#C8E8E2"/>
<path d="M379.388 331.584H392.992L404.566 315.822H390.961L379.388 331.584Z" fill="#C8E8E2"/>
<path d="M437.586 331.584V315.822H408.407L396.833 331.584H437.586Z" fill="#C8E8E2"/>
<path d="M404.426 297.489H418.03L429.594 281.726H415.989L404.426 297.489Z" fill="#C8E8E2"/>
<path d="M437.587 297.489V281.726H433.435L421.861 297.489H437.587Z" fill="#C8E8E2"/>
<path d="M361.652 281.726V297.489H364.913L376.487 281.726H361.652Z" fill="#C8E8E2"/>
<path d="M410.978 281.726H403.615L392.052 297.489H399.404L410.978 281.726Z" fill="#C8E8E2"/>
<path d="M437.586 314.531V298.779H420.921L409.347 314.531H437.586Z" fill="#C8E8E2"/>
<path d="M398.464 298.779H391.102L379.538 314.531H386.89L398.464 298.779Z" fill="#C8E8E2"/>
<path d="M361.652 298.779V301.929L363.963 298.779H361.652Z" fill="#C8E8E2"/>
<path d="M391.902 314.531H405.516L417.08 298.779H403.476L391.902 314.531Z" fill="#C8E8E2"/>
<path d="M412.048 179.448H401.695L389.991 195.211H400.304L412.048 179.448Z" fill="#C8E8E2"/>
<path d="M361.652 179.448V188.3L368.214 179.448H361.652Z" fill="#C8E8E2"/>
<path d="M423.792 179.448H415.209L403.466 195.211H412.068L423.792 179.448Z" fill="#C8E8E2"/>
<path d="M437.586 195.211V179.448H427.823L416.109 195.211H437.586Z" fill="#C8E8E2"/>
<path d="M378.448 332.865L366.874 348.627H380.478L392.052 332.865H378.448Z" fill="#C8E8E2"/>
<path d="M395.893 332.865L384.319 348.627H425.082L436.656 332.865H395.893Z" fill="#C8E8E2"/>
<path d="M366.073 332.865L361.652 338.896V348.627H361.862L373.426 332.865H366.073Z" fill="#C8E8E2"/>
<path d="M437.586 348.627V336.815L428.924 348.627H437.586Z" fill="#C8E8E2"/>
<path d="M424.742 178.168L436.456 162.406H427.903L416.169 178.168H424.742Z" fill="#C8E8E2"/>
<path d="M437.586 178.168V166.316L428.784 178.168H437.586Z" fill="#C8E8E2"/>
<path d="M412.998 178.168L424.742 162.406H414.339L402.645 178.168H412.998Z" fill="#C8E8E2"/>
<path d="M361.652 162.406V178.168H369.164L380.868 162.406H361.652Z" fill="#C8E8E2"/>
<g opacity="0.63">
<path opacity="0.63" d="M462.885 164.036L452.511 178.168L451.571 179.448L439.997 195.211L439.057 196.501L438.877 196.741L437.587 198.492L427.483 212.254L426.543 213.544L414.969 229.307L414.029 230.587L402.455 246.35L401.515 247.64L389.941 263.393L389.001 264.683L377.427 280.446L376.487 281.726L364.913 297.488L363.963 298.779L361.652 301.929L360.362 303.69V314.531V315.822V331.584V332.865V340.646L361.652 338.896L366.073 332.865L367.024 331.584L378.588 315.822L379.538 314.531L391.102 298.779L392.052 297.488L403.616 281.726L404.566 280.446L416.14 264.683L417.08 263.393L428.654 247.64L429.594 246.35L437.587 235.458L438.877 233.708L441.168 230.587L442.108 229.307L453.682 213.544L454.622 212.254L462.885 201.002L464.175 199.252V196.501V195.211V179.448V178.168V162.286L462.885 164.036Z" fill="white"/>
<path opacity="0.63" d="M461.974 212.254L461.034 213.544L449.46 229.307L448.52 230.587L438.877 243.719L437.586 245.48L436.946 246.35L436.006 247.64L424.432 263.393L423.492 264.683L411.918 280.446L410.978 281.726L399.404 297.489L398.464 298.779L386.89 314.531L385.94 315.822L374.376 331.584L373.426 332.865L361.862 348.627L360.912 349.917H365.933L366.874 348.627L378.447 332.865L379.388 331.584L390.961 315.822L391.902 314.531L403.475 298.779L404.426 297.489L415.989 281.726L416.94 280.446L428.503 264.683L429.454 263.393L437.586 252.311L438.877 250.561L441.018 247.64L441.968 246.35L453.542 230.587L454.482 229.307L462.885 217.855L464.175 216.095V213.544V212.254V209.264L462.885 211.014L461.974 212.254Z" fill="white"/>
<path opacity="0.63" d="M455.572 246.35L454.632 247.64L443.058 263.393L442.108 264.683L438.877 269.094L437.586 270.844L430.544 280.446L429.594 281.726L418.03 297.489L417.08 298.779L405.516 314.531L404.566 315.822L392.992 331.584L392.052 332.865L380.478 348.627L379.538 349.917H383.379L384.319 348.627L395.893 332.865L396.833 331.584L408.407 315.822L409.347 314.531L420.921 298.779L421.861 297.489L433.435 281.726L434.375 280.446L437.586 276.065L438.877 274.315L445.949 264.683L446.899 263.393L458.463 247.64L459.414 246.35L462.885 241.609L464.175 239.859V234.628L462.885 236.378L455.572 246.35Z" fill="white"/>
<path opacity="0.63" d="M462.624 297.488L461.684 298.779L450.11 314.531L449.17 315.822L438.877 329.844L436.656 332.864L425.082 348.627L424.142 349.917H427.973L428.923 348.627L437.586 336.815L438.877 335.065L440.487 332.864L441.438 331.584L453.011 315.822L453.952 314.531L462.884 302.359L464.175 300.609V298.779V297.488V295.378L462.884 297.128L462.624 297.488Z" fill="white"/>
<path opacity="0.63" d="M363.733 230.587L364.683 229.307L376.387 213.544L377.337 212.254L389.041 196.501L389.991 195.211L401.695 179.448L402.645 178.168L414.339 162.405L415.299 161.115H381.819L380.868 162.405L369.165 178.168L368.214 179.448L361.652 188.3L360.362 190.03V195.211V196.501V212.254V213.544V229.307V230.587V235.128L361.652 233.398L363.733 230.587Z" fill="white"/>
<path opacity="0.63" d="M364.413 247.64L365.363 246.35L377.107 230.587L378.067 229.307L389.811 213.544L390.761 212.254L402.505 196.501L403.466 195.211L415.209 179.448L416.17 178.168L427.903 162.405L428.864 161.115H425.703L424.742 162.405L412.999 178.168L412.048 179.448L400.305 195.211L399.344 196.501L387.6 212.254L386.65 213.544L374.906 229.307L373.946 230.587L362.202 246.35L360.362 248.82V253.071L361.652 251.341L364.413 247.64Z" fill="white"/>
<path opacity="0.63" d="M364.463 264.683L365.413 263.393L377.137 247.64L378.087 246.35L389.811 230.587L390.761 229.307L402.475 213.544L403.436 212.254L415.149 196.501L416.11 195.211L427.823 179.448L428.784 178.168L437.587 166.316L438.877 164.586L440.497 162.405L441.458 161.115H438.877H437.587H437.417L436.456 162.405L424.742 178.168L423.792 179.448L412.068 195.211L411.118 196.501L399.394 212.254L398.444 213.544L386.72 229.307L385.77 230.587L374.056 246.35L373.096 247.64L361.652 263.033L360.362 264.763V270.194L361.652 268.463L364.463 264.683Z" fill="white"/>
<path opacity="0.63" d="M464.175 349.917V347.287L462.244 349.917H464.175Z" fill="white"/>
<path opacity="0.63" d="M454.432 360.559L445.359 372.921L444.409 374.212H449.43L450.371 372.921L459.444 360.559L460.394 359.279H455.372L454.432 360.559Z" fill="white"/>
</g>
<path d="M26.4767 365.264C20.6349 364.514 14.763 361.514 12.1021 356.263C7.66067 347.521 13.4926 336.709 11.0118 327.258C9.37123 320.967 4.17955 314.806 6.66035 308.825C8.78103 303.724 15.6633 301.713 17.3438 296.443C19.0043 290.962 14.2328 285.901 11.822 280.71C8.0408 272.578 10.1615 263.067 12.3522 254.375C14.4629 246.014 16.6536 237.442 21.6052 230.371C25.7765 224.37 31.6984 219.849 36.0098 213.988C38.4306 210.698 40.3412 206.987 43.0921 203.987C45.843 200.986 49.7743 198.606 53.8256 199.096C59.1273 199.736 62.7685 204.967 64.0489 210.158C65.3293 215.349 64.9792 220.82 66.0495 226.041C69.1805 240.843 83.5952 252.275 83.5452 267.408C83.5452 275.519 79.1938 283.17 79.2838 291.272C79.3538 297.433 81.9547 303.274 83.6452 309.155C85.3358 315.036 86.026 321.877 82.6449 327.018C78.9437 332.629 70.7911 335.799 70.511 342.52C70.3309 346.861 73.782 350.612 74.1721 354.942C74.7223 361.084 68.6904 366.214 62.5684 366.945C55.8362 367.795 50.6446 363.764 44.3125 363.534C38.3606 363.344 32.7288 366.064 26.4767 365.264Z" fill="url(#paint24_linear)"/>
<path d="M62.9684 282.51L60.3776 280.8L46.7232 301.533V246.814H43.6222V342.61L26.1166 324.577L23.8859 326.738L43.6222 347.071V399H46.7232V307.174L62.9684 282.51Z" fill="#18516B"/>
<path d="M181.272 176.198H90.2828V398.086H181.272V176.198Z" fill="url(#paint25_linear)"/>
<path d="M221.665 176.198H181.272V398.086H221.665V176.198Z" fill="url(#paint26_linear)"/>
<path d="M174.73 122.389H98.8357V176.038H174.73V122.389Z" fill="url(#paint27_linear)"/>
<path d="M212.672 122.389H174.73V176.038H212.672V122.389Z" fill="url(#paint28_linear)"/>
<path d="M129.115 366.13H102.267V398.086H129.115V366.13Z" fill="#0A687D"/>
<path d="M152.533 366.13H135.777V384.993H152.533V366.13Z" fill="#C8E8E2"/>
<path d="M169.288 366.13H152.533V384.993H169.288V366.13Z" fill="#C8E8E2"/>
<path d="M201.469 366.13H188.154V384.993H201.469V366.13Z" fill="#C8E8E2"/>
<path d="M214.783 366.13H201.469V384.993H214.783V366.13Z" fill="#C8E8E2"/>
<path d="M146.261 83.572C136.365 84.1683 127.071 88.5182 120.274 95.7339C113.477 102.95 109.691 112.487 109.689 122.399H182.853C182.85 112.483 179.061 102.943 172.26 95.7273C165.46 88.5112 156.16 84.1634 146.261 83.572Z" fill="url(#paint29_radial)"/>
<path d="M135.497 135.831H124.524V147.143H135.497V135.831Z" fill="#C8E8E2"/>
<path d="M149.042 135.831H138.068V147.143H149.042V135.831Z" fill="#C8E8E2"/>
<path d="M121.943 149.713H110.969V161.025H121.943V149.713Z" fill="#C8E8E2"/>
<path d="M162.586 135.831H151.612V147.143H162.586V135.831Z" fill="#C8E8E2"/>
<path d="M121.943 135.831H110.969V147.143H121.943V135.831Z" fill="#C8E8E2"/>
<path d="M121.943 163.596H110.969V174.908H121.943V163.596Z" fill="#C8E8E2"/>
<path d="M135.497 149.713H124.524V161.025H135.497V149.713Z" fill="#C8E8E2"/>
<path d="M149.042 149.713H138.068V161.025H149.042V149.713Z" fill="#C8E8E2"/>
<path d="M162.586 163.596H151.612V174.908H162.586V163.596Z" fill="#C8E8E2"/>
<path d="M149.042 163.596H138.068V174.908H149.042V163.596Z" fill="#C8E8E2"/>
<path d="M162.586 149.713H151.612V161.025H162.586V149.713Z" fill="#C8E8E2"/>
<path d="M135.497 163.596H124.524V174.908H135.497V163.596Z" fill="#C8E8E2"/>
<path d="M124.524 177.488H165.167V133.26H108.399V177.488H124.514H124.524ZM110.979 135.831H121.983V147.143H110.979V135.831ZM124.524 135.831H135.527V147.143H124.524V135.831ZM138.068 135.831H149.072V147.143H138.068V135.831ZM151.613 135.831H162.616V147.143H151.613V135.831ZM162.616 174.918H151.613V163.596H162.616V174.918ZM149.072 174.918H138.068V163.596H149.072V174.918ZM135.527 174.918H124.524V163.596H135.527V174.918ZM124.524 149.723H135.527V161.025H124.524V149.723ZM149.042 161.025H138.038V149.713H149.042V161.025ZM162.586 161.025H151.583V149.713H162.586V161.025ZM110.969 149.713H121.973V161.025H110.969V149.713ZM110.969 163.596H121.973V174.908H110.969V163.596Z" fill="#EEFFFF"/>
<path d="M117.742 252.321H103.557V264.793H117.742V252.321Z" fill="#C8E8E2"/>
<path d="M117.742 207.173H103.557V219.645H117.742V207.173Z" fill="#C8E8E2"/>
<path d="M151.252 192.131H137.068V204.613H151.252V192.131Z" fill="#C8E8E2"/>
<path d="M117.742 222.226H103.557V234.698H117.742V222.226Z" fill="#C8E8E2"/>
<path d="M117.742 192.131H103.557V204.613H117.742V192.131Z" fill="#C8E8E2"/>
<path d="M134.497 192.131H120.312V204.613H134.497V192.131Z" fill="#C8E8E2"/>
<path d="M117.742 237.268H103.557V249.75H117.742V237.268Z" fill="#C8E8E2"/>
<path d="M117.742 267.363H103.557V279.846H117.742V267.363Z" fill="#C8E8E2"/>
<path d="M117.742 312.511H103.557V324.993H117.742V312.511Z" fill="#C8E8E2"/>
<path d="M117.742 342.606H103.557V355.088H117.742V342.606Z" fill="#C8E8E2"/>
<path d="M117.742 327.564H103.557V340.036H117.742V327.564Z" fill="#C8E8E2"/>
<path d="M117.742 297.469H103.557V309.941H117.742V297.469Z" fill="#C8E8E2"/>
<path d="M117.742 282.416H103.557V294.888H117.742V282.416Z" fill="#C8E8E2"/>
<path d="M151.252 312.511H137.068V324.993H151.252V312.511Z" fill="#C8E8E2"/>
<path d="M134.497 327.564H120.312V340.036H134.497V327.564Z" fill="#C8E8E2"/>
<path d="M134.497 312.511H120.312V324.993H134.497V312.511Z" fill="#C8E8E2"/>
<path d="M151.252 327.564H137.068V340.036H151.252V327.564Z" fill="#C8E8E2"/>
<path d="M134.497 282.416H120.312V294.888H134.497V282.416Z" fill="#C8E8E2"/>
<path d="M134.497 297.469H120.312V309.941H134.497V297.469Z" fill="#C8E8E2"/>
<path d="M134.497 342.606H120.312V355.088H134.497V342.606Z" fill="#C8E8E2"/>
<path d="M151.252 297.469H137.068V309.941H151.252V297.469Z" fill="#C8E8E2"/>
<path d="M151.252 207.173H137.068V219.645H151.252V207.173Z" fill="#C8E8E2"/>
<path d="M151.252 222.226H137.068V234.698H151.252V222.226Z" fill="#C8E8E2"/>
<path d="M151.252 252.321H137.068V264.793H151.252V252.321Z" fill="#C8E8E2"/>
<path d="M151.252 237.268H137.068V249.75H151.252V237.268Z" fill="#C8E8E2"/>
<path d="M151.252 282.416H137.068V294.888H151.252V282.416Z" fill="#C8E8E2"/>
<path d="M151.252 267.363H137.068V279.846H151.252V267.363Z" fill="#C8E8E2"/>
<path d="M168.008 282.416H153.823V294.888H168.008V282.416Z" fill="#C8E8E2"/>
<path d="M168.008 237.268H153.823V249.75H168.008V237.268Z" fill="#C8E8E2"/>
<path d="M134.497 252.321H120.312V264.793H134.497V252.321Z" fill="#C8E8E2"/>
<path d="M168.008 207.173H153.823V219.645H168.008V207.173Z" fill="#C8E8E2"/>
<path d="M168.008 222.226H153.823V234.698H168.008V222.226Z" fill="#C8E8E2"/>
<path d="M151.252 342.606H137.068V355.088H151.252V342.606Z" fill="#C8E8E2"/>
<path d="M134.497 237.268H120.312V249.75H134.497V237.268Z" fill="#C8E8E2"/>
<path d="M134.497 207.173H120.312V219.645H134.497V207.173Z" fill="#C8E8E2"/>
<path d="M134.497 222.226H120.312V234.698H134.497V222.226Z" fill="#C8E8E2"/>
<path d="M168.008 192.131H153.823V204.613H168.008V192.131Z" fill="#C8E8E2"/>
<path d="M151.252 189.55H100.986V357.659H170.579V189.55H151.252ZM168.008 355.058H153.843V342.606H168.028L168.008 355.058ZM151.252 355.058H137.068V342.606H151.252V355.058ZM134.497 355.058H120.312V342.606H134.497V355.058ZM117.742 355.058H103.557V342.606H117.742V355.058ZM103.557 192.131H117.742V204.613H103.557V192.131ZM120.312 192.131H134.497V204.613H120.312V192.131ZM137.068 192.131H151.252V204.613H137.068V192.131ZM151.252 219.655H137.068V207.173H151.252V219.655ZM151.252 234.658H137.068V222.226H151.252V234.658ZM151.252 249.66H137.068V237.268H151.252V249.66ZM151.252 264.663H137.068V252.321H151.252V264.663ZM151.252 279.665H137.068V267.363H151.252V279.665ZM151.252 294.668H137.068V282.416H151.252V294.668ZM151.252 309.671H137.068V297.469H151.252V309.671ZM151.252 324.673H137.068V312.511H151.252V324.673ZM151.252 339.676H137.068V327.564H151.252V339.676ZM120.312 327.204H134.497V340.056H120.312V327.204ZM120.312 312.201H134.497V324.683H120.312V312.201ZM120.312 297.198H134.497V309.671H120.312V297.198ZM120.312 282.196H134.497V294.668H120.312V282.196ZM120.312 267.193H134.497V279.846H120.312V267.193ZM120.312 252.191H134.497V264.663H120.312V252.191ZM120.312 237.188H134.497V249.67H120.312V237.188ZM120.312 222.186H134.497V234.658H120.312V222.186ZM120.312 207.183H134.497V219.655H120.312V207.183ZM103.557 207.183H117.742V219.655H103.557V207.183ZM103.557 222.186H117.742V234.658H103.557V222.186ZM103.557 237.188H117.742V249.67H103.557V237.188ZM103.557 252.191H117.742V264.663H103.557V252.191ZM103.557 267.193H117.742V279.846H103.557V267.193ZM103.557 282.196H117.742V294.668H103.557V282.196ZM103.557 297.198H117.742V309.671H103.557V297.198ZM103.557 312.201H117.742V324.683H103.557V312.201ZM103.557 327.204H117.742V340.056H103.557V327.204ZM168.008 340.056H153.843V327.564H168.028L168.008 340.056ZM168.008 325.053H153.843V312.511H168.028L168.008 325.053ZM168.008 310.051H153.843V297.469H168.028L168.008 310.051ZM168.008 295.048H153.843V282.416H168.028L168.008 295.048ZM168.008 280.046H153.843V267.363H168.028L168.008 280.046ZM168.008 265.043H153.843V252.321H168.028L168.008 265.043ZM168.008 250.04H153.843V237.268H168.028L168.008 250.04ZM168.008 235.038H153.843V222.226H168.028L168.008 235.038ZM168.008 220.035H153.843V207.173H168.028L168.008 220.035ZM168.008 205.033H153.843V192.131H168.028L168.008 205.033Z" fill="#EEFFFF"/>
<path d="M168.008 327.564H153.823V340.036H168.008V327.564Z" fill="#C8E8E2"/>
<path d="M168.008 312.511H153.823V324.993H168.008V312.511Z" fill="#C8E8E2"/>
<path d="M168.008 342.606H153.823V355.088H168.008V342.606Z" fill="#C8E8E2"/>
<path d="M168.008 252.321H153.823V264.793H168.008V252.321Z" fill="#C8E8E2"/>
<path d="M134.497 267.363H120.312V279.846H134.497V267.363Z" fill="#C8E8E2"/>
<path d="M168.008 267.363H153.823V279.846H168.008V267.363Z" fill="#C8E8E2"/>
<path d="M168.008 297.469H153.823V309.941H168.008V297.469Z" fill="#C8E8E2"/>
<path d="M213.503 252.321H202.759V264.793H213.503V252.321Z" fill="#C8E8E2"/>
<path d="M213.503 222.226H202.759V234.698H213.503V222.226Z" fill="#C8E8E2"/>
<path d="M213.503 237.268H202.759V249.75H213.503V237.268Z" fill="#C8E8E2"/>
<path d="M213.503 207.173H202.759V219.645H213.503V207.173Z" fill="#C8E8E2"/>
<path d="M213.503 192.131H202.759V204.613H213.503V192.131Z" fill="#C8E8E2"/>
<path d="M202.759 189.55H186.854V357.659H216.053V189.55H202.759ZM213.503 355.058H202.759V342.606H213.503V355.058ZM200.188 355.058H189.445V342.606H200.188V355.058ZM189.445 192.131H200.188V204.613H189.445V192.131ZM189.445 207.133H200.188V219.605H189.445V207.133ZM189.445 222.136H200.188V234.608H189.445V222.136ZM189.445 237.138H200.188V249.62H189.445V237.138ZM189.445 252.141H200.188V264.613H189.445V252.141ZM189.445 267.143H200.188V279.846H189.445V267.143ZM189.445 282.146H200.188V294.618H189.445V282.146ZM189.445 297.148H200.188V309.621H189.445V297.148ZM189.445 312.151H200.188V324.633H189.445V312.151ZM189.445 327.154H200.188V340.056H189.445V327.154ZM213.503 340.056H202.759V327.564H213.503V340.056ZM213.503 325.053H202.759V312.511H213.503V325.053ZM213.503 310.051H202.759V297.469H213.503V310.051ZM213.503 295.048H202.759V282.416H213.503V295.048ZM213.503 280.046H202.759V267.363H213.503V280.046ZM213.503 265.043H202.759V252.321H213.503V265.043ZM213.503 250.04H202.759V237.268H213.503V250.04ZM213.503 235.038H202.759V222.226H213.503V235.038ZM213.503 220.035H202.759V207.173H213.503V220.035ZM213.503 205.033H202.759V192.131H213.503V205.033Z" fill="#EEFFFF"/>
<path d="M213.503 267.363H202.759V279.846H213.503V267.363Z" fill="#C8E8E2"/>
<path d="M213.503 342.606H202.759V355.088H213.503V342.606Z" fill="#C8E8E2"/>
<path d="M200.188 342.606H189.445V355.088H200.188V342.606Z" fill="#C8E8E2"/>
<path d="M213.503 327.564H202.759V340.036H213.503V327.564Z" fill="#C8E8E2"/>
<path d="M213.503 312.511H202.759V324.993H213.503V312.511Z" fill="#C8E8E2"/>
<path d="M213.503 297.469H202.759V309.941H213.503V297.469Z" fill="#C8E8E2"/>
<path d="M213.503 282.416H202.759V294.888H213.503V282.416Z" fill="#C8E8E2"/>
<path d="M200.188 252.321H189.445V264.793H200.188V252.321Z" fill="#C8E8E2"/>
<path d="M200.188 282.416H189.445V294.888H200.188V282.416Z" fill="#C8E8E2"/>
<path d="M200.188 222.226H189.445V234.698H200.188V222.226Z" fill="#C8E8E2"/>
<path d="M200.188 237.268H189.445V249.75H200.188V237.268Z" fill="#C8E8E2"/>
<path d="M200.188 267.363H189.445V279.846H200.188V267.363Z" fill="#C8E8E2"/>
<path d="M200.188 327.564H189.445V340.036H200.188V327.564Z" fill="#C8E8E2"/>
<path d="M200.188 297.469H189.445V309.941H200.188V297.469Z" fill="#C8E8E2"/>
<path d="M200.188 312.511H189.445V324.993H200.188V312.511Z" fill="#C8E8E2"/>
<path d="M200.188 207.173H189.445V219.645H200.188V207.173Z" fill="#C8E8E2"/>
<path d="M200.188 192.131H189.445V204.613H200.188V192.131Z" fill="#C8E8E2"/>
<path d="M204.179 135.831H195.877V147.093H204.179V135.831Z" fill="#C8E8E2"/>
<path d="M193.306 135.831H185.003V147.093H193.306V135.831Z" fill="#C8E8E2"/>
<path d="M204.179 163.496H195.877V174.758H204.179V163.496Z" fill="#C8E8E2"/>
<path d="M204.179 149.663H195.877V160.925H204.179V149.663Z" fill="#C8E8E2"/>
<path d="M193.306 163.496H185.003V174.758H193.306V163.496Z" fill="#C8E8E2"/>
<path d="M195.857 177.328H206.73V133.26H182.432V177.328H195.857ZM184.983 135.831H193.286V147.093H184.983V135.831ZM195.857 135.831H204.159V147.093H195.857V135.831ZM204.159 174.758H195.857V163.496H204.159V174.758ZM204.159 160.925H195.857V149.663H204.159V160.925ZM184.983 149.663H193.286V160.925H184.983V149.663ZM184.983 163.496H193.286V174.758H184.983V163.496Z" fill="#EEFFFF"/>
<path d="M193.306 149.663H185.003V160.925H193.306V149.663Z" fill="#C8E8E2"/>
<path d="M152.533 366.13H147.121L135.777 381.573V384.993H144.26L152.533 373.721V366.13Z" fill="#C8E8E2"/>
<path d="M137.138 366.13L135.777 367.98V376.062L143.07 366.13H137.138Z" fill="#C8E8E2"/>
<path d="M147.351 384.994H152.533V377.942L147.351 384.994Z" fill="#C8E8E2"/>
<path d="M152.533 384.993H169.288V366.13H161.205L152.533 377.942V384.993Z" fill="#C8E8E2"/>
<path d="M158.104 366.13H152.533V373.721L158.104 366.13Z" fill="#C8E8E2"/>
<path d="M188.154 366.13V368.991L190.275 366.13H188.154Z" fill="#C8E8E2"/>
<path d="M214.783 384.993V383.753L213.863 384.993H214.783Z" fill="#C8E8E2"/>
<path d="M214.783 369.521L203.299 384.994H211.312L214.783 380.323V369.521Z" fill="#C8E8E2"/>
<path opacity="0.63" d="M135.777 366.13V367.98L137.138 366.13H135.777Z" fill="white"/>
<path opacity="0.63" d="M143.07 366.13L135.777 376.062V381.573L147.121 366.13H143.07Z" fill="white"/>
<path opacity="0.63" d="M152.533 377.942V373.721L144.26 384.993H147.351L152.533 377.942Z" fill="white"/>
<path opacity="0.63" d="M152.533 377.942L161.205 366.13H158.104L152.533 373.721V377.942Z" fill="white"/>
<path opacity="0.63" d="M201.469 384.993V366.13H190.275L188.154 368.991V384.993H201.469Z" fill="white"/>
<path opacity="0.63" d="M214.783 366.13H201.469V384.993H203.299L214.783 369.521V366.13Z" fill="white"/>
<path opacity="0.63" d="M214.783 383.753V380.323L211.312 384.993H213.862L214.783 383.753Z" fill="white"/>
<g opacity="0.63">
<path opacity="0.63" d="M119.743 163.596L111.45 174.908L109.559 177.488H121.943H124.524H127.505L129.386 174.908L135.498 166.586L139.569 161.025L147.862 149.713L151.613 144.603L158.045 135.831L159.936 133.261H151.613H149.042H141.99L140.099 135.831L138.069 138.602L135.498 142.112L131.806 147.143L129.926 149.713L124.524 157.085L121.943 160.595L121.623 161.025L119.743 163.596Z" fill="white"/>
<path opacity="0.63" d="M105.728 207.173L107.619 204.603L116.762 192.131L118.652 189.55H117.742H100.987V204.603V207.173V213.644L103.557 210.144L105.728 207.173Z" fill="white"/>
<path opacity="0.63" d="M119.783 135.831L121.673 133.261H108.399V147.143V149.713V151.364L111.49 147.143L119.783 135.831Z" fill="white"/>
<path opacity="0.63" d="M157.335 149.714L151.613 157.515L149.042 161.025L147.151 163.596L138.859 174.908L136.978 177.488H138.068H139.829L141.71 174.908L149.042 164.916L151.893 161.025L160.196 149.714L162.076 147.143L162.586 146.443L165.157 142.932V139.042L162.586 142.552L159.225 147.143L157.335 149.714Z" fill="white"/>
<path opacity="0.63" d="M107.018 222.226L108.909 219.655L117.742 207.603L120.313 204.103L129.096 192.131L130.976 189.55H128.125L126.235 192.131L120.313 200.212L117.742 203.713L117.092 204.603L115.201 207.173L106.058 219.655L104.168 222.226L103.557 223.056L100.987 226.566V230.457L103.557 226.947L107.018 222.226Z" fill="white"/>
<path opacity="0.63" d="M189.445 322.703L196.917 312.511L198.798 309.941L200.188 308.05L202.759 304.54L207.941 297.469L209.832 294.888L213.503 289.887L216.074 286.377V282.486L213.503 285.997L206.981 294.888L205.09 297.469L202.759 300.649L200.188 304.16L195.947 309.941L194.056 312.511L189.445 318.812L186.864 322.323V326.214L189.445 322.703Z" fill="white"/>
<path opacity="0.63" d="M168.008 348.047L162.846 355.088L160.956 357.659H163.807L165.697 355.088L168.008 351.938L170.579 348.427V344.537L168.008 348.047Z" fill="white"/>
<path opacity="0.63" d="M189.445 331.594L192.396 327.564L194.287 324.993L200.188 316.942L202.759 313.431L203.43 312.511L205.32 309.941L213.503 298.779L216.074 295.278V294.888V291.378L213.503 294.888H213.493L211.612 297.469L202.759 309.541L200.188 313.051L191.426 324.993L189.545 327.564L189.445 327.704L186.864 331.204V335.105L189.445 331.594Z" fill="white"/>
<path opacity="0.63" d="M167.478 357.659H170.329L170.579 357.319V353.428L167.478 357.659Z" fill="white"/>
<path opacity="0.63" d="M162.056 177.488H164.927L165.157 177.168V173.248L162.056 177.488Z" fill="white"/>
<path opacity="0.63" d="M185.004 150.113L185.334 149.663L187.214 147.093L193.306 138.782L197.358 133.261H195.877H194.487L192.596 135.831L185.004 146.183L182.433 149.693V153.614L185.004 150.113Z" fill="white"/>
<path opacity="0.63" d="M110.059 252.321L111.94 249.75L117.742 241.839L120.313 238.328L121.093 237.268L122.974 234.698L132.127 222.226L134.007 219.655L134.497 218.995L137.068 215.485L143.16 207.173L145.041 204.603L151.253 196.141L153.824 192.631L154.194 192.131L156.084 189.55H153.824H153.203L151.253 192.221L142.17 204.603L140.279 207.173L137.068 211.564L134.497 215.065L131.136 219.655L129.246 222.226L120.313 234.408L117.742 237.918L109.069 249.75L107.179 252.321L103.557 257.262L100.987 260.772V264.693L103.557 261.182L110.059 252.321Z" fill="white"/>
<path opacity="0.63" d="M103.937 282.416L105.818 279.846L114.971 267.363L116.852 264.793L117.742 263.583L120.313 260.072L126.005 252.321L127.885 249.75L134.497 240.729L138.919 234.698L148.072 222.226L149.952 219.655L151.253 217.885L153.824 214.374L159.105 207.173L160.986 204.603L168.008 195.031L170.579 191.521V189.55H164.367L162.476 192.131L153.824 203.933L151.253 207.443L142.3 219.655L140.409 222.226L137.068 226.787L134.497 230.287L131.266 234.698L129.376 237.268L120.313 249.63L117.742 253.141L109.199 264.793L107.309 267.363L103.557 272.484L100.987 275.995V279.846V282.416V286.437L103.557 282.926L103.937 282.416Z" fill="white"/>
<path opacity="0.63" d="M185.004 171.857L191.126 163.496L193.016 160.925L193.306 160.525L195.877 157.025L201.269 149.663L203.159 147.093L204.18 145.703L206.751 142.192V133.261H205.64L203.76 135.831L195.877 146.573L193.306 150.083L185.354 160.925L182.433 164.916V175.358L185.004 171.857Z" fill="white"/>
<path opacity="0.63" d="M206.24 189.55L204.35 192.131L202.759 194.301L200.188 197.812L195.207 204.603L193.316 207.173L189.445 212.464L186.864 215.975V248.15L189.445 244.64L194.847 237.268L196.737 234.698L200.188 229.997L202.759 226.486L205.88 222.226L207.771 219.655L213.503 211.834L216.074 208.323V207.173V204.603V189.55H206.24Z" fill="white"/>
<path opacity="0.63" d="M168.008 241.699L162.096 249.75L160.216 252.321L153.824 261.042L151.253 264.543L151.073 264.793L149.182 267.363L140.029 279.846L138.149 282.416L137.068 283.886L134.497 287.397L128.996 294.888L127.115 297.469L120.313 306.74L116.081 312.511L106.928 324.993L105.048 327.564L103.557 329.594L100.987 333.095V340.036V342.606V357.659H106.578L108.459 355.088L117.612 342.606L120.313 338.926L128.645 327.564L130.526 324.993L134.497 319.582L137.068 316.072L139.679 312.511L141.56 309.941L150.713 297.469L153.824 293.218L161.746 282.416L163.627 279.846L168.008 273.875L170.579 270.364V238.188L168.008 241.699Z" fill="white"/>
<path opacity="0.63" d="M168.008 289.727L164.227 294.888L162.336 297.469L153.824 309.07L151.253 312.581L142.15 324.993L140.269 327.564L137.068 331.924L134.497 335.435L131.126 340.036L129.236 342.606L120.313 354.778L118.202 357.659H120.313H124.404L126.285 355.088L134.497 343.886L137.318 340.036L146.471 327.564L148.352 324.993L151.253 321.042L153.824 317.532L157.505 312.511L159.385 309.941L168.008 298.189L170.579 294.678V286.227L168.008 289.727Z" fill="white"/>
<path opacity="0.63" d="M189.445 268.954L190.605 267.363L192.486 264.793L200.188 254.301L203.52 249.75L212.672 237.268L216.074 232.638V224.176L213.503 227.687L208.361 234.698L206.47 237.268L202.759 242.339L200.188 245.85L197.328 249.75L195.437 252.321L189.445 260.502L186.864 264.003V272.464L189.445 268.954Z" fill="white"/>
<path opacity="0.63" d="M212.533 324.993L210.642 327.564L202.759 338.316L199.608 342.606L190.465 355.088L188.575 357.659H194.777L196.658 355.088L200.189 350.278L202.759 346.777L205.81 342.606L207.701 340.036L213.503 332.125L216.074 328.614V327.564V324.993V320.152L213.503 323.663L212.533 324.993Z" fill="white"/>
</g>
<path d="M164.847 83.4522H148.632C147.831 83.4522 147.051 83.5222 146.261 83.5722C151.634 83.8984 156.881 85.3362 161.669 87.7947C166.458 90.2531 170.684 93.6787 174.08 97.8546H195.087C191.439 93.3514 186.831 89.7208 181.598 87.2288C176.366 84.7368 170.642 83.4464 164.847 83.4522Z" fill="#145566"/>
<path d="M174.08 97.8546C179.756 104.771 182.856 113.442 182.853 122.389H203.86C203.87 113.446 200.789 104.775 195.137 97.8446L174.08 97.8546Z" fill="#0A687D"/>
<path d="M319.068 191.731H287.558V398.086H319.068V191.731Z" fill="url(#paint30_linear)"/>
<path d="M319.068 122.059L287.558 191.731H319.068V122.059Z" fill="url(#paint31_linear)"/>
<path d="M319.068 122.059L221.867 191.731H287.558L319.068 122.059Z" fill="#EEFFFF"/>
<path d="M287.558 191.731H221.867V398.086H287.558V191.731Z" fill="url(#paint32_linear)"/>
<path d="M287.558 204.483H230.41V217.465H287.558V204.483Z" fill="#EEFFFF"/>
<path d="M311.306 204.483H287.558V217.465H311.306V204.483Z" fill="#C8E8E2"/>
<path d="M287.558 225.126H230.41V238.109H287.558V225.126Z" fill="#EEFFFF"/>
<path d="M311.306 225.126H287.558V238.109H311.306V225.126Z" fill="#C8E8E2"/>
<path d="M287.558 245.76H230.41V258.742H287.558V245.76Z" fill="#EEFFFF"/>
<path d="M311.306 245.76H287.558V258.742H311.306V245.76Z" fill="#C8E8E2"/>
<path d="M287.558 266.393H230.41V279.375H287.558V266.393Z" fill="#EEFFFF"/>
<path d="M311.306 266.393H287.558V279.375H311.306V266.393Z" fill="#C8E8E2"/>
<path d="M287.558 287.027H230.41V300.009H287.558V287.027Z" fill="#EEFFFF"/>
<path d="M311.306 287.027H287.558V300.009H311.306V287.027Z" fill="#C8E8E2"/>
<path d="M287.558 307.67H230.41V320.653H287.558V307.67Z" fill="#EEFFFF"/>
<path d="M311.306 307.67H287.558V320.653H311.306V307.67Z" fill="#C8E8E2"/>
<path d="M287.558 328.304H230.41V341.286H287.558V328.304Z" fill="#EEFFFF"/>
<path d="M311.306 328.304H287.558V341.286H311.306V328.304Z" fill="#C8E8E2"/>
<path d="M311.306 354.148H294.99V370.461H311.306V354.148Z" fill="#C8E8E2"/>
<path d="M259.109 191.731L300.472 135.391L269.052 157.905L243.944 191.731H259.109Z" fill="url(#paint33_linear)" fill-opacity="0.5925"/>
<path d="M286.948 191.731L288.528 189.58L298.051 168.517L281.016 191.731H286.948Z" fill="url(#paint34_linear)" fill-opacity="0.78"/>
<path d="M221.867 191.731H224.028L226.498 188.41L221.867 191.731Z" fill="#64D78C"/>
<path d="M287.558 217.465V204.493H281.636L272.103 217.465H287.558Z" fill="#EEFFFF"/>
<path d="M277.585 204.493H271.643L262.12 217.465H268.052L277.585 204.493Z" fill="#EEFFFF"/>
<path d="M234.481 204.493L230.41 209.964V217.465H240.213L249.736 204.493H234.481Z" fill="#EEFFFF"/>
<path d="M292.199 217.465L301.733 204.493H287.558V217.465H292.199Z" fill="#C8E8E2"/>
<path d="M311.306 217.465V204.493H304.824L295.301 217.465H311.306Z" fill="#C8E8E2"/>
<path d="M262.43 225.126H256.498L246.965 238.099H252.907L262.43 225.126Z" fill="#EEFFFF"/>
<path d="M287.558 238.098V228.017L280.146 238.098H287.558Z" fill="#EEFFFF"/>
<path d="M256.948 238.099H277.045L286.578 225.126H266.481L256.948 238.099Z" fill="#EEFFFF"/>
<path d="M230.41 225.126V230.817L234.591 225.126H230.41Z" fill="#EEFFFF"/>
<path d="M287.558 238.099H300.522L310.155 225.126H289.679L287.558 228.017V238.099Z" fill="#C8E8E2"/>
<path d="M271.433 245.76H251.336L241.803 258.742H261.9L271.433 245.76Z" fill="#EEFFFF"/>
<path d="M287.558 245.76H274.524L265.001 258.742H285.197L287.558 255.571V245.76Z" fill="#EEFFFF"/>
<path d="M241.343 245.76L231.82 258.742H237.752L247.285 245.76H241.343Z" fill="#EEFFFF"/>
<path d="M287.558 255.571L294.84 245.76H287.558V255.571Z" fill="#C8E8E2"/>
<path d="M230.41 266.393V268.744L232.13 266.393H230.41Z" fill="#EEFFFF"/>
<path d="M279.515 266.393H259.379L249.846 279.375H269.882L279.515 266.393Z" fill="#EEFFFF"/>
<path d="M236.181 266.393L230.41 274.255V279.375H246.755L256.278 266.393H236.181Z" fill="#EEFFFF"/>
<path d="M304.994 279.375L311.306 270.904V266.393H306.544L296.911 279.375H304.994Z" fill="#C8E8E2"/>
<path d="M311.306 279.375V274.335L307.544 279.375H311.306Z" fill="#C8E8E2"/>
<path d="M244.224 287.027L234.701 300.009H254.568L264.201 287.027H244.224Z" fill="#EEFFFF"/>
<path d="M287.558 291.978L281.586 300.009H287.558V291.978Z" fill="#EEFFFF"/>
<path d="M230.41 287.027V300.009H231.6L241.133 287.027H230.41Z" fill="#EEFFFF"/>
<path d="M289.619 300.009L299.292 287.027H291.229L287.558 291.978V300.009H289.619Z" fill="#C8E8E2"/>
<path d="M303.863 300.009L311.306 289.987V287.027H301.843L292.17 300.009H303.863Z" fill="#C8E8E2"/>
<path d="M286.468 307.67L276.795 320.642H287.558V307.67H286.468Z" fill="#EEFFFF"/>
<path d="M283.917 307.67H275.904L266.271 320.642H274.244L283.917 307.67Z" fill="#EEFFFF"/>
<path d="M230.41 307.67V320.642H239.252L248.886 307.67H230.41Z" fill="#EEFFFF"/>
<path d="M287.558 320.642H288.548L298.181 307.67H287.558V320.642Z" fill="#C8E8E2"/>
<path d="M311.306 320.642V316.822L308.465 320.642H311.306Z" fill="#C8E8E2"/>
<path d="M260.589 328.304L250.956 341.286H258.869L268.542 328.304H260.589Z" fill="#EEFFFF"/>
<path d="M230.41 328.304V332.554L233.571 328.304H230.41Z" fill="#EEFFFF"/>
<path d="M271.093 328.304L261.42 341.286H273.223L282.867 328.304H271.093Z" fill="#EEFFFF"/>
<path d="M311.306 328.304H302.783L293.14 341.286H307.415L311.306 335.985V328.304Z" fill="#C8E8E2"/>
<path d="M311.306 363.07L305.884 370.461H311.306V363.07Z" fill="#C8E8E2"/>
<path d="M311.306 354.148H302.013L294.99 363.72V370.461H301.833L311.306 357.559V354.148Z" fill="#C8E8E2"/>
<path d="M294.99 354.148V358.209L297.971 354.148H294.99Z" fill="#C8E8E2"/>
<path opacity="0.63" d="M281.016 191.731L298.052 168.517L319.068 122.059L300.472 135.391L259.109 191.731H281.016Z" fill="url(#paint35_linear)"/>
<path opacity="0.63" d="M271.643 204.493H249.736L240.213 217.465H262.12L271.643 204.493Z" fill="white"/>
<path opacity="0.63" d="M246.965 238.099L256.498 225.126H234.591L230.41 230.817V238.099H246.965Z" fill="white"/>
<path opacity="0.63" d="M230.41 245.76V258.742H231.82L241.343 245.76H230.41Z" fill="white"/>
<path opacity="0.63" d="M287.558 191.73L288.528 189.58L286.948 191.73H287.558Z" fill="#13BF49"/>
<path opacity="0.63" d="M268.052 217.465H272.103L281.636 204.493H277.585L268.052 217.465Z" fill="white"/>
<path opacity="0.63" d="M262.43 225.126L252.907 238.099H256.948L266.481 225.126H262.43Z" fill="white"/>
<path opacity="0.63" d="M251.337 245.76H247.285L237.752 258.742H241.803L251.337 245.76Z" fill="white"/>
<path opacity="0.63" d="M232.13 266.393L230.41 268.744V274.255L236.182 266.393H232.13Z" fill="white"/>
<path opacity="0.63" d="M311.306 335.985L307.414 341.286H311.306V335.985Z" fill="white"/>
<path opacity="0.63" d="M297.971 354.148L294.99 358.209V363.72L302.013 354.148H297.971Z" fill="white"/>
<path opacity="0.63" d="M311.306 357.559L301.833 370.461H305.884L311.306 363.07V357.559Z" fill="white"/>
<path opacity="0.63" d="M295.301 217.465L304.824 204.493H301.733L292.2 217.465H295.301Z" fill="white"/>
<path opacity="0.63" d="M280.146 238.099L287.558 228.017V225.126H286.578L277.045 238.099H280.146Z" fill="white"/>
<path opacity="0.63" d="M287.558 228.017L289.679 225.126H287.558V228.017Z" fill="white"/>
<path opacity="0.63" d="M271.433 245.76L261.9 258.742H265.001L274.524 245.76H271.433Z" fill="white"/>
<path opacity="0.63" d="M259.379 266.393H256.278L246.755 279.375H249.846L259.379 266.393Z" fill="white"/>
<path opacity="0.63" d="M241.133 287.027L231.6 300.009H234.701L244.224 287.027H241.133Z" fill="white"/>
<path opacity="0.63" d="M311.306 238.099V225.126H310.155L300.522 238.099H311.306Z" fill="white"/>
<path opacity="0.63" d="M285.197 258.742H287.558V255.571L285.197 258.742Z" fill="white"/>
<path opacity="0.63" d="M287.558 258.742H311.306V245.76H294.84L287.558 255.571V258.742Z" fill="white"/>
<path opacity="0.63" d="M287.558 279.375V266.393H279.516L269.882 279.375H287.558Z" fill="white"/>
<path opacity="0.63" d="M287.558 279.375H296.911L306.544 266.393H287.558V279.375Z" fill="white"/>
<path opacity="0.63" d="M287.558 291.978V287.027H264.201L254.568 300.009H281.586L287.558 291.978Z" fill="white"/>
<path opacity="0.63" d="M287.558 287.027V291.978L291.229 287.027H287.558Z" fill="white"/>
<path opacity="0.63" d="M275.904 307.67H248.886L239.253 320.642H266.271L275.904 307.67Z" fill="white"/>
<path opacity="0.63" d="M233.571 328.304L230.41 332.554V341.286H250.956L260.589 328.304H233.571Z" fill="white"/>
<path opacity="0.63" d="M311.306 300.009V289.987L303.863 300.009H311.306Z" fill="white"/>
<path opacity="0.63" d="M298.181 307.67L288.548 320.642H308.465L311.306 316.822V307.67H298.181Z" fill="white"/>
<path opacity="0.63" d="M287.558 328.304H282.867L273.223 341.286H287.558V328.304Z" fill="white"/>
<path opacity="0.63" d="M287.558 328.304V341.286H293.14L302.783 328.304H287.558Z" fill="white"/>
<path opacity="0.63" d="M269.052 157.905L226.498 188.41L224.028 191.731H243.944L269.052 157.905Z" fill="url(#paint36_linear)"/>
<path opacity="0.63" d="M230.41 204.493V209.964L234.481 204.493H230.41Z" fill="white"/>
<path opacity="0.63" d="M307.545 279.375L311.306 274.335V270.904L304.994 279.375H307.545Z" fill="white"/>
<path opacity="0.63" d="M289.619 300.009H292.17L301.843 287.027H299.292L289.619 300.009Z" fill="white"/>
<path opacity="0.63" d="M283.917 307.67L274.244 320.642H276.794L286.468 307.67H283.917Z" fill="white"/>
<path opacity="0.63" d="M268.542 328.304L258.869 341.286H261.42L271.093 328.304H268.542Z" fill="white"/>
<path d="M230.41 354.148V398.086H243.894V366.74H278.675V354.148H230.41Z" fill="#09816D" fill-opacity="0.789842"/>
<path d="M278.675 362.31H238.963V398.086H278.675V362.31Z" fill="#0A687D"/>
<path d="M178.523 398.066H58.3642C54.3629 394.785 50.3616 390.334 48.361 385.553C46.3603 380.773 46.3603 374.832 49.5314 370.721C51.8721 367.72 55.5333 366.03 58.3742 363.47C62.3755 359.869 64.5262 354.708 67.4772 350.198C70.4281 345.687 74.9296 341.446 80.3213 341.616C84.5827 341.746 88.3239 344.617 92.5852 345.047C98.8873 345.657 104.239 340.876 109.981 338.185C119.654 333.645 131.058 335.065 141.341 337.995C157.436 342.576 173.251 351.318 181.634 365.8C187.406 375.902 185.435 388.704 178.523 398.066Z" fill="url(#paint37_linear)"/>
<path d="M190.787 375.142C183.785 374.572 176.722 371.651 172.711 365.93C167.939 359.119 168.23 349.547 162.908 343.136C155.375 334.065 138.32 333.215 136.259 321.603C135.179 315.552 139.35 309.731 144.262 306.02C149.173 302.309 154.985 299.869 159.577 295.778C168.38 287.927 171.581 274.985 180.974 267.843C193.978 257.952 212.464 263.103 227.819 268.664C237.712 272.244 247.825 275.975 255.718 282.966C263.61 289.957 268.652 301.049 265.651 311.141C264.231 315.792 261.13 320.142 261.65 325.023C262.09 329.304 265.241 332.744 266.991 336.675C272.293 348.597 263.13 362.94 251.106 368.011C240.103 372.671 229.939 369.901 218.606 370.701C208.983 371.361 200.81 375.962 190.787 375.142Z" fill="url(#paint38_linear)"/>
<path d="M228.919 336.275L226.578 334.305L211.094 352.658V283.616H208.042V325.403L194.198 306.3L191.727 308.08L208.042 330.604V398.086H211.094V357.389L228.919 336.275Z" fill="#18516B"/>
<rect width="572" height="410" fill="#D0E7F7" fill-opacity="0.36"/>
<defs>
<linearGradient id="paint0_linear" x1="476.719" y1="361.559" x2="476.849" y2="413.598" gradientUnits="userSpaceOnUse">
<stop stop-color="#13BF49"/>
<stop offset="1" stop-color="#0A687D"/>
</linearGradient>
<linearGradient id="paint1_linear" x1="525.726" y1="274.045" x2="525.726" y2="383.563" gradientUnits="userSpaceOnUse">
<stop stop-color="#13BF49"/>
<stop offset="1" stop-color="#0A687D"/>
</linearGradient>
<linearGradient id="paint2_linear" x1="327.671" y1="-174.532" x2="339.547" y2="398.086" gradientUnits="userSpaceOnUse">
<stop stop-color="#09816D" stop-opacity="0.789842"/>
<stop offset="1" stop-color="#13BF49"/>
</linearGradient>
<linearGradient id="paint3_linear" x1="398.359" y1="49.2764" x2="398.359" y2="398.086" gradientUnits="userSpaceOnUse">
<stop stop-color="#09816D" stop-opacity="0.789842"/>
<stop offset="1" stop-color="#13BF49"/>
</linearGradient>
<linearGradient id="paint4_linear" x1="394.588" y1="12" x2="394.588" y2="49.2763" gradientUnits="userSpaceOnUse">
<stop stop-color="#09816D" stop-opacity="0.789842"/>
<stop offset="1" stop-color="#13BF49"/>
</linearGradient>
<linearGradient id="paint5_linear" x1="343.676" y1="-7.00323" x2="343.676" y2="55.5074" gradientUnits="userSpaceOnUse">
<stop stop-color="#09816D" stop-opacity="0.789842"/>
<stop offset="1" stop-color="#93E2AC"/>
</linearGradient>
<linearGradient id="paint6_linear" x1="395.848" y1="153.234" x2="395.848" y2="398.086" gradientUnits="userSpaceOnUse">
<stop stop-color="#09816D" stop-opacity="0.95"/>
<stop offset="1" stop-color="#13BF49"/>
</linearGradient>
<linearGradient id="paint7_linear" x1="454.712" y1="138.021" x2="454.657" y2="398.086" gradientUnits="userSpaceOnUse">
<stop stop-color="#0A687D"/>
<stop offset="1" stop-color="#13BF49"/>
</linearGradient>
<linearGradient id="paint8_linear" x1="450.711" y1="105.016" x2="450.711" y2="189.03" gradientUnits="userSpaceOnUse">
<stop stop-color="#A4E3FF"/>
<stop offset="1" stop-color="#C8E8E2"/>
</linearGradient>
<linearGradient id="paint9_linear" x1="450.881" y1="179.448" x2="450.881" y2="195.211" gradientUnits="userSpaceOnUse">
<stop stop-color="#C8E8E2"/>
<stop offset="1" stop-color="#C8E8E2"/>
</linearGradient>
<linearGradient id="paint10_linear" x1="450.881" y1="332.865" x2="450.881" y2="348.627" gradientUnits="userSpaceOnUse">
<stop stop-color="#A3E2DA"/>
<stop offset="1" stop-color="#C8E8E2"/>
</linearGradient>
<linearGradient id="paint11_linear" x1="450.881" y1="196.501" x2="450.881" y2="212.264" gradientUnits="userSpaceOnUse">
<stop stop-color="#A3E2DA"/>
<stop offset="1" stop-color="#C8E8E2"/>
</linearGradient>
<linearGradient id="paint12_linear" x1="450.881" y1="298.779" x2="450.881" y2="314.541" gradientUnits="userSpaceOnUse">
<stop stop-color="#A3E2DA"/>
<stop offset="1" stop-color="#C8E8E2"/>
</linearGradient>
<linearGradient id="paint13_linear" x1="450.881" y1="281.726" x2="450.881" y2="297.489" gradientUnits="userSpaceOnUse">
<stop stop-color="#A3E2DA"/>
<stop offset="1" stop-color="#C8E8E2"/>
</linearGradient>
<linearGradient id="paint14_linear" x1="450.881" y1="315.822" x2="450.881" y2="331.584" gradientUnits="userSpaceOnUse">
<stop stop-color="#A3E2DA"/>
<stop offset="1" stop-color="#C8E8E2"/>
</linearGradient>
<linearGradient id="paint15_linear" x1="450.881" y1="213.544" x2="450.881" y2="229.307" gradientUnits="userSpaceOnUse">
<stop stop-color="#A3E2DA"/>
<stop offset="1" stop-color="#C8E8E2"/>
</linearGradient>
<linearGradient id="paint16_linear" x1="450.881" y1="230.587" x2="450.881" y2="246.35" gradientUnits="userSpaceOnUse">
<stop stop-color="#A3E2DA"/>
<stop offset="1" stop-color="#C8E8E2"/>
</linearGradient>
<linearGradient id="paint17_linear" x1="450.881" y1="264.683" x2="450.881" y2="280.446" gradientUnits="userSpaceOnUse">
<stop stop-color="#A3E2DA"/>
<stop offset="1" stop-color="#C8E8E2"/>
</linearGradient>
<linearGradient id="paint18_linear" x1="450.881" y1="247.64" x2="450.881" y2="263.403" gradientUnits="userSpaceOnUse">
<stop stop-color="#A3E2DA"/>
<stop offset="1" stop-color="#C8E8E2"/>
</linearGradient>
<linearGradient id="paint19_linear" x1="454.097" y1="360.559" x2="454.097" y2="372.921" gradientUnits="userSpaceOnUse">
<stop stop-color="#A3E2DA"/>
<stop offset="1" stop-color="#C8E8E2"/>
</linearGradient>
<linearGradient id="paint20_linear" x1="394.158" y1="97.8446" x2="394.158" y2="139.812" gradientUnits="userSpaceOnUse">
<stop stop-color="#09816D" stop-opacity="0.96"/>
<stop offset="1" stop-color="#13BF49"/>
</linearGradient>
<linearGradient id="paint21_linear" x1="423.202" y1="89.5132" x2="443.358" y2="139.814" gradientUnits="userSpaceOnUse">
<stop stop-color="#145566"/>
<stop offset="1" stop-color="#13BF49"/>
</linearGradient>
<linearGradient id="paint22_linear" x1="392.692" y1="136.521" x2="392.692" y2="159.525" gradientUnits="userSpaceOnUse">
<stop stop-color="#0A687D"/>
<stop offset="1" stop-color="#13BF49"/>
</linearGradient>
<linearGradient id="paint23_linear" x1="457.543" y1="139.812" x2="457.713" y2="157.525" gradientUnits="userSpaceOnUse">
<stop stop-color="#0A687D"/>
<stop offset="1" stop-color="#09816D" stop-opacity="0.789842"/>
</linearGradient>
<linearGradient id="paint24_linear" x1="46.013" y1="198.946" x2="45.5246" y2="367.062" gradientUnits="userSpaceOnUse">
<stop stop-color="#13BF49"/>
<stop offset="1" stop-color="#0A687D"/>
</linearGradient>
<linearGradient id="paint25_linear" x1="135.778" y1="176.198" x2="135.778" y2="398.086" gradientUnits="userSpaceOnUse">
<stop stop-color="#09816D" stop-opacity="0.93"/>
<stop offset="1" stop-color="#13BF49"/>
</linearGradient>
<linearGradient id="paint26_linear" x1="201.468" y1="176.198" x2="201.468" y2="398.086" gradientUnits="userSpaceOnUse">
<stop stop-color="#0A687D"/>
<stop offset="1" stop-color="#13BF49"/>
</linearGradient>
<linearGradient id="paint27_linear" x1="136.783" y1="122.389" x2="136.838" y2="191.031" gradientUnits="userSpaceOnUse">
<stop stop-color="#09816D" stop-opacity="0.789842"/>
<stop offset="1" stop-color="#13BF49"/>
</linearGradient>
<linearGradient id="paint28_linear" x1="193.701" y1="122.389" x2="193.856" y2="212.534" gradientUnits="userSpaceOnUse">
<stop stop-color="#0A687D"/>
<stop offset="1" stop-color="#13BF49"/>
</linearGradient>
<radialGradient id="paint29_radial" cx="0" cy="0" r="1" gradientUnits="userSpaceOnUse" gradientTransform="translate(149.842 94.5139) rotate(94.7644) scale(48.1746 90.7786)">
<stop stop-color="#0A687D"/>
<stop offset="1" stop-color="#13BF49"/>
</radialGradient>
<linearGradient id="paint30_linear" x1="303.663" y1="105.516" x2="303.313" y2="398.086" gradientUnits="userSpaceOnUse">
<stop stop-color="#0A687D"/>
<stop offset="1" stop-color="#13BF49"/>
</linearGradient>
<linearGradient id="paint31_linear" x1="313.166" y1="122.019" x2="308.166" y2="212.034" gradientUnits="userSpaceOnUse">
<stop stop-color="#145566"/>
<stop offset="1" stop-color="#13BF49"/>
</linearGradient>
<linearGradient id="paint32_linear" x1="252.147" y1="154.024" x2="254.712" y2="398.086" gradientUnits="userSpaceOnUse">
<stop stop-color="#09816D" stop-opacity="0.789842"/>
<stop offset="1" stop-color="#13BF49"/>
</linearGradient>
<linearGradient id="paint33_linear" x1="292.16" y1="134.021" x2="245.653" y2="193.038" gradientUnits="userSpaceOnUse">
<stop stop-color="#09816D" stop-opacity="0.789842"/>
<stop offset="1" stop-color="#13BF49" stop-opacity="0.552486"/>
</linearGradient>
<linearGradient id="paint34_linear" x1="302.163" y1="150.023" x2="286.162" y2="191.032" gradientUnits="userSpaceOnUse">
<stop stop-color="#09816D" stop-opacity="0.789842"/>
<stop offset="1" stop-color="#13BF49"/>
</linearGradient>
<linearGradient id="paint35_linear" x1="305.664" y1="127.02" x2="283.663" y2="194.533" gradientUnits="userSpaceOnUse">
<stop stop-color="#09816D"/>
<stop offset="1" stop-color="#13BF49"/>
</linearGradient>
<linearGradient id="paint36_linear" x1="274.654" y1="136.021" x2="246.547" y2="191.734" gradientUnits="userSpaceOnUse">
<stop stop-color="#0A687D"/>
<stop offset="1" stop-color="#13BF49"/>
</linearGradient>
<linearGradient id="paint37_linear" x1="116.002" y1="335.27" x2="115.603" y2="436.072" gradientUnits="userSpaceOnUse">
<stop stop-color="#13BF49"/>
<stop offset="1" stop-color="#145566"/>
</linearGradient>
<linearGradient id="paint38_linear" x1="202.631" y1="228.037" x2="202.309" y2="375.239" gradientUnits="userSpaceOnUse">
<stop stop-color="#13BF49"/>
<stop offset="1" stop-color="#09816D"/>
</linearGradient>
</defs>
</svg>
