<svg width="26" height="26" viewBox="0 0 26 26" fill="none" xmlns="http://www.w3.org/2000/svg">
<path d="M23.3919 7.80348C23.1433 6.87398 22.412 6.1411 21.4825 5.89085C19.786 5.42448 12.9984 5.41798 12.9984 5.41798C12.9984 5.41798 6.2124 5.40985 4.51428 5.8551C3.60428 6.10373 2.8519 6.85285 2.60165 7.78073C2.15478 9.47723 2.1499 12.9954 2.1499 12.9954C2.1499 12.9954 2.14503 16.5314 2.59028 18.21C2.8389 19.1379 3.57015 19.8724 4.49965 20.1226C6.21403 20.589 12.9822 20.5955 12.9822 20.5955C12.9822 20.5955 19.7698 20.6036 21.4663 20.1584C22.3942 19.9097 23.1287 19.1769 23.3805 18.249C23.829 16.5541 23.8323 13.036 23.8323 13.036C23.8323 13.036 23.8534 9.49835 23.3919 7.80185V7.80348ZM10.829 16.2551L10.8339 9.7551L16.4743 13.01L10.8274 16.2551H10.829Z" fill="white"/>
</svg>
